<svg width="28" height="28" viewBox="0 0 28 28" fill="none" xmlns="http://www.w3.org/2000/svg">
<path d="M27.2013 19.7858L21.0763 17.1608C20.5388 16.9317 19.9145 17.0855 19.545 17.5381L16.8325 20.8522C12.5754 18.8451 9.14944 15.4191 7.14227 11.1621L10.4564 8.44952C10.91 8.08061 11.064 7.45567 10.8337 6.91825L8.20869 0.793178C7.95498 0.211507 7.32358 -0.10764 6.70477 0.033012L1.0172 1.34553C0.421652 1.48305 -0.000136913 2.01346 3.33381e-08 2.62468C3.33381e-08 16.6522 11.3697 28 25.3753 28C25.9867 28.0004 26.5174 27.5785 26.655 26.9828L27.9675 21.2952C28.1073 20.6734 27.7857 20.04 27.2013 19.7858Z" fill="#1391E6"/>
</svg>
