<svg width="24" height="24" viewBox="0 0 24 24" fill="none" xmlns="http://www.w3.org/2000/svg">
<path d="M19.4003 7.33986L16.6603 4.59986C15.92 3.90451 14.7761 3.87441 14.0003 4.52986L5.0003 13.5299C4.67707 13.8558 4.47581 14.2831 4.4303 14.7399L4.0003 18.9099C3.97303 19.2064 4.07934 19.4997 4.2903 19.7099C4.47902 19.897 4.7345 20.0014 5.0003 19.9999H5.0903L9.2603 19.6199C9.7171 19.5744 10.1443 19.3731 10.4703 19.0499L19.4703 10.0499C20.1976 9.28152 20.1663 8.06963 19.4003 7.33986L19.4003 7.33986ZM9.0803 17.6199L6.0803 17.8999L6.3503 14.8999L12.0003 9.31986L14.7003 12.0199L9.0803 17.6199ZM16.0003 10.6799L13.3203 7.99986L15.2703 5.99986L18.0003 8.72986L16.0003 10.6799Z" fill="#393939"/>
</svg>
