<svg width="24" height="24" viewBox="0 0 24 24" fill="none" xmlns="http://www.w3.org/2000/svg">
<path d="M19.74 8.33018L14.3 2.33018C14.1109 2.1207 13.8422 2.00085 13.56 2.00018L6.56 2.00018C5.16268 1.98352 4.01647 3.10286 4 4.50018L4 19.5002C4.01647 20.8975 5.16268 22.0169 6.56 22.0002H17.44C18.8373 22.0168 19.9835 20.8975 20 19.5002V9.00018C19.9994 8.75235 19.9067 8.51358 19.74 8.33018L19.74 8.33018ZM14 5.00018L16.74 8.00018H14.74C14.5285 7.98741 14.3309 7.89019 14.1918 7.73035C14.0526 7.57051 13.9835 7.36147 14 7.15018L14 5.00018ZM17.44 20.0002H6.56C6.41938 20.0084 6.28128 19.9602 6.17621 19.8664C6.07114 19.7726 6.00774 19.6408 6 19.5002V4.50018C6.00774 4.35954 6.07114 4.22776 6.17621 4.13394C6.28128 4.04013 6.41938 3.992 6.56 4.00018L12 4.00018V7.15018C11.9664 8.68358 13.1769 9.95657 14.71 10.0002H18V19.5002C17.9923 19.6408 17.9289 19.7726 17.8238 19.8664C17.7187 19.9602 17.5806 20.0084 17.44 20.0002Z" fill="#393939"/>
<path d="M15 16H9C8.44771 16 8 16.4477 8 17C8 17.5523 8.44772 18 9 18H15C15.5523 18 16 17.5523 16 17C16 16.4477 15.5523 16 15 16Z" fill="#393939"/>
<path d="M9 14H12C12.5523 14 13 13.5523 13 13C13 12.4477 12.5523 12 12 12H9C8.44771 12 8 12.4477 8 13C8 13.5523 8.44772 14 9 14Z" fill="#393939"/>
</svg>
