<svg width="24" height="24" viewBox="0 0 24 24" fill="none" xmlns="http://www.w3.org/2000/svg">
<path d="M7.36761 11.4966V9.81927C7.36761 9.54137 7.59292 9.31606 7.87082 9.31606H9.5482C9.8261 9.31606 10.0514 9.54137 10.0514 9.81927V11.4966C10.0514 11.7745 9.8261 11.9999 9.5482 11.9999H7.87082C7.59292 11.9999 7.36761 11.7745 7.36761 11.4966ZM13.2384 11.9999H14.9158C15.1937 11.9999 15.419 11.7745 15.419 11.4966V9.81927C15.419 9.54137 15.1937 9.31606 14.9158 9.31606H13.2384C12.9605 9.31606 12.7352 9.54137 12.7352 9.81927V11.4966C12.7352 11.7745 12.9605 11.9999 13.2384 11.9999ZM10.0514 15.5224V13.845C10.0514 13.5671 9.8261 13.3418 9.5482 13.3418H7.87082C7.59292 13.3418 7.36761 13.5671 7.36761 13.845V15.5224C7.36761 15.8003 7.59292 16.0256 7.87082 16.0256H9.5482C9.8261 16.0256 10.0514 15.8003 10.0514 15.5224ZM13.2384 16.0256H14.9158C15.1937 16.0256 15.419 15.8003 15.419 15.5224V13.845C15.419 13.5671 15.1937 13.3418 14.9158 13.3418H13.2384C12.9605 13.3418 12.7352 13.5671 12.7352 13.845V15.5224C12.7352 15.8003 12.9605 16.0256 13.2384 16.0256ZM20.7866 21.2254V22.7351H2V21.2254C2 20.9475 2.22531 20.7222 2.50321 20.7222H3.32093V4.83054C3.32093 4.34339 3.77152 3.94845 4.32736 3.94845H8.03856V2.27107C8.03856 1.71523 8.48914 1.26465 9.04498 1.26465H13.7416C14.2975 1.26465 14.7481 1.71523 14.7481 2.27107V3.94845H18.4593C19.0151 3.94845 19.4657 4.34339 19.4657 4.83054V20.7222H20.2834C20.5613 20.7222 20.7866 20.9475 20.7866 21.2254ZM5.33379 20.6803H10.0514V17.8707C10.0514 17.5928 10.2767 17.3675 10.5546 17.3675H12.232C12.5099 17.3675 12.7352 17.5928 12.7352 17.8707V20.6803H17.4528V5.9613H14.7481V6.96773C14.7481 7.52357 14.2975 7.97416 13.7416 7.97416H9.04498C8.48914 7.97416 8.03856 7.52357 8.03856 6.96773V5.9613H5.33379V20.6803ZM13.1546 3.94845H12.0643V2.85816C12.0643 2.7192 11.9516 2.60655 11.8127 2.60655H10.974C10.835 2.60655 10.7224 2.7192 10.7224 2.85816V3.94845H9.63206C9.49311 3.94845 9.38046 4.0611 9.38046 4.20006V5.03875C9.38046 5.1777 9.49311 5.29035 9.63206 5.29035H10.7224V6.38065C10.7224 6.51961 10.835 6.63225 10.974 6.63225H11.8127C11.9516 6.63225 12.0643 6.51961 12.0643 6.38065V5.29035H13.1546C13.2935 5.29035 13.4062 5.1777 13.4062 5.03875V4.20006C13.4062 4.0611 13.2935 3.94845 13.1546 3.94845Z" fill="#393939"/>
</svg>
