<svg width="24" height="24" viewBox="0 0 24 24" fill="none" xmlns="http://www.w3.org/2000/svg">
<path d="M21.7728 8.02808H17.5559C17.0571 8.02808 16.6523 8.50286 16.6523 9.08806V18.2746C16.6523 18.8598 17.0571 19.3346 17.5559 19.3346H21.7728C22.2716 19.3346 22.6764 18.8598 22.6764 18.2746V9.08806C22.6764 8.50286 22.2716 8.02808 21.7728 8.02808ZM19.6644 18.6279C19.3312 18.6279 19.062 18.3121 19.062 17.9212C19.062 17.5304 19.3312 17.2146 19.6644 17.2146C19.9976 17.2146 20.2668 17.5304 20.2668 17.9212C20.2668 18.3121 19.9976 18.6279 19.6644 18.6279ZM21.7728 16.2429C21.7728 16.3887 21.6711 16.5079 21.5469 16.5079H17.7818C17.6576 16.5079 17.5559 16.3887 17.5559 16.2429V9.35305C17.5559 9.20731 17.6576 9.08806 17.7818 9.08806H21.5469C21.6711 9.08806 21.7728 9.20731 21.7728 9.35305V16.2429Z" fill="white"/>
<path d="M14.2199 4.66553H2.49655C1.84933 4.66553 1.32422 5.28151 1.32422 6.04074V15.2088C1.32422 15.9681 1.84933 16.5841 2.49655 16.5841H7.18587L6.79509 17.9593H5.0366C4.71177 17.9593 4.45043 18.2658 4.45043 18.6469C4.45043 19.0279 4.71177 19.3345 5.0366 19.3345H11.6798C12.0046 19.3345 12.266 19.0279 12.266 18.6469C12.266 18.2658 12.0046 17.9593 11.6798 17.9593H9.92131L9.53053 16.5841H14.2199C14.8671 16.5841 15.3922 15.9681 15.3922 15.2088V6.04074C15.3922 5.28151 14.8671 4.66553 14.2199 4.66553ZM13.8291 14.7504H2.88733V6.49915H13.8291V14.7504Z" fill="white"/>
</svg>
