<svg width="24" height="24" viewBox="0 0 24 24" fill="none" xmlns="http://www.w3.org/2000/svg">
<path d="M20.4201 10.1778L12.7101 2.29775C12.5223 2.10844 12.2668 2.00195 12.0001 2.00195C11.7335 2.00195 11.4779 2.10844 11.2901 2.29775L3.58012 10.1878C3.20327 10.5676 2.99437 11.0827 3.00012 11.6178V19.9978C2.99851 21.0608 3.82872 21.9393 4.89011 21.9978H19.1101C20.1715 21.9393 21.0017 21.0608 21.0001 19.9978V11.6178C21.0009 11.0807 20.7929 10.5643 20.4201 10.1778V10.1778ZM10.0001 19.9978V13.9978H14.0001V19.9978H10.0001ZM19.0001 19.9978H16.0001V12.9978C16.0001 12.4455 15.5524 11.9978 15.0001 11.9978H9.00012C8.44783 11.9978 8.00012 12.4455 8.00012 12.9978V19.9978H5.00012V11.5778L12.0001 4.42775L19.0001 11.6178V19.9978Z" fill="#1391E6"/>
</svg>
