<svg width="46" height="28" viewBox="0 0 46 28" fill="none" xmlns="http://www.w3.org/2000/svg">
<path d="M42.6329 6.83838H34.0469C33.0311 6.83838 32.207 7.66277 32.207 8.67887V24.6298C32.207 25.6459 33.0311 26.4703 34.0469 26.4703H42.6329C43.6487 26.4703 44.4728 25.6459 44.4728 24.6298V8.67887C44.4728 7.66277 43.6487 6.83838 42.6329 6.83838ZM38.3399 25.2433C37.6615 25.2433 37.1133 24.695 37.1133 24.0163C37.1133 23.3377 37.6615 22.7893 38.3399 22.7893C39.0184 22.7893 39.5665 23.3377 39.5665 24.0163C39.5665 24.695 39.0184 25.2433 38.3399 25.2433ZM42.6329 21.1022C42.6329 21.3553 42.4259 21.5623 42.173 21.5623H34.5069C34.2539 21.5623 34.0469 21.3553 34.0469 21.1022V9.139C34.0469 8.88593 34.2539 8.67887 34.5069 8.67887H42.173C42.4259 8.67887 42.6329 8.88593 42.6329 9.139V21.1022Z" fill="white"/>
<path d="M27.2524 1H3.38214C2.06431 1 0.995117 2.06956 0.995117 3.38785V19.3068C0.995117 20.6251 2.06431 21.6947 3.38214 21.6947H12.9303L12.1346 24.0825H8.55403C7.89263 24.0825 7.36052 24.6148 7.36052 25.2765C7.36052 25.9381 7.89263 26.4704 8.55403 26.4704H22.0805C22.7419 26.4704 23.274 25.9381 23.274 25.2765C23.274 24.6148 22.7419 24.0825 22.0805 24.0825H18.5L17.7043 21.6947H27.2524C28.5702 21.6947 29.6394 20.6251 29.6394 19.3068V3.38785C29.6394 2.06956 28.5702 1 27.2524 1ZM26.4567 18.5109H4.17782V4.1838H26.4567V18.5109Z" fill="white"/>
</svg>
