<svg width="270" height="32" viewBox="0 0 270 32" fill="none" xmlns="http://www.w3.org/2000/svg">
<path d="M31.1767 5.66049C30.261 4.884 29.1488 4.33399 27.9865 3.99788C25.7829 3.36111 23.4366 4.17113 21.9531 5.95508C21.1144 6.96328 19.8646 7.60273 18.4686 7.60273C17.1236 7.60273 15.9154 7.00924 15.0785 6.06469C13.4288 4.20131 10.9301 3.32835 8.59158 4.10666C7.56768 4.4471 6.59315 4.96182 5.76918 5.66049C0.51044 10.1278 4.0633 20.517 4.6977 22.3477C6.52823 27.6163 10.1391 31.9898 12.1808 31.9916C13.7136 31.9933 14.65 32.0438 15.8756 27.0122C16.1975 25.6971 16.909 24.8004 17.6031 24.3413C18.0662 24.0352 18.672 24.0335 19.1428 24.3272C19.8716 24.7818 20.6471 25.6839 20.9716 27.0122C22.1981 32.0438 23.3033 32.0401 24.7175 31.9916C26.7549 31.9226 30.3969 27.6163 32.2231 22.3477C32.8567 20.517 36.4355 10.1278 31.1767 5.66049Z" fill="#1391E6"/>
<path d="M14.4645 17.2517C14.4645 19.3234 16.1101 21.0028 18.14 21.0028C20.1699 21.0028 21.8155 19.3234 21.8155 17.2517C20.7694 17.2517 14.4645 17.2517 14.4645 17.2517Z" fill="white"/>
<path d="M1.65075 6.3883C1.74272 6.71173 2.07704 7.05163 2.39395 7.1455L2.6077 7.20892C2.92462 7.30151 2.92462 7.45499 2.6077 7.54756L2.39395 7.61098C2.07704 7.70484 1.74272 8.04474 1.65075 8.36818L1.58861 8.5876C1.49789 8.91102 1.3475 8.91102 1.25679 8.5876L1.19464 8.36818C1.10391 8.04474 0.769605 7.70484 0.452696 7.61098L0.237684 7.54756C-0.079228 7.45499 -0.079228 7.30151 0.237684 7.20892L0.452696 7.1455C0.769605 7.05163 1.10391 6.71173 1.19464 6.3883L1.25679 6.16889C1.3475 5.84546 1.49789 5.84546 1.58861 6.16889L1.65075 6.3883Z" fill="#1391E6"/>
<path d="M4.44682 0.942061C4.63449 1.6016 5.31555 2.29793 5.9618 2.48817L6.40051 2.61627C7.04677 2.80779 7.04677 3.1198 6.40051 3.31005L5.9618 3.43817C5.31555 3.62841 4.63449 4.32474 4.44682 4.98426L4.32131 5.43072C4.13488 6.09153 3.82916 6.09153 3.64274 5.43072L3.51598 4.98426C3.32956 4.32474 2.64725 3.62841 2.001 3.43817L1.56354 3.31005C0.917275 3.1198 0.917275 2.80779 1.56354 2.61627L2.001 2.48817C2.64725 2.29793 3.32956 1.6016 3.51598 0.942061L3.64274 0.495614C3.82916 -0.165205 4.13488 -0.165205 4.32131 0.495614L4.44682 0.942061Z" fill="#1391E6"/>
<path d="M14.0855 11.8655C14.0855 11.3057 14.5393 10.8519 15.0991 10.8519C15.6589 10.8519 16.1127 11.3057 16.1127 11.8655V13.976C16.1127 14.5358 15.6589 14.9896 15.0991 14.9896C14.5393 14.9896 14.0855 14.5358 14.0855 13.976V11.8655Z" fill="white"/>
<path d="M20.1669 11.8655C20.1669 11.3057 20.6207 10.8519 21.1805 10.8519C21.7403 10.8519 22.1941 11.3057 22.1941 11.8655V13.976C22.1941 14.5358 21.7403 14.9896 21.1805 14.9896C20.6207 14.9896 20.1669 14.5358 20.1669 13.976V11.8655Z" fill="white"/>
<path d="M48.4455 5.57862H52.9898C55.641 5.59863 56.8909 7.14439 56.7395 10.2169C56.6257 11.4218 56.4742 12.837 56.2852 14.4634C57.0988 14.7446 57.9226 15.0866 58.7559 15.4875C58.8508 14.624 58.9458 13.4601 59.0399 11.9941C59.1161 10.6688 59.7312 10.0057 60.8869 10.0057C62.1933 10.0455 62.8272 10.7087 62.7896 11.9941C62.657 14.1623 62.515 15.9195 62.3635 17.2648L63.4996 17.9578C64.8821 18.6409 65.2987 19.8457 64.7495 21.572C64.1053 22.7975 63.2344 23.0788 62.1368 22.4156L61.6534 22.1444C61.4071 23.4698 60.8484 25.5282 59.9775 28.3194C59.3719 29.6239 58.4625 30.0259 57.2511 29.5243C56.0012 28.881 55.6598 27.9176 56.2279 26.6321C57.1373 24.2835 57.7336 22.1245 58.0176 20.1568C57.5821 19.9364 57.1561 19.7295 56.7395 19.5391C56.3228 19.3485 55.9156 19.1725 55.5178 19.012L55.4896 19.0728C55.1867 20.3972 54.7317 21.7626 54.1259 23.1686C53.5202 24.5748 52.7957 25.7596 51.953 26.7228C51.1103 27.6872 50.1684 28.2088 49.1273 28.2896C47.6499 28.2687 46.5463 27.5566 45.8174 26.1504C45.0885 24.7444 44.8473 22.8674 45.0936 20.5179C45.2827 19.1925 45.7703 18.0332 46.5565 17.0389C47.3419 16.0456 48.2513 15.2617 49.283 14.6893C50.3147 14.1178 51.4182 13.8012 52.5919 13.7413C52.6681 13.099 52.7341 12.4757 52.7913 11.8735C52.8667 10.9091 52.545 10.4176 51.8255 10.3974H48.4455C46.9304 10.3974 46.1725 9.59385 46.1725 7.98802C46.1725 6.38142 46.9304 5.57862 48.4455 5.57862ZM49.2693 23.4399C49.6851 23.419 50.0503 23.1486 50.3626 22.6261C50.6748 22.1045 50.9349 21.5022 51.1437 20.819C51.3516 20.1359 51.5132 19.529 51.6262 18.9965C51.7399 18.465 51.7973 18.1892 51.7973 18.1683C51.1719 18.1683 50.6227 18.3398 50.1496 18.6809C49.6757 19.022 49.3206 19.4238 49.0845 19.8856C48.8476 20.3474 48.6816 20.7592 48.5875 21.1202C48.454 21.9041 48.4874 22.4855 48.6867 22.8674C48.8852 23.2494 49.0794 23.4399 49.2693 23.4399Z" fill="#1391E6"/>
<path d="M67.4494 9.91577C67.4494 8.40981 68.1594 7.65697 69.5795 7.65697H71.0279L71.3402 5.84886C71.5489 4.78475 72.2872 4.24316 73.5559 4.22228C74.8819 4.30319 75.4311 4.92535 75.2036 6.09025C75.0898 6.57181 75.0051 7.09355 74.9478 7.65697H76.4252C77.8453 7.65697 78.5554 8.40981 78.5554 9.91577C78.5554 11.4416 77.8453 12.2045 76.4252 12.2045H74.2659C72.922 18.2082 72.1169 21.8134 71.8518 23.0179C71.5677 24.2026 70.7721 24.6844 69.4658 24.464C68.1783 24.1629 67.6855 23.359 67.9884 22.0545C69.1817 17.4362 69.9389 14.153 70.2614 12.2045H69.5795C68.1594 12.2045 67.4494 11.4416 67.4494 9.91577ZM83.4411 15.0965V18.0485C84.2932 18.3696 85.3532 18.9012 86.6227 19.6442C87.4362 20.2865 87.5501 21.2109 86.9632 22.4155C86.3002 23.3998 85.5054 23.6003 84.5772 23.0179C84.312 22.8773 83.933 22.7068 83.4411 22.5063V24.464C83.4411 25.9899 83.1999 27.1392 82.7165 27.913C82.234 28.685 81.6514 29.2075 80.9696 29.4789C80.2878 29.7502 79.5965 29.8851 78.8959 29.8851C77.9873 29.9251 77.0925 29.7745 76.2122 29.4334C75.331 29.0915 74.5833 28.4801 73.9682 27.5965C73.3523 26.7127 73.0452 25.4674 73.0452 23.8616C73.064 21.7933 73.6646 20.1712 74.8486 18.9965C76.0317 17.8225 77.6648 17.3046 79.7488 17.4461V15.0965C79.7488 13.7911 80.3639 13.1381 81.595 13.1381C82.8252 13.1381 83.4411 13.7911 83.4411 15.0965ZM78.8959 25.6387C79.1799 25.6178 79.3929 25.4674 79.5349 25.187C79.6778 24.9057 79.7488 24.5339 79.7488 24.0722V21.512C78.7256 21.3514 77.9488 21.482 77.4193 21.904C76.8889 22.3248 76.5954 22.9073 76.539 23.6501C76.5193 24.3942 76.7229 24.9257 77.149 25.2468C77.5751 25.5688 78.1576 25.6987 78.8959 25.6387ZM79.9755 8.83065C80.3545 7.44546 81.2254 6.94289 82.5891 7.32475L85.1453 8.04783C86.5089 8.4497 87.0008 9.33329 86.6227 10.6986C86.2249 12.0839 85.3446 12.5864 83.981 12.2045L81.453 11.4815C80.0696 11.0996 79.5777 10.2168 79.9755 8.83065Z" fill="#1391E6"/>
<path d="M93.5808 5.57862H98.1261C100.777 5.59863 102.027 7.14439 101.876 10.2169C101.762 11.4218 101.61 12.837 101.421 14.4634C102.235 14.7446 103.059 15.0866 103.892 15.4875C103.987 14.624 104.081 13.4601 104.176 11.9941C104.251 10.6688 104.867 10.0057 106.022 10.0057C107.33 10.0455 107.963 10.7087 107.926 11.9941C107.793 14.1623 107.651 15.9195 107.5 17.2648L108.636 17.9578C110.018 18.6409 110.435 19.8457 109.886 21.572C109.242 22.7975 108.371 23.0788 107.272 22.4156L106.79 22.1444C106.543 23.4698 105.984 25.5282 105.114 28.3194C104.507 29.6239 103.598 30.0259 102.387 29.5243C101.137 28.881 100.796 27.9176 101.364 26.6321C102.274 24.2835 102.87 22.1245 103.154 20.1568C102.718 19.9364 102.292 19.7295 101.876 19.5391C101.458 19.3485 101.052 19.1725 100.654 19.012L100.626 19.0728C100.322 20.3972 99.8679 21.7626 99.2622 23.1686C98.6556 24.5748 97.9311 25.7596 97.0893 26.7228C96.2466 27.6872 95.3047 28.2088 94.2627 28.2896C92.7861 28.2687 91.6825 27.5566 90.9536 26.1504C90.2248 24.7444 89.9827 22.8674 90.229 20.5179C90.419 19.1925 90.9057 18.0332 91.6919 17.0389C92.4782 16.0456 93.3867 15.2617 94.4192 14.6893C95.451 14.1178 96.5537 13.8012 97.7283 13.7413C97.8036 13.099 97.8703 12.4757 97.9277 11.8735C98.0021 10.9091 97.6804 10.4176 96.9618 10.3974H93.5808C92.0658 10.3974 91.3087 9.59385 91.3087 7.98802C91.3087 6.38142 92.0658 5.57862 93.5808 5.57862ZM94.4047 23.4399C94.8213 23.419 95.1858 23.1486 95.4989 22.6261C95.8111 22.1045 96.0712 21.5022 96.28 20.819C96.4879 20.1359 96.6487 19.529 96.7625 18.9965C96.8762 18.465 96.9328 18.1892 96.9328 18.1683C96.3082 18.1683 95.7589 18.3398 95.2859 18.6809C94.8119 19.022 94.4569 19.4238 94.2208 19.8856C93.9838 20.3474 93.8179 20.7592 93.7229 21.1202C93.5903 21.9041 93.6236 22.4855 93.823 22.8674C94.0215 23.2494 94.2157 23.4399 94.4047 23.4399Z" fill="#1391E6"/>
<path d="M127.753 7.05353C127.753 7.25494 127.847 7.35457 128.037 7.35457H137.269C137.779 7.35457 138.215 7.54516 138.575 7.92705C138.934 8.30901 139.115 8.76531 139.115 9.2979C139.115 9.83032 138.934 10.2867 138.575 10.6685C138.215 11.0505 137.779 11.241 137.269 11.241H114.09C113.597 11.241 113.171 11.0505 112.812 10.6685C112.451 10.2867 112.272 9.83032 112.272 9.2979C112.272 8.76531 112.451 8.30901 112.812 7.92705C113.171 7.54516 113.597 7.35457 114.09 7.35457H116.021C116.21 7.35457 116.305 7.25494 116.305 7.05353V4.70487C116.305 4.12245 116.504 3.61991 116.902 3.19806C117.3 2.77715 117.773 2.56577 118.322 2.56577C118.871 2.56577 119.345 2.77715 119.743 3.19806C120.14 3.61991 120.339 4.12245 120.339 4.70487V7.05353C120.339 7.25494 120.433 7.35457 120.623 7.35457H123.265C123.453 7.35457 123.549 7.25494 123.549 7.05353V3.22889C123.549 2.6056 123.752 2.07861 124.16 1.64686C124.566 1.21588 125.063 1 125.651 1H126.304C126.701 1 127.043 1.15057 127.327 1.45177C127.611 1.75294 127.753 2.11397 127.753 2.53579C127.753 2.65647 127.809 2.71634 127.923 2.71634H134.712C135.167 2.71634 135.554 2.88776 135.877 3.22889C136.198 3.56998 136.359 3.98726 136.359 4.47899C136.359 4.97058 136.198 5.38793 135.877 5.72905C135.554 6.06924 135.167 6.24066 134.712 6.24066H128.037C127.847 6.24066 127.753 6.34052 127.753 6.54189V7.05353ZM133.349 25.3375C133.538 25.3375 133.633 25.2367 133.633 25.0363V14.0722C133.633 13.4699 133.831 12.9573 134.229 12.5355C134.627 12.1146 135.109 11.9032 135.677 11.9032C136.246 11.9032 136.729 12.1146 137.127 12.5355C137.524 12.9573 137.723 13.4699 137.723 14.0722V28.1987C137.723 28.801 137.524 29.3135 137.127 29.7345C136.729 30.1564 136.246 30.3677 135.677 30.3677H134.655C134.371 30.3677 134.13 30.2615 133.93 30.0512C133.732 29.8406 133.633 29.584 133.633 29.2828C133.633 29.202 133.594 29.1629 133.519 29.1629H117.896C117.82 29.1629 117.782 29.202 117.782 29.2828C117.782 29.584 117.683 29.8406 117.484 30.0512C117.285 30.2615 117.044 30.3677 116.76 30.3677H115.766C115.216 30.3677 114.743 30.1564 114.346 29.7345C113.948 29.3135 113.749 28.811 113.749 28.2286V14.0423C113.749 13.4599 113.948 12.9573 114.346 12.5355C114.743 12.1146 115.216 11.9032 115.766 11.9032C116.315 11.9032 116.788 12.1146 117.186 12.5355C117.584 12.9573 117.782 13.4599 117.782 14.0423V21.4521C117.782 21.5319 117.811 21.5927 117.868 21.6326C117.925 21.6724 117.981 21.6825 118.038 21.6625C119.363 21.1201 120.603 20.3471 121.759 19.3429C121.797 19.3229 121.811 19.2884 121.802 19.2377C121.792 19.1869 121.759 19.1623 121.703 19.1623H119.856C119.439 19.1623 119.084 19.0063 118.791 18.6952C118.496 18.385 118.351 18.0085 118.351 17.5658C118.351 17.1239 118.496 16.7475 118.791 16.4364C119.084 16.1252 119.439 15.9701 119.856 15.9701H119.885C119.998 15.9701 120.035 15.9092 119.998 15.7886C119.846 15.3877 119.657 14.9758 119.43 14.5539C119.316 14.3336 119.259 14.1122 119.259 13.8918C119.259 13.7312 119.278 13.5806 119.316 13.44C119.449 13.0381 119.695 12.7768 120.055 12.6562C120.282 12.5563 120.519 12.5056 120.765 12.5056C120.954 12.5056 121.143 12.5265 121.333 12.5664C121.769 12.707 122.1 12.9783 122.327 13.3792C122.365 13.4191 122.403 13.4699 122.441 13.5298C122.573 13.791 122.64 14.0514 122.64 14.3127C122.64 14.4941 122.611 14.6845 122.555 14.885C122.384 15.3468 122.072 15.678 121.617 15.8794H121.589C121.569 15.8993 121.564 15.9192 121.574 15.9391C121.584 15.96 121.598 15.9701 121.617 15.9701H123.435C123.624 15.9701 123.719 15.8693 123.719 15.6688V13.801C123.719 13.2794 123.894 12.8321 124.244 12.4602C124.594 12.0892 125.016 11.9032 125.509 11.9032C126.001 11.9032 126.422 12.0892 126.772 12.4602C127.122 12.8321 127.299 13.2794 127.299 13.801V15.6688C127.299 15.8693 127.393 15.9701 127.583 15.9701H129.827C129.845 15.9701 129.859 15.96 129.868 15.9391C129.878 15.9192 129.873 15.9092 129.855 15.9092L129.627 15.8194C129.211 15.678 128.917 15.3877 128.747 14.9459C128.671 14.7445 128.633 14.544 128.633 14.3434C128.633 14.1023 128.68 13.8709 128.775 13.6504C128.983 13.1887 129.296 12.8366 129.713 12.5963C129.977 12.4557 130.253 12.3849 130.537 12.3849C130.707 12.3849 130.867 12.4158 131.019 12.4756H131.076C131.473 12.5963 131.748 12.8675 131.899 13.2894C131.957 13.449 131.985 13.6105 131.985 13.771C131.985 14.0323 131.909 14.2726 131.757 14.4941C131.36 15.1164 131.085 15.5383 130.934 15.7586C130.896 15.7986 130.892 15.844 130.92 15.8947C130.948 15.9447 130.981 15.9701 131.019 15.9701H131.531C131.947 15.9701 132.302 16.1252 132.596 16.4364C132.889 16.7475 133.036 17.1239 133.036 17.5658C133.036 18.0085 132.889 18.385 132.596 18.6952C132.302 19.0063 131.947 19.1623 131.531 19.1623H129.543C129.485 19.1623 129.452 19.1869 129.442 19.2377C129.433 19.2884 129.447 19.3229 129.485 19.3429C130.242 20.006 131.047 20.5576 131.899 21.0004C132.259 21.2008 132.477 21.522 132.553 21.9637C132.572 22.0444 132.581 22.1342 132.581 22.235C132.581 22.5362 132.477 22.8165 132.269 23.0787C131.909 23.4994 131.492 23.7707 131.019 23.8915C130.887 23.9313 130.744 23.9514 130.593 23.9514C130.271 23.9514 129.958 23.8515 129.655 23.6501C128.898 23.0877 128.179 22.4453 127.497 21.7224C127.459 21.6825 127.416 21.6724 127.37 21.6924C127.322 21.7133 127.299 21.7533 127.299 21.8131V22.9279C127.299 23.4496 127.122 23.8969 126.772 24.2679C126.422 24.639 126.001 24.8249 125.509 24.8249C125.016 24.8249 124.594 24.639 124.244 24.2679C123.894 23.8969 123.719 23.4496 123.719 22.9279V21.9338C123.719 21.873 123.695 21.833 123.648 21.8131C123.6 21.7932 123.558 21.8031 123.521 21.8431C122.989 22.4254 122.45 22.9371 121.901 23.3798C121.465 23.7009 121.011 23.8616 120.538 23.8616C120.367 23.8616 120.197 23.8406 120.027 23.8008C119.363 23.641 118.786 23.2681 118.294 22.6868C118.18 22.5869 118.075 22.4753 117.981 22.3555C117.943 22.3157 117.9 22.3048 117.854 22.3248C117.806 22.3456 117.782 22.3855 117.782 22.4453V25.0363C117.782 25.2367 117.877 25.3375 118.067 25.3375H133.349Z" fill="#1391E6"/>
<path d="M151.414 17.0541C151.83 17.5158 152.057 18.0574 152.096 18.6807V18.8611C152.096 19.4237 151.934 19.9361 151.612 20.3971C151.366 20.759 151.044 20.9394 150.647 20.9394C150.609 20.9394 150.562 20.9295 150.504 20.9096C150.05 20.8697 149.719 20.6383 149.51 20.2166C149.435 20.0958 149.368 19.976 149.312 19.8555C149.293 19.8155 149.264 19.8001 149.226 19.81C149.188 19.8201 149.17 19.8454 149.17 19.8854V28.831C149.17 29.4333 148.971 29.9461 148.574 30.3677C148.176 30.7897 147.692 31 147.124 31C146.556 31 146.074 30.7897 145.676 30.3677C145.278 29.9461 145.08 29.4333 145.08 28.831V21.7832C145.08 21.7432 145.065 21.7179 145.037 21.7079C145.009 21.6979 144.984 21.7133 144.966 21.7532C144.549 22.7375 144.142 23.6002 143.744 24.3432C143.536 24.7252 143.233 24.9156 142.836 24.9156H142.694C142.22 24.8558 141.878 24.5936 141.671 24.1328C141.424 23.5903 141.302 23.0079 141.302 22.3856V22.0843C141.358 21.3814 141.566 20.7191 141.926 20.0958C142.836 18.57 143.668 16.8129 144.426 14.8252C144.445 14.7445 144.436 14.6746 144.398 14.6137C144.359 14.554 144.312 14.524 144.256 14.524H142.92C142.371 14.524 141.908 14.3226 141.529 13.9217C141.15 13.5198 140.961 13.0327 140.961 12.4602C140.961 11.8887 141.15 11.397 141.529 10.9843C141.908 10.5724 142.371 10.3673 142.92 10.3673H144.796C144.984 10.3673 145.08 10.2668 145.08 10.0662V7.80731C145.08 7.72668 145.051 7.6613 144.994 7.61141C144.938 7.56067 144.871 7.53609 144.796 7.53609C144.454 7.59603 144.17 7.6468 143.944 7.68672C143.848 7.70677 143.754 7.71664 143.66 7.71664C143.299 7.71664 142.958 7.59603 142.636 7.35467C142.239 7.0535 141.955 6.65257 141.784 6.15003C141.728 5.96951 141.7 5.78905 141.7 5.60844C141.7 5.36707 141.756 5.12591 141.87 4.88536C142.078 4.48355 142.399 4.2431 142.836 4.16234C144.899 3.74059 146.831 3.22895 148.63 2.62649C148.914 2.52585 149.198 2.47598 149.482 2.47598C149.766 2.47598 150.06 2.52585 150.362 2.62649C150.949 2.82702 151.404 3.19806 151.726 3.74059C151.915 4.02171 152.01 4.32291 152.01 4.64412C152.01 4.82464 151.972 5.01514 151.896 5.21657C151.726 5.73815 151.395 6.06914 150.902 6.21067C150.429 6.35143 149.946 6.48202 149.454 6.60173C149.264 6.64159 149.17 6.76234 149.17 6.96371V10.0662C149.17 10.2668 149.264 10.3673 149.454 10.3673H150.789C151.338 10.3673 151.801 10.5724 152.18 10.9843C152.559 11.397 152.749 11.8887 152.749 12.4602C152.749 13.0327 152.559 13.5198 152.18 13.9217C151.801 14.3226 151.338 14.524 150.789 14.524H149.226C149.188 14.524 149.17 14.544 149.17 14.5839C149.17 14.624 149.188 14.6537 149.226 14.6746C149.605 15.0358 150.334 15.8285 151.414 17.0541ZM168.344 20.6084C168.362 20.7291 168.372 20.8487 168.372 20.9695C168.372 21.4121 168.248 21.8231 168.003 22.2051C167.68 22.6867 167.245 22.978 166.696 23.0786L165.702 23.2891C165.512 23.309 165.418 23.4188 165.418 23.6203V28.771C165.418 29.3736 165.214 29.8897 164.807 30.3225C164.399 30.7534 163.908 30.9701 163.33 30.9701C162.752 30.9701 162.26 30.7534 161.854 30.3225C161.445 29.8897 161.243 29.3736 161.243 28.771V24.4339C161.243 24.3532 161.214 24.2888 161.157 24.238C161.101 24.1871 161.043 24.1726 160.987 24.1926L154.851 25.3674C154.719 25.3873 154.595 25.3974 154.482 25.3974C154.065 25.3974 153.686 25.2676 153.346 25.0063C152.891 24.6652 152.616 24.2026 152.522 23.6203C152.502 23.4995 152.493 23.3699 152.493 23.2293C152.493 22.7866 152.616 22.3756 152.862 21.9937C153.184 21.4911 153.63 21.1899 154.198 21.0901L160.987 19.7947C161.157 19.7747 161.243 19.6649 161.243 19.4636V3.89116C161.243 3.26878 161.445 2.74189 161.854 2.30997C162.26 1.87808 162.752 1.66224 163.33 1.66224C163.908 1.66224 164.399 1.87808 164.807 2.30997C165.214 2.74189 165.418 3.26878 165.418 3.89116V18.6807C165.418 18.7615 165.447 18.8258 165.503 18.8766C165.56 18.9266 165.617 18.9419 165.673 18.921L166.043 18.8611C166.175 18.8412 166.299 18.8313 166.412 18.8313C166.81 18.8313 167.188 18.9611 167.549 19.2231C168.003 19.5633 168.268 20.026 168.344 20.6084ZM154.14 15.3677C153.781 15.0057 153.601 14.5739 153.601 14.0723C153.601 13.5697 153.781 13.1478 154.14 12.8067C154.539 12.4248 154.993 12.2254 155.505 12.2046H155.59C156.082 12.2046 156.517 12.3758 156.897 12.7169C157.596 13.3592 158.212 13.9516 158.743 14.4941C159.102 14.8951 159.283 15.3577 159.283 15.8794C159.283 16.5217 159.055 17.0641 158.601 17.5058C158.26 17.847 157.863 18.0174 157.407 18.0174H157.237C156.726 17.9578 156.29 17.7164 155.931 17.2955C155.4 16.6721 154.803 16.0299 154.14 15.3677ZM159.651 6.36134C159.993 6.74323 160.163 7.18415 160.163 7.68672V7.89719C160.107 8.47965 159.869 8.9614 159.453 9.34316C159.112 9.66431 158.733 9.82491 158.317 9.82491C158.241 9.82491 158.165 9.81494 158.089 9.79499C157.559 9.73509 157.123 9.49383 156.783 9.07198C156.309 8.46958 155.761 7.84642 155.135 7.20426C154.795 6.8632 154.624 6.44206 154.624 5.93946C154.624 5.41788 154.813 4.98522 155.192 4.64412C155.59 4.28318 156.053 4.10253 156.584 4.10253C157.114 4.10253 157.568 4.28318 157.947 4.64412C158.591 5.24643 159.159 5.81888 159.651 6.36134Z" fill="#1391E6"/>
<path d="M179.28 7.4156H184.308C187.678 7.37564 189.098 9.3224 188.568 13.2587C188.322 15.0458 187.782 16.939 186.95 18.9366C186.116 20.9341 185.089 22.5762 183.867 23.8616C182.646 25.147 181.382 26.1803 180.075 26.9641C178.769 27.747 177.358 28.4401 175.843 29.0426C174.498 29.584 173.514 29.1822 172.889 27.8378C172.491 26.2919 172.898 25.2677 174.111 24.7652C174.679 24.6046 175.492 24.2526 176.553 23.711C177.614 23.1685 178.721 22.3457 179.877 21.2408C181.031 20.1359 181.964 18.8614 182.675 17.4153C183.385 15.9701 183.806 14.6648 183.939 13.4999C184.07 12.4558 183.636 11.9243 182.632 11.9032H177.547C176.449 13.7911 175.35 15.287 174.253 16.3911C173.135 17.516 172.075 17.6765 171.071 16.8738C170.143 15.5484 170.152 14.3735 171.099 13.3494C171.629 12.8468 172.254 12.0639 172.974 10.9998C173.693 9.93574 174.384 8.35903 175.047 6.2708C175.445 4.76483 176.43 4.16246 178.002 4.4636C179.309 4.86459 179.735 5.84895 179.28 7.4156Z" fill="#1391E6"/>
<path d="M192.972 6.9639C192.972 5.41817 193.7 4.64435 195.158 4.64435C196.636 4.64435 197.374 5.41817 197.374 6.9639V16.4521C197.374 17.9979 196.645 18.7708 195.187 18.7708C193.71 18.7708 192.972 17.9979 192.972 16.4521V6.9639ZM198.34 24.7045C199.835 24.0822 200.92 23.3892 201.592 22.6262C202.264 21.8643 202.842 20.9244 203.325 19.8104C203.808 18.6955 204.059 17.3157 204.078 15.6692V6.9639C204.078 5.41817 204.807 4.64435 206.265 4.64435C207.742 4.64435 208.481 5.41817 208.481 6.9639V15.6692C208.461 18.1784 208.083 20.3129 207.344 22.0692C206.606 23.8263 205.63 25.2469 204.419 26.3312C203.207 27.416 201.673 28.3595 199.817 29.1634C198.321 29.645 197.336 29.1634 196.862 27.7172C196.578 26.1107 197.071 25.1064 198.34 24.7045Z" fill="#1391E6"/>
<path d="M228.449 23.3801C229.927 23.3801 230.665 24.1631 230.665 25.7286C230.665 27.3153 229.927 28.1083 228.449 28.1083H214.872C213.395 28.1083 212.656 27.3253 212.656 25.7596C212.656 24.1728 213.395 23.3801 214.872 23.3801H228.449ZM213.196 8.4101C213.196 6.84339 213.935 6.06043 215.412 6.06043H227.853C229.33 6.06043 230.069 6.84339 230.069 8.4101C230.069 9.9966 229.33 10.7895 227.853 10.7895H215.412C213.935 10.7895 213.196 10.0058 213.196 8.43992V8.4101Z" fill="#1391E6"/>
<path d="M236.545 10.1561L237.653 17.3853C237.785 18.4494 237.378 19.0817 236.431 19.2832C235.484 19.4636 234.944 19.0119 234.813 17.9278L233.677 10.7893C233.563 9.7043 233.998 9.10197 234.983 8.98135C235.93 8.90144 236.45 9.29246 236.545 10.1561ZM237.284 28.8917C235.939 29.2121 235.134 28.7304 234.869 27.4458C234.68 26.0207 235.125 25.2069 236.205 25.0064C237.756 24.6444 239.12 23.916 240.295 22.822C241.468 21.7279 242.397 20.4071 243.079 18.8612C243.76 17.3154 244.275 15.8095 244.627 14.3436C244.977 12.8767 245.198 11.7528 245.294 10.9698C245.426 9.68429 246.098 9.03216 247.311 9.01221C248.598 9.07202 249.147 9.82499 248.958 11.271C248.579 14.2828 248.068 16.6568 247.424 18.3941C246.78 20.1313 245.919 21.7623 244.84 23.2891C243.76 24.8159 242.539 26.0551 241.175 27.0095C239.812 27.9628 238.514 28.5906 237.284 28.8917ZM241.289 10.1561L242.397 17.3853C242.528 18.4494 242.113 19.0817 241.147 19.2832C240.2 19.4636 239.66 19.0119 239.528 17.9278L238.391 10.7893C238.296 9.7043 238.733 9.10197 239.698 8.98135C240.664 8.90144 241.194 9.29246 241.289 10.1561Z" fill="#1391E6"/>
<path d="M260.603 7.4156H265.631C269.002 7.37564 270.422 9.3224 269.893 13.2587C269.646 15.0458 269.106 16.939 268.273 18.9366C267.44 20.9341 266.412 22.5762 265.192 23.8616C263.97 25.147 262.705 26.1803 261.399 26.9641C260.093 27.747 258.681 28.4401 257.167 29.0426C255.821 29.584 254.837 29.1822 254.213 27.8378C253.815 26.2919 254.222 25.2677 255.434 24.7652C256.002 24.6046 256.816 24.2526 257.877 23.711C258.937 23.1685 260.045 22.3457 261.201 21.2408C262.355 20.1359 263.288 18.8614 263.998 17.4153C264.708 15.9701 265.129 14.6648 265.263 13.4999C265.394 12.4558 264.959 11.9243 263.955 11.9032H258.871C257.773 13.7911 256.674 15.287 255.576 16.3911C254.459 17.516 253.398 17.6765 252.395 16.8738C251.467 15.5484 251.475 14.3735 252.423 13.3494C252.953 12.8468 253.577 12.0639 254.298 10.9998C255.017 9.93574 255.708 8.35903 256.371 6.2708C256.769 4.76483 257.753 4.16246 259.325 4.4636C260.632 4.86459 261.059 5.84895 260.603 7.4156Z" fill="#1391E6"/>
</svg>
