<svg width="270" height="32" viewBox="0 0 270 32" fill="none" xmlns="http://www.w3.org/2000/svg">
<g clip-path="url(#clip0_30562_796)">
<path d="M48.5047 5.49805H53.0481C55.6984 5.51736 56.9481 7.02487 56.7971 10.0206C56.6836 11.1929 56.5324 12.5722 56.3434 14.1583C57.184 14.4436 58.0086 14.7769 58.8134 15.1565C58.9082 14.3145 59.0027 13.179 59.0969 11.7501C59.173 10.4578 59.7886 9.81162 60.9439 9.81162C62.25 9.85024 62.8843 10.4964 62.8469 11.7501C62.7134 13.8638 62.5715 15.5768 62.4212 16.8892L63.5571 17.5646C64.9393 18.2308 65.356 19.4052 64.8071 21.0879C64.7191 21.3471 64.5734 21.5812 64.3817 21.7715C64.19 21.9618 63.9577 22.1029 63.7035 22.1835C63.4493 22.264 63.1803 22.2817 62.9183 22.2351C62.6562 22.1886 62.4084 22.0791 62.1949 21.9154L61.7121 21.6506C61.2624 23.6881 60.7029 25.6979 60.0364 27.671C59.9496 27.9464 59.8063 28.1992 59.6162 28.4122C59.4261 28.6251 59.1937 28.7931 58.9349 28.9047C58.6761 29.0163 58.397 29.0688 58.1167 29.0587C57.8364 29.0486 57.5616 28.9761 57.311 28.8461C57.0416 28.7609 56.7947 28.6129 56.5895 28.4136C56.3842 28.2142 56.2261 27.9688 56.1272 27.6963C56.0284 27.4238 55.9916 27.1315 56.0195 26.8419C56.0474 26.5524 56.1394 26.2733 56.2883 26.0263C57.1227 24.0028 57.7231 21.8849 58.0772 19.7163C57.6418 19.5011 57.2158 19.3004 56.7991 19.1142C56.3825 18.928 55.9755 18.7556 55.5782 18.597L55.5501 18.656C55.2194 20.0286 54.763 21.3656 54.1869 22.6489C53.6465 23.9164 52.9131 25.0863 52.0144 26.1142C51.3022 26.9849 50.2884 27.5332 49.1898 27.642C48.5039 27.6552 47.8285 27.466 47.243 27.0966C46.6575 26.7272 46.1862 26.193 45.8845 25.5566C45.105 23.8456 44.8526 21.9287 45.1613 20.0648C45.332 18.8152 45.8386 17.6401 46.6237 16.673C47.377 15.7314 48.3032 14.953 49.3491 14.3828C50.3719 13.8281 51.5004 13.5127 52.6544 13.459C52.7306 12.8328 52.7973 12.226 52.8548 11.6384C52.9302 10.6985 52.6084 10.2188 51.8892 10.1995H48.5047C47.9014 10.1995 47.3229 9.95203 46.8963 9.51147C46.4697 9.07091 46.23 8.47339 46.23 7.85035C46.23 7.22731 46.4697 6.62979 46.8963 6.18923C47.3229 5.74868 47.9014 5.50117 48.5047 5.50117V5.49805ZM49.3281 22.9116C49.5597 22.8837 49.781 22.7965 49.9718 22.6579C50.1626 22.5194 50.3169 22.3339 50.4208 22.1182C50.7517 21.5682 51.0142 20.9774 51.2021 20.3597C51.4098 19.6935 51.5707 19.1011 51.6849 18.5825C51.799 18.0639 51.8561 17.7946 51.8561 17.7746C51.2703 17.7628 50.6951 17.9372 50.2085 18.2743C49.767 18.5711 49.4016 18.9739 49.1437 19.4484C48.9337 19.8291 48.7657 20.233 48.6429 20.6524C48.4935 21.2162 48.5287 21.8151 48.7431 22.3561C48.9414 22.7271 49.1354 22.9123 49.325 22.9116H49.3281Z" fill="white"/>
<path d="M67.5022 9.72677C67.4605 9.42784 67.4869 9.12299 67.5791 8.83639C67.6713 8.54979 67.8269 8.28931 68.0336 8.0756C68.2402 7.86189 68.4922 7.70083 68.7696 7.60517C69.047 7.50951 69.3421 7.48188 69.6316 7.52448H71.08L71.3925 5.76597C71.6015 4.73155 72.34 4.20293 73.6081 4.18018C74.9335 4.25879 75.4828 4.86602 75.2557 6.00182C75.1367 6.50445 75.0514 7.01493 75.0003 7.52966H76.4777C77.047 7.52966 77.593 7.76323 77.9955 8.17895C78.398 8.59468 78.6242 9.15851 78.6242 9.74644C78.6242 10.3344 78.398 10.8982 77.9955 11.3139C77.593 11.7297 77.047 11.9632 76.4777 11.9632H74.3132C72.9697 17.8167 72.1651 21.331 71.8993 22.5061C71.6155 23.6612 70.8206 24.1312 69.5144 23.916C69.2499 23.9025 68.9923 23.8244 68.7628 23.688C68.5333 23.5516 68.3383 23.3609 68.1941 23.1316C68.0499 22.9022 67.9604 22.6408 67.9331 22.3687C67.9058 22.0967 67.9414 21.8219 68.037 21.5668C69.2303 17.0643 69.9879 13.8631 70.3097 11.9632H69.6276C69.3358 12.0035 69.0389 11.973 68.7604 11.8742C68.482 11.7754 68.2296 11.6109 68.0234 11.3939C67.8171 11.1769 67.6626 10.9133 67.5722 10.6239C67.4817 10.3345 67.4577 10.0274 67.5022 9.72677ZM83.4901 14.7779V17.6557C84.588 18.0863 85.6517 18.6051 86.6712 19.2073C87.4845 19.8335 87.598 20.7341 87.0118 21.9092C86.9051 22.1231 86.755 22.3106 86.5716 22.459C86.3883 22.6074 86.1761 22.7131 85.9495 22.7689C85.7229 22.8247 85.4873 22.8293 85.2589 22.7823C85.0304 22.7353 84.8145 22.6379 84.6259 22.4968C84.3588 22.3589 83.9802 22.1927 83.4901 21.9982V23.9067C83.5645 25.0761 83.3132 26.243 82.7659 27.2696C82.3572 27.9589 81.7448 28.4941 81.0191 28.7964C80.3569 29.057 79.6544 29.1913 78.9457 29.1926C78.0318 29.2306 77.1198 29.0808 76.2624 28.752C75.3578 28.4005 74.5762 27.7767 74.0187 26.9614C73.3436 25.8801 73.0204 24.6044 73.0962 23.3202C73.0586 22.4434 73.1997 21.5681 73.5102 20.7511C73.8208 19.9341 74.294 19.1936 74.8991 18.5773C75.5668 17.9836 76.3482 17.5421 77.1924 17.2816C78.0366 17.0212 78.9245 16.9477 79.7981 17.066V14.7758C79.7924 14.5218 79.8359 14.2692 79.926 14.0327C80.0162 13.7963 80.1512 13.5809 80.3232 13.3991C80.4951 13.2174 80.7005 13.073 80.9272 12.9744C81.154 12.8757 81.3975 12.825 81.6436 12.825C81.8896 12.825 82.1332 12.8757 82.3599 12.9744C82.5867 13.073 82.7921 13.2174 82.964 13.3991C83.1359 13.5809 83.2709 13.7963 83.3611 14.0327C83.4513 14.2692 83.4948 14.5218 83.4891 14.7758L83.4901 14.7779ZM78.9457 25.0559C79.0809 25.049 79.2116 25.0044 79.3242 24.9268C79.4367 24.8492 79.5268 24.7416 79.5847 24.6153C79.7409 24.2764 79.8141 23.9031 79.7981 23.5281V21.032C79.4048 20.9334 78.9964 20.9163 78.5967 20.9818C78.1969 21.0474 77.8137 21.1942 77.4693 21.4137C77.2094 21.6123 76.9956 21.8681 76.8433 22.1626C76.691 22.4571 76.6041 22.7829 76.5889 23.1164C76.5535 23.4073 76.591 23.7028 76.6978 23.9745C76.8046 24.2461 76.9771 24.4849 77.1989 24.668C77.7181 25.0056 78.336 25.1429 78.9437 25.0559H78.9457ZM80.0224 8.66858C80.0693 8.37633 80.1801 8.09896 80.3464 7.85759C80.5126 7.61622 80.7301 7.41719 80.982 7.27566C81.234 7.13413 81.5139 7.05381 81.8005 7.04082C82.087 7.02784 82.3727 7.08253 82.6357 7.20072L85.1908 7.90516C85.4725 7.93432 85.7436 8.03159 85.9822 8.18909C86.2207 8.34658 86.42 8.55985 86.5638 8.81167C86.7077 9.0635 86.7921 9.34678 86.8102 9.63857C86.8284 9.93036 86.7797 10.2225 86.6682 10.4912C86.6167 10.7838 86.5021 11.0606 86.3328 11.3012C86.1636 11.5418 85.944 11.7399 85.6905 11.8808C85.4369 12.0217 85.1559 12.1018 84.8682 12.1152C84.5806 12.1286 84.2937 12.0749 84.0289 11.958L81.5018 11.2536C81.2173 11.2311 80.9422 11.1381 80.6999 10.9823C80.4576 10.8266 80.2553 10.6128 80.1101 10.3591C79.9649 10.1054 79.8811 9.81923 79.8658 9.52493C79.8506 9.23062 79.9043 8.93686 80.0224 8.66858Z" fill="white"/>
<path d="M93.6266 5.49805H98.1709C100.821 5.51736 102.071 7.02487 101.92 10.0206C101.806 11.1929 101.655 12.5722 101.465 14.1583C102.306 14.4434 103.131 14.7767 103.936 15.1565C104.031 14.3145 104.126 13.179 104.221 11.7501C104.296 10.4578 104.912 9.81162 106.067 9.81162C107.373 9.85024 108.008 10.4964 107.97 11.7501C107.836 13.8638 107.694 15.5768 107.544 16.8892L108.68 17.5646C110.062 18.2308 110.478 19.4052 109.93 21.0879C109.841 21.3464 109.695 21.5797 109.503 21.7694C109.311 21.959 109.079 22.0997 108.825 22.1801C108.571 22.2605 108.302 22.2784 108.04 22.2325C107.779 22.1865 107.531 22.078 107.317 21.9154L106.834 21.6506C106.384 23.6879 105.824 25.6978 105.158 27.671C105.071 27.9465 104.928 28.1993 104.738 28.4122C104.548 28.6252 104.315 28.7932 104.056 28.9047C103.797 29.0163 103.518 29.0688 103.238 29.0587C102.957 29.0486 102.683 28.9761 102.432 28.8461C102.162 28.761 101.915 28.613 101.71 28.4136C101.505 28.2142 101.347 27.9688 101.248 27.6962C101.149 27.4237 101.113 27.1313 101.141 26.8417C101.169 26.5522 101.261 26.2732 101.41 26.0263C102.245 24.0029 102.845 21.8849 103.199 19.7163C102.763 19.5011 102.337 19.3004 101.921 19.1142C101.505 18.928 101.098 18.7556 100.7 18.597L100.672 18.656C100.341 20.0285 99.8844 21.3654 99.3088 22.6489C98.7678 23.916 98.0344 25.0858 97.1363 26.1142C96.4238 26.9851 95.4096 27.5335 94.3107 27.642C93.6247 27.6552 92.9493 27.466 92.3639 27.0966C91.7784 26.7272 91.3071 26.193 91.0053 25.5566C90.2255 23.8457 89.9728 21.9288 90.2812 20.0648C90.4522 18.8153 90.9588 17.6403 91.7435 16.673C92.4972 15.7314 93.4238 14.953 94.4699 14.3828C95.4927 13.828 96.6212 13.5126 97.7753 13.459C97.8507 12.8328 97.9175 12.226 97.9756 11.6384C98.0497 10.6985 97.7279 10.2188 97.01 10.1995H93.6296C93.0263 10.1995 92.4477 9.95203 92.0211 9.51147C91.5946 9.07091 91.3549 8.47339 91.3549 7.85035C91.3549 7.22731 91.5946 6.62979 92.0211 6.18923C92.4477 5.74868 93.0263 5.50117 93.6296 5.50117L93.6266 5.49805ZM94.4499 22.9116C94.6817 22.8838 94.9032 22.7967 95.0942 22.6581C95.2852 22.5196 95.4397 22.334 95.5437 22.1182C95.8745 21.5682 96.137 20.9774 96.3249 20.3597C96.5326 19.6935 96.6935 19.1011 96.8077 18.5825C96.9219 18.0639 96.9787 17.7946 96.978 17.7746C96.3925 17.7629 95.8177 17.9374 95.3313 18.2743C94.8898 18.571 94.5245 18.9739 94.2666 19.4484C94.0569 19.8293 93.889 20.2331 93.7658 20.6524C93.6167 21.2162 93.6519 21.8151 93.866 22.3561C94.0656 22.7271 94.2603 22.9123 94.4499 22.9116Z" fill="white"/>
<path d="M127.789 6.93588C127.783 6.97573 127.786 7.01638 127.798 7.05464C127.811 7.0929 127.831 7.12769 127.859 7.15623C127.886 7.18476 127.92 7.20627 127.957 7.21901C127.994 7.23176 128.033 7.2354 128.072 7.22965H137.301C137.788 7.22965 138.254 7.42926 138.598 7.78456C138.942 8.13986 139.135 8.62172 139.135 9.12419C139.135 9.62665 138.942 10.1085 138.598 10.4638C138.254 10.8191 137.788 11.0188 137.301 11.0188H114.128C113.89 11.0212 113.653 10.973 113.433 10.8771C113.214 10.7812 113.015 10.6396 112.85 10.4612C112.679 10.2863 112.544 10.0782 112.451 9.84877C112.358 9.61937 112.311 9.37329 112.311 9.12472C112.311 8.87616 112.358 8.63008 112.451 8.40068C112.544 8.17128 112.679 7.96312 112.85 7.78825C113.015 7.60971 113.213 7.46799 113.433 7.3719C113.653 7.27581 113.89 7.2274 114.128 7.22965H116.06C116.098 7.23518 116.137 7.23137 116.174 7.21854C116.211 7.20572 116.245 7.18423 116.272 7.15575C116.3 7.12727 116.32 7.09257 116.333 7.05442C116.345 7.01626 116.349 6.97569 116.343 6.93588V4.64564C116.343 4.09338 116.555 3.56374 116.934 3.17323C117.312 2.78273 117.825 2.56333 118.359 2.56333C118.894 2.56333 119.407 2.78273 119.785 3.17323C120.163 3.56374 120.376 4.09338 120.376 4.64564V6.93588C120.37 6.97573 120.373 7.01638 120.385 7.05464C120.398 7.0929 120.418 7.12769 120.446 7.15623C120.473 7.18476 120.507 7.20627 120.544 7.21901C120.581 7.23176 120.62 7.2354 120.659 7.22965H123.3C123.339 7.23518 123.378 7.23137 123.415 7.21854C123.452 7.20572 123.485 7.18423 123.513 7.15575C123.54 7.12727 123.561 7.09257 123.573 7.05442C123.586 7.01626 123.589 6.97569 123.584 6.93588V3.21194C123.581 2.92597 123.634 2.64239 123.739 2.37771C123.844 2.11304 123.999 1.87258 124.194 1.67036C124.39 1.46815 124.623 1.30822 124.879 1.19994C125.136 1.09165 125.41 1.03715 125.687 1.03963H126.34C126.724 1.04127 127.092 1.1995 127.363 1.47985C127.635 1.7602 127.788 2.13996 127.79 2.53644C127.786 2.56034 127.788 2.58474 127.796 2.60766C127.803 2.63058 127.816 2.65138 127.832 2.66846C127.849 2.68553 127.869 2.69841 127.891 2.70602C127.913 2.71363 127.937 2.71578 127.96 2.7123H134.748C134.965 2.70911 135.18 2.7518 135.38 2.83773C135.58 2.92365 135.761 3.051 135.912 3.21194C136.221 3.53723 136.394 3.97477 136.394 4.4305C136.394 4.88623 136.221 5.32374 135.912 5.64903C135.761 5.80963 135.58 5.93672 135.38 6.02245C135.179 6.10819 134.965 6.1508 134.748 6.14765H128.074C128.035 6.1419 127.996 6.14554 127.959 6.15829C127.922 6.17104 127.888 6.19251 127.861 6.22105C127.833 6.24958 127.813 6.28438 127.8 6.32264C127.788 6.36089 127.785 6.40158 127.791 6.44143L127.789 6.93588ZM133.383 24.7611C133.421 24.7666 133.46 24.7628 133.497 24.75C133.534 24.7372 133.568 24.7157 133.595 24.6872C133.623 24.6587 133.643 24.624 133.656 24.5859C133.668 24.5477 133.672 24.5072 133.666 24.4673V13.7786C133.666 13.2187 133.881 12.6817 134.265 12.2857C134.648 11.8898 135.168 11.6674 135.71 11.6674C136.253 11.6674 136.773 11.8898 137.156 12.2857C137.539 12.6817 137.755 13.2187 137.755 13.7786V27.551C137.756 27.8288 137.704 28.1041 137.601 28.3611C137.499 28.618 137.349 28.8515 137.158 29.0481C136.968 29.2446 136.742 29.4004 136.494 29.5063C136.245 29.6122 135.978 29.6663 135.709 29.6653H134.688C134.553 29.6657 134.42 29.6386 134.296 29.5856C134.171 29.5325 134.058 29.4545 133.963 29.3561C133.868 29.2577 133.793 29.1409 133.742 29.0123C133.691 28.8838 133.665 28.746 133.666 28.6071C133.668 28.5911 133.667 28.5749 133.662 28.5596C133.657 28.5443 133.649 28.5304 133.637 28.519C133.626 28.5077 133.613 28.4992 133.598 28.4942C133.583 28.4892 133.567 28.4878 133.552 28.4902H117.935C117.919 28.4878 117.903 28.4892 117.889 28.4942C117.874 28.4992 117.86 28.5077 117.849 28.519C117.838 28.5304 117.83 28.5443 117.825 28.5596C117.82 28.5749 117.818 28.5911 117.82 28.6071C117.821 28.746 117.795 28.8838 117.744 29.0123C117.693 29.1409 117.618 29.2577 117.523 29.3561C117.428 29.4545 117.315 29.5325 117.191 29.5856C117.067 29.6386 116.933 29.6657 116.799 29.6653H115.805C115.272 29.6594 114.762 29.4377 114.385 29.0478C114.008 28.6579 113.794 28.1309 113.789 27.5799V13.7497C113.801 13.2056 114.018 12.6878 114.395 12.3073C114.772 11.9268 115.278 11.7138 115.805 11.7138C116.332 11.7138 116.838 11.9268 117.214 12.3073C117.591 12.6878 117.809 13.2056 117.82 13.7497V20.9741C117.819 21.0085 117.826 21.0428 117.84 21.0736C117.855 21.1045 117.878 21.1308 117.906 21.1499C117.93 21.1684 117.958 21.1807 117.987 21.1857C118.017 21.1908 118.047 21.1884 118.076 21.1789C119.425 20.6353 120.681 19.8719 121.796 18.9176C121.814 18.9088 121.829 18.8934 121.836 18.8744C121.844 18.8553 121.845 18.8339 121.839 18.8142C121.835 18.7908 121.822 18.7699 121.804 18.7562C121.785 18.7424 121.762 18.7368 121.739 18.7407H119.892C119.492 18.7407 119.109 18.5768 118.826 18.2849C118.544 17.9931 118.385 17.5972 118.385 17.1845C118.385 16.7717 118.544 16.3759 118.826 16.084C119.109 15.7921 119.492 15.6282 119.892 15.6282H119.921C120.034 15.6282 120.071 15.5692 120.034 15.4513C119.872 15.0369 119.682 14.6346 119.466 14.2472C119.357 14.0504 119.299 13.8283 119.296 13.6017C119.295 13.4529 119.314 13.3046 119.352 13.1611C119.405 12.9808 119.5 12.8167 119.629 12.6833C119.758 12.55 119.917 12.4515 120.091 12.3966C120.316 12.2994 120.557 12.2494 120.801 12.2497C120.992 12.2501 121.182 12.2699 121.369 12.3087C121.786 12.4317 122.142 12.7153 122.363 13.1011C122.405 13.1463 122.443 13.1955 122.477 13.2479C122.604 13.4812 122.673 13.7436 122.677 14.0114C122.675 14.2005 122.647 14.3883 122.592 14.5689C122.51 14.7891 122.384 14.989 122.223 15.156C122.061 15.3229 121.868 15.4531 121.655 15.5382H121.627C121.618 15.5443 121.611 15.5536 121.609 15.5642C121.606 15.5749 121.607 15.5862 121.612 15.5961C121.615 15.6051 121.621 15.6128 121.629 15.6181C121.636 15.6235 121.645 15.6263 121.655 15.6261H123.473C123.511 15.6316 123.55 15.6278 123.587 15.615C123.624 15.6022 123.658 15.5807 123.685 15.5522C123.713 15.5237 123.733 15.489 123.746 15.4509C123.758 15.4127 123.762 15.3721 123.756 15.3323V13.5117C123.756 13.0216 123.945 12.5516 124.28 12.205C124.616 11.8584 125.071 11.6637 125.545 11.6637C126.02 11.6637 126.475 11.8584 126.811 12.205C127.146 12.5516 127.335 13.0216 127.335 13.5117V15.3323C127.329 15.3721 127.333 15.4127 127.345 15.4509C127.357 15.489 127.378 15.5237 127.406 15.5522C127.433 15.5807 127.467 15.6022 127.504 15.615C127.54 15.6278 127.58 15.6316 127.618 15.6261H129.862C129.871 15.6261 129.88 15.6232 129.888 15.6179C129.895 15.6125 129.901 15.6049 129.904 15.5961C129.913 15.5764 129.904 15.5671 129.89 15.5671L129.663 15.4792C129.462 15.4166 129.279 15.3073 129.126 15.1596C128.974 15.012 128.856 14.8301 128.782 14.6279C128.708 14.4414 128.669 14.2419 128.668 14.0403C128.668 13.8072 128.716 13.5767 128.81 13.3648C129.007 12.9269 129.336 12.5665 129.748 12.3376C130.003 12.2026 130.285 12.1317 130.571 12.1308C130.736 12.1303 130.899 12.1604 131.054 12.2197H131.111C131.301 12.2721 131.475 12.3719 131.618 12.5103C131.762 12.6487 131.87 12.8214 131.933 13.0131C131.989 13.163 132.018 13.3221 132.018 13.4827C132.019 13.7371 131.939 13.9847 131.791 14.1882C131.394 14.7951 131.12 15.2061 130.969 15.4213C130.952 15.4381 130.941 15.4606 130.938 15.4848C130.936 15.5091 130.942 15.5334 130.955 15.5537C130.963 15.5742 130.977 15.5918 130.995 15.6048C131.013 15.6177 131.033 15.6254 131.055 15.6271H131.567C131.966 15.6271 132.35 15.7911 132.632 16.083C132.915 16.3748 133.074 16.7707 133.074 17.1834C133.074 17.5962 132.915 17.992 132.632 18.2839C132.35 18.5758 131.966 18.7397 131.567 18.7397H129.577C129.52 18.7397 129.486 18.7635 129.477 18.8132C129.471 18.8328 129.471 18.8544 129.479 18.8736C129.487 18.8928 129.502 18.9082 129.52 18.9166C130.261 19.5513 131.071 20.0937 131.934 20.5324C132.108 20.6237 132.258 20.7566 132.371 20.9201C132.485 21.0835 132.559 21.2726 132.587 21.4716C132.607 21.5584 132.616 21.6473 132.615 21.7364C132.612 22.0424 132.501 22.3367 132.303 22.564C131.975 22.9543 131.538 23.2309 131.053 23.3564C130.914 23.3959 130.771 23.4154 130.627 23.4143C130.294 23.4112 129.968 23.3092 129.69 23.1205C128.919 22.56 128.197 21.9311 127.532 21.2409C127.516 21.2218 127.495 21.2084 127.471 21.2028C127.448 21.1971 127.423 21.1993 127.4 21.2093C127.378 21.2192 127.359 21.2363 127.347 21.258C127.335 21.2797 127.329 21.3049 127.332 21.3299V22.4171C127.332 22.9072 127.143 23.3773 126.808 23.7239C126.472 24.0704 126.017 24.2651 125.542 24.2651C125.068 24.2651 124.613 24.0704 124.277 23.7239C123.942 23.3773 123.753 22.9072 123.753 22.4171V21.4478C123.755 21.4228 123.75 21.3977 123.737 21.3764C123.724 21.355 123.705 21.3387 123.682 21.3299C123.661 21.32 123.637 21.3175 123.614 21.3227C123.591 21.3279 123.57 21.3406 123.555 21.3589C123.053 21.8998 122.512 22.4005 121.936 22.8567C121.672 23.0622 121.367 23.2056 121.043 23.2771C120.72 23.3485 120.385 23.3463 120.062 23.2705C119.388 23.1073 118.781 22.7269 118.329 22.1844C118.216 22.0869 118.111 21.9789 118.017 21.8616C118.001 21.8433 117.98 21.8306 117.956 21.8253C117.933 21.82 117.908 21.8223 117.886 21.832C117.864 21.8416 117.846 21.8582 117.833 21.8792C117.821 21.9003 117.815 21.9249 117.816 21.9495V24.4756C117.811 24.5155 117.814 24.5562 117.827 24.5945C117.839 24.6327 117.86 24.6675 117.888 24.696C117.915 24.7245 117.949 24.7459 117.986 24.7587C118.023 24.7714 118.062 24.7751 118.101 24.7694L133.383 24.7611Z" fill="white"/>
<path d="M151.445 16.6864C151.851 17.1123 152.093 17.6758 152.127 18.2722V18.4481C152.13 18.9885 151.96 19.5149 151.644 19.9459C151.539 20.1105 151.396 20.2451 151.228 20.3375C151.059 20.4299 150.871 20.477 150.68 20.4745C150.631 20.4725 150.583 20.4628 150.537 20.4455C150.328 20.4356 150.125 20.3677 149.95 20.2488C149.775 20.1299 149.635 19.9645 149.543 19.7701C149.469 19.6572 149.402 19.5397 149.343 19.4184C149.337 19.4012 149.324 19.3871 149.309 19.3788C149.293 19.3706 149.275 19.3688 149.258 19.3739C149.241 19.3765 149.226 19.3855 149.215 19.3991C149.205 19.4128 149.2 19.43 149.202 19.4473V28.1686C149.202 28.4459 149.149 28.7205 149.046 28.9767C148.943 29.2329 148.792 29.4657 148.603 29.6618C148.413 29.8579 148.187 30.0135 147.939 30.1196C147.691 30.2257 147.425 30.2804 147.157 30.2804C146.888 30.2804 146.622 30.2257 146.374 30.1196C146.126 30.0135 145.901 29.8579 145.711 29.6618C145.521 29.4657 145.37 29.2329 145.268 28.9767C145.165 28.7205 145.112 28.4459 145.112 28.1686V21.2979C145.114 21.2824 145.111 21.2667 145.103 21.2533C145.095 21.24 145.083 21.2298 145.069 21.2245C145.041 21.2152 145.016 21.2297 144.998 21.269C144.581 22.2289 144.174 23.0706 143.777 23.794C143.692 23.966 143.561 24.1098 143.4 24.2086C143.24 24.3074 143.055 24.3573 142.868 24.3526H142.726C142.505 24.3321 142.293 24.2504 142.113 24.1161C141.933 23.9817 141.792 23.7997 141.703 23.5892C141.457 23.0576 141.331 22.4749 141.335 21.8855V21.5917C141.392 20.9037 141.606 20.2395 141.959 19.6532C142.94 18.0209 143.778 16.3014 144.463 14.5152C144.473 14.4806 144.476 14.4443 144.471 14.4086C144.466 14.3728 144.454 14.3387 144.435 14.3083C144.42 14.2822 144.4 14.2604 144.375 14.245C144.35 14.2296 144.322 14.2211 144.293 14.2203H142.957C142.7 14.223 142.445 14.1728 142.207 14.0727C141.969 13.9727 141.753 13.8248 141.57 13.6376C141.388 13.4504 141.244 13.2277 141.145 12.9823C141.047 12.737 140.997 12.4739 140.998 12.2084C140.995 11.9415 141.043 11.6766 141.141 11.4294C141.238 11.1822 141.383 10.9578 141.566 10.7695C141.745 10.5749 141.961 10.421 142.2 10.3175C142.44 10.214 142.698 10.1633 142.957 10.1685H144.832C144.871 10.1742 144.91 10.1705 144.948 10.1578C144.985 10.1451 145.018 10.1236 145.046 10.0951C145.073 10.0666 145.094 10.0318 145.107 9.99358C145.119 9.95534 145.122 9.91464 145.117 9.87473V7.67244C145.118 7.63593 145.111 7.59968 145.096 7.56649C145.081 7.53331 145.059 7.50408 145.032 7.48107C144.976 7.4322 144.905 7.40607 144.831 7.40761L143.98 7.5545C143.887 7.5737 143.792 7.58342 143.697 7.58348C143.328 7.5807 142.97 7.45718 142.674 7.23073C142.278 6.94064 141.98 6.53016 141.822 6.05665C141.766 5.88666 141.737 5.70855 141.736 5.52911C141.739 5.28374 141.797 5.04241 141.907 4.82467C142.002 4.6369 142.14 4.47519 142.308 4.35276C142.475 4.23032 142.669 4.15064 142.872 4.12022C144.829 3.73646 146.763 3.23635 148.665 2.62238C148.939 2.52605 149.226 2.47644 149.516 2.47549C149.815 2.47781 150.112 2.52735 150.396 2.62238C150.963 2.802 151.448 3.18793 151.76 3.70851C151.943 3.96349 152.043 4.27226 152.044 4.58983C152.041 4.78181 152.002 4.97136 151.93 5.14843C151.86 5.38508 151.731 5.59886 151.557 5.76878C151.383 5.9387 151.169 6.05894 150.936 6.1177C150.464 6.25563 149.981 6.38285 149.488 6.49939C149.405 6.50778 149.329 6.54955 149.276 6.6156C149.223 6.68164 149.197 6.76664 149.205 6.85214V9.87681C149.199 9.91662 149.203 9.9572 149.215 9.99535C149.227 10.0335 149.248 10.0682 149.275 10.0967C149.303 10.1252 149.336 10.1466 149.373 10.1595C149.41 10.1723 149.449 10.1761 149.488 10.1706H150.823C151.083 10.1654 151.34 10.2162 151.58 10.3197C151.819 10.4232 152.035 10.5771 152.213 10.7716C152.397 10.9598 152.542 11.1842 152.639 11.4314C152.737 11.6785 152.786 11.9435 152.782 12.2105C152.783 12.4759 152.733 12.7388 152.635 12.984C152.536 13.2293 152.392 13.4519 152.21 13.639C152.027 13.8262 151.811 13.9741 151.573 14.0742C151.335 14.1744 151.08 14.2248 150.823 14.2224H149.261C149.253 14.2212 149.245 14.2218 149.238 14.2243C149.23 14.2268 149.224 14.231 149.218 14.2367C149.213 14.2423 149.209 14.2492 149.206 14.2568C149.204 14.2644 149.203 14.2725 149.205 14.2804C149.204 14.2993 149.209 14.3179 149.219 14.3338C149.229 14.3496 149.244 14.362 149.261 14.3693C149.638 14.7196 150.366 15.492 151.445 16.6864ZM168.373 20.1518C168.391 20.2681 168.4 20.3856 168.401 20.5035C168.4 20.9348 168.271 21.3556 168.031 21.7086C167.881 21.9343 167.689 22.1262 167.465 22.2725C167.241 22.4189 166.99 22.5167 166.729 22.5599L165.735 22.7668C165.695 22.7659 165.656 22.7739 165.619 22.7903C165.582 22.8066 165.549 22.8308 165.522 22.8614C165.495 22.892 165.475 22.9282 165.462 22.9675C165.45 23.0069 165.446 23.0485 165.451 23.0895V28.1106C165.451 28.6824 165.231 29.2307 164.839 29.635C164.448 30.0393 163.917 30.2664 163.363 30.2664C162.81 30.2664 162.279 30.0393 161.887 29.635C161.496 29.2307 161.276 28.6824 161.276 28.1106V23.8819C161.277 23.8454 161.27 23.8091 161.255 23.7759C161.241 23.7426 161.218 23.7134 161.191 23.6905C161.169 23.6678 161.142 23.6517 161.112 23.6439C161.082 23.636 161.05 23.6368 161.021 23.646L154.887 24.7912C154.764 24.8098 154.641 24.8194 154.517 24.8201C154.108 24.823 153.71 24.6891 153.381 24.4384C153.162 24.2831 152.976 24.0831 152.834 23.8508C152.693 23.6185 152.599 23.3587 152.558 23.0875C152.538 22.9613 152.529 22.8336 152.53 22.7058C152.53 22.2744 152.658 21.8535 152.898 21.5007C153.048 21.2646 153.244 21.064 153.475 20.912C153.705 20.7601 153.963 20.6603 154.234 20.6193L161.022 19.3563C161.06 19.3544 161.097 19.3443 161.131 19.3267C161.165 19.309 161.195 19.2841 161.219 19.2537C161.243 19.2232 161.261 19.1879 161.271 19.15C161.281 19.1121 161.283 19.0724 161.277 19.0336V3.85331C161.271 3.56691 161.323 3.28237 161.428 3.01726C161.533 2.75216 161.69 2.51214 161.888 2.31203C162.28 1.90775 162.811 1.68066 163.364 1.68066C163.918 1.68066 164.449 1.90775 164.841 2.31203C165.039 2.5124 165.195 2.75247 165.3 3.01751C165.406 3.28256 165.457 3.56697 165.452 3.85331V18.2722C165.451 18.3086 165.458 18.3448 165.472 18.378C165.487 18.4112 165.509 18.4405 165.536 18.4636C165.558 18.4862 165.585 18.5022 165.615 18.5099C165.645 18.5175 165.677 18.5165 165.706 18.507L166.076 18.4491C166.198 18.4305 166.322 18.4208 166.445 18.4201C166.853 18.4231 167.25 18.5565 167.581 18.8018C167.798 18.9559 167.981 19.156 168.117 19.3888C168.253 19.6216 168.34 19.8817 168.371 20.1518H168.373ZM154.173 15.0427C154.001 14.8835 153.865 14.6885 153.772 14.4708C153.679 14.2531 153.632 14.0176 153.634 13.7797C153.63 13.5457 153.677 13.3139 153.77 13.1006C153.863 12.8873 154 12.6978 154.173 12.5456C154.543 12.1858 155.028 11.977 155.537 11.9581H155.622C156.1 11.955 156.564 12.1327 156.924 12.4577C157.624 13.0839 158.239 13.6614 158.77 14.1904C158.942 14.3678 159.078 14.5785 159.17 14.8103C159.263 15.0421 159.31 15.2905 159.31 15.5413C159.314 15.8409 159.255 16.1378 159.138 16.4116C159.02 16.6854 158.846 16.9295 158.628 17.1271C158.31 17.4501 157.881 17.6294 157.435 17.6257H157.265C156.76 17.5693 156.295 17.318 155.962 16.9223C155.431 16.314 154.834 15.6872 154.171 15.0417L154.173 15.0427ZM159.681 6.26251C159.845 6.4325 159.974 6.63412 160.062 6.85583C160.15 7.07754 160.194 7.31496 160.193 7.5545V7.7614C160.146 8.30975 159.891 8.81658 159.483 9.17133C159.176 9.47065 158.77 9.63845 158.347 9.64093C158.271 9.64095 158.194 9.63124 158.12 9.61199C157.613 9.56429 157.145 9.31099 156.818 8.90754C156.3 8.27114 155.75 7.66342 155.17 7.08694C155.005 6.93072 154.874 6.73997 154.786 6.52736C154.697 6.31476 154.654 6.08519 154.658 5.85392C154.654 5.61265 154.703 5.37348 154.801 5.15462C154.899 4.93575 155.045 4.74295 155.226 4.59087C155.611 4.24392 156.107 4.05603 156.618 4.06331C157.12 4.05276 157.608 4.24155 157.981 4.59087C158.621 5.17567 159.188 5.73253 159.68 6.26146L159.681 6.26251Z" fill="white"/>
<path d="M179.304 7.28878H184.33C187.699 7.25017 189.118 9.14902 188.589 12.9854C188.293 14.8973 187.749 16.7593 186.97 18.5206C186.242 20.3057 185.197 21.9343 183.889 23.3224C182.762 24.5008 181.487 25.5181 180.098 26.3471C178.741 27.135 177.326 27.8125 175.867 28.3735C175.602 28.5176 175.31 28.6015 175.011 28.6195C174.712 28.6376 174.412 28.5894 174.132 28.4783C173.853 28.3671 173.599 28.1955 173.389 27.9749C173.179 27.7544 173.017 27.49 172.913 27.1994C172.513 25.6919 172.92 24.692 174.134 24.1996C174.975 23.9299 175.792 23.5859 176.576 23.1714C177.788 22.5341 178.906 21.7234 179.899 20.7632C181.04 19.7036 181.988 18.4404 182.696 17.0341C183.333 15.8493 183.761 14.5568 183.959 13.2171C184.093 12.1992 183.659 11.682 182.657 11.6654H177.573C176.66 13.2627 175.553 14.7331 174.28 16.0411C173.162 17.1376 172.101 17.2944 171.098 16.5117C170.17 15.2194 170.18 14.0739 171.126 13.0754C171.826 12.3808 172.455 11.6133 173.001 10.7852C173.9 9.35728 174.598 7.805 175.074 6.17471C175.137 5.84761 175.266 5.53815 175.454 5.26709C175.642 4.99603 175.884 4.76963 176.164 4.60309C176.444 4.43655 176.755 4.33372 177.076 4.30148C177.398 4.26925 177.722 4.30834 178.028 4.41617C179.332 4.80374 179.757 5.76128 179.304 7.28878Z" fill="white"/>
<path d="M192.991 6.84906C193.021 6.26686 193.265 5.71855 193.675 5.31721C194.084 4.91587 194.627 4.69213 195.192 4.69213C195.756 4.69213 196.299 4.91587 196.709 5.31721C197.118 5.71855 197.363 6.26686 197.392 6.84906V16.0999C197.363 16.6821 197.118 17.2305 196.709 17.6318C196.299 18.0331 195.756 18.2569 195.192 18.2569C194.627 18.2569 194.084 18.0331 193.675 17.6318C193.265 17.2305 193.021 16.6821 192.991 16.0999V6.84906ZM198.358 24.1447C199.57 23.719 200.679 23.0278 201.609 22.1183C202.325 21.3051 202.91 20.378 203.341 19.3729C203.861 18.0968 204.117 16.7227 204.093 15.3386V6.85632C204.093 6.25275 204.325 5.67391 204.739 5.24713C205.152 4.82035 205.712 4.58057 206.297 4.58057C206.881 4.58057 207.442 4.82035 207.855 5.24713C208.268 5.67391 208.5 6.25275 208.5 6.85632V15.3386C208.539 17.4769 208.152 19.6007 207.363 21.5783C206.708 23.1751 205.708 24.5963 204.44 25.7336C203.055 26.8957 201.503 27.8273 199.839 28.4945C198.344 28.9641 197.359 28.4941 196.886 27.0845C196.598 25.517 197.089 24.5371 198.358 24.1447Z" fill="white"/>
<path d="M228.464 22.8535C229.056 22.8535 229.623 23.0963 230.042 23.5285C230.46 23.9607 230.695 24.5469 230.695 25.1582C230.695 25.7694 230.46 26.3557 230.042 26.7879C229.623 27.2201 229.056 27.4629 228.464 27.4629H214.886C214.294 27.4629 213.726 27.2201 213.308 26.7879C212.889 26.3557 212.654 25.7694 212.654 25.1582C212.654 24.5469 212.889 23.9607 213.308 23.5285C213.726 23.0963 214.294 22.8535 214.886 22.8535H228.464ZM213.214 8.25875C213.171 7.94773 213.198 7.63056 213.294 7.33238C213.39 7.0342 213.552 6.76321 213.767 6.54087C213.982 6.31853 214.244 6.15096 214.533 6.05144C214.821 5.95192 215.129 5.92317 215.43 5.9675H227.863C228.447 5.98027 229.002 6.22877 229.411 6.65969C229.819 7.09062 230.048 7.66967 230.048 8.27273C230.048 8.8758 229.819 9.45485 229.411 9.88578C229.002 10.3167 228.447 10.5652 227.863 10.5779H215.425C215.124 10.6222 214.817 10.5935 214.528 10.494C214.24 10.3946 213.978 10.2271 213.763 10.0049C213.548 9.78266 213.386 9.5118 213.29 9.21375C213.194 8.9157 213.166 8.59867 213.209 8.28773L213.214 8.25875Z" fill="white"/>
<path d="M236.553 9.96146L237.661 17.009C237.717 17.2145 237.729 17.4302 237.696 17.641C237.663 17.8518 237.586 18.0525 237.469 18.229C237.353 18.4054 237.2 18.5534 237.022 18.6623C236.845 18.7713 236.646 18.8386 236.44 18.8596C235.493 19.0354 234.954 18.5951 234.821 17.5386L233.685 10.579C233.631 10.3723 233.623 10.1554 233.663 9.94511C233.702 9.73482 233.789 9.53683 233.915 9.36662C234.041 9.19642 234.203 9.05858 234.389 8.96384C234.575 8.86911 234.78 8.82003 234.988 8.82046C235.937 8.73909 236.459 9.11944 236.553 9.96146ZM237.291 28.2243C235.946 28.5367 235.141 28.0667 234.877 26.8143C234.688 25.4248 235.133 24.6317 236.213 24.4351C237.73 24.0998 239.139 23.3663 240.302 22.3053C241.48 21.2323 242.428 19.917 243.086 18.4437C243.735 17.029 244.253 15.5543 244.634 14.0392C244.915 12.9561 245.137 11.858 245.301 10.7497C245.301 10.4838 245.353 10.2207 245.457 9.97722C245.56 9.73371 245.711 9.51516 245.901 9.33553C246.091 9.1559 246.315 9.01914 246.559 8.93401C246.803 8.84889 247.061 8.81728 247.318 8.84117C248.605 8.89979 249.154 9.63388 248.965 11.0435C248.716 13.4116 248.201 15.7418 247.432 17.9876C246.782 19.6913 245.913 21.2968 244.848 22.7604C243.839 24.1791 242.599 25.4062 241.184 26.3871C240.002 27.2331 238.684 27.8552 237.291 28.2243ZM241.298 9.95834L242.406 17.0059C242.461 17.2136 242.471 17.4313 242.436 17.6436C242.4 17.8558 242.32 18.0575 242.201 18.2341C242.082 18.4108 241.926 18.5581 241.745 18.6656C241.565 18.7732 241.363 18.8384 241.156 18.8565C240.209 19.0324 239.669 18.592 239.537 17.5355L238.4 10.5759C238.349 10.3695 238.344 10.1538 238.385 9.94502C238.427 9.73627 238.513 9.5399 238.638 9.37066C238.764 9.20142 238.925 9.06372 239.109 8.96789C239.293 8.87205 239.496 8.82059 239.702 8.81737C240.67 8.73806 241.202 9.11944 241.298 9.96146V9.95834Z" fill="white"/>
<path d="M260.605 7.28879H265.632C269.001 7.25017 270.421 9.14902 269.891 12.9854C269.596 14.8974 269.052 16.7594 268.273 18.5206C267.545 20.3057 266.5 21.9343 265.192 23.3224C264.064 24.5006 262.789 25.5178 261.401 26.3471C260.043 27.1349 258.629 27.8124 257.17 28.3735C256.905 28.5174 256.613 28.6011 256.314 28.6191C256.015 28.6371 255.715 28.5889 255.436 28.4777C255.156 28.3666 254.903 28.195 254.693 27.9746C254.483 27.7541 254.32 27.4898 254.217 27.1994C253.816 25.6919 254.223 24.692 255.438 24.1996C256.279 23.93 257.097 23.586 257.881 23.1714C259.093 22.5339 260.211 21.7232 261.203 20.7632C262.345 19.7035 263.292 18.4403 264 17.0341C264.637 15.8492 265.065 14.5567 265.264 13.2171C265.398 12.1992 264.963 11.682 263.962 11.6654H258.874C257.96 13.2629 256.853 14.7334 255.579 16.0411C254.462 17.1376 253.402 17.2944 252.399 16.5117C251.471 15.2194 251.48 14.0739 252.427 13.0754C253.127 12.3807 253.755 11.6132 254.301 10.7852C255.2 9.35751 255.898 7.80518 256.375 6.17471C256.437 5.84765 256.567 5.53819 256.755 5.26713C256.943 4.99607 257.185 4.76967 257.464 4.60312C257.744 4.43657 258.055 4.33373 258.376 4.30149C258.698 4.26924 259.022 4.30834 259.327 4.41617C260.633 4.80374 261.059 5.76128 260.605 7.28879Z" fill="white"/>
<path d="M30.8085 5.66066C29.8807 4.88694 28.8072 4.32086 27.6564 3.99834C26.5854 3.69988 25.4539 3.72565 24.3968 4.07265C23.3396 4.41964 22.4013 5.07322 21.6937 5.95547C21.2777 6.46234 20.7616 6.87149 20.1799 7.15551C19.5983 7.43952 18.9646 7.59181 18.3213 7.6022C17.678 7.61258 17.04 7.48081 16.45 7.21571C15.8601 6.9506 15.3318 6.5583 14.9007 6.06511C14.1308 5.13242 13.115 4.45084 11.977 4.10321C10.839 3.75557 9.62766 3.75686 8.49034 4.10693C7.47419 4.43814 6.52776 4.96458 5.70082 5.65857C0.504406 10.1263 4.01509 20.515 4.6421 22.346C6.45103 27.6143 10.0188 31.9879 12.0371 31.9899C13.5515 31.9899 14.477 32.0417 15.688 27.0102C15.913 25.9317 16.5203 24.979 17.3907 24.3393C17.6177 24.1902 17.8805 24.1098 18.1495 24.1073C18.4184 24.1047 18.6827 24.1801 18.9122 24.3248C19.828 24.9461 20.4744 25.9104 20.7151 27.0143C21.9271 32.0458 23.0189 32.0427 24.4211 31.9941C26.4344 31.9248 30.0302 27.6184 31.8331 22.3501C32.4681 20.5171 36.0049 10.1283 30.8085 5.66066Z" fill="white"/>
<path d="M14.2939 17.251C14.2939 18.2458 14.6766 19.1998 15.3577 19.9032C16.0388 20.6066 16.9626 21.0018 17.9258 21.0018C18.8891 21.0018 19.8128 20.6066 20.4939 19.9032C21.1751 19.1998 21.5577 18.2458 21.5577 17.251H14.2939Z" fill="#0060A0"/>
<path d="M1.63137 6.38742C1.69121 6.56225 1.78822 6.72102 1.91527 6.85206C2.04232 6.98309 2.19618 7.08306 2.36555 7.14462L2.5769 7.20772C2.89041 7.30082 2.89041 7.45392 2.5769 7.54598L2.36555 7.60908C2.19618 7.67064 2.04232 7.77061 1.91527 7.90165C1.78822 8.03268 1.69121 8.19145 1.63137 8.36628L1.57027 8.58558C1.48012 8.90935 1.33188 8.90935 1.24274 8.58558L1.18164 8.36628C1.12228 8.19134 1.02556 8.03243 0.898637 7.90135C0.771714 7.77027 0.61785 7.67038 0.448453 7.60908L0.236107 7.54598C-0.0774003 7.45288 -0.0774003 7.29979 0.236107 7.20772L0.448453 7.14462C0.61785 7.08332 0.771714 6.98343 0.898637 6.85235C1.02556 6.72127 1.12228 6.56237 1.18164 6.38742L1.24274 6.16812C1.33288 5.84435 1.48112 5.84435 1.57027 6.16812L1.63137 6.38742Z" fill="white"/>
<path d="M4.39432 0.941156C4.51595 1.29822 4.71364 1.62254 4.9728 1.89019C5.23197 2.15784 5.546 2.36201 5.89174 2.48763L6.32544 2.6159C6.96448 2.80727 6.96448 3.11966 6.32544 3.30999L5.89174 3.43826C5.546 3.56388 5.23197 3.76805 4.9728 4.0357C4.71364 4.30335 4.51595 4.62767 4.39432 4.98474L4.27012 5.43161C4.08582 6.09261 3.78333 6.09261 3.60003 5.43161L3.47483 4.98474C3.35338 4.62756 3.15576 4.30314 2.89657 4.03546C2.63738 3.76778 2.32325 3.56369 1.9774 3.43826L1.54471 3.30999C0.905671 3.11966 0.905671 2.80727 1.54471 2.6159L1.9774 2.48763C2.32325 2.36221 2.63738 2.15811 2.89657 1.89043C3.15576 1.62275 3.35338 1.29833 3.47483 0.941156L3.60003 0.494284C3.78433 -0.166715 4.08682 -0.166715 4.27012 0.494284L4.39432 0.941156Z" fill="white"/>
<path d="M15.9232 11.8855C15.9232 11.3142 15.4747 10.8511 14.9215 10.8511C14.3684 10.8511 13.9199 11.3142 13.9199 11.8855V13.9544C13.9199 14.5257 14.3684 14.9888 14.9215 14.9888C15.4747 14.9888 15.9232 14.5257 15.9232 13.9544V11.8855Z" fill="#0060A0"/>
<path d="M21.9329 11.8855C21.9329 11.3142 21.4845 10.8511 20.9313 10.8511C20.3781 10.8511 19.9297 11.3142 19.9297 11.8855V13.9544C19.9297 14.5257 20.3781 14.9888 20.9313 14.9888C21.4845 14.9888 21.9329 14.5257 21.9329 13.9544V11.8855Z" fill="#0060A0"/>
</g>
<defs>
<clipPath id="clip0_30562_796">
<rect width="270" height="32" fill="white"/>
</clipPath>
</defs>
</svg>
