<svg width="405" height="48" viewBox="0 0 405 48" fill="none" xmlns="http://www.w3.org/2000/svg">
<path d="M46.765 8.49073C45.3915 7.326 43.7232 6.50098 41.9797 5.99682C38.6743 5.04167 35.1548 6.25669 32.9296 8.93262C31.6716 10.4449 29.7969 11.4041 27.7029 11.4041C25.6854 11.4041 23.873 10.5139 22.6177 9.09703C20.1432 6.30196 16.3952 4.99252 12.8873 6.16C11.3515 6.67064 9.88971 7.44273 8.65376 8.49073C0.765659 15.1917 6.09494 30.7755 7.04654 33.5216C9.79233 41.4244 15.2086 47.9847 18.2712 47.9874C20.5704 47.9899 21.975 48.0657 23.8133 40.5183C24.2963 38.5456 25.3634 37.2006 26.4046 36.512C27.0992 36.0528 28.008 36.0503 28.7142 36.4907C29.8073 37.1727 30.9706 38.5258 31.4574 40.5183C33.297 48.0657 34.9549 48.0602 37.0762 47.9874C40.1322 47.8839 45.5953 41.4244 48.3345 33.5216C49.2849 30.7755 54.6531 15.1917 46.765 8.49073Z" fill="#1391E6"/>
<path d="M21.6967 25.8776C21.6967 28.9851 24.1651 31.5042 27.2099 31.5042C30.2548 31.5042 32.7232 28.9851 32.7232 25.8776C31.1541 25.8776 21.6967 25.8776 21.6967 25.8776Z" fill="white"/>
<path d="M2.47612 9.58246C2.61408 10.0676 3.11555 10.5775 3.59092 10.7183L3.91155 10.8134C4.38692 10.9523 4.38692 11.1825 3.91155 11.3213L3.59092 11.4165C3.11555 11.5573 2.61408 12.0671 2.47612 12.5523L2.38291 12.8814C2.24683 13.3665 2.02125 13.3665 1.88517 12.8814L1.79196 12.5523C1.65587 12.0671 1.15441 11.5573 0.679044 11.4165L0.356526 11.3213C-0.118842 11.1825 -0.118842 10.9523 0.356526 10.8134L0.679044 10.7183C1.15441 10.5775 1.65587 10.0676 1.79196 9.58246L1.88517 9.25333C2.02125 8.76818 2.24683 8.76818 2.38291 9.25333L2.47612 9.58246Z" fill="#1391E6"/>
<path d="M6.67022 1.41309C6.95172 2.4024 7.97331 3.44689 8.94269 3.73226L9.60075 3.9244C10.5701 4.21169 10.5701 4.6797 9.60075 4.96508L8.94269 5.15725C7.97331 5.44262 6.95172 6.48711 6.67022 7.47639L6.48195 8.14609C6.20231 9.13729 5.74373 9.13729 5.4641 8.14609L5.27396 7.47639C4.99433 6.48711 3.97087 5.44262 3.0015 5.15725L2.34531 4.96508C1.37591 4.6797 1.37591 4.21169 2.34531 3.9244L3.0015 3.73226C3.97087 3.44689 4.99433 2.4024 5.27396 1.41309L5.4641 0.743421C5.74373 -0.247807 6.20231 -0.247807 6.48195 0.743421L6.67022 1.41309Z" fill="#1391E6"/>
<path d="M21.1282 17.7982C21.1282 16.9585 21.8089 16.2778 22.6486 16.2778C23.4883 16.2778 24.169 16.9585 24.169 17.7982V20.964C24.169 21.8037 23.4883 22.4844 22.6486 22.4844C21.8089 22.4844 21.1282 21.8037 21.1282 20.964V17.7982Z" fill="white"/>
<path d="M30.2502 17.7982C30.2502 16.9585 30.931 16.2778 31.7706 16.2778C32.6103 16.2778 33.291 16.9585 33.291 17.7982V20.964C33.291 21.8037 32.6103 22.4844 31.7706 22.4844C30.931 22.4844 30.2502 21.8037 30.2502 20.964V17.7982Z" fill="white"/>
<path d="M72.6681 8.36792H79.4846C83.4614 8.39794 85.3362 10.7166 85.1091 15.3254C84.9384 17.1327 84.7112 19.2555 84.4277 21.6952C85.648 22.1169 86.8838 22.6299 88.1337 23.2313C88.2761 21.936 88.4186 20.1901 88.5597 17.9911C88.674 16.0033 89.5966 15.0085 91.3303 15.0085C93.2898 15.0683 94.2406 16.063 94.1842 17.9911C93.9853 21.2435 93.7723 23.8793 93.5451 25.8973L95.2493 26.9367C97.323 27.9613 97.9479 29.7685 97.1241 32.358C96.1577 34.1962 94.8514 34.6182 93.2051 33.6234L92.48 33.2166C92.1105 35.2047 91.2725 38.2923 89.9662 42.4791C89.0577 44.4359 87.6936 45.0389 85.8765 44.2864C84.0016 43.3216 83.4896 41.8764 84.3417 39.9482C85.7058 36.4252 86.6003 33.1867 87.0262 30.2352C86.373 29.9046 85.734 29.5943 85.1091 29.3087C84.4841 29.0227 83.8733 28.7588 83.2765 28.518L83.2342 28.6093C82.7799 30.5957 82.0974 32.6438 81.1888 34.7529C80.2801 36.8622 79.1934 38.6394 77.9294 40.0842C76.6654 41.5308 75.2524 42.3132 73.6908 42.4344C71.4747 42.4031 69.8194 41.3349 68.726 39.2255C67.6327 37.1166 67.2708 34.3011 67.6404 30.7768C67.924 28.7887 68.6554 27.0499 69.8347 25.5583C71.0127 24.0684 72.3768 22.8926 73.9244 22.0339C75.4719 21.1767 77.1272 20.7017 78.8878 20.6119C79.0021 19.6486 79.101 18.7136 79.1868 17.8103C79.2999 16.3637 78.8173 15.6264 77.7381 15.5961H72.6681C70.3955 15.5961 69.2586 14.3908 69.2586 11.982C69.2586 9.57213 70.3955 8.36792 72.6681 8.36792ZM73.9039 35.1598C74.5275 35.1285 75.0753 34.7229 75.5438 33.9392C76.0122 33.1568 76.4023 32.2532 76.7154 31.2285C77.0272 30.2039 77.2697 29.2935 77.4391 28.4948C77.6097 27.6976 77.6958 27.2838 77.6958 27.2524C76.7578 27.2524 75.9339 27.5097 75.2243 28.0213C74.5134 28.533 73.9809 29.1358 73.6267 29.8284C73.2713 30.521 73.0223 31.1388 72.8812 31.6804C72.6809 32.8561 72.731 33.7283 73.03 34.3011C73.3277 34.8741 73.619 35.1598 73.9039 35.1598Z" fill="#1391E6"/>
<path d="M101.174 14.8737C101.174 12.6147 102.239 11.4855 104.369 11.4855H106.542L107.01 8.77329C107.323 7.17713 108.431 6.36474 110.334 6.33342C112.323 6.45479 113.146 7.38802 112.805 9.13538C112.635 9.85772 112.507 10.6403 112.422 11.4855H114.638C116.768 11.4855 117.833 12.6147 117.833 14.8737C117.833 17.1624 116.768 18.3067 114.638 18.3067H111.399C109.383 27.3123 108.175 32.7201 107.777 34.5269C107.351 36.304 106.158 37.0266 104.199 36.696C102.267 36.2443 101.528 35.0385 101.982 33.0817C103.772 26.1543 104.908 21.2296 105.392 18.3067H104.369C102.239 18.3067 101.174 17.1624 101.174 14.8737ZM125.162 22.6448V27.0727C126.44 27.5545 128.03 28.3518 129.934 29.4663C131.154 30.4298 131.325 31.8163 130.445 33.6233C129.45 35.0998 128.258 35.4005 126.866 34.5269C126.468 34.3159 125.899 34.0602 125.162 33.7594V36.696C125.162 38.9848 124.8 40.7088 124.075 41.8695C123.351 43.0275 122.477 43.8112 121.454 44.2183C120.432 44.6252 119.395 44.8276 118.344 44.8276C116.981 44.8877 115.639 44.6617 114.318 44.1501C112.996 43.6372 111.875 42.7201 110.952 41.3947C110.028 40.0691 109.568 38.2011 109.568 35.7924C109.596 32.6899 110.497 30.2568 112.273 28.4948C114.047 26.7338 116.497 25.9568 119.623 26.1692V22.6448C119.623 20.6867 120.546 19.7071 122.392 19.7071C124.238 19.7071 125.162 20.6867 125.162 22.6448ZM118.344 38.458C118.77 38.4268 119.089 38.2011 119.302 37.7804C119.517 37.3586 119.623 36.8008 119.623 36.1083V32.268C118.088 32.0271 116.923 32.223 116.129 32.856C115.333 33.4872 114.893 34.3609 114.808 35.4752C114.779 36.5913 115.084 37.3886 115.723 37.8702C116.362 38.3532 117.236 38.548 118.344 38.458ZM119.963 13.246C120.532 11.1682 121.838 10.4143 123.883 10.9871L127.718 12.0717C129.763 12.6745 130.501 13.9999 129.934 16.0479C129.337 18.1258 128.017 18.8796 125.971 18.3067L122.179 17.2222C120.104 16.6493 119.366 15.3252 119.963 13.246Z" fill="#1391E6"/>
<path d="M140.371 8.36793H147.189C151.166 8.39794 153.041 10.7166 152.813 15.3254C152.643 17.1327 152.414 19.2555 152.131 21.6952C153.352 22.1169 154.588 22.6299 155.838 23.2313C155.98 21.936 156.122 20.1901 156.264 17.9911C156.377 16.0033 157.301 15.0085 159.033 15.0085C160.994 15.0683 161.945 16.063 161.889 17.9911C161.69 21.2435 161.477 23.8793 161.249 25.8973L162.954 26.9367C165.026 27.9613 165.652 29.7685 164.828 32.358C163.862 34.1962 162.556 34.6182 160.908 33.6234L160.184 33.2166C159.815 35.2047 158.976 38.2923 157.67 42.4791C156.761 44.4359 155.397 45.0389 153.58 44.2864C151.705 43.3216 151.194 41.8764 152.046 39.9482C153.41 36.4252 154.305 33.1867 154.73 30.2352C154.076 29.9046 153.437 29.5943 152.813 29.3087C152.187 29.0227 151.578 28.7588 150.981 28.518L150.939 28.6093C150.483 30.5957 149.802 32.6438 148.893 34.7529C147.983 36.8622 146.896 38.6394 145.634 40.0842C144.37 41.5308 142.957 42.3132 141.394 42.4344C139.179 42.4031 137.524 41.3349 136.43 39.2255C135.337 37.1166 134.974 34.3011 135.343 30.7768C135.628 28.7887 136.358 27.0499 137.538 25.5583C138.717 24.0684 140.08 22.8926 141.629 22.0339C143.176 21.1767 144.83 20.7017 146.592 20.6119C146.705 19.6486 146.805 18.7136 146.891 17.8103C147.003 16.3637 146.52 15.6264 145.443 15.5961H140.371C138.098 15.5961 136.963 14.3908 136.963 11.982C136.963 9.57213 138.098 8.36793 140.371 8.36793ZM141.607 35.1598C142.232 35.1285 142.778 34.7229 143.248 33.9392C143.716 33.1568 144.107 32.2532 144.42 31.2285C144.732 30.2039 144.973 29.2935 145.143 28.4948C145.314 27.6976 145.399 27.2838 145.399 27.2524C144.462 27.2524 143.638 27.5097 142.929 28.0213C142.218 28.533 141.685 29.1358 141.331 29.8284C140.975 30.521 140.727 31.1388 140.584 31.6804C140.385 32.8561 140.435 33.7283 140.734 34.3011C141.032 34.8741 141.323 35.1598 141.607 35.1598Z" fill="#1391E6"/>
<path d="M191.629 10.5803C191.629 10.8824 191.77 11.0319 192.055 11.0319H205.902C206.669 11.0319 207.322 11.3177 207.862 11.8906C208.401 12.4635 208.672 13.148 208.672 13.9468C208.672 14.7455 208.401 15.43 207.862 16.0028C207.322 16.5758 206.669 16.8614 205.902 16.8614H171.134C170.395 16.8614 169.756 16.5758 169.217 16.0028C168.677 15.43 168.408 14.7455 168.408 13.9468C168.408 13.148 168.677 12.4635 169.217 11.8906C169.756 11.3177 170.395 11.0319 171.134 11.0319H174.032C174.315 11.0319 174.458 10.8824 174.458 10.5803V7.05731C174.458 6.18367 174.756 5.42986 175.352 4.79709C175.949 4.16573 176.659 3.84866 177.483 3.84866C178.306 3.84866 179.017 4.16573 179.614 4.79709C180.209 5.42986 180.508 6.18367 180.508 7.05731V10.5803C180.508 10.8824 180.65 11.0319 180.934 11.0319H184.897C185.179 11.0319 185.323 10.8824 185.323 10.5803V4.84333C185.323 3.9084 185.627 3.11792 186.239 2.47029C186.849 1.82382 187.594 1.5 188.476 1.5H189.455C190.052 1.5 190.564 1.72585 190.99 2.17765C191.416 2.6294 191.629 3.17096 191.629 3.80368C191.629 3.98471 191.714 4.07451 191.884 4.07451H202.068C202.75 4.07451 203.331 4.33164 203.815 4.84333C204.297 5.35497 204.538 5.98089 204.538 6.71848C204.538 7.45587 204.297 8.08189 203.815 8.59358C203.331 9.10386 202.75 9.36099 202.068 9.36099H192.055C191.77 9.36099 191.629 9.51078 191.629 9.81284V10.5803ZM200.023 38.0063C200.306 38.0063 200.449 37.8551 200.449 37.5544V21.1083C200.449 20.2048 200.746 19.436 201.343 18.8033C201.94 18.172 202.664 17.8549 203.516 17.8549C204.369 17.8549 205.093 18.172 205.689 18.8033C206.286 19.436 206.584 20.2048 206.584 21.1083V42.2981C206.584 43.2015 206.286 43.9703 205.689 44.6017C205.093 45.2346 204.369 45.5516 203.516 45.5516H201.982C201.556 45.5516 201.194 45.3923 200.895 45.0768C200.598 44.7609 200.449 44.376 200.449 43.9241C200.449 43.803 200.391 43.7444 200.278 43.7444H176.844C176.729 43.7444 176.673 43.803 176.673 43.9241C176.673 44.376 176.524 44.7609 176.226 45.0768C175.927 45.3923 175.565 45.5516 175.139 45.5516H173.648C172.823 45.5516 172.115 45.2346 171.518 44.6017C170.921 43.9703 170.624 43.2165 170.624 42.3429V21.0634C170.624 20.1899 170.921 19.436 171.518 18.8033C172.115 18.172 172.823 17.8549 173.648 17.8549C174.472 17.8549 175.182 18.172 175.778 18.8033C176.375 19.436 176.673 20.1899 176.673 21.0634V32.1782C176.673 32.2978 176.717 32.389 176.801 32.4489C176.887 32.5087 176.972 32.5237 177.057 32.4938C179.044 31.6801 180.905 30.5206 182.639 29.0143C182.695 28.9844 182.716 28.9326 182.703 28.8565C182.687 28.7803 182.639 28.7435 182.554 28.7435H179.783C179.158 28.7435 178.626 28.5094 178.186 28.0428C177.744 27.5774 177.526 27.0128 177.526 26.3487C177.526 25.6858 177.744 25.1212 178.186 24.6546C178.626 24.1879 179.158 23.9552 179.783 23.9552H179.827C179.996 23.9552 180.053 23.8639 179.996 23.6829C179.769 23.0815 179.486 22.4637 179.144 21.8309C178.974 21.5003 178.889 21.1683 178.889 20.8377C178.889 20.5967 178.917 20.3709 178.974 20.16C179.172 19.5571 179.542 19.1653 180.082 18.9843C180.422 18.8345 180.778 18.7584 181.147 18.7584C181.431 18.7584 181.715 18.7897 182 18.8496C182.653 19.0605 183.149 19.4674 183.491 20.0687C183.547 20.1287 183.604 20.2048 183.661 20.2947C183.859 20.6865 183.959 21.0771 183.959 21.4691C183.959 21.7411 183.917 22.0268 183.832 22.3275C183.575 23.0202 183.107 23.517 182.426 23.819H182.383C182.354 23.8489 182.346 23.8788 182.361 23.9087C182.375 23.94 182.396 23.9552 182.426 23.9552H185.152C185.436 23.9552 185.578 23.804 185.578 23.5032V20.7015C185.578 19.9191 185.84 19.2482 186.366 18.6903C186.891 18.1337 187.524 17.8549 188.263 17.8549C189.001 17.8549 189.632 18.1337 190.158 18.6903C190.683 19.2482 190.948 19.9191 190.948 20.7015V23.5032C190.948 23.804 191.089 23.9552 191.374 23.9552H194.74C194.767 23.9552 194.788 23.94 194.802 23.9087C194.817 23.8788 194.809 23.8639 194.782 23.8639L194.441 23.7292C193.816 23.517 193.376 23.0815 193.12 22.4188C193.006 22.1167 192.949 21.8159 192.949 21.5152C192.949 21.1534 193.02 20.8064 193.162 20.4757C193.474 19.7831 193.944 19.2549 194.569 18.8945C194.965 18.6836 195.379 18.5773 195.805 18.5773C196.06 18.5773 196.3 18.6237 196.528 18.7135H196.614C197.21 18.8945 197.622 19.3013 197.849 19.934C197.935 20.1735 197.977 20.4158 197.977 20.6564C197.977 21.0485 197.863 21.409 197.636 21.7411C197.04 22.6746 196.627 23.3074 196.401 23.6379C196.344 23.6979 196.337 23.766 196.38 23.8421C196.422 23.917 196.471 23.9552 196.528 23.9552H197.296C197.919 23.9552 198.452 24.1879 198.893 24.6546C199.334 25.1212 199.554 25.6858 199.554 26.3487C199.554 27.0128 199.334 27.5774 198.893 28.0428C198.452 28.5094 197.919 28.7435 197.296 28.7435H194.314C194.227 28.7435 194.178 28.7803 194.163 28.8565C194.149 28.9326 194.17 28.9844 194.227 29.0143C195.363 30.009 196.571 30.8364 197.849 31.5006C198.388 31.8012 198.715 32.283 198.829 32.9456C198.858 33.0667 198.872 33.2013 198.872 33.3525C198.872 33.8042 198.715 34.2248 198.403 34.618C197.863 35.2491 197.238 35.6561 196.528 35.8372C196.33 35.8969 196.116 35.927 195.889 35.927C195.406 35.927 194.937 35.7773 194.483 35.4751C193.347 34.6315 192.268 33.6679 191.245 32.5836C191.188 32.5237 191.123 32.5087 191.054 32.5386C190.982 32.5699 190.948 32.63 190.948 32.7197V34.3919C190.948 35.1744 190.683 35.8453 190.158 36.4018C189.632 36.9585 189.001 37.2373 188.263 37.2373C187.524 37.2373 186.891 36.9585 186.366 36.4018C185.84 35.8453 185.578 35.1744 185.578 34.3919V32.9006C185.578 32.8095 185.543 32.7495 185.472 32.7197C185.4 32.6897 185.336 32.7047 185.281 32.7646C184.484 33.6381 183.675 34.4057 182.852 35.0696C182.197 35.5514 181.516 35.7924 180.806 35.7924C180.551 35.7924 180.295 35.7608 180.04 35.7011C179.044 35.4615 178.178 34.9022 177.44 34.0302C177.27 33.8803 177.113 33.713 176.972 33.5332C176.914 33.4735 176.85 33.4572 176.781 33.4872C176.709 33.5184 176.673 33.5783 176.673 33.6679V37.5544C176.673 37.8551 176.815 38.0063 177.1 38.0063H200.023Z" fill="#1391E6"/>
<path d="M227.12 25.5811C227.744 26.2737 228.085 27.0862 228.143 28.021V28.2917C228.143 29.1356 227.901 29.9042 227.418 30.5956C227.049 31.1385 226.566 31.4091 225.971 31.4091C225.913 31.4091 225.842 31.3942 225.756 31.3644C225.075 31.3046 224.578 30.9575 224.265 30.3249C224.152 30.1437 224.052 29.964 223.967 29.7833C223.939 29.7233 223.896 29.7001 223.839 29.7151C223.781 29.7301 223.755 29.7681 223.755 29.828V43.2464C223.755 44.1499 223.457 44.9191 222.86 45.5516C222.263 46.1845 221.538 46.5 220.686 46.5C219.834 46.5 219.11 46.1845 218.514 45.5516C217.917 44.9191 217.619 44.1499 217.619 43.2464V32.6747C217.619 32.6148 217.597 32.5769 217.555 32.5619C217.513 32.5468 217.476 32.57 217.449 32.6298C216.824 34.1063 216.213 35.4003 215.616 36.5147C215.303 37.0878 214.849 37.3734 214.253 37.3734H214.04C213.329 37.2837 212.817 36.8904 212.505 36.1991C212.136 35.3854 211.952 34.5119 211.952 33.5784V33.1265C212.037 32.0721 212.349 31.0787 212.889 30.1437C214.253 27.855 215.502 25.2193 216.639 22.2378C216.667 22.1167 216.653 22.012 216.596 21.9206C216.539 21.831 216.468 21.7861 216.384 21.7861H214.38C213.557 21.7861 212.861 21.484 212.293 20.8826C211.724 20.2797 211.44 19.549 211.44 18.6903C211.44 17.833 211.724 17.0956 212.293 16.4765C212.861 15.8587 213.557 15.551 214.38 15.551H217.193C217.476 15.551 217.619 15.4002 217.619 15.0994V11.711C217.619 11.59 217.576 11.492 217.491 11.4171C217.406 11.341 217.306 11.3041 217.193 11.3041C216.681 11.394 216.255 11.4702 215.915 11.5301C215.771 11.5602 215.63 11.575 215.489 11.575C214.949 11.575 214.437 11.394 213.954 11.032C213.358 10.5802 212.932 9.97885 212.676 9.22504C212.592 8.95426 212.549 8.68358 212.549 8.41265C212.549 8.05061 212.634 7.68886 212.804 7.32803C213.116 6.72533 213.599 6.36464 214.253 6.24351C217.349 5.61088 220.246 4.84343 222.945 3.93973C223.371 3.78877 223.797 3.71397 224.223 3.71397C224.649 3.71397 225.089 3.78877 225.543 3.93973C226.424 4.24052 227.105 4.79709 227.589 5.61088C227.872 6.03257 228.015 6.48437 228.015 6.96619C228.015 7.23696 227.957 7.5227 227.844 7.82486C227.589 8.60723 227.092 9.10371 226.353 9.31601C225.643 9.52715 224.918 9.72303 224.18 9.90259C223.896 9.96239 223.755 10.1435 223.755 10.4456V15.0994C223.755 15.4002 223.896 15.551 224.18 15.551H226.184C227.006 15.551 227.702 15.8587 228.27 16.4765C228.839 17.0956 229.123 17.833 229.123 18.6903C229.123 19.549 228.839 20.2797 228.27 20.8826C227.702 21.484 227.006 21.7861 226.184 21.7861H223.839C223.781 21.7861 223.755 21.8159 223.755 21.8758C223.755 21.936 223.781 21.9805 223.839 22.012C224.408 22.5538 225.501 23.7428 227.12 25.5811ZM252.516 30.9127C252.543 31.0936 252.558 31.2731 252.558 31.4543C252.558 32.1182 252.372 32.7347 252.004 33.3077C251.52 34.0301 250.867 34.467 250.044 34.6179L248.553 34.9337C248.268 34.9635 248.127 35.1282 248.127 35.4305V43.1565C248.127 44.0604 247.82 44.8346 247.211 45.4838C246.599 46.1301 245.861 46.4551 244.995 46.4551C244.127 46.4551 243.389 46.1301 242.78 45.4838C242.168 44.8346 241.864 44.0604 241.864 43.1565V36.6508C241.864 36.5299 241.821 36.4331 241.735 36.3569C241.651 36.2807 241.565 36.2589 241.48 36.2889L232.276 38.0511C232.078 38.081 231.893 38.0961 231.722 38.0961C231.097 38.0961 230.529 37.9015 230.018 37.5095C229.337 36.9979 228.923 36.3039 228.782 35.4305C228.753 35.2493 228.74 35.0549 228.74 34.8439C228.74 34.1799 228.923 33.5634 229.293 32.9905C229.775 32.2366 230.444 31.7848 231.296 31.6351L241.48 29.692C241.735 29.662 241.864 29.4974 241.864 29.1955V5.83673C241.864 4.90317 242.168 4.11283 242.78 3.46495C243.389 2.81712 244.127 2.49336 244.995 2.49336C245.861 2.49336 246.599 2.81712 247.211 3.46495C247.82 4.11283 248.127 4.90317 248.127 5.83673V28.021C248.127 28.1422 248.169 28.2388 248.254 28.3149C248.34 28.3899 248.425 28.4129 248.51 28.3816L249.064 28.2917C249.262 28.2618 249.448 28.2469 249.618 28.2469C250.215 28.2469 250.782 28.4416 251.322 28.8346C252.004 29.345 252.401 30.039 252.516 30.9127ZM231.21 23.0516C230.671 22.5086 230.402 21.8609 230.402 21.1084C230.402 20.3546 230.671 19.7217 231.21 19.2101C231.808 18.6372 232.49 18.338 233.257 18.3068H233.384C234.123 18.3068 234.775 18.5637 235.345 19.0754C236.394 20.0389 237.318 20.9274 238.114 21.7411C238.653 22.3427 238.924 23.0366 238.924 23.8191C238.924 24.7825 238.582 25.5962 237.901 26.2587C237.389 26.7705 236.793 27.0262 236.111 27.0262H235.855C235.088 26.9367 234.435 26.5746 233.896 25.9432C233.1 25.0082 232.205 24.0449 231.21 23.0516ZM239.477 9.54201C239.989 10.1148 240.244 10.7762 240.244 11.5301V11.8458C240.159 12.7195 239.803 13.4421 239.179 14.0147C238.668 14.4965 238.099 14.7374 237.475 14.7374C237.361 14.7374 237.246 14.7224 237.134 14.6925C236.338 14.6026 235.685 14.2407 235.174 13.608C234.463 12.7044 233.641 11.7696 232.703 10.8064C232.192 10.2948 231.935 9.6631 231.935 8.90919C231.935 8.12682 232.219 7.47782 232.787 6.96619C233.384 6.42477 234.079 6.1538 234.875 6.1538C235.671 6.1538 236.352 6.42477 236.921 6.96619C237.886 7.86964 238.738 8.72831 239.477 9.54201Z" fill="#1391E6"/>
<path d="M268.92 11.1234H276.462C281.516 11.0635 283.647 13.9836 282.852 19.888C282.483 22.5687 281.673 25.4084 280.424 28.4049C279.173 31.4012 277.633 33.8643 275.801 35.7924C273.968 37.7204 272.073 39.2705 270.112 40.4462C268.153 41.6204 266.037 42.6601 263.764 43.5639C261.747 44.3761 260.271 43.7734 259.333 41.7567C258.737 39.4378 259.347 37.9016 261.166 37.1478C262.017 36.9069 263.238 36.3789 264.829 35.5665C266.421 34.7528 268.081 33.5186 269.814 31.8612C271.547 30.2039 272.945 28.292 274.012 26.1229C275.077 23.9552 275.708 21.9972 275.907 20.2498C276.105 18.6837 275.453 17.8864 273.948 17.8548H266.32C264.673 20.6867 263.025 22.9306 261.378 24.5867C259.701 26.274 258.112 26.5148 256.606 25.3107C255.214 23.3226 255.228 21.5603 256.648 20.024C257.443 19.2702 258.381 18.0958 259.461 16.4997C260.539 14.9036 261.576 12.5385 262.571 9.4062C263.167 7.14725 264.644 6.24369 267.003 6.6954C268.962 7.29689 269.602 8.77343 268.92 11.1234Z" fill="#1391E6"/>
<path d="M289.457 10.4459C289.457 8.12726 290.549 6.96653 292.737 6.96653C294.953 6.96653 296.061 8.12726 296.061 10.4459V24.6781C296.061 26.9968 294.967 28.1562 292.779 28.1562C290.565 28.1562 289.457 26.9968 289.457 24.6781V10.4459ZM297.51 37.0567C299.752 36.1233 301.38 35.0838 302.388 33.9393C303.396 32.7964 304.263 31.3866 304.987 29.7155C305.712 28.0432 306.088 25.9736 306.116 23.5038V10.4459C306.116 8.12726 307.209 6.96653 309.397 6.96653C311.612 6.96653 312.721 8.12726 312.721 10.4459V23.5038C312.691 27.2676 312.124 30.4694 311.016 33.1039C309.908 35.7395 308.445 37.8703 306.628 39.4968C304.81 41.1241 302.509 42.5392 299.726 43.7451C297.481 44.4674 296.003 43.7451 295.293 41.5759C294.867 39.166 295.606 37.6595 297.51 37.0567Z" fill="#1391E6"/>
<path d="M342.673 35.0701C344.889 35.0701 345.997 36.2446 345.997 38.593C345.997 40.973 344.889 42.1625 342.673 42.1625H322.307C320.092 42.1625 318.983 40.988 318.983 38.6394C318.983 36.2593 320.092 35.0701 322.307 35.0701H342.673ZM319.793 12.6151C319.793 10.2651 320.902 9.09065 323.117 9.09065H341.779C343.995 9.09065 345.102 10.2651 345.102 12.6151C345.102 14.9949 343.995 16.1842 341.779 16.1842H323.117C320.902 16.1842 319.793 15.0086 319.793 12.6599V12.6151Z" fill="#1391E6"/>
<path d="M354.817 15.2341L356.479 26.0779C356.676 27.6741 356.067 28.6225 354.646 28.9247C353.226 29.1954 352.416 28.5179 352.219 26.8916L350.514 16.1839C350.344 14.5565 350.997 13.653 352.474 13.472C353.894 13.3522 354.675 13.9387 354.817 15.2341ZM355.926 43.3376C353.907 43.8181 352.701 43.0956 352.303 41.1687C352.02 39.031 352.687 37.8104 354.306 37.5096C356.634 36.9666 358.679 35.874 360.442 34.233C362.202 32.5918 363.595 30.6106 364.617 28.2919C365.64 25.9732 366.412 23.7143 366.94 21.5154C367.465 19.315 367.797 17.6292 367.941 16.4547C368.138 14.5264 369.147 13.5482 370.965 13.5183C372.897 13.608 373.721 14.7375 373.437 16.9065C372.868 21.4242 372.101 24.9853 371.136 27.5911C370.17 30.1969 368.878 32.6435 367.259 34.9337C365.64 37.2239 363.807 39.0827 361.762 40.5142C359.718 41.9442 357.771 42.8859 355.926 43.3376ZM361.933 15.2341L363.595 26.0779C363.792 27.6741 363.168 28.6225 361.72 28.9247C360.299 29.1954 359.489 28.5179 359.292 26.8916L357.586 16.1839C357.444 14.5565 358.098 13.653 359.547 13.472C360.996 13.3522 361.79 13.9387 361.933 15.2341Z" fill="#1391E6"/>
<path d="M390.905 11.1234H398.446C403.502 11.0635 405.633 13.9836 404.838 19.888C404.469 22.5687 403.659 25.4084 402.409 28.4049C401.159 31.4012 399.618 33.8643 397.787 35.7924C395.954 37.7204 394.058 39.2705 392.098 40.4462C390.139 41.6204 388.021 42.6601 385.75 43.5639C383.731 44.3761 382.256 43.7734 381.319 41.7567C380.722 39.4378 381.332 37.9016 383.15 37.1478C384.002 36.9069 385.224 36.3789 386.815 35.5665C388.405 34.7528 390.067 33.5186 391.801 31.8612C393.531 30.2039 394.931 28.292 395.997 26.1229C397.062 23.9552 397.693 21.9972 397.893 20.2498C398.091 18.6837 397.438 17.8864 395.932 17.8548H388.306C386.658 20.6867 385.011 22.9306 383.363 24.5867C381.687 26.274 380.096 26.5148 378.592 25.3107C377.2 23.3226 377.213 21.5603 378.634 20.024C379.429 19.2702 380.366 18.0958 381.446 16.4997C382.525 14.9036 383.562 12.5385 384.557 9.4062C385.153 7.14725 386.629 6.24369 388.988 6.6954C390.947 7.29689 391.588 8.77343 390.905 11.1234Z" fill="#1391E6"/>
</svg>
