<svg width="290" height="255" viewBox="0 0 290 255" fill="none" xmlns="http://www.w3.org/2000/svg">
<ellipse cx="142.42" cy="110.055" rx="113.523" ry="110.055" fill="#DFF1FD"/>
<path d="M94.2798 159.008H190.719C194.504 156.478 197 152.208 197 147.366V56.4752C197 48.7127 190.601 42.3979 182.736 42.3979H158.488V40.7892C158.488 39.8011 157.677 39 156.676 39H128.324C127.323 39 126.511 39.8011 126.511 40.7892V42.3979H102.264C94.3984 42.3979 88 48.7127 88 56.4752V147.366C88 152.208 90.4957 156.478 94.2798 159.008Z" fill="white"/>
<path d="M182.735 161.442H102.264C94.3984 161.442 88 155.128 88 147.365V56.4751C88 48.7127 94.3984 42.3979 102.264 42.3979H182.735C190.601 42.3979 196.999 48.7127 196.999 56.4751V147.365C196.999 155.128 190.601 161.442 182.735 161.442ZM102.264 47.6532C97.3354 47.6532 93.3249 51.6105 93.3249 56.4751V147.365C93.3249 152.229 97.3354 156.187 102.264 156.187H182.735C187.664 156.187 191.674 152.229 191.674 147.365V56.4751C191.674 51.6105 187.664 47.6532 182.735 47.6532H102.264Z" fill="#1391E6"/>
<path fill-rule="evenodd" clip-rule="evenodd" d="M107.24 60.8005H177.76C182.159 60.8005 185.723 64.2982 185.723 68.6119V110.202C185.723 114.516 182.159 118.013 177.761 118.013H107.24C102.842 118.013 99.2773 114.516 99.2773 110.202V68.6119C99.2773 64.2974 102.842 60.8005 107.24 60.8005ZM177.76 64.54C180.049 64.54 181.911 66.3666 181.911 68.6119V110.202C181.911 112.447 180.049 114.273 177.761 114.273H107.24C104.951 114.273 103.089 112.447 103.089 110.202V68.6119C103.089 66.3666 104.951 64.54 107.24 64.54H177.76Z" fill="#1391E6"/>
<path fill-rule="evenodd" clip-rule="evenodd" d="M162.299 135.498C162.299 128.966 167.543 123.671 174.011 123.671C180.48 123.671 185.723 128.966 185.723 135.498C185.723 142.029 180.48 147.324 174.011 147.324C167.543 147.324 162.299 142.029 162.299 135.498ZM174.011 127.41C178.427 127.41 182.019 131.039 182.019 135.498C182.019 139.957 178.427 143.584 174.011 143.584C169.595 143.584 166.002 139.957 166.002 135.498C166.002 131.039 169.595 127.41 174.011 127.41Z" fill="#1391E6"/>
<path fill-rule="evenodd" clip-rule="evenodd" d="M99 135.498C99 128.966 104.244 123.671 110.712 123.671C117.181 123.671 122.424 128.966 122.424 135.498C122.424 142.029 117.181 147.324 110.712 147.324C104.244 147.324 99 142.029 99 135.498ZM110.712 127.41C115.128 127.41 118.72 131.039 118.72 135.498C118.72 139.957 115.128 143.584 110.712 143.584C106.296 143.584 102.703 139.957 102.703 135.498C102.703 131.039 106.296 127.41 110.712 127.41Z" fill="#1391E6"/>
<path d="M152.215 57.2937H132.785C131.348 57.2937 130.183 56.117 130.183 54.6662C130.183 53.2152 131.348 52.0385 132.785 52.0385H152.215C153.653 52.0385 154.818 53.2152 154.818 54.6662C154.818 56.117 153.653 57.2937 152.215 57.2937Z" fill="#1391E6"/>
<path d="M90.6015 181C89.9991 181 89.3934 180.79 88.9021 180.361C87.8142 179.413 87.6932 177.753 88.6322 176.655L105.348 157.098C106.287 155.999 107.931 155.877 109.019 156.826C110.106 157.773 110.227 159.433 109.288 160.532L92.5725 180.089C92.0582 180.691 91.3315 181 90.6015 181Z" fill="#1391E6"/>
<path d="M194.398 181C193.669 181 192.943 180.691 192.428 180.089L175.712 160.532C174.773 159.433 174.894 157.773 175.981 156.826C177.069 155.879 178.713 155.998 179.652 157.098L196.368 176.655C197.307 177.753 197.186 179.413 196.099 180.361C195.607 180.79 195.002 181 194.398 181Z" fill="#1391E6"/>
<path d="M185.652 172.281H99.0325C97.555 172.281 96.3584 171.104 96.3584 169.654C96.3584 168.203 97.555 167.026 99.0325 167.026H185.652C187.128 167.026 188.326 168.203 188.326 169.654C188.326 171.104 187.128 172.281 185.652 172.281Z" fill="#1391E6"/>
<path d="M156.356 39H128.646C127.667 39 126.874 39.8011 126.874 40.7892V45.0471C126.874 46.0352 127.667 46.8355 128.646 46.8355H156.356C157.334 46.8355 158.127 46.0352 158.127 45.0471V40.7892C158.127 39.8011 157.334 39 156.356 39Z" fill="#1391E6"/>
<rect y="193.097" width="290" height="44" rx="22" fill="#1391E6"/>
<path d="M81.7635 209.337C81.6568 209.337 81.6035 209.391 81.6035 209.497V210.317C81.6035 210.437 81.6568 210.497 81.7635 210.497H82.5235C82.7502 210.497 82.9435 210.584 83.1035 210.757C83.2768 210.917 83.3635 211.111 83.3635 211.337C83.3635 211.564 83.2768 211.757 83.1035 211.917C82.9435 212.077 82.7502 212.157 82.5235 212.157H81.7635C81.6568 212.157 81.6035 212.217 81.6035 212.337V213.157C81.6035 213.277 81.6568 213.337 81.7635 213.337H82.5235C82.7502 213.337 82.9435 213.417 83.1035 213.577C83.2768 213.737 83.3635 213.931 83.3635 214.157C83.3635 214.384 83.2768 214.584 83.1035 214.757C82.9435 214.917 82.7502 214.997 82.5235 214.997H81.7635C81.6568 214.997 81.6035 215.057 81.6035 215.177V216.057C81.6035 216.177 81.6568 216.237 81.7635 216.237H82.5035C82.8102 216.237 83.0702 216.351 83.2835 216.577C83.5102 216.791 83.6235 217.051 83.6235 217.357V218.157C83.6235 220.184 83.5702 221.631 83.4635 222.497H83.4835C83.8702 221.271 84.1368 219.911 84.2835 218.417C84.4435 216.911 84.5235 214.917 84.5235 212.437V208.497C84.5235 208.191 84.6368 207.924 84.8635 207.697C85.0902 207.471 85.3568 207.357 85.6635 207.357H91.4235C91.7302 207.357 91.9968 207.471 92.2235 207.697C92.4502 207.924 92.5635 208.191 92.5635 208.497V214.897C92.5635 215.204 92.4502 215.471 92.2235 215.697C91.9968 215.924 91.7302 216.037 91.4235 216.037H90.7235C90.6035 216.037 90.5568 216.091 90.5835 216.197C91.0102 218.611 91.7168 220.717 92.7035 222.517C92.8502 222.797 92.8968 223.097 92.8435 223.417C92.7902 223.737 92.6368 223.991 92.3835 224.177L92.1835 224.317C91.9302 224.504 91.6502 224.571 91.3435 224.517C91.0368 224.464 90.8102 224.304 90.6635 224.037C89.5168 222.024 88.6968 219.404 88.2035 216.177C88.1902 216.084 88.1235 216.037 88.0035 216.037H87.0835C86.9635 216.037 86.9035 216.084 86.9035 216.177C86.7702 219.244 86.3502 221.831 85.6435 223.937C85.5502 224.217 85.3635 224.397 85.0835 224.477C84.8168 224.571 84.5568 224.537 84.3035 224.377L84.0635 224.217C83.6502 223.951 83.4302 223.564 83.4035 223.057L83.3835 223.037C83.2502 223.771 83.0502 224.257 82.7835 224.497C82.5168 224.737 82.1302 224.857 81.6235 224.857C81.4768 224.857 81.1102 224.844 80.5235 224.817C80.2035 224.804 79.9368 224.684 79.7235 224.457C79.5102 224.231 79.3902 223.957 79.3635 223.637C79.3502 223.344 79.4435 223.097 79.6435 222.897C79.8568 222.697 80.1102 222.611 80.4035 222.637C80.5635 222.651 80.7502 222.657 80.9635 222.657C81.1368 222.657 81.2435 222.577 81.2835 222.417C81.3768 222.124 81.4235 220.744 81.4235 218.277C81.4235 218.184 81.3702 218.137 81.2635 218.137H76.4235C76.1168 218.137 75.8502 218.024 75.6235 217.797C75.4102 217.571 75.3035 217.304 75.3035 216.997V208.397C75.3035 208.091 75.4102 207.824 75.6235 207.597C75.8502 207.371 76.1168 207.257 76.4235 207.257H82.5635C82.8568 207.257 83.1035 207.357 83.3035 207.557C83.5035 207.757 83.6035 208.004 83.6035 208.297C83.6035 208.591 83.5035 208.837 83.3035 209.037C83.1035 209.237 82.8568 209.337 82.5635 209.337H81.7635ZM79.3035 216.057V215.177C79.3035 215.057 79.2435 214.997 79.1235 214.997H77.9635C77.8568 214.997 77.8035 215.057 77.8035 215.177V216.057C77.8035 216.177 77.8568 216.237 77.9635 216.237H79.1235C79.2435 216.237 79.3035 216.177 79.3035 216.057ZM79.3035 213.157V212.337C79.3035 212.217 79.2435 212.157 79.1235 212.157H77.9635C77.8568 212.157 77.8035 212.217 77.8035 212.337V213.157C77.8035 213.277 77.8568 213.337 77.9635 213.337H79.1235C79.2435 213.337 79.3035 213.277 79.3035 213.157ZM79.3035 210.317V209.497C79.3035 209.391 79.2435 209.337 79.1235 209.337H77.9635C77.8568 209.337 77.8035 209.391 77.8035 209.497V210.317C77.8035 210.437 77.8568 210.497 77.9635 210.497H79.1235C79.2435 210.497 79.3035 210.437 79.3035 210.317ZM86.9635 213.497V213.657C86.9635 213.777 87.0168 213.837 87.1235 213.837H89.9235C90.0435 213.837 90.1035 213.777 90.1035 213.657V209.797C90.1035 209.691 90.0435 209.637 89.9235 209.637H87.1435C87.0235 209.637 86.9635 209.691 86.9635 209.797V213.497ZM74.9635 224.097C74.7368 224.004 74.5568 223.851 74.4235 223.637C74.3035 223.437 74.2635 223.217 74.3035 222.977C74.5035 221.844 74.6435 220.637 74.7235 219.357C74.7368 219.157 74.8168 218.997 74.9635 218.877C75.1235 218.744 75.3035 218.697 75.5035 218.737C75.7168 218.777 75.8968 218.884 76.0435 219.057C76.1902 219.231 76.2568 219.431 76.2435 219.657C76.2035 220.764 76.0835 222.064 75.8835 223.557C75.8568 223.784 75.7502 223.951 75.5635 224.057C75.3768 224.164 75.1768 224.177 74.9635 224.097ZM77.4635 223.897C77.2768 223.924 77.1102 223.877 76.9635 223.757C76.8302 223.637 76.7568 223.484 76.7435 223.297C76.6902 221.644 76.6435 220.391 76.6035 219.537C76.5902 219.364 76.6435 219.204 76.7635 219.057C76.8835 218.911 77.0368 218.824 77.2235 218.797C77.3968 218.771 77.5502 218.811 77.6835 218.917C77.8168 219.024 77.8902 219.164 77.9035 219.337C77.9968 220.617 78.0768 221.864 78.1435 223.077C78.1568 223.277 78.0968 223.457 77.9635 223.617C77.8302 223.777 77.6635 223.871 77.4635 223.897ZM79.7035 222.477C79.5835 222.637 79.4368 222.731 79.2635 222.757C79.0902 222.784 78.9302 222.744 78.7835 222.637C78.6502 222.531 78.5702 222.391 78.5435 222.217C78.4768 221.404 78.3768 220.497 78.2435 219.497C78.2302 219.324 78.2702 219.171 78.3635 219.037C78.4702 218.891 78.6102 218.804 78.7835 218.777C78.9568 218.751 79.1168 218.784 79.2635 218.877C79.4102 218.971 79.4902 219.104 79.5035 219.277C79.6902 220.691 79.8035 221.584 79.8435 221.957C79.8702 222.144 79.8235 222.317 79.7035 222.477ZM80.7035 221.597C80.5568 221.624 80.4235 221.591 80.3035 221.497C80.1968 221.404 80.1302 221.284 80.1035 221.137C80.0102 220.431 79.9235 219.831 79.8435 219.337C79.8168 219.191 79.8502 219.057 79.9435 218.937C80.0368 218.804 80.1568 218.724 80.3035 218.697C80.4502 218.671 80.5835 218.704 80.7035 218.797C80.8368 218.891 80.9168 219.011 80.9435 219.157C81.0768 219.917 81.1635 220.511 81.2035 220.937C81.2168 221.097 81.1768 221.244 81.0835 221.377C80.9902 221.497 80.8635 221.571 80.7035 221.597ZM98.0035 212.957C97.6968 212.957 97.4302 212.851 97.2035 212.637C96.9768 212.411 96.8635 212.144 96.8635 211.837C96.8635 211.531 96.9768 211.264 97.2035 211.037C97.4302 210.811 97.6968 210.697 98.0035 210.697H100.284C100.39 210.697 100.457 210.637 100.484 210.517C100.684 209.637 100.864 208.724 101.024 207.777C101.09 207.471 101.244 207.224 101.484 207.037C101.737 206.837 102.024 206.751 102.344 206.777L102.484 206.797C102.79 206.824 103.037 206.964 103.224 207.217C103.41 207.457 103.477 207.731 103.424 208.037C103.25 209.051 103.104 209.884 102.984 210.537C102.957 210.644 103.004 210.697 103.124 210.697H104.264C104.944 210.697 105.45 210.697 105.784 210.697C106.13 210.697 106.51 210.737 106.924 210.817C107.337 210.897 107.617 210.964 107.764 211.017C107.924 211.071 108.104 211.224 108.304 211.477C108.517 211.731 108.644 211.957 108.684 212.157C108.724 212.357 108.777 212.717 108.844 213.237C108.91 213.744 108.944 214.211 108.944 214.637C108.944 215.064 108.944 215.704 108.944 216.557C108.944 219.117 108.63 221.004 108.004 222.217C107.377 223.431 106.53 224.037 105.464 224.037C104.664 224.037 103.617 223.844 102.324 223.457C102.017 223.364 101.79 223.177 101.644 222.897C101.497 222.617 101.47 222.317 101.564 221.997L101.604 221.877C101.697 221.584 101.877 221.371 102.144 221.237C102.424 221.091 102.717 221.064 103.024 221.157C103.904 221.424 104.544 221.557 104.944 221.557C105.17 221.557 105.377 221.391 105.564 221.057C105.75 220.724 105.91 220.137 106.044 219.297C106.19 218.444 106.264 217.397 106.264 216.157C106.264 214.557 106.19 213.624 106.044 213.357C105.91 213.091 105.41 212.957 104.544 212.957H102.624C102.517 212.957 102.45 213.011 102.424 213.117C101.597 216.571 100.55 219.911 99.2835 223.137C99.1635 223.444 98.9568 223.657 98.6635 223.777C98.3835 223.911 98.0968 223.924 97.8035 223.817L97.6635 223.777C97.3702 223.684 97.1635 223.491 97.0435 223.197C96.9235 222.917 96.9168 222.631 97.0235 222.337C98.1302 219.417 99.0835 216.344 99.8835 213.117C99.9102 213.011 99.8702 212.957 99.7635 212.957H98.0035ZM112.204 218.777C111.497 216.231 110.644 213.631 109.644 210.977C109.537 210.697 109.55 210.424 109.684 210.157C109.817 209.877 110.03 209.691 110.324 209.597L110.584 209.517C110.89 209.424 111.19 209.451 111.484 209.597C111.777 209.744 111.977 209.971 112.084 210.277C113.004 212.677 113.857 215.317 114.644 218.197C114.724 218.491 114.684 218.777 114.524 219.057C114.364 219.324 114.13 219.491 113.824 219.557L113.584 219.597C113.277 219.664 112.99 219.617 112.724 219.457C112.457 219.297 112.284 219.071 112.204 218.777ZM120.924 218.197C120.617 218.131 120.37 217.971 120.184 217.717C120.01 217.451 119.95 217.164 120.004 216.857C120.324 215.017 120.544 213.677 120.664 212.837C120.717 212.517 120.864 212.257 121.104 212.057C121.344 211.844 121.624 211.751 121.944 211.777L122.284 211.817C122.59 211.844 122.837 211.977 123.024 212.217C123.224 212.457 123.304 212.731 123.264 213.037C123.09 214.304 122.964 215.191 122.884 215.697V215.737H122.904L122.924 215.717C123.804 215.117 124.777 214.644 125.844 214.297C126.924 213.937 127.937 213.757 128.884 213.757C130.87 213.757 132.33 214.151 133.264 214.937C134.21 215.711 134.684 216.897 134.684 218.497C134.684 220.271 133.937 221.651 132.444 222.637C130.95 223.611 128.784 224.097 125.944 224.097C124.89 224.097 123.737 224.044 122.484 223.937C122.164 223.911 121.897 223.777 121.684 223.537C121.484 223.297 121.397 223.017 121.424 222.697V222.657C121.437 222.351 121.564 222.097 121.804 221.897C122.057 221.697 122.337 221.611 122.644 221.637C124.177 221.771 125.277 221.837 125.944 221.837C127.784 221.837 129.197 221.544 130.184 220.957C131.184 220.357 131.684 219.537 131.684 218.497C131.684 216.857 130.617 216.037 128.484 216.037C127.004 216.037 125.23 216.651 123.164 217.877C122.47 218.277 121.777 218.397 121.084 218.237L120.924 218.197ZM123.764 208.037C126.23 208.304 128.65 208.457 131.024 208.497C131.33 208.497 131.59 208.611 131.804 208.837C132.03 209.064 132.144 209.331 132.144 209.637C132.144 209.944 132.03 210.211 131.804 210.437C131.59 210.651 131.33 210.757 131.024 210.757C128.45 210.717 125.937 210.564 123.484 210.297C123.164 210.257 122.904 210.111 122.704 209.857C122.517 209.604 122.444 209.324 122.484 209.017C122.524 208.711 122.67 208.464 122.924 208.277C123.177 208.091 123.457 208.011 123.764 208.037ZM144.784 207.097C145.05 207.271 145.21 207.511 145.264 207.817C145.317 208.124 145.244 208.397 145.044 208.637C144.03 209.864 142.824 210.951 141.424 211.897C141.17 212.071 140.897 212.111 140.604 212.017C140.324 211.924 140.124 211.744 140.004 211.477L139.944 211.337C139.81 211.044 139.79 210.744 139.884 210.437C139.977 210.117 140.157 209.871 140.424 209.697C141.45 209.004 142.344 208.217 143.104 207.337C143.317 207.097 143.577 206.957 143.884 206.917C144.204 206.864 144.497 206.924 144.764 207.097H144.784ZM139.584 218.277L139.444 217.777C139.27 217.071 139.477 216.471 140.064 215.977C141.264 215.004 142.324 213.844 143.244 212.497C143.417 212.244 143.657 212.084 143.964 212.017C144.27 211.951 144.557 211.997 144.824 212.157L144.924 212.217C145.057 212.297 145.157 212.377 145.224 212.457C145.277 212.524 145.37 212.557 145.504 212.557H150.064C150.17 212.557 150.224 212.504 150.224 212.397V210.737C150.224 210.617 150.17 210.557 150.064 210.557H146.464C146.17 210.557 145.917 210.457 145.704 210.257C145.504 210.044 145.404 209.791 145.404 209.497C145.404 209.204 145.504 208.957 145.704 208.757C145.917 208.544 146.17 208.437 146.464 208.437H150.064C150.17 208.437 150.224 208.377 150.224 208.257V207.697C150.224 207.391 150.337 207.124 150.564 206.897C150.79 206.671 151.057 206.557 151.364 206.557H151.764C152.07 206.557 152.337 206.671 152.564 206.897C152.79 207.124 152.904 207.391 152.904 207.697V208.257C152.904 208.377 152.957 208.437 153.064 208.437H156.264C156.557 208.437 156.804 208.544 157.004 208.757C157.217 208.957 157.324 209.204 157.324 209.497C157.324 209.791 157.217 210.044 157.004 210.257C156.804 210.457 156.557 210.557 156.264 210.557H153.064C152.957 210.557 152.904 210.617 152.904 210.737V212.397C152.904 212.504 152.957 212.557 153.064 212.557H157.164C157.47 212.557 157.73 212.671 157.944 212.897C158.157 213.111 158.264 213.364 158.264 213.657C158.264 213.951 158.157 214.211 157.944 214.437C157.73 214.651 157.47 214.757 157.164 214.757H153.064C152.957 214.757 152.904 214.817 152.904 214.937V216.797C152.904 216.904 152.957 216.957 153.064 216.957H156.164C156.457 216.957 156.704 217.064 156.904 217.277C157.117 217.491 157.224 217.744 157.224 218.037C157.224 218.331 157.117 218.584 156.904 218.797C156.704 218.997 156.457 219.097 156.164 219.097H153.064C152.957 219.097 152.904 219.157 152.904 219.277V221.997C152.904 222.091 152.957 222.151 153.064 222.177C154.144 222.351 155.53 222.437 157.224 222.437C157.53 222.437 157.784 222.551 157.984 222.777C158.197 222.991 158.29 223.251 158.264 223.557C158.237 223.877 158.11 224.144 157.884 224.357C157.657 224.584 157.384 224.697 157.064 224.697C154.45 224.697 152.417 224.464 150.964 223.997C149.524 223.544 148.357 222.731 147.464 221.557C147.437 221.531 147.404 221.524 147.364 221.537C147.337 221.537 147.317 221.551 147.304 221.577C147.077 222.364 146.804 223.157 146.484 223.957C146.364 224.251 146.157 224.457 145.864 224.577C145.584 224.697 145.297 224.697 145.004 224.577L144.784 224.497C144.49 224.377 144.284 224.177 144.164 223.897C144.057 223.617 144.057 223.331 144.164 223.037C144.91 221.131 145.477 219.077 145.864 216.877C145.917 216.571 146.064 216.324 146.304 216.137C146.557 215.937 146.837 215.864 147.144 215.917L147.304 215.937C147.61 215.991 147.864 216.151 148.064 216.417C148.264 216.671 148.337 216.951 148.284 217.257C148.177 217.871 148.09 218.331 148.024 218.637C147.997 218.744 148.017 218.851 148.084 218.957C148.644 219.984 149.317 220.737 150.104 221.217C150.184 221.271 150.224 221.237 150.224 221.117V214.937C150.224 214.817 150.17 214.757 150.064 214.757H145.504C145.317 214.757 145.144 214.717 144.984 214.637C144.877 214.584 144.797 214.597 144.744 214.677C144.597 214.891 144.35 215.211 144.004 215.637C143.937 215.731 143.904 215.824 143.904 215.917V223.837C143.904 224.144 143.79 224.404 143.564 224.617C143.35 224.844 143.09 224.957 142.784 224.957H142.484C142.177 224.957 141.91 224.844 141.684 224.617C141.457 224.404 141.344 224.144 141.344 223.837V218.077C141.344 218.051 141.33 218.037 141.304 218.037C141.277 218.024 141.25 218.031 141.224 218.057C140.984 218.324 140.804 218.517 140.684 218.637C140.497 218.824 140.284 218.877 140.044 218.797C139.804 218.704 139.65 218.531 139.584 218.277ZM162.304 214.097C161.997 214.097 161.737 213.991 161.524 213.777C161.31 213.564 161.204 213.304 161.204 212.997C161.204 212.691 161.31 212.431 161.524 212.217C161.737 212.004 161.997 211.897 162.304 211.897H163.804C163.91 211.897 163.964 211.837 163.964 211.717V208.637C163.964 208.331 164.077 208.064 164.304 207.837C164.53 207.611 164.797 207.497 165.104 207.497H165.444C165.75 207.497 166.01 207.611 166.224 207.837C166.45 208.064 166.564 208.331 166.564 208.637V211.717C166.564 211.837 166.624 211.897 166.744 211.897H168.844C168.95 211.897 169.004 211.837 169.004 211.717V207.757C169.004 207.451 169.117 207.191 169.344 206.977C169.57 206.751 169.837 206.637 170.144 206.637H170.604C170.91 206.637 171.177 206.751 171.404 206.977C171.63 207.191 171.744 207.451 171.744 207.757V208.057C171.744 208.177 171.797 208.237 171.904 208.237H177.044C177.337 208.237 177.577 208.337 177.764 208.537C177.964 208.724 178.064 208.964 178.064 209.257C178.064 209.551 177.964 209.797 177.764 209.997C177.577 210.197 177.337 210.297 177.044 210.297H171.904C171.797 210.297 171.744 210.351 171.744 210.457V211.717C171.744 211.837 171.797 211.897 171.904 211.897H178.104C178.41 211.897 178.67 212.004 178.884 212.217C179.097 212.431 179.204 212.691 179.204 212.997C179.204 213.304 179.097 213.564 178.884 213.777C178.67 213.991 178.41 214.097 178.104 214.097H176.184C176.157 214.097 176.137 214.117 176.124 214.157C176.11 214.184 176.117 214.211 176.144 214.237C177.144 215.411 178.004 216.531 178.724 217.597C178.897 217.864 178.944 218.144 178.864 218.437C178.797 218.731 178.63 218.957 178.364 219.117L178.264 219.177C177.997 219.337 177.71 219.384 177.404 219.317C177.097 219.251 176.857 219.091 176.684 218.837C176.03 217.877 175.277 216.897 174.424 215.897C174.237 215.671 174.157 215.411 174.184 215.117C174.21 214.824 174.35 214.591 174.604 214.417L174.964 214.197C174.99 214.184 174.997 214.164 174.984 214.137C174.984 214.111 174.97 214.097 174.944 214.097H171.904C171.797 214.097 171.744 214.157 171.744 214.277V216.757C171.744 217.317 171.737 217.757 171.724 218.077C171.71 218.384 171.657 218.677 171.564 218.957C171.484 219.237 171.384 219.437 171.264 219.557C171.157 219.664 170.97 219.764 170.704 219.857C170.45 219.951 170.17 220.004 169.864 220.017C169.57 220.031 169.164 220.037 168.644 220.037C168.337 220.037 167.804 220.017 167.044 219.977C166.737 219.964 166.464 219.851 166.224 219.637C165.997 219.411 165.877 219.144 165.864 218.837C165.85 218.544 165.944 218.297 166.144 218.097C166.357 217.884 166.617 217.784 166.924 217.797L168.164 217.837C168.577 217.837 168.817 217.797 168.884 217.717C168.964 217.624 169.004 217.351 169.004 216.897V214.277C169.004 214.157 168.95 214.097 168.844 214.097H165.084C165.057 214.097 165.044 214.111 165.044 214.137C165.044 214.151 165.05 214.164 165.064 214.177L165.444 214.357C165.737 214.504 165.937 214.724 166.044 215.017C166.15 215.297 166.137 215.584 166.004 215.877C165.444 217.051 164.704 218.217 163.784 219.377C163.584 219.631 163.324 219.777 163.004 219.817C162.684 219.844 162.397 219.764 162.144 219.577L162.004 219.457C161.75 219.271 161.61 219.031 161.584 218.737C161.557 218.431 161.637 218.151 161.824 217.897C162.73 216.711 163.484 215.497 164.084 214.257C164.137 214.151 164.104 214.097 163.984 214.097H162.304ZM173.944 218.997C174.184 218.797 174.464 218.704 174.784 218.717C175.104 218.731 175.37 218.851 175.584 219.077L175.604 219.117C175.83 219.344 175.937 219.617 175.924 219.937C175.91 220.257 175.784 220.517 175.544 220.717C172.824 223.011 168.884 224.417 163.724 224.937C163.404 224.964 163.104 224.884 162.824 224.697C162.544 224.524 162.35 224.277 162.244 223.957L162.204 223.837C162.11 223.571 162.144 223.317 162.304 223.077C162.464 222.837 162.684 222.704 162.964 222.677C167.777 222.237 171.437 221.011 173.944 218.997ZM184.544 210.757C184.237 210.757 183.97 210.651 183.744 210.437C183.517 210.211 183.404 209.944 183.404 209.637C183.404 209.331 183.517 209.064 183.744 208.837C183.97 208.611 184.237 208.497 184.544 208.497H191.644C191.95 208.497 192.21 208.611 192.424 208.837C192.65 209.064 192.764 209.331 192.764 209.637C192.764 210.397 192.484 211.024 191.924 211.517L188.684 214.457C188.67 214.471 188.664 214.484 188.664 214.497C188.664 214.511 188.67 214.517 188.684 214.517H189.004C190.23 214.517 191.197 214.871 191.904 215.577C192.61 216.271 192.964 217.244 192.964 218.497C192.964 220.031 192.497 221.217 191.564 222.057C190.63 222.884 189.297 223.297 187.564 223.297C186.537 223.297 185.544 223.177 184.584 222.937C184.264 222.857 184.004 222.677 183.804 222.397C183.604 222.117 183.504 221.804 183.504 221.457V221.237C183.504 220.971 183.61 220.764 183.824 220.617C184.05 220.457 184.297 220.417 184.564 220.497C185.644 220.857 186.604 221.037 187.444 221.037C188.324 221.037 189.004 220.824 189.484 220.397C189.964 219.971 190.204 219.351 190.204 218.537C190.204 217.791 189.93 217.257 189.384 216.937C188.85 216.604 187.904 216.437 186.544 216.437H186.324C186.057 216.437 185.824 216.337 185.624 216.137C185.437 215.937 185.344 215.704 185.344 215.437C185.344 214.771 185.584 214.217 186.064 213.777L189.324 210.817C189.337 210.804 189.344 210.791 189.344 210.777C189.344 210.764 189.337 210.757 189.324 210.757H184.544ZM197.616 215.437L197.356 215.177C197.143 214.951 197.036 214.691 197.036 214.397C197.05 214.091 197.17 213.824 197.396 213.597C199.076 211.957 200.483 210.111 201.616 208.057C201.776 207.777 202.003 207.577 202.296 207.457C202.603 207.337 202.91 207.331 203.216 207.437L203.476 207.537C203.77 207.644 203.97 207.837 204.076 208.117C204.196 208.384 204.19 208.651 204.056 208.917C203.336 210.317 202.496 211.637 201.536 212.877C201.47 212.984 201.49 213.037 201.596 213.037H210.796C210.823 213.037 210.843 213.024 210.856 212.997C210.883 212.971 210.89 212.944 210.876 212.917C209.93 211.691 209.083 210.357 208.336 208.917C208.203 208.651 208.19 208.384 208.296 208.117C208.416 207.837 208.623 207.644 208.916 207.537L209.176 207.437C209.483 207.331 209.783 207.337 210.076 207.457C210.383 207.577 210.616 207.777 210.776 208.057C211.91 210.111 213.316 211.957 214.996 213.597C215.223 213.824 215.336 214.091 215.336 214.397C215.35 214.691 215.25 214.951 215.036 215.177L214.776 215.437C214.563 215.664 214.296 215.784 213.976 215.797C213.656 215.797 213.383 215.684 213.156 215.457L212.616 214.917C212.603 214.891 212.576 214.884 212.536 214.897C212.51 214.911 212.496 214.931 212.496 214.957V215.697C212.496 217.137 212.476 218.331 212.436 219.277C212.41 220.211 212.336 221.031 212.216 221.737C212.096 222.444 211.956 222.984 211.796 223.357C211.65 223.731 211.423 224.024 211.116 224.237C210.81 224.464 210.49 224.604 210.156 224.657C209.836 224.724 209.396 224.757 208.836 224.757C208.263 224.757 207.523 224.731 206.616 224.677C206.296 224.664 206.023 224.537 205.796 224.297C205.583 224.057 205.47 223.777 205.456 223.457V223.397C205.443 223.104 205.55 222.851 205.776 222.637C206.003 222.411 206.27 222.311 206.576 222.337C207.67 222.391 208.296 222.417 208.456 222.417C208.803 222.417 209.063 222.304 209.236 222.077C209.423 221.837 209.57 221.317 209.676 220.517C209.783 219.704 209.836 218.497 209.836 216.897V215.457C209.836 215.351 209.776 215.297 209.656 215.297H205.396C205.276 215.297 205.216 215.351 205.216 215.457C205.016 217.684 204.536 219.497 203.776 220.897C203.03 222.297 201.903 223.504 200.396 224.517C200.13 224.691 199.836 224.751 199.516 224.697C199.196 224.644 198.93 224.491 198.716 224.237L198.476 223.957C198.29 223.731 198.223 223.471 198.276 223.177C198.343 222.884 198.503 222.657 198.756 222.497C199.943 221.724 200.836 220.791 201.436 219.697C202.05 218.604 202.443 217.191 202.616 215.457C202.616 215.351 202.563 215.297 202.456 215.297H199.456C199.443 215.297 199.436 215.291 199.436 215.277L199.416 215.297C199.403 215.324 199.376 215.351 199.336 215.377C199.296 215.404 199.263 215.431 199.236 215.457C199.01 215.684 198.736 215.797 198.416 215.797C198.096 215.784 197.83 215.664 197.616 215.437Z" fill="white"/>
<path d="M146.824 250.965C146.115 252.534 143.887 252.534 143.178 250.965L137.339 238.035C136.741 236.711 137.709 235.212 139.161 235.212L150.841 235.212C152.293 235.212 153.261 236.711 152.663 238.035L146.824 250.965Z" fill="#1391E6"/>
</svg>
