<svg width="422" height="119" viewBox="0 0 422 119" fill="none" xmlns="http://www.w3.org/2000/svg">
<circle cx="3.26367" cy="117" r="2" fill="white"/>
<circle cx="13.2637" cy="117" r="2" fill="white"/>
<circle cx="23.2637" cy="117" r="2" fill="white"/>
<circle cx="33.2637" cy="117" r="2" fill="white"/>
<circle cx="43.2637" cy="117" r="2" fill="white"/>
<circle cx="53.2637" cy="117" r="2" fill="white"/>
<circle cx="63.2637" cy="117" r="2" fill="white"/>
<circle cx="73.2637" cy="117" r="2" fill="white"/>
<circle cx="83.2637" cy="117" r="2" fill="white"/>
<circle cx="93.2637" cy="117" r="2" fill="white"/>
<circle cx="103.264" cy="117" r="2" fill="white"/>
<circle cx="113.264" cy="117" r="2" fill="white"/>
<circle cx="123.264" cy="117" r="2" fill="white"/>
<circle cx="133.264" cy="117" r="2" fill="white"/>
<circle cx="143.264" cy="117" r="2" fill="white"/>
<circle cx="153.264" cy="117" r="2" fill="white"/>
<circle cx="163.264" cy="117" r="2" fill="white"/>
<circle cx="173.264" cy="117" r="2" fill="white"/>
<circle cx="183.264" cy="117" r="2" fill="white"/>
<circle cx="193.264" cy="117" r="2" fill="white"/>
<circle cx="203.264" cy="117" r="2" fill="white"/>
<circle cx="213.264" cy="117" r="2" fill="white"/>
<circle cx="223.264" cy="117" r="2" fill="white"/>
<circle cx="233.264" cy="117" r="2" fill="white"/>
<circle cx="243.264" cy="117" r="2" fill="white"/>
<circle cx="253.264" cy="117" r="2" fill="white"/>
<circle cx="263.264" cy="117" r="2" fill="white"/>
<circle cx="273.264" cy="117" r="2" fill="white"/>
<circle cx="283.264" cy="117" r="2" fill="white"/>
<circle cx="293.264" cy="117" r="2" fill="white"/>
<circle cx="303.264" cy="117" r="2" fill="white"/>
<circle cx="313.264" cy="117" r="2" fill="white"/>
<circle cx="323.264" cy="117" r="2" fill="white"/>
<circle cx="333.264" cy="117" r="2" fill="white"/>
<circle cx="343.264" cy="117" r="2" fill="white"/>
<circle cx="353.264" cy="117" r="2" fill="white"/>
<circle cx="363.264" cy="117" r="2" fill="white"/>
<circle cx="373.264" cy="117" r="2" fill="white"/>
<circle cx="383.264" cy="117" r="2" fill="white"/>
<circle cx="393.264" cy="117" r="2" fill="white"/>
<circle cx="403.264" cy="117" r="2" fill="white"/>
<circle cx="413.264" cy="117" r="2" fill="white"/>
<g filter="url(#filter0_d_25322_23700)">
<path d="M6.70367 81.48C6.21301 81.48 5.78634 81.2987 5.42367 80.936C5.06101 80.5733 4.87967 80.1467 4.87967 79.656V79.56C4.87967 79.0693 5.06101 78.6427 5.42367 78.28C5.78634 77.9173 6.21301 77.736 6.70367 77.736H29.0077C29.4983 77.736 29.9143 77.9173 30.2557 78.28C30.6183 78.6427 30.7997 79.0693 30.7997 79.56V79.656C30.7997 81.064 30.597 82.2373 30.1917 83.176C28.8263 86.3547 26.6823 88.9787 23.7597 91.048C23.333 91.3467 22.8637 91.4533 22.3517 91.368C21.8397 91.2827 21.4237 91.0267 21.1037 90.6L20.8157 90.184C20.5383 89.8 20.4317 89.3733 20.4957 88.904C20.581 88.4347 20.8263 88.0507 21.2317 87.752C23.621 86.0453 25.253 84.04 26.1277 81.736C26.213 81.5653 26.1597 81.48 25.9677 81.48H6.70367ZM15.0237 84.04H15.6637C16.1543 84.04 16.581 84.2213 16.9437 84.584C17.3063 84.9467 17.477 85.3733 17.4557 85.864C17.349 90.28 16.7623 93.6613 15.6957 96.008C14.629 98.3333 12.8157 100.221 10.2557 101.672C9.80767 101.928 9.32767 101.981 8.81567 101.832C8.32501 101.704 7.94101 101.416 7.66367 100.968L7.43967 100.552C7.18367 100.147 7.10901 99.72 7.21567 99.272C7.34367 98.8027 7.61034 98.44 8.01567 98.184C9.85034 97.0747 11.1517 95.624 11.9197 93.832C12.6877 92.0187 13.1143 89.352 13.1997 85.832C13.221 85.3413 13.4023 84.9253 13.7437 84.584C14.1063 84.2213 14.533 84.04 15.0237 84.04ZM60.6877 82.504C61.1997 82.5253 61.6263 82.728 61.9677 83.112C62.309 83.496 62.469 83.944 62.4477 84.456C62.1917 90.1093 60.9223 94.28 58.6397 96.968C56.3783 99.6347 52.741 101.352 47.7277 102.12C47.2157 102.205 46.7463 102.088 46.3197 101.768C45.9143 101.469 45.6583 101.064 45.5517 100.552C45.4663 100.083 45.5623 99.6453 45.8397 99.24C46.117 98.8347 46.501 98.5893 46.9917 98.504C51.109 97.8 54.021 96.4133 55.7277 94.344C57.4343 92.2747 58.3943 88.904 58.6077 84.232C58.629 83.7413 58.821 83.3253 59.1837 82.984C59.5463 82.6427 59.973 82.4827 60.4637 82.504H60.6877ZM43.0877 90.728C42.5757 88.5733 42.149 86.8987 41.8077 85.704C41.6797 85.2133 41.7437 84.7547 41.9997 84.328C42.2557 83.9013 42.6183 83.6347 43.0877 83.528L43.1517 83.496C43.6423 83.3893 44.101 83.464 44.5277 83.72C44.9757 83.9547 45.2743 84.3173 45.4237 84.808C45.8503 86.3013 46.2983 87.9867 46.7677 89.864C46.8957 90.3333 46.8317 90.792 46.5757 91.24C46.3197 91.6667 45.9463 91.9333 45.4557 92.04L45.2957 92.072C44.805 92.1787 44.3357 92.104 43.8877 91.848C43.461 91.5707 43.1943 91.1973 43.0877 90.728ZM52.2717 91.464C51.781 91.5707 51.3223 91.496 50.8957 91.24C50.469 90.984 50.1917 90.6107 50.0637 90.12C49.8717 89.416 49.413 87.6667 48.6877 84.872C48.5597 84.3813 48.6237 83.9227 48.8797 83.496C49.1357 83.0693 49.4983 82.8027 49.9677 82.696L50.1277 82.664C50.6183 82.5573 51.0877 82.632 51.5357 82.888C51.9837 83.144 52.2717 83.5173 52.3997 84.008C52.997 86.2267 53.4557 87.976 53.7757 89.256C53.9037 89.7253 53.829 90.184 53.5517 90.632C53.2957 91.0587 52.9223 91.3253 52.4317 91.432L52.2717 91.464ZM79.4397 102.696C78.949 102.696 78.5223 102.515 78.1597 102.152C77.8183 101.811 77.6477 101.395 77.6477 100.904V78.056C77.6477 77.5653 77.8183 77.1493 78.1597 76.808C78.5223 76.4453 78.949 76.264 79.4397 76.264H80.3037C80.7943 76.264 81.221 76.4453 81.5837 76.808C81.9463 77.1493 82.1277 77.5653 82.1277 78.056V84.968C82.1277 85.16 82.2023 85.2667 82.3517 85.288C87.429 86.5253 92.5917 88.072 97.8397 89.928C98.309 90.0987 98.6503 90.408 98.8637 90.856C99.0983 91.304 99.1303 91.7733 98.9597 92.264L98.7677 92.872C98.597 93.3413 98.2877 93.6827 97.8397 93.896C97.413 94.1093 96.965 94.1413 96.4957 93.992C91.4397 92.2213 86.725 90.7813 82.3517 89.672C82.2877 89.6507 82.2343 89.672 82.1917 89.736C82.149 89.7787 82.1277 89.832 82.1277 89.896V100.904C82.1277 101.395 81.9463 101.811 81.5837 102.152C81.221 102.515 80.7943 102.696 80.3037 102.696H79.4397ZM118.096 98.632C118.714 98.632 119.077 98.568 119.184 98.44C119.29 98.2907 119.344 97.8533 119.344 97.128V83.784C119.344 83.592 119.248 83.496 119.056 83.496H109.776C109.285 83.496 108.858 83.3253 108.496 82.984C108.154 82.6213 107.984 82.1947 107.984 81.704V81.48C107.984 80.9893 108.154 80.5627 108.496 80.2C108.858 79.8373 109.285 79.656 109.776 79.656H119.056C119.248 79.656 119.344 79.5707 119.344 79.4V77.096C119.344 76.6053 119.514 76.1893 119.856 75.848C120.218 75.4853 120.645 75.304 121.136 75.304H121.936C122.426 75.304 122.853 75.4853 123.216 75.848C123.578 76.1893 123.76 76.6053 123.76 77.096V79.4C123.76 79.5707 123.856 79.656 124.048 79.656H132.624C133.114 79.656 133.53 79.8373 133.872 80.2C134.234 80.5627 134.416 80.9893 134.416 81.48V81.704C134.416 82.1947 134.234 82.6213 133.872 82.984C133.53 83.3253 133.114 83.496 132.624 83.496H124.048C123.856 83.496 123.76 83.592 123.76 83.784V97.704C123.76 99.8373 123.493 101.171 122.96 101.704C122.448 102.237 121.146 102.504 119.056 102.504C118.138 102.504 117.018 102.44 115.696 102.312C115.205 102.269 114.8 102.045 114.48 101.64C114.181 101.235 114.053 100.787 114.096 100.296V100.136C114.138 99.6453 114.352 99.24 114.736 98.92C115.141 98.6 115.589 98.4613 116.08 98.504C117.146 98.5893 117.818 98.632 118.096 98.632ZM108.592 98.568C108.144 98.376 107.834 98.0453 107.664 97.576C107.493 97.1067 107.514 96.648 107.728 96.2C108.965 93.6187 110.138 90.9947 111.248 88.328C111.44 87.8587 111.77 87.5173 112.24 87.304C112.709 87.0907 113.178 87.0587 113.648 87.208L114.128 87.368C114.597 87.5173 114.938 87.816 115.152 88.264C115.365 88.6907 115.376 89.128 115.184 89.576C114.181 92.072 112.965 94.8133 111.536 97.8C111.301 98.2693 110.949 98.6 110.48 98.792C110.032 98.9627 109.562 98.952 109.072 98.76L108.592 98.568ZM128.656 87.112C129.125 86.92 129.594 86.92 130.064 87.112C130.554 87.2827 130.906 87.6027 131.12 88.072C132.314 90.632 133.541 93.4053 134.8 96.392C134.992 96.8613 134.981 97.3307 134.768 97.8C134.576 98.248 134.245 98.5573 133.776 98.728L133.264 98.92C132.794 99.0907 132.325 99.08 131.856 98.888C131.408 98.696 131.088 98.3653 130.896 97.896C130.128 96.0187 128.922 93.2453 127.28 89.576C127.088 89.128 127.088 88.68 127.28 88.232C127.472 87.7627 127.792 87.4427 128.24 87.272L128.656 87.112ZM144.08 91.624C143.589 91.624 143.162 91.4427 142.8 91.08C142.458 90.7173 142.288 90.2907 142.288 89.8V89.16C142.288 88.6693 142.458 88.2427 142.8 87.88C143.162 87.5173 143.589 87.336 144.08 87.336H166.928C167.418 87.336 167.834 87.5173 168.176 87.88C168.538 88.2427 168.72 88.6693 168.72 89.16V89.8C168.72 90.2907 168.538 90.7173 168.176 91.08C167.834 91.4427 167.418 91.624 166.928 91.624H144.08ZM178.192 101.256C177.701 101.277 177.264 101.117 176.88 100.776C176.496 100.413 176.293 99.9867 176.272 99.496V99.304C176.25 98.8133 176.41 98.3867 176.752 98.024C177.114 97.64 177.541 97.4267 178.032 97.384C178.16 97.3627 178.352 97.352 178.608 97.352C178.864 97.352 179.056 97.3413 179.184 97.32C179.354 97.32 179.472 97.2347 179.536 97.064V97.032C181.712 91.208 183.632 84.9253 185.296 78.184C185.424 77.6933 185.701 77.3093 186.128 77.032C186.554 76.7547 187.013 76.6693 187.504 76.776L188.304 76.904C188.794 77.0107 189.168 77.2773 189.424 77.704C189.701 78.1093 189.786 78.5467 189.68 79.016C188.208 85.1387 186.437 91.0373 184.368 96.712C184.325 96.8827 184.389 96.968 184.56 96.968C188.634 96.6267 192.837 96.1467 197.168 95.528C197.36 95.4853 197.413 95.3787 197.328 95.208C196.176 92.7333 195.322 90.92 194.768 89.768C194.533 89.32 194.49 88.8613 194.64 88.392C194.81 87.9227 195.13 87.5813 195.6 87.368L196.208 87.112C196.677 86.8987 197.146 86.8773 197.616 87.048C198.085 87.2187 198.437 87.528 198.672 87.976C200.25 91.2613 201.946 94.92 203.76 98.952C203.973 99.4 203.984 99.848 203.792 100.296C203.6 100.744 203.269 101.064 202.8 101.256L202.128 101.544C201.658 101.736 201.189 101.736 200.72 101.544C200.272 101.352 199.941 101.021 199.728 100.552C199.706 100.531 199.632 100.381 199.504 100.104C199.376 99.8053 199.28 99.5813 199.216 99.432C199.152 99.24 199.034 99.1653 198.864 99.208C191.653 100.275 184.762 100.957 178.192 101.256ZM229.072 95.56V95.432C229.072 95.24 228.986 95.112 228.816 95.048C227.685 94.4933 226.629 94.216 225.648 94.216C224.474 94.216 223.589 94.44 222.992 94.888C222.416 95.336 222.128 95.9547 222.128 96.744C222.128 97.576 222.437 98.2267 223.056 98.696C223.674 99.1653 224.538 99.4 225.648 99.4C226.949 99.4 227.845 99.1333 228.336 98.6C228.826 98.0667 229.072 97.0533 229.072 95.56ZM237.296 79.752C237.808 79.7947 238.213 80.0187 238.512 80.424C238.832 80.8293 238.96 81.288 238.896 81.8C238.832 82.2907 238.597 82.6853 238.192 82.984C237.786 83.2827 237.338 83.4 236.848 83.336C235.653 83.1867 234.501 83.1013 233.392 83.08C233.221 83.08 233.136 83.176 233.136 83.368V93.064C233.136 93.2347 233.2 93.3733 233.328 93.48C234.778 94.376 236.314 95.528 237.936 96.936C238.32 97.256 238.522 97.672 238.544 98.184C238.565 98.696 238.405 99.1333 238.064 99.496L237.968 99.592C237.626 99.9547 237.21 100.157 236.72 100.2C236.229 100.243 235.792 100.104 235.408 99.784C235.088 99.5067 234.65 99.1547 234.096 98.728C233.541 98.28 233.221 98.024 233.136 97.96C233.008 97.8747 232.922 97.896 232.88 98.024C232.538 99.6667 231.77 100.872 230.576 101.64C229.402 102.429 227.76 102.824 225.648 102.824C223.28 102.824 221.424 102.28 220.08 101.192C218.757 100.104 218.096 98.6213 218.096 96.744C218.096 94.9093 218.746 93.4587 220.048 92.392C221.37 91.304 223.237 90.76 225.648 90.76C226.586 90.76 227.653 90.9413 228.848 91.304C228.997 91.3467 229.072 91.2827 229.072 91.112V81.16C229.072 80.6693 229.242 80.2427 229.584 79.88C229.946 79.5173 230.373 79.3467 230.864 79.368C233.594 79.4533 235.738 79.5813 237.296 79.752ZM211.984 98.344C211.514 98.1947 211.184 97.896 210.992 97.448C210.8 97 210.789 96.5413 210.96 96.072C212.581 91.9547 214.053 87.6773 215.376 83.24C215.418 83.0693 215.354 82.984 215.184 82.984H212.816C212.325 82.984 211.898 82.8027 211.536 82.44C211.194 82.0773 211.024 81.6507 211.024 81.16C211.024 80.6693 211.194 80.2427 211.536 79.88C211.898 79.5173 212.325 79.336 212.816 79.336H216.208C216.4 79.336 216.517 79.2507 216.56 79.08C216.645 78.8027 216.752 78.3867 216.88 77.832C217.008 77.2773 217.114 76.8613 217.2 76.584C217.328 76.0933 217.605 75.7093 218.032 75.432C218.458 75.1333 218.928 75.016 219.44 75.08H219.664C220.154 75.144 220.528 75.3787 220.784 75.784C221.061 76.1893 221.146 76.6267 221.04 77.096C220.826 77.992 220.666 78.6533 220.56 79.08C220.517 79.2507 220.592 79.336 220.784 79.336H224.016C224.506 79.336 224.933 79.5173 225.296 79.88C225.658 80.2427 225.84 80.6693 225.84 81.16C225.84 81.6507 225.658 82.0773 225.296 82.44C224.933 82.8027 224.506 82.984 224.016 82.984H219.792C219.6 82.984 219.482 83.08 219.44 83.272C218.117 87.9653 216.528 92.648 214.672 97.32C214.48 97.7893 214.149 98.1413 213.68 98.376C213.232 98.5893 212.762 98.6107 212.272 98.44L211.984 98.344ZM246.48 83.784C246.01 83.784 245.605 83.6133 245.264 83.272C244.944 82.9307 244.784 82.5253 244.784 82.056C244.784 81.5867 244.944 81.192 245.264 80.872C245.605 80.5307 246.01 80.36 246.48 80.36H248.944C249.114 80.36 249.2 80.264 249.2 80.072V76.904C249.2 76.4133 249.381 75.9867 249.744 75.624C250.106 75.2613 250.533 75.08 251.024 75.08H251.568C252.058 75.08 252.474 75.2613 252.816 75.624C253.178 75.9867 253.36 76.4133 253.36 76.904V80.072C253.36 80.264 253.456 80.36 253.648 80.36H256.976C257.168 80.36 257.264 80.264 257.264 80.072V76.136C257.264 75.6453 257.445 75.2293 257.808 74.888C258.17 74.5253 258.597 74.344 259.088 74.344H260.336C260.698 74.344 261.008 74.472 261.264 74.728C261.52 74.984 261.648 75.2827 261.648 75.624C261.648 75.752 261.712 75.816 261.84 75.816H270.256C270.661 75.816 271.013 75.9653 271.312 76.264C271.61 76.5627 271.76 76.9253 271.76 77.352C271.76 77.7573 271.61 78.1093 271.312 78.408C271.034 78.7067 270.682 78.856 270.256 78.856H261.904C261.733 78.856 261.648 78.952 261.648 79.144V80.072C261.648 80.264 261.733 80.36 261.904 80.36H271.888C272.357 80.36 272.752 80.5307 273.072 80.872C273.413 81.192 273.584 81.5867 273.584 82.056C273.584 82.5253 273.413 82.9307 273.072 83.272C272.752 83.6133 272.357 83.784 271.888 83.784H246.48ZM247.76 84.84C248.25 84.84 248.677 85.0213 249.04 85.384C249.402 85.7467 249.584 86.1733 249.584 86.664V99.496C249.584 99.688 249.669 99.784 249.84 99.784H268.496C268.688 99.784 268.784 99.688 268.784 99.496V86.664C268.784 86.1733 268.965 85.7467 269.328 85.384C269.69 85.0213 270.117 84.84 270.608 84.84H271.088C271.578 84.84 271.994 85.0213 272.336 85.384C272.698 85.7467 272.88 86.1733 272.88 86.664V102.44C272.88 102.931 272.698 103.357 272.336 103.72C271.994 104.083 271.578 104.264 271.088 104.264H269.84C269.562 104.264 269.317 104.157 269.104 103.944C268.89 103.731 268.784 103.475 268.784 103.176C268.784 103.069 268.73 103.016 268.624 103.016H249.744C249.637 103.016 249.584 103.069 249.584 103.176C249.584 103.475 249.477 103.731 249.264 103.944C249.05 104.157 248.805 104.264 248.528 104.264H247.28C246.789 104.264 246.362 104.083 246 103.72C245.658 103.357 245.488 102.931 245.488 102.44V86.664C245.488 86.1733 245.658 85.7467 246 85.384C246.362 85.0213 246.789 84.84 247.28 84.84H247.76ZM253.264 89.768C253.434 89.768 253.466 89.6933 253.36 89.544C253.168 89.2667 252.869 88.8827 252.464 88.392C252.08 87.88 251.856 87.5813 251.792 87.496C251.514 87.1547 251.408 86.7707 251.472 86.344C251.536 85.896 251.749 85.5547 252.112 85.32C252.496 85.064 252.922 84.968 253.392 85.032C253.882 85.096 254.266 85.3093 254.544 85.672C254.672 85.8213 254.842 86.0453 255.056 86.344C255.29 86.6427 255.429 86.824 255.472 86.888C255.77 87.2933 255.877 87.7413 255.792 88.232C255.706 88.7013 255.45 89.0747 255.024 89.352L254.64 89.608C254.597 89.6293 254.576 89.6613 254.576 89.704C254.597 89.7467 254.629 89.768 254.672 89.768H256.944C257.136 89.768 257.232 89.672 257.232 89.48V86.344C257.232 85.8533 257.402 85.4267 257.744 85.064C258.106 84.7013 258.533 84.52 259.024 84.52H259.344C259.834 84.52 260.25 84.7013 260.592 85.064C260.954 85.4267 261.136 85.8533 261.136 86.344V89.48C261.136 89.672 261.232 89.768 261.424 89.768H263.664C263.706 89.768 263.738 89.7467 263.76 89.704C263.781 89.6613 263.77 89.6293 263.728 89.608L263.344 89.352C262.938 89.0747 262.704 88.7013 262.64 88.232C262.597 87.7413 262.725 87.3147 263.024 86.952C263.066 86.888 263.365 86.4933 263.92 85.768C264.197 85.4053 264.549 85.1813 264.976 85.096C265.424 84.9893 265.84 85.0533 266.224 85.288C266.608 85.544 266.842 85.896 266.928 86.344C267.013 86.792 266.917 87.1973 266.64 87.56C266.234 88.136 265.712 88.7973 265.072 89.544C264.965 89.6933 264.997 89.768 265.168 89.768H266.256C266.661 89.768 267.013 89.9173 267.312 90.216C267.61 90.4933 267.76 90.8453 267.76 91.272C267.76 91.6987 267.61 92.0613 267.312 92.36C267.013 92.6373 266.661 92.776 266.256 92.776H263.984C263.941 92.776 263.909 92.7973 263.888 92.84C263.888 92.8613 263.909 92.8933 263.952 92.936C265.061 93.7467 266.117 94.6107 267.12 95.528C267.482 95.848 267.674 96.2427 267.696 96.712C267.717 97.1813 267.568 97.5973 267.248 97.96C266.949 98.3013 266.565 98.472 266.096 98.472C265.626 98.472 265.232 98.3013 264.912 97.96C264.058 97.064 262.874 95.9013 261.36 94.472C261.317 94.4293 261.264 94.4187 261.2 94.44C261.157 94.4613 261.136 94.4933 261.136 94.536V97.224C261.136 97.7147 260.954 98.1413 260.592 98.504C260.25 98.8453 259.834 99.016 259.344 99.016H259.024C258.533 99.016 258.106 98.8453 257.744 98.504C257.402 98.1413 257.232 97.7147 257.232 97.224V94.92C257.232 94.8773 257.2 94.8453 257.136 94.824C257.093 94.8027 257.061 94.8133 257.04 94.856C255.973 96.0933 254.8 97.192 253.52 98.152C253.136 98.4293 252.709 98.536 252.24 98.472C251.77 98.3867 251.386 98.1627 251.088 97.8C250.81 97.4587 250.704 97.064 250.768 96.616C250.853 96.168 251.077 95.8267 251.44 95.592C252.634 94.8027 253.776 93.928 254.864 92.968C254.906 92.8827 254.874 92.8187 254.768 92.776H252.112C251.706 92.776 251.354 92.6373 251.056 92.36C250.757 92.0613 250.608 91.6987 250.608 91.272C250.608 90.8453 250.757 90.4933 251.056 90.216C251.354 89.9173 251.706 89.768 252.112 89.768H253.264ZM282.128 103.976C281.637 103.976 281.21 103.795 280.848 103.432C280.485 103.091 280.304 102.675 280.304 102.184V77.32C280.304 76.8293 280.485 76.4027 280.848 76.04C281.21 75.6773 281.637 75.496 282.128 75.496H305.904C306.373 75.496 306.768 75.6667 307.088 76.008C307.429 76.3493 307.6 76.7547 307.6 77.224C307.6 77.6933 307.429 78.0987 307.088 78.44C306.768 78.76 306.373 78.92 305.904 78.92H293.008C292.88 78.92 292.837 79.0053 292.88 79.176C293.05 79.56 293.04 79.944 292.848 80.328C292.805 80.3707 292.805 80.424 292.848 80.488C292.89 80.552 292.944 80.584 293.008 80.584H304.56C304.986 80.584 305.349 80.7333 305.648 81.032C305.946 81.3307 306.096 81.6933 306.096 82.12C306.096 82.5467 305.946 82.9093 305.648 83.208C305.349 83.5067 304.986 83.656 304.56 83.656H298.736C298.565 83.656 298.48 83.752 298.48 83.944V86.824C298.48 86.9947 298.565 87.08 298.736 87.08H305.616C306.085 87.08 306.48 87.24 306.8 87.56C307.12 87.88 307.28 88.2747 307.28 88.744C307.28 89.2133 307.12 89.608 306.8 89.928C306.48 90.2267 306.085 90.376 305.616 90.376H299.312C299.12 90.376 299.066 90.4613 299.152 90.632C300.176 92.7227 302.309 94.4827 305.552 95.912C305.978 96.104 306.256 96.424 306.384 96.872C306.533 97.32 306.48 97.736 306.224 98.12C305.925 98.568 305.52 98.8773 305.008 99.048C304.517 99.1973 304.026 99.1653 303.536 98.952C300.656 97.6293 298.384 95.6987 296.72 93.16C296.677 93.1173 296.624 93.096 296.56 93.096C296.496 93.0747 296.442 93.0853 296.4 93.128C294.522 95.7093 292.037 97.6613 288.944 98.984C288.453 99.176 287.952 99.1867 287.44 99.016C286.928 98.8453 286.522 98.536 286.224 98.088C285.968 97.704 285.904 97.2987 286.032 96.872C286.181 96.424 286.469 96.1147 286.896 95.944C290.394 94.5147 292.666 92.744 293.712 90.632C293.754 90.5893 293.754 90.536 293.712 90.472C293.669 90.408 293.616 90.376 293.552 90.376H286.928C286.458 90.376 286.064 90.2267 285.744 89.928C285.445 89.608 285.296 89.2133 285.296 88.744C285.296 88.2747 285.445 87.88 285.744 87.56C286.064 87.24 286.458 87.08 286.928 87.08H294.128C294.32 87.08 294.416 86.9947 294.416 86.824V83.944C294.416 83.752 294.32 83.656 294.128 83.656H291.216C291.045 83.656 290.906 83.7413 290.8 83.912C290.544 84.2747 290.138 84.8187 289.584 85.544C289.264 85.9493 288.837 86.1947 288.304 86.28C287.792 86.3653 287.301 86.28 286.832 86.024C286.426 85.8107 286.181 85.4693 286.096 85C286.01 84.5307 286.117 84.1147 286.416 83.752C287.482 82.344 288.389 80.9147 289.136 79.464C289.136 79.4427 289.221 79.3253 289.392 79.112C289.477 78.984 289.434 78.92 289.264 78.92H284.624C284.453 78.92 284.368 79.0053 284.368 79.176V99.016C284.368 99.208 284.453 99.304 284.624 99.304H306.224C306.693 99.304 307.088 99.4747 307.408 99.816C307.749 100.136 307.92 100.531 307.92 101C307.92 101.469 307.749 101.864 307.408 102.184C307.088 102.525 306.693 102.696 306.224 102.696H284.528C284.421 102.696 284.368 102.76 284.368 102.888C284.368 103.187 284.25 103.443 284.016 103.656C283.802 103.869 283.546 103.976 283.248 103.976H282.128ZM315.184 86.696C314.714 86.696 314.309 86.536 313.968 86.216C313.648 85.8747 313.488 85.4693 313.488 85C313.488 84.5307 313.648 84.136 313.968 83.816C314.309 83.4747 314.714 83.304 315.184 83.304H324.464C324.634 83.304 324.72 83.208 324.72 83.016V80.68C324.72 80.5093 324.634 80.424 324.464 80.424H317.904C317.434 80.424 317.04 80.264 316.72 79.944C316.4 79.624 316.24 79.2293 316.24 78.76C316.24 78.2907 316.4 77.896 316.72 77.576C317.04 77.256 317.434 77.096 317.904 77.096H324.464C324.634 77.096 324.72 77.0107 324.72 76.84V76.296C324.72 75.8053 324.901 75.3893 325.264 75.048C325.626 74.6853 326.053 74.504 326.544 74.504H327.28C327.77 74.504 328.197 74.6853 328.56 75.048C328.922 75.3893 329.104 75.8053 329.104 76.296V76.84C329.104 77.0107 329.2 77.096 329.392 77.096H333.648C334.138 77.096 334.554 77.2773 334.896 77.64C335.258 78.0027 335.44 78.4293 335.44 78.92V79.112C335.44 79.1547 335.461 79.1867 335.504 79.208C335.568 79.2293 335.621 79.2187 335.664 79.176C336.304 78.536 337.04 77.7253 337.872 76.744C338.192 76.36 338.597 76.136 339.088 76.072C339.578 76.008 340.037 76.1147 340.464 76.392L340.688 76.552C341.093 76.8507 341.328 77.2453 341.392 77.736C341.477 78.2053 341.36 78.632 341.04 79.016C340.058 80.1893 338.693 81.5547 336.944 83.112C336.901 83.1333 336.89 83.176 336.912 83.24C336.954 83.2827 336.997 83.304 337.04 83.304H341.424C341.893 83.304 342.288 83.4747 342.608 83.816C342.949 84.136 343.12 84.5307 343.12 85C343.12 85.4693 342.949 85.8747 342.608 86.216C342.288 86.536 341.893 86.696 341.424 86.696H332.656C332.528 86.696 332.357 86.76 332.144 86.888C331.61 87.2507 330.618 87.8907 329.168 88.808C329.146 88.8293 329.136 88.8613 329.136 88.904C329.136 88.9253 329.157 88.936 329.2 88.936H338.608C339.098 88.936 339.514 89.1173 339.856 89.48C340.218 89.8427 340.4 90.2693 340.4 90.76V102.056C340.4 102.547 340.218 102.973 339.856 103.336C339.514 103.699 339.098 103.88 338.608 103.88H337.168C336.89 103.88 336.645 103.784 336.432 103.592C336.24 103.4 336.144 103.155 336.144 102.856C336.144 102.749 336.09 102.696 335.984 102.696H323.504C323.397 102.696 323.344 102.749 323.344 102.856C323.344 103.155 323.237 103.4 323.024 103.592C322.832 103.784 322.597 103.88 322.32 103.88H320.88C320.389 103.88 319.962 103.699 319.6 103.336C319.258 102.973 319.088 102.547 319.088 102.056V94.088C319.088 93.9173 319.002 93.8533 318.832 93.896C318.298 94.1093 317.498 94.408 316.432 94.792C315.941 94.9627 315.461 94.9413 314.992 94.728C314.544 94.5147 314.234 94.1733 314.064 93.704L313.968 93.384C313.797 92.9147 313.818 92.4667 314.032 92.04C314.266 91.592 314.618 91.2933 315.088 91.144C318.65 90.0133 322.01 88.584 325.168 86.856C325.21 86.8347 325.232 86.8027 325.232 86.76C325.232 86.7173 325.21 86.696 325.168 86.696H315.184ZM336.144 99.272V97.672C336.144 97.48 336.048 97.384 335.856 97.384H323.632C323.44 97.384 323.344 97.48 323.344 97.672V99.272C323.344 99.4427 323.44 99.528 323.632 99.528H335.856C336.048 99.528 336.144 99.4427 336.144 99.272ZM329.104 80.68V83.016C329.104 83.208 329.2 83.304 329.392 83.304H330.544C330.714 83.304 330.874 83.2507 331.024 83.144C332.09 82.3547 333.136 81.5013 334.16 80.584C334.202 80.5413 334.213 80.5093 334.192 80.488C334.17 80.4453 334.138 80.424 334.096 80.424H329.392C329.2 80.424 329.104 80.5093 329.104 80.68ZM335.856 92.232H323.632C323.44 92.232 323.344 92.3173 323.344 92.488V94.024C323.344 94.216 323.44 94.312 323.632 94.312H335.856C336.048 94.312 336.144 94.216 336.144 94.024V92.488C336.144 92.3173 336.048 92.232 335.856 92.232ZM351.76 83.176C351.269 83.176 350.842 83.0053 350.48 82.664C350.138 82.3013 349.968 81.8747 349.968 81.384C349.968 80.872 350.138 80.4453 350.48 80.104C350.842 79.7413 351.28 79.56 351.792 79.56C354.416 79.56 358.373 79.496 363.664 79.368C363.877 79.368 363.962 79.2827 363.92 79.112C363.856 78.536 363.792 77.928 363.728 77.288C363.685 76.7973 363.824 76.3707 364.144 76.008C364.485 75.6453 364.912 75.4427 365.424 75.4H365.84C366.33 75.3573 366.768 75.5067 367.152 75.848C367.557 76.1893 367.77 76.6053 367.792 77.096C367.813 77.288 367.834 77.5973 367.856 78.024C367.898 78.4507 367.93 78.7707 367.952 78.984C367.994 79.1547 368.101 79.24 368.272 79.24C370.768 79.1547 372.666 79.08 373.968 79.016C374.458 78.9947 374.885 79.1547 375.248 79.496C375.61 79.8373 375.802 80.2533 375.824 80.744C375.845 81.2347 375.674 81.672 375.312 82.056C374.97 82.4187 374.554 82.6107 374.064 82.632L368.88 82.824C368.709 82.824 368.645 82.92 368.688 83.112C369.221 85.224 370.117 87.368 371.376 89.544C371.61 89.9493 371.664 90.3973 371.536 90.888C371.408 91.3787 371.13 91.7307 370.704 91.944L370.096 92.232C369.114 92.744 368.058 92.7227 366.928 92.168C365.008 91.2293 363.045 90.76 361.04 90.76C359.418 90.76 358.16 91.0907 357.264 91.752C356.368 92.392 355.92 93.2667 355.92 94.376C355.92 95.848 356.581 96.9893 357.904 97.8C359.226 98.5893 361.2 98.984 363.824 98.984C365.445 98.984 367.44 98.8027 369.808 98.44C370.298 98.3547 370.746 98.4613 371.152 98.76C371.578 99.0373 371.834 99.4213 371.92 99.912V99.976C372.026 100.467 371.93 100.915 371.632 101.32C371.354 101.725 370.97 101.971 370.48 102.056C368.005 102.419 365.786 102.6 363.824 102.6C359.728 102.6 356.677 101.832 354.672 100.296C352.666 98.76 351.664 96.7227 351.664 94.184C351.664 92.0507 352.474 90.344 354.096 89.064C355.717 87.784 357.968 87.144 360.848 87.144C362.682 87.144 364.496 87.496 366.288 88.2H366.352C366.373 88.1787 366.384 88.1573 366.384 88.136C365.658 86.664 365.082 85.032 364.656 83.24C364.613 83.0693 364.485 82.984 364.272 82.984C360.09 83.112 355.92 83.176 351.76 83.176ZM385.648 102.12C385.178 101.949 384.837 101.629 384.624 101.16C384.432 100.712 384.421 100.253 384.592 99.784C387.92 91.2507 390.885 83.7413 393.488 77.256C393.68 76.7867 394.01 76.4453 394.48 76.232C394.949 75.9973 395.429 75.9547 395.92 76.104L396.272 76.2C396.741 76.3493 397.072 76.648 397.264 77.096C397.477 77.5227 397.498 77.96 397.328 78.408C396.261 81.0533 395.002 84.232 393.552 87.944V88.008H393.616C394.746 87.2187 395.813 86.824 396.816 86.824C398.202 86.824 399.301 87.3573 400.112 88.424C400.944 89.4693 401.53 91.24 401.872 93.736C402.128 95.592 402.416 96.8507 402.736 97.512C403.056 98.152 403.472 98.472 403.984 98.472C405.242 98.472 406.448 96.5733 407.6 92.776C407.749 92.2853 408.037 91.9227 408.464 91.688C408.89 91.4533 409.338 91.4 409.808 91.528L410 91.592C410.49 91.72 410.864 92.008 411.12 92.456C411.376 92.8827 411.429 93.3307 411.28 93.8C410.32 96.9787 409.253 99.208 408.08 100.488C406.906 101.747 405.498 102.376 403.856 102.376C402.234 102.376 400.965 101.832 400.048 100.744C399.13 99.656 398.458 97.7573 398.032 95.048C397.754 93.4053 397.445 92.2747 397.104 91.656C396.762 91.016 396.346 90.696 395.856 90.696C394.832 90.696 393.744 91.464 392.592 93C391.44 94.536 390.032 97.2667 388.368 101.192C388.176 101.661 387.845 101.992 387.376 102.184C386.906 102.397 386.437 102.419 385.968 102.248L385.648 102.12Z" fill="white"/>
</g>
<circle cx="3.26367" cy="52" r="2" fill="white"/>
<circle cx="13.2637" cy="52" r="2" fill="white"/>
<circle cx="23.2637" cy="52" r="2" fill="white"/>
<circle cx="33.2637" cy="52" r="2" fill="white"/>
<circle cx="43.2637" cy="52" r="2" fill="white"/>
<circle cx="53.2637" cy="52" r="2" fill="white"/>
<circle cx="63.2637" cy="52" r="2" fill="white"/>
<circle cx="73.2637" cy="52" r="2" fill="white"/>
<circle cx="83.2637" cy="52" r="2" fill="white"/>
<circle cx="93.2637" cy="52" r="2" fill="white"/>
<circle cx="103.264" cy="52" r="2" fill="white"/>
<circle cx="113.264" cy="52" r="2" fill="white"/>
<circle cx="123.264" cy="52" r="2" fill="white"/>
<circle cx="133.264" cy="52" r="2" fill="white"/>
<circle cx="143.264" cy="52" r="2" fill="white"/>
<circle cx="153.264" cy="52" r="2" fill="white"/>
<circle cx="163.264" cy="52" r="2" fill="white"/>
<circle cx="173.264" cy="52" r="2" fill="white"/>
<circle cx="183.264" cy="52" r="2" fill="white"/>
<circle cx="193.264" cy="52" r="2" fill="white"/>
<circle cx="203.264" cy="52" r="2" fill="white"/>
<circle cx="213.264" cy="52" r="2" fill="white"/>
<circle cx="223.264" cy="52" r="2" fill="white"/>
<circle cx="233.264" cy="52" r="2" fill="white"/>
<circle cx="243.264" cy="52" r="2" fill="white"/>
<circle cx="253.264" cy="52" r="2" fill="white"/>
<circle cx="263.264" cy="52" r="2" fill="white"/>
<circle cx="273.264" cy="52" r="2" fill="white"/>
<circle cx="283.264" cy="52" r="2" fill="white"/>
<circle cx="293.264" cy="52" r="2" fill="white"/>
<circle cx="303.264" cy="52" r="2" fill="white"/>
<circle cx="313.264" cy="52" r="2" fill="white"/>
<circle cx="323.264" cy="52" r="2" fill="white"/>
<circle cx="333.264" cy="52" r="2" fill="white"/>
<circle cx="343.264" cy="52" r="2" fill="white"/>
<circle cx="353.264" cy="52" r="2" fill="white"/>
<circle cx="363.264" cy="52" r="2" fill="white"/>
<circle cx="373.264" cy="52" r="2" fill="white"/>
<g filter="url(#filter1_d_25322_23700)">
<path d="M10.5757 10.624C10.981 10.9227 11.2157 11.3173 11.2797 11.808C11.365 12.2773 11.2477 12.704 10.9277 13.088C9.17834 15.2 7.30101 16.928 5.29567 18.272C4.91167 18.528 4.49567 18.5813 4.04767 18.432C3.62101 18.2613 3.32234 17.952 3.15167 17.504L3.05567 17.248C2.88501 16.7573 2.87434 16.256 3.02367 15.744C3.19434 15.232 3.49301 14.8267 3.91967 14.528C5.32767 13.504 6.67167 12.288 7.95167 10.88C8.29301 10.5173 8.70901 10.304 9.19967 10.24C9.69034 10.176 10.1383 10.2933 10.5437 10.592L10.5757 10.624ZM25.1997 14.496C24.709 14.496 24.2823 14.3253 23.9197 13.984C23.557 13.6213 23.3757 13.1947 23.3757 12.704C23.3757 12.2133 23.557 11.7867 23.9197 11.424C24.2823 11.0613 24.709 10.88 25.1997 10.88H30.7997C31.2903 10.88 31.717 11.0613 32.0797 11.424C32.4423 11.7867 32.6237 12.2133 32.6237 12.704C32.6237 13.1947 32.4423 13.6213 32.0797 13.984C31.717 14.3253 31.2903 14.496 30.7997 14.496H25.1997ZM31.2157 18.144C31.7063 18.144 32.133 18.3253 32.4957 18.688C32.8583 19.0293 33.0397 19.4453 33.0397 19.936C33.0397 20.4267 32.8583 20.8533 32.4957 21.216C32.133 21.5787 31.7063 21.76 31.2157 21.76H31.1837C30.9917 21.76 30.8957 21.8453 30.8957 22.016V33.376C30.8957 34.656 30.853 35.6053 30.7677 36.224C30.7037 36.8427 30.4797 37.3547 30.0957 37.76C29.733 38.1653 29.2637 38.4107 28.6877 38.496C28.133 38.5813 27.2583 38.624 26.0637 38.624C25.893 38.624 25.317 38.6027 24.3357 38.56C23.8237 38.5173 23.3863 38.3147 23.0237 37.952C22.661 37.5893 22.4583 37.152 22.4157 36.64C22.373 36.128 22.5543 35.6907 22.9597 35.328C23.0237 35.264 23.0237 35.232 22.9597 35.232C19.845 35.7867 16.3357 36.256 12.4317 36.64C11.941 36.6827 11.5037 36.544 11.1197 36.224C10.757 35.9253 10.565 35.5307 10.5437 35.04C10.501 34.5493 10.6397 34.112 10.9597 33.728C11.301 33.344 11.717 33.1307 12.2077 33.088C13.5517 32.96 14.5757 32.8533 15.2797 32.768C15.4717 32.7253 15.5677 32.6187 15.5677 32.448V29.472C15.5677 29.28 15.4717 29.184 15.2797 29.184H13.1037C12.6557 29.184 12.2717 29.0347 11.9517 28.736C11.653 28.416 11.5037 28.032 11.5037 27.584C11.5037 27.136 11.653 26.7627 11.9517 26.464C12.2717 26.144 12.6557 25.984 13.1037 25.984H15.2797C15.4717 25.984 15.5677 25.888 15.5677 25.696V25.632C15.5677 25.1413 15.7383 24.7147 16.0797 24.352C16.4423 23.9893 16.869 23.808 17.3597 23.808H17.8717C18.3623 23.808 18.789 23.9893 19.1517 24.352C19.5143 24.7147 19.6957 25.1413 19.6957 25.632V25.696C19.6957 25.888 19.781 25.984 19.9517 25.984H22.0317C22.4797 25.984 22.8637 26.144 23.1837 26.464C23.5037 26.7627 23.6637 27.136 23.6637 27.584C23.6637 28.032 23.5037 28.416 23.1837 28.736C22.8637 29.0347 22.4797 29.184 22.0317 29.184H19.9517C19.781 29.184 19.6957 29.28 19.6957 29.472V31.904C19.6957 32.096 19.781 32.1707 19.9517 32.128C20.1437 32.1067 20.581 32.0427 21.2637 31.936C21.9677 31.8293 22.501 31.744 22.8637 31.68C23.333 31.5947 23.749 31.7013 24.1117 32C24.4743 32.2773 24.677 32.6507 24.7197 33.12C24.7837 33.824 24.5277 34.3893 23.9517 34.816C23.9303 34.8587 23.9517 34.9013 24.0157 34.944H24.1117C24.4743 34.9653 24.8903 34.976 25.3597 34.976C26.021 34.976 26.405 34.912 26.5117 34.784C26.6397 34.656 26.7037 34.2293 26.7037 33.504V22.016C26.7037 21.8453 26.6077 21.76 26.4157 21.76H24.7837C24.229 21.76 23.7917 21.5787 23.4717 21.216C23.3863 21.1307 23.3437 21.1413 23.3437 21.248V21.344C23.3437 21.8133 23.173 22.2187 22.8317 22.56C22.5117 22.9013 22.1063 23.072 21.6157 23.072H13.2637C12.7943 23.072 12.389 22.9013 12.0477 22.56C11.7063 22.2187 11.5357 21.8133 11.5357 21.344C11.5357 21.3013 11.5143 21.28 11.4717 21.28C11.4503 21.2587 11.429 21.2587 11.4077 21.28C10.8957 22.0267 10.2343 22.9013 9.42367 23.904C9.29567 24.032 9.23167 24.2027 9.23167 24.416V37.184C9.23167 37.6747 9.05034 38.0907 8.68767 38.432C8.34634 38.7947 7.93034 38.976 7.43967 38.976H6.86367C6.37301 38.976 5.94634 38.7947 5.58367 38.432C5.22101 38.0907 5.03967 37.6747 5.03967 37.184V28.096C5.03967 28.0533 5.01834 28.0213 4.97567 28C4.95434 27.9787 4.92234 27.9893 4.87967 28.032L4.33567 28.576C4.03701 28.8533 3.69567 28.9387 3.31167 28.832C2.94901 28.704 2.71434 28.4373 2.60767 28.032L2.41567 27.232C2.13834 26.08 2.47967 25.1093 3.43967 24.32C5.33834 22.7627 7.03434 20.9173 8.52767 18.784C8.82634 18.3573 9.22101 18.0693 9.71167 17.92C10.2023 17.7707 10.693 17.8027 11.1837 18.016L11.2797 18.048C11.621 18.1973 11.877 18.432 12.0477 18.752C12.2183 19.072 12.2823 19.4027 12.2397 19.744C12.2397 19.8933 12.3037 19.9253 12.4317 19.84C12.7303 19.6907 13.0077 19.616 13.2637 19.616H15.2797C15.4717 19.616 15.5677 19.5307 15.5677 19.36V16.352C15.5677 16.16 15.4717 16.064 15.2797 16.064H13.9677C13.5197 16.064 13.1357 15.9147 12.8157 15.616C12.4957 15.296 12.3357 14.912 12.3357 14.464C12.3357 14.016 12.4957 13.6427 12.8157 13.344C13.1357 13.024 13.5197 12.864 13.9677 12.864H15.2797C15.4717 12.864 15.5677 12.768 15.5677 12.576V11.744C15.5677 11.2533 15.7383 10.8267 16.0797 10.464C16.4423 10.1013 16.869 9.92 17.3597 9.92H17.8717C18.3623 9.92 18.789 10.1013 19.1517 10.464C19.5143 10.8267 19.6957 11.2533 19.6957 11.744V12.576C19.6957 12.768 19.781 12.864 19.9517 12.864H21.1997C21.6477 12.864 22.021 13.024 22.3197 13.344C22.6397 13.6427 22.7997 14.016 22.7997 14.464C22.7997 14.912 22.6397 15.296 22.3197 15.616C22.021 15.9147 21.6477 16.064 21.1997 16.064H19.9517C19.781 16.064 19.6957 16.16 19.6957 16.352V19.36C19.6957 19.5307 19.781 19.616 19.9517 19.616H21.6157C22.021 19.616 22.4157 19.7867 22.7997 20.128C22.8423 20.1707 22.8743 20.1813 22.8957 20.16C22.9383 20.1387 22.9597 20.1067 22.9597 20.064V19.936C22.9597 19.4453 23.141 19.0293 23.5037 18.688C23.8663 18.3253 24.293 18.144 24.7837 18.144H31.2157ZM49.9357 16.384C47.4397 16.9173 45.477 18.0587 44.0477 19.808C42.6183 21.536 41.9037 23.6587 41.9037 26.176C41.9037 27.7973 42.2343 29.2373 42.8957 30.496C43.557 31.7547 44.1863 32.384 44.7837 32.384C45.0823 32.384 45.3917 32.2453 45.7117 31.968C46.0317 31.6693 46.3837 31.1467 46.7677 30.4C47.173 29.632 47.557 28.6827 47.9197 27.552C48.3037 26.4 48.6877 24.8853 49.0717 23.008C49.477 21.1093 49.8397 18.976 50.1597 16.608C50.181 16.544 50.1597 16.4907 50.0957 16.448C50.053 16.384 49.9997 16.3627 49.9357 16.384ZM44.7837 36.416C43.0557 36.416 41.4663 35.424 40.0157 33.44C38.565 31.456 37.8397 29.0347 37.8397 26.176C37.8397 22.0373 39.2477 18.6773 42.0637 16.096C44.8797 13.5147 48.5597 12.224 53.1037 12.224C56.773 12.224 59.8023 13.376 62.1917 15.68C64.6023 17.984 65.8077 20.9173 65.8077 24.48C65.8077 27.8293 65.029 30.592 63.4717 32.768C61.9357 34.9227 59.8237 36.2987 57.1357 36.896C56.6237 37.0027 56.1543 36.9067 55.7277 36.608C55.3223 36.3093 55.0663 35.904 54.9597 35.392L54.8957 35.104C54.789 34.6347 54.8743 34.1973 55.1517 33.792C55.429 33.3867 55.8023 33.1093 56.2717 32.96C59.9197 31.8293 61.7437 29.0027 61.7437 24.48C61.7437 22.304 61.093 20.4693 59.7917 18.976C58.5117 17.4613 56.8263 16.5333 54.7357 16.192C54.5437 16.1493 54.4263 16.224 54.3837 16.416C53.957 19.6373 53.477 22.4427 52.9437 24.832C52.4103 27.2 51.845 29.12 51.2477 30.592C50.6717 32.0427 50.021 33.216 49.2957 34.112C48.5703 34.9867 47.8557 35.5947 47.1517 35.936C46.4477 36.256 45.6583 36.416 44.7837 36.416ZM88.0157 24.16L87.9837 24.224L87.9517 24.288C87.909 24.4587 87.9837 24.544 88.1757 24.544H96.5917C97.0823 24.544 97.4983 24.7253 97.8397 25.088C98.2023 25.4293 98.3837 25.8453 98.3837 26.336V37.024C98.3837 37.5147 98.2023 37.9307 97.8397 38.272C97.4983 38.6347 97.0823 38.816 96.5917 38.816H95.1517C94.853 38.816 94.6077 38.72 94.4157 38.528C94.2237 38.336 94.1277 38.0907 94.1277 37.792C94.1277 37.7067 94.0743 37.664 93.9677 37.664H79.2477C79.141 37.664 79.0877 37.7067 79.0877 37.792C79.0877 38.0907 78.9917 38.336 78.7997 38.528C78.6077 38.72 78.3623 38.816 78.0637 38.816H76.6237C76.133 38.816 75.7063 38.6347 75.3437 38.272C75.0023 37.9307 74.8317 37.5147 74.8317 37.024V26.336C74.8317 25.8453 75.0023 25.4293 75.3437 25.088C75.7063 24.7253 76.133 24.544 76.6237 24.544H83.1197C83.269 24.544 83.3863 24.448 83.4717 24.256C83.493 24.192 83.5143 24.096 83.5357 23.968C83.5783 23.8187 83.6103 23.712 83.6317 23.648C83.781 23.1573 84.069 22.7627 84.4957 22.464C84.9223 22.1653 85.3917 22.048 85.9037 22.112L86.6717 22.208C87.1623 22.272 87.5357 22.496 87.7917 22.88C88.069 23.264 88.1437 23.6907 88.0157 24.16ZM94.1277 34.208V32.896C94.1277 32.704 94.0317 32.608 93.8397 32.608H79.3757C79.1837 32.608 79.0877 32.704 79.0877 32.896V34.208C79.0877 34.3787 79.1837 34.464 79.3757 34.464H93.8397C94.0317 34.464 94.1277 34.3787 94.1277 34.208ZM93.8397 27.744H79.3757C79.1837 27.744 79.0877 27.84 79.0877 28.032V29.344C79.0877 29.536 79.1837 29.632 79.3757 29.632H93.8397C94.0317 29.632 94.1277 29.536 94.1277 29.344V28.032C94.1277 27.84 94.0317 27.744 93.8397 27.744ZM73.3277 23.744C72.8583 23.7867 72.4317 23.6587 72.0477 23.36C71.685 23.0613 71.4823 22.6667 71.4397 22.176C71.397 21.7067 71.525 21.2907 71.8237 20.928C72.1223 20.5653 72.5063 20.3627 72.9757 20.32C73.125 20.2987 73.3597 20.2773 73.6797 20.256C73.9997 20.2133 74.245 20.1813 74.4157 20.16C74.5863 20.1173 74.6717 20.0107 74.6717 19.84V12.256C74.6717 11.7653 74.853 11.3493 75.2157 11.008C75.5783 10.6453 76.005 10.464 76.4957 10.464H77.1357C77.6263 10.464 78.053 10.6453 78.4157 11.008C78.7783 11.3493 78.9597 11.7653 78.9597 12.256V12.512C78.9597 12.704 79.045 12.8 79.2157 12.8H84.2717C84.741 12.8 85.1357 12.9707 85.4557 13.312C85.7757 13.632 85.9357 14.0267 85.9357 14.496C85.9357 14.9653 85.7757 15.36 85.4557 15.68C85.1357 16 84.741 16.16 84.2717 16.16H79.2157C79.045 16.16 78.9597 16.256 78.9597 16.448V19.264C78.9597 19.456 79.045 19.5307 79.2157 19.488C80.3463 19.3173 82.0423 19.0187 84.3037 18.592C84.7517 18.4853 85.1677 18.5707 85.5517 18.848C85.9357 19.104 86.149 19.4667 86.1917 19.936C86.2343 20.4267 86.117 20.8747 85.8397 21.28C85.5623 21.6853 85.189 21.9307 84.7197 22.016C80.8797 22.8053 77.0823 23.3813 73.3277 23.744ZM100.848 18.432C100.656 20.4587 100.336 21.728 99.8877 22.24C99.4397 22.7307 98.4583 23.008 96.9437 23.072C95.6637 23.1147 94.6823 23.136 93.9997 23.136C93.189 23.136 92.2077 23.1147 91.0557 23.072C89.4343 23.008 88.421 22.848 88.0157 22.592C87.6317 22.336 87.4397 21.7387 87.4397 20.8V12.256C87.4397 11.7653 87.6103 11.3493 87.9517 11.008C88.3143 10.6453 88.741 10.464 89.2317 10.464H89.8717C90.3623 10.464 90.789 10.6453 91.1517 11.008C91.5143 11.3493 91.6957 11.7653 91.6957 12.256V13.344C91.6957 13.536 91.781 13.6107 91.9517 13.568C93.7437 13.0773 95.7597 12.3947 97.9997 11.52C98.4477 11.328 98.8957 11.3173 99.3437 11.488C99.813 11.6587 100.144 11.968 100.336 12.416C100.528 12.8427 100.538 13.28 100.368 13.728C100.197 14.176 99.8877 14.4853 99.4397 14.656C96.8583 15.6587 94.373 16.4373 91.9837 16.992C91.7917 17.0347 91.6957 17.1413 91.6957 17.312V19.04C91.6957 19.36 91.7277 19.552 91.7917 19.616C91.8557 19.6587 92.101 19.7013 92.5277 19.744C92.8263 19.7653 93.349 19.776 94.0957 19.776C94.821 19.776 95.3543 19.7653 95.6957 19.744C96.0583 19.7227 96.3037 19.6907 96.4317 19.648C96.5597 19.584 96.6663 19.4347 96.7517 19.2C96.8583 18.9653 96.9437 18.5707 97.0077 18.016C97.0503 17.504 97.253 17.0987 97.6157 16.8C97.9997 16.48 98.437 16.352 98.9277 16.416L99.1837 16.448C99.6957 16.512 100.112 16.736 100.432 17.12C100.752 17.504 100.89 17.9413 100.848 18.432ZM109.84 18.176C109.349 18.176 108.922 18.0053 108.56 17.664C108.218 17.3013 108.048 16.8747 108.048 16.384C108.048 15.872 108.218 15.4453 108.56 15.104C108.922 14.7413 109.36 14.56 109.872 14.56C112.496 14.56 116.453 14.496 121.744 14.368C121.957 14.368 122.042 14.2827 122 14.112C121.936 13.536 121.872 12.928 121.808 12.288C121.765 11.7973 121.904 11.3707 122.224 11.008C122.565 10.6453 122.992 10.4427 123.504 10.4H123.92C124.41 10.3573 124.848 10.5067 125.232 10.848C125.637 11.1893 125.85 11.6053 125.872 12.096C125.893 12.288 125.914 12.5973 125.936 13.024C125.978 13.4507 126.01 13.7707 126.032 13.984C126.074 14.1547 126.181 14.24 126.352 14.24C128.848 14.1547 130.746 14.08 132.048 14.016C132.538 13.9947 132.965 14.1547 133.328 14.496C133.69 14.8373 133.882 15.2533 133.904 15.744C133.925 16.2347 133.754 16.672 133.392 17.056C133.05 17.4187 132.634 17.6107 132.144 17.632L126.96 17.824C126.789 17.824 126.725 17.92 126.768 18.112C127.301 20.224 128.197 22.368 129.456 24.544C129.69 24.9493 129.744 25.3973 129.616 25.888C129.488 26.3787 129.21 26.7307 128.784 26.944L128.176 27.232C127.194 27.744 126.138 27.7227 125.008 27.168C123.088 26.2293 121.125 25.76 119.12 25.76C117.498 25.76 116.24 26.0907 115.344 26.752C114.448 27.392 114 28.2667 114 29.376C114 30.848 114.661 31.9893 115.984 32.8C117.306 33.5893 119.28 33.984 121.904 33.984C123.525 33.984 125.52 33.8027 127.888 33.44C128.378 33.3547 128.826 33.4613 129.232 33.76C129.658 34.0373 129.914 34.4213 130 34.912V34.976C130.106 35.4667 130.01 35.9147 129.712 36.32C129.434 36.7253 129.05 36.9707 128.56 37.056C126.085 37.4187 123.866 37.6 121.904 37.6C117.808 37.6 114.757 36.832 112.752 35.296C110.746 33.76 109.744 31.7227 109.744 29.184C109.744 27.0507 110.554 25.344 112.176 24.064C113.797 22.784 116.048 22.144 118.928 22.144C120.762 22.144 122.576 22.496 124.368 23.2H124.432C124.453 23.1787 124.464 23.1573 124.464 23.136C123.738 21.664 123.162 20.032 122.736 18.24C122.693 18.0693 122.565 17.984 122.352 17.984C118.17 18.112 114 18.176 109.84 18.176ZM151.984 34.304C153.392 34.304 154.362 34.0693 154.896 33.6C155.429 33.1093 155.706 32.2027 155.728 30.88C155.728 30.7093 155.642 30.592 155.472 30.528C154.32 30.08 153.296 29.856 152.4 29.856C151.141 29.856 150.234 30.0267 149.68 30.368C149.146 30.7093 148.88 31.232 148.88 31.936C148.88 32.6827 149.146 33.2693 149.68 33.696C150.234 34.1013 151.002 34.304 151.984 34.304ZM144.848 17.12C144.357 17.12 143.93 16.9387 143.568 16.576C143.205 16.2133 143.024 15.7867 143.024 15.296C143.024 14.8053 143.205 14.3893 143.568 14.048C143.93 13.6853 144.357 13.504 144.848 13.504H155.44C155.632 13.504 155.728 13.408 155.728 13.216V12.224C155.728 11.7333 155.898 11.3067 156.24 10.944C156.602 10.5813 157.029 10.4 157.52 10.4H157.968C158.458 10.4 158.874 10.5813 159.216 10.944C159.578 11.3067 159.76 11.7333 159.76 12.224V13.216C159.76 13.408 159.856 13.504 160.048 13.504H166.16C166.65 13.504 167.077 13.6853 167.44 14.048C167.802 14.3893 167.984 14.8053 167.984 15.296C167.984 15.7867 167.802 16.2133 167.44 16.576C167.077 16.9387 166.65 17.12 166.16 17.12H160.048C159.856 17.12 159.76 17.2053 159.76 17.376V19.616C159.76 19.808 159.856 19.904 160.048 19.904H165.04C165.53 19.904 165.946 20.0747 166.288 20.416C166.629 20.7573 166.8 21.1733 166.8 21.664C166.8 22.1547 166.629 22.5813 166.288 22.944C165.946 23.2853 165.53 23.456 165.04 23.456H160.048C159.856 23.456 159.76 23.552 159.76 23.744V28.352C159.76 28.5227 159.834 28.6613 159.984 28.768C161.904 29.8773 163.898 31.328 165.968 33.12C166.352 33.44 166.554 33.856 166.576 34.368C166.597 34.88 166.437 35.3173 166.096 35.68L166 35.776C165.658 36.1387 165.232 36.3307 164.72 36.352C164.229 36.3947 163.802 36.2453 163.44 35.904C162.096 34.7307 160.89 33.76 159.824 32.992C159.674 32.8853 159.578 32.9173 159.536 33.088C159.194 34.7947 158.416 36.0213 157.2 36.768C156.005 37.536 154.266 37.92 151.984 37.92C149.722 37.92 147.941 37.3867 146.64 36.32C145.36 35.2747 144.72 33.8133 144.72 31.936C144.72 30.2507 145.306 28.896 146.48 27.872C147.674 26.8267 149.509 26.304 151.984 26.304C153.2 26.304 154.362 26.464 155.472 26.784C155.642 26.8267 155.728 26.7627 155.728 26.592V23.744C155.728 23.552 155.632 23.456 155.44 23.456H145.968C145.477 23.456 145.061 23.2853 144.72 22.944C144.378 22.6027 144.208 22.1867 144.208 21.696C144.208 21.2053 144.378 20.7893 144.72 20.448C145.061 20.0853 145.477 19.904 145.968 19.904H155.44C155.632 19.904 155.728 19.808 155.728 19.616V17.408C155.728 17.216 155.632 17.12 155.44 17.12H144.848ZM188.176 16.384C185.68 16.9173 183.717 18.0587 182.288 19.808C180.858 21.536 180.144 23.6587 180.144 26.176C180.144 27.7973 180.474 29.2373 181.136 30.496C181.797 31.7547 182.426 32.384 183.024 32.384C183.322 32.384 183.632 32.2453 183.952 31.968C184.272 31.6693 184.624 31.1467 185.008 30.4C185.413 29.632 185.797 28.6827 186.16 27.552C186.544 26.4 186.928 24.8853 187.312 23.008C187.717 21.1093 188.08 18.976 188.4 16.608C188.421 16.544 188.4 16.4907 188.336 16.448C188.293 16.384 188.24 16.3627 188.176 16.384ZM183.024 36.416C181.296 36.416 179.706 35.424 178.256 33.44C176.805 31.456 176.08 29.0347 176.08 26.176C176.08 22.0373 177.488 18.6773 180.304 16.096C183.12 13.5147 186.8 12.224 191.344 12.224C195.013 12.224 198.042 13.376 200.432 15.68C202.842 17.984 204.048 20.9173 204.048 24.48C204.048 27.8293 203.269 30.592 201.712 32.768C200.176 34.9227 198.064 36.2987 195.376 36.896C194.864 37.0027 194.394 36.9067 193.968 36.608C193.562 36.3093 193.306 35.904 193.2 35.392L193.136 35.104C193.029 34.6347 193.114 34.1973 193.392 33.792C193.669 33.3867 194.042 33.1093 194.512 32.96C198.16 31.8293 199.984 29.0027 199.984 24.48C199.984 22.304 199.333 20.4693 198.032 18.976C196.752 17.4613 195.066 16.5333 192.976 16.192C192.784 16.1493 192.666 16.224 192.624 16.416C192.197 19.6373 191.717 22.4427 191.184 24.832C190.65 27.2 190.085 29.12 189.488 30.592C188.912 32.0427 188.261 33.216 187.536 34.112C186.81 34.9867 186.096 35.5947 185.392 35.936C184.688 36.256 183.898 36.416 183.024 36.416ZM211.856 29.856C211.365 29.856 210.938 29.6853 210.576 29.344C210.234 29.0027 210.064 28.5867 210.064 28.096C210.064 27.6053 210.234 27.1893 210.576 26.848C210.938 26.4853 211.365 26.304 211.856 26.304H221.904C222.074 26.304 222.181 26.2187 222.224 26.048C222.288 25.664 222.341 25.056 222.384 24.224C222.384 24.0533 222.298 23.968 222.128 23.968C219.824 24.1387 217.424 24.2347 214.928 24.256C214.458 24.256 214.042 24.096 213.68 23.776C213.338 23.4347 213.146 23.0187 213.104 22.528C213.061 22.0587 213.2 21.6533 213.52 21.312C213.84 20.9707 214.234 20.8 214.704 20.8C221.936 20.6933 228.314 20.0213 233.84 18.784C234.33 18.6773 234.8 18.7413 235.248 18.976C235.717 19.2107 236.048 19.5627 236.24 20.032L236.272 20.128C236.442 20.576 236.41 21.0133 236.176 21.44C235.962 21.8667 235.621 22.1333 235.152 22.24C232.485 22.816 229.786 23.2533 227.056 23.552C226.864 23.5947 226.768 23.68 226.768 23.808C226.746 24.384 226.672 25.1307 226.544 26.048C226.522 26.112 226.544 26.176 226.608 26.24C226.672 26.2827 226.736 26.304 226.8 26.304H237.392C237.882 26.304 238.298 26.4853 238.64 26.848C239.002 27.1893 239.184 27.6053 239.184 28.096C239.184 28.5867 239.002 29.0027 238.64 29.344C238.298 29.6853 237.882 29.856 237.392 29.856H227.664C227.6 29.856 227.546 29.888 227.504 29.952C227.482 30.016 227.493 30.0693 227.536 30.112C228.944 32.2667 232.154 33.7707 237.168 34.624C237.616 34.7093 237.946 34.9547 238.16 35.36C238.394 35.744 238.437 36.1493 238.288 36.576L238.16 36.928C237.968 37.4187 237.637 37.792 237.168 38.048C236.72 38.304 236.24 38.3787 235.728 38.272C233.189 37.7173 230.949 36.9067 229.008 35.84C227.066 34.752 225.562 33.5253 224.496 32.16C224.389 32.0533 224.293 32.064 224.208 32.192C222.096 35.1573 218.544 37.184 213.552 38.272C213.04 38.3787 212.549 38.304 212.08 38.048C211.61 37.792 211.28 37.4187 211.088 36.928L210.96 36.576C210.789 36.1493 210.821 35.7333 211.056 35.328C211.29 34.9227 211.642 34.6773 212.112 34.592C214.394 34.1653 216.229 33.6 217.616 32.896C219.024 32.192 220.101 31.2533 220.848 30.08C220.869 30.0373 220.858 29.9947 220.816 29.952C220.794 29.888 220.752 29.856 220.688 29.856H211.856ZM235.024 15.584C234.853 15.584 234.789 15.6693 234.832 15.84C235.002 16.3093 234.981 16.7573 234.768 17.184C234.554 17.6107 234.213 17.888 233.744 18.016L233.424 18.112C232.933 18.24 232.453 18.1867 231.984 17.952C231.536 17.7173 231.226 17.3653 231.056 16.896C231.013 16.7893 230.938 16.6187 230.832 16.384C230.746 16.1493 230.682 15.9787 230.64 15.872C230.554 15.68 230.426 15.584 230.256 15.584H229.488C229.317 15.584 229.178 15.6587 229.072 15.808C228.624 16.3627 228.037 17.0027 227.312 17.728C226.949 18.0907 226.501 18.2827 225.968 18.304C225.456 18.304 224.997 18.1333 224.592 17.792L224.176 17.472C223.898 17.2587 223.76 16.9707 223.76 16.608C223.76 16.2453 223.888 15.9467 224.144 15.712C224.229 15.6267 224.208 15.584 224.08 15.584H220.848C220.784 15.584 220.73 15.616 220.688 15.68C220.645 15.7227 220.634 15.776 220.656 15.84C220.72 15.9893 220.858 16.352 221.072 16.928C221.242 17.376 221.221 17.8133 221.008 18.24C220.794 18.6667 220.453 18.944 219.984 19.072L219.664 19.168C219.173 19.296 218.693 19.2427 218.224 19.008C217.776 18.7733 217.456 18.4107 217.264 17.92C217.157 17.6427 216.88 16.9493 216.432 15.84C216.368 15.6693 216.25 15.584 216.08 15.584H215.792C215.621 15.584 215.482 15.6587 215.376 15.808C214.672 16.7893 214.01 17.6107 213.392 18.272C213.029 18.6347 212.602 18.816 212.112 18.816C211.621 18.7947 211.184 18.6027 210.8 18.24C210.458 17.8987 210.277 17.4827 210.256 16.992C210.256 16.48 210.426 16.032 210.768 15.648C211.941 14.2827 212.912 12.832 213.68 11.296C213.936 10.8267 214.288 10.464 214.736 10.208C215.205 9.952 215.685 9.86667 216.176 9.952L216.432 10.016C216.88 10.1013 217.221 10.336 217.456 10.72C217.69 11.104 217.722 11.4987 217.552 11.904C217.509 12.0533 217.562 12.128 217.712 12.128H223.248C223.738 12.128 224.154 12.3093 224.496 12.672C224.858 13.0347 225.04 13.4613 225.04 13.952V14.528C225.04 14.5707 225.061 14.6027 225.104 14.624C225.168 14.6453 225.21 14.6347 225.232 14.592C226.213 13.4827 227.024 12.3627 227.664 11.232C228.282 10.1867 229.146 9.76 230.256 9.952L230.48 9.984C230.928 10.0693 231.258 10.3147 231.472 10.72C231.706 11.104 231.728 11.4987 231.536 11.904C231.514 11.9467 231.514 12 231.536 12.064C231.578 12.1067 231.632 12.128 231.696 12.128H237.392C237.882 12.128 238.288 12.2987 238.608 12.64C238.949 12.9813 239.12 13.3867 239.12 13.856C239.12 14.3253 238.949 14.7307 238.608 15.072C238.288 15.4133 237.882 15.584 237.392 15.584H235.024ZM246.128 37.856L245.584 37.344C244.752 36.5547 244.517 35.5627 244.88 34.368C245.285 33.0667 245.562 31.5733 245.712 29.888C245.882 28.1813 245.968 25.792 245.968 22.72V20.736C245.968 20.2453 246.149 19.8293 246.512 19.488C246.874 19.1253 247.301 18.944 247.792 18.944H247.92C247.984 18.944 248.037 18.912 248.08 18.848C248.144 18.784 248.165 18.72 248.144 18.656C248.08 18.3787 247.824 17.3333 247.376 15.52C247.333 15.3707 247.237 15.296 247.088 15.296C246.661 15.296 246.298 15.1467 246 14.848C245.701 14.5493 245.552 14.1867 245.552 13.76V13.664C245.552 13.1947 245.701 12.8 246 12.48C246.32 12.16 246.714 12 247.184 12H250.384C250.576 12 250.672 11.904 250.672 11.712V11.52C250.672 11.0293 250.842 10.6027 251.184 10.24C251.546 9.87733 251.973 9.696 252.464 9.696H253.072C253.562 9.696 253.978 9.87733 254.32 10.24C254.682 10.6027 254.864 11.0293 254.864 11.52V11.712C254.864 11.904 254.96 12 255.152 12H258.064C258.533 12 258.928 12.16 259.248 12.48C259.269 12.5227 259.301 12.544 259.344 12.544C259.386 12.5227 259.408 12.4907 259.408 12.448V12.416C259.408 11.9253 259.578 11.5093 259.92 11.168C260.261 10.8267 260.677 10.656 261.168 10.656H272.976C273.445 10.656 273.85 10.8267 274.192 11.168C274.533 11.5093 274.704 11.9253 274.704 12.416C274.704 12.9067 274.533 13.3227 274.192 13.664C273.85 13.984 273.445 14.144 272.976 14.144H269.168C268.997 14.144 268.89 14.24 268.848 14.432C268.784 14.7093 268.688 15.104 268.56 15.616C268.517 15.808 268.581 15.904 268.752 15.904H272.144C272.634 15.904 273.061 16.0853 273.424 16.448C273.786 16.7893 273.968 17.2053 273.968 17.696V30.88C273.968 31.3707 273.786 31.7973 273.424 32.16C273.061 32.5227 272.634 32.704 272.144 32.704H264.56H262.512C262.021 32.704 261.594 32.5227 261.232 32.16C260.869 31.7973 260.688 31.3707 260.688 30.88V17.696C260.688 17.2053 260.869 16.7893 261.232 16.448C261.594 16.0853 262.021 15.904 262.512 15.904H263.984C264.176 15.904 264.293 15.808 264.336 15.616C264.464 15.104 264.56 14.7093 264.624 14.432C264.666 14.24 264.602 14.144 264.432 14.144H261.168C260.613 14.144 260.176 13.9627 259.856 13.6C259.77 13.5147 259.728 13.536 259.728 13.664V14.208C259.728 14.5067 259.621 14.7627 259.408 14.976C259.194 15.1893 258.938 15.296 258.64 15.296C258.533 15.296 258.458 15.3493 258.416 15.456C258.138 16.6293 257.85 17.696 257.552 18.656C257.509 18.848 257.562 18.944 257.712 18.944H258.192C258.661 18.944 259.056 19.104 259.376 19.424C259.696 19.7227 259.856 20.1067 259.856 20.576C259.856 21.0453 259.696 21.44 259.376 21.76C259.056 22.08 258.661 22.24 258.192 22.24H258.064C258.021 22.24 257.989 22.2613 257.968 22.304C257.946 22.3467 257.946 22.3787 257.968 22.4C258.096 22.528 258.181 22.6347 258.224 22.72C258.458 23.0827 258.522 23.4773 258.416 23.904C258.309 24.3307 258.074 24.6507 257.712 24.864C256.346 25.696 254.576 26.4533 252.4 27.136C251.952 27.2853 251.514 27.264 251.088 27.072C250.682 26.8587 250.384 26.528 250.192 26.08C250.021 25.696 250.021 25.312 250.192 24.928C250.384 24.544 250.682 24.288 251.088 24.16C252.922 23.6267 254.48 23.0293 255.76 22.368C255.781 22.3467 255.792 22.3253 255.792 22.304C255.792 22.2613 255.77 22.24 255.728 22.24H250.064C249.872 22.24 249.776 22.3253 249.776 22.496V25.28C249.776 27.3493 249.722 28.992 249.616 30.208C249.637 30.2507 249.669 30.272 249.712 30.272C249.925 29.9733 250.202 29.7813 250.544 29.696C252.89 29.0347 254.928 28.192 256.656 27.168C257.018 26.9547 257.402 26.9013 257.808 27.008C258.234 27.0933 258.554 27.3173 258.768 27.68C259.002 28.064 259.066 28.48 258.96 28.928C258.853 29.3547 258.618 29.6853 258.256 29.92C256.357 31.136 254.224 32.1173 251.856 32.864C251.408 33.0133 250.97 32.9813 250.544 32.768C250.117 32.5547 249.797 32.2347 249.584 31.808C249.562 31.7867 249.53 31.776 249.488 31.776C249.466 31.776 249.456 31.7867 249.456 31.808C249.221 33.8347 248.784 35.712 248.144 37.44C247.994 37.8453 247.696 38.0907 247.248 38.176C246.821 38.2613 246.448 38.1547 246.128 37.856ZM269.936 29.248V28.032C269.936 27.84 269.85 27.744 269.68 27.744H264.816C264.645 27.744 264.56 27.84 264.56 28.032V29.248C264.56 29.44 264.645 29.536 264.816 29.536H269.68C269.85 29.536 269.936 29.44 269.936 29.248ZM269.936 24.832V23.648C269.936 23.4773 269.85 23.392 269.68 23.392H264.816C264.645 23.392 264.56 23.4773 264.56 23.648V24.832C264.56 25.0027 264.645 25.088 264.816 25.088H269.68C269.85 25.088 269.936 25.0027 269.936 24.832ZM264.816 19.072C264.645 19.072 264.56 19.1573 264.56 19.328V20.448C264.56 20.64 264.645 20.736 264.816 20.736H269.68C269.85 20.736 269.936 20.64 269.936 20.448V19.328C269.936 19.1573 269.85 19.072 269.68 19.072H264.816ZM251.408 15.296C251.344 15.296 251.28 15.328 251.216 15.392C251.173 15.456 251.162 15.52 251.184 15.584C251.525 16.9493 251.77 17.9733 251.92 18.656C251.962 18.848 252.069 18.944 252.24 18.944H253.52C253.69 18.944 253.808 18.8587 253.872 18.688C254.256 17.472 254.554 16.4267 254.768 15.552C254.81 15.3813 254.736 15.296 254.544 15.296H251.408ZM261.808 38.368C261.338 38.6027 260.858 38.6347 260.368 38.464C259.877 38.2933 259.504 37.984 259.248 37.536C259.013 37.1093 258.97 36.672 259.12 36.224C259.269 35.776 259.557 35.4347 259.984 35.2C261.114 34.6453 262.149 34.0267 263.088 33.344C263.472 33.0667 263.909 32.96 264.4 33.024C264.89 33.088 265.274 33.312 265.552 33.696C265.85 34.1013 265.968 34.56 265.904 35.072C265.861 35.5627 265.637 35.9573 265.232 36.256C264.229 37.024 263.088 37.728 261.808 38.368ZM273.872 35.2C274.277 35.4773 274.522 35.8613 274.608 36.352C274.714 36.864 274.629 37.3333 274.352 37.76C274.096 38.1653 273.733 38.4213 273.264 38.528C272.794 38.6347 272.368 38.5493 271.984 38.272C270.725 37.4187 269.594 36.7147 268.592 36.16C268.165 35.9253 267.888 35.5947 267.76 35.168C267.653 34.72 267.717 34.2827 267.952 33.856C268.208 33.4293 268.57 33.1413 269.04 32.992C269.509 32.8427 269.968 32.8853 270.416 33.12C271.717 33.7813 272.869 34.4747 273.872 35.2ZM259.568 32.736C259.802 33.0987 259.888 33.504 259.824 33.952C259.76 34.4 259.557 34.752 259.216 35.008C257.061 36.5653 254.416 37.8133 251.28 38.752C250.81 38.9013 250.352 38.8587 249.904 38.624C249.456 38.3893 249.136 38.048 248.944 37.6C248.773 37.1733 248.784 36.7573 248.976 36.352C249.189 35.9467 249.52 35.68 249.968 35.552C252.805 34.7413 255.28 33.664 257.392 32.32C257.754 32.0853 258.149 32.0107 258.576 32.096C259.002 32.1813 259.333 32.3947 259.568 32.736ZM282.128 16.896C281.658 16.896 281.253 16.736 280.912 16.416C280.57 16.0747 280.4 15.6693 280.4 15.2C280.4 14.7307 280.57 14.336 280.912 14.016C281.253 13.6747 281.658 13.504 282.128 13.504H287.024C287.173 13.504 287.29 13.408 287.376 13.216L287.952 11.68C288.122 11.1893 288.432 10.816 288.88 10.56C289.328 10.2827 289.808 10.1867 290.32 10.272L290.864 10.4C291.333 10.5067 291.685 10.7627 291.92 11.168C292.154 11.552 292.197 11.968 292.048 12.416C292.005 12.5227 291.941 12.672 291.856 12.864C291.792 13.0347 291.749 13.152 291.728 13.216C291.685 13.408 291.749 13.504 291.92 13.504H303.248C303.717 13.504 304.112 13.6747 304.432 14.016C304.773 14.336 304.944 14.7307 304.944 15.2C304.944 15.6693 304.773 16.0747 304.432 16.416C304.112 16.736 303.717 16.896 303.248 16.896H290.512C290.32 16.896 290.192 16.9813 290.128 17.152C289.829 17.856 289.466 18.656 289.04 19.552C289.04 19.5947 289.05 19.616 289.072 19.616H289.104C290.234 19.168 291.322 18.944 292.368 18.944C295.098 18.944 296.986 20.1387 298.032 22.528C298.096 22.6987 298.234 22.7627 298.448 22.72C300.154 22.3787 301.733 22.112 303.184 21.92C303.653 21.856 304.08 21.9733 304.464 22.272C304.848 22.5707 305.061 22.9653 305.104 23.456C305.146 23.9467 305.018 24.384 304.72 24.768C304.421 25.152 304.026 25.376 303.536 25.44C301.68 25.7173 300.25 25.9627 299.248 26.176C299.056 26.2187 298.981 26.3253 299.024 26.496C299.152 27.6267 299.226 28.5867 299.248 29.376C299.269 29.8667 299.098 30.2933 298.736 30.656C298.394 31.0187 297.978 31.2 297.488 31.2H296.848C296.357 31.2 295.93 31.0293 295.568 30.688C295.205 30.3253 295.013 29.8987 294.992 29.408C294.97 28.832 294.938 28.2453 294.896 27.648C294.896 27.456 294.81 27.3813 294.64 27.424C291.205 28.6187 289.488 29.9093 289.488 31.296C289.488 31.8933 289.648 32.384 289.968 32.768C290.288 33.1307 290.981 33.44 292.048 33.696C293.114 33.952 294.608 34.08 296.528 34.08C298.149 34.08 300.208 33.92 302.704 33.6C303.194 33.536 303.632 33.664 304.016 33.984C304.421 34.2827 304.645 34.6773 304.688 35.168C304.73 35.68 304.592 36.128 304.272 36.512C303.973 36.9173 303.568 37.152 303.056 37.216C300.901 37.472 298.725 37.6 296.528 37.6C292.517 37.6 289.626 37.12 287.856 36.16C286.085 35.2213 285.2 33.7493 285.2 31.744C285.2 28.4587 288.08 25.856 293.84 23.936C294.032 23.8933 294.085 23.7867 294 23.616C293.509 22.72 292.645 22.272 291.408 22.272C289.402 22.272 287.088 23.9573 284.464 27.328C284.144 27.7333 283.728 27.9893 283.216 28.096C282.704 28.1813 282.234 28.096 281.808 27.84L281.552 27.68C281.146 27.424 280.89 27.0613 280.784 26.592C280.677 26.1227 280.762 25.6853 281.04 25.28C282.96 22.4853 284.528 19.7867 285.744 17.184C285.765 17.12 285.754 17.056 285.712 16.992C285.69 16.928 285.648 16.896 285.584 16.896H282.128ZM339.728 19.68C339.237 19.68 338.81 19.4987 338.448 19.136C338.085 18.7733 337.904 18.3467 337.904 17.856V16.384C337.904 16.192 337.818 16.096 337.648 16.096H318.992C318.8 16.096 318.704 16.192 318.704 16.384V17.856C318.704 18.3467 318.522 18.7733 318.16 19.136C317.797 19.4987 317.37 19.68 316.88 19.68H316.464C315.973 19.68 315.546 19.4987 315.184 19.136C314.821 18.7733 314.64 18.3467 314.64 17.856V14.4C314.64 13.9093 314.821 13.4827 315.184 13.12C315.546 12.7573 315.973 12.576 316.464 12.576H325.84C326.032 12.576 326.128 12.4907 326.128 12.32V11.264C326.128 10.7733 326.298 10.3467 326.64 9.984C327.002 9.62133 327.429 9.44 327.92 9.44H328.688C329.178 9.44 329.594 9.62133 329.936 9.984C330.298 10.3467 330.48 10.7733 330.48 11.264V12.32C330.48 12.4907 330.576 12.576 330.768 12.576H340.144C340.634 12.576 341.061 12.7573 341.424 13.12C341.786 13.4827 341.968 13.9093 341.968 14.4V17.856C341.968 18.3467 341.786 18.7733 341.424 19.136C341.061 19.4987 340.634 19.68 340.144 19.68H339.728ZM315.408 24.896C314.917 24.896 314.49 24.7253 314.128 24.384C313.765 24.0213 313.584 23.5947 313.584 23.104C313.584 22.6133 313.765 22.1867 314.128 21.824C314.49 21.4613 314.917 21.28 315.408 21.28H331.344C331.514 21.28 331.6 21.184 331.6 20.992V19.136C331.6 18.6453 331.781 18.2293 332.144 17.888C332.506 17.5253 332.933 17.344 333.424 17.344H334.16C334.65 17.344 335.077 17.5253 335.44 17.888C335.802 18.2293 335.984 18.6453 335.984 19.136V20.992C335.984 21.184 336.08 21.28 336.272 21.28H341.2C341.69 21.28 342.117 21.4613 342.48 21.824C342.842 22.1867 343.024 22.6133 343.024 23.104C343.024 23.5947 342.842 24.0213 342.48 24.384C342.117 24.7253 341.69 24.896 341.2 24.896H336.272C336.08 24.896 335.984 24.992 335.984 25.184V33.6C335.984 34.4747 335.962 35.168 335.92 35.68C335.898 36.1707 335.813 36.6293 335.664 37.056C335.514 37.504 335.333 37.824 335.12 38.016C334.928 38.208 334.597 38.368 334.128 38.496C333.658 38.6453 333.157 38.7307 332.624 38.752C332.112 38.7947 331.386 38.816 330.448 38.816C329.594 38.816 328.304 38.784 326.576 38.72C326.064 38.6987 325.626 38.5067 325.264 38.144C324.922 37.8027 324.73 37.376 324.688 36.864C324.645 36.3733 324.794 35.9573 325.136 35.616C325.498 35.2533 325.914 35.0827 326.384 35.104C327.92 35.168 329.018 35.2 329.68 35.2C330.618 35.2 331.173 35.136 331.344 35.008C331.514 34.8587 331.6 34.4213 331.6 33.696V25.184C331.6 24.992 331.514 24.896 331.344 24.896H315.408ZM324.304 33.632C323.898 33.9307 323.45 34.0587 322.96 34.016C322.469 33.952 322.064 33.728 321.744 33.344C320.656 32.0213 319.546 30.72 318.416 29.44C318.096 29.0987 317.946 28.6827 317.968 28.192C317.989 27.7013 318.192 27.3067 318.576 27.008L318.896 26.752C319.301 26.432 319.76 26.2933 320.272 26.336C320.805 26.3573 321.242 26.56 321.584 26.944C322.693 28.16 323.813 29.4613 324.944 30.848C325.264 31.232 325.392 31.68 325.328 32.192C325.264 32.6827 325.029 33.0773 324.624 33.376L324.304 33.632ZM363.728 34.144C364.026 33.4187 364.176 32.832 364.176 32.384C364.176 31.7227 363.92 31.2213 363.408 30.88C362.896 30.5173 361.978 30.336 360.656 30.336C359.589 30.336 358.768 30.5173 358.192 30.88C357.637 31.2213 357.36 31.648 357.36 32.16C357.36 33.6533 359.173 34.4 362.8 34.4H363.376C363.525 34.4 363.642 34.3147 363.728 34.144ZM353.104 26.848C352.677 27.04 352.25 27.0613 351.824 26.912C351.418 26.7627 351.109 26.4853 350.896 26.08C350.682 25.6747 350.64 25.248 350.768 24.8C350.896 24.3307 351.162 23.9787 351.568 23.744L365.072 15.584L365.104 15.552L365.072 15.52H354.096C353.626 15.52 353.21 15.3493 352.848 15.008C352.506 14.6667 352.336 14.2507 352.336 13.76C352.336 13.2693 352.506 12.8533 352.848 12.512C353.21 12.1707 353.626 12 354.096 12H370.896C371.386 12 371.813 12.1813 372.176 12.544C372.56 12.8853 372.752 13.3013 372.752 13.792C372.794 14.9653 372.272 15.8613 371.184 16.48L362.256 21.44V21.472H362.32C363.728 21.1947 365.018 21.056 366.192 21.056C369.242 21.056 371.546 21.6853 373.104 22.944C374.682 24.2027 375.472 25.9947 375.472 28.32C375.472 31.3493 374.373 33.696 372.176 35.36C369.978 37.0027 366.853 37.824 362.8 37.824C359.621 37.824 357.242 37.3333 355.664 36.352C354.085 35.392 353.296 33.9947 353.296 32.16C353.296 30.752 353.968 29.568 355.312 28.608C356.656 27.6267 358.512 27.136 360.88 27.136C363.312 27.136 365.072 27.5413 366.16 28.352C367.248 29.1627 367.792 30.3573 367.792 31.936C367.792 32.32 367.738 32.8 367.632 33.376C367.61 33.44 367.621 33.4933 367.664 33.536C367.728 33.5573 367.781 33.5573 367.824 33.536C369.936 32.6187 370.992 31.008 370.992 28.704C370.992 27.232 370.469 26.1227 369.424 25.376C368.4 24.6293 366.757 24.256 364.496 24.256C360.677 24.256 356.88 25.12 353.104 26.848Z" fill="white"/>
</g>
<defs>
<filter id="filter0_d_25322_23700" x="2.87988" y="74.344" width="418.624" height="41.9199" filterUnits="userSpaceOnUse" color-interpolation-filters="sRGB">
<feFlood flood-opacity="0" result="BackgroundImageFix"/>
<feColorMatrix in="SourceAlpha" type="matrix" values="0 0 0 0 0 0 0 0 0 0 0 0 0 0 0 0 0 0 127 0" result="hardAlpha"/>
<feOffset dx="4" dy="6"/>
<feGaussianBlur stdDeviation="3"/>
<feComposite in2="hardAlpha" operator="out"/>
<feColorMatrix type="matrix" values="0 0 0 0 0 0 0 0 0 0 0 0 0 0 0 0 0 0 0.203922 0"/>
<feBlend mode="normal" in2="BackgroundImageFix" result="effect1_dropShadow_25322_23700"/>
<feBlend mode="normal" in="SourceGraphic" in2="effect1_dropShadow_25322_23700" result="shape"/>
</filter>
<filter id="filter1_d_25322_23700" x="0" y="9.43994" width="385.472" height="41.5361" filterUnits="userSpaceOnUse" color-interpolation-filters="sRGB">
<feFlood flood-opacity="0" result="BackgroundImageFix"/>
<feColorMatrix in="SourceAlpha" type="matrix" values="0 0 0 0 0 0 0 0 0 0 0 0 0 0 0 0 0 0 127 0" result="hardAlpha"/>
<feOffset dx="4" dy="6"/>
<feGaussianBlur stdDeviation="3"/>
<feComposite in2="hardAlpha" operator="out"/>
<feColorMatrix type="matrix" values="0 0 0 0 0 0 0 0 0 0 0 0 0 0 0 0 0 0 0.203922 0"/>
<feBlend mode="normal" in2="BackgroundImageFix" result="effect1_dropShadow_25322_23700"/>
<feBlend mode="normal" in="SourceGraphic" in2="effect1_dropShadow_25322_23700" result="shape"/>
</filter>
</defs>
</svg>
