<svg width="290" height="255" viewBox="0 0 290 255" fill="none" xmlns="http://www.w3.org/2000/svg">
<ellipse cx="142.42" cy="110.055" rx="113.523" ry="110.055" fill="#DFF1FD"/>
<path d="M83.9041 98.5841C83.9084 97.2705 82.8155 96.2019 81.4623 96.1977H81.4606L58.4581 96.1318C57.105 96.1285 56.0043 97.1905 56 98.5041C55.9966 99.8186 57.0913 100.887 58.4453 100.89L81.4468 100.956C82.8 100.96 83.8999 99.8977 83.9041 98.5841Z" fill="#1391E6"/>
<path d="M84.4574 79.6498L66.8675 73.3026C65.5985 72.8458 64.1887 73.4726 63.7156 74.7037C63.2442 75.9357 63.8907 77.306 65.1597 77.7635L82.7496 84.1108C83.0209 84.2084 83.3077 84.2592 83.597 84.26C84.6239 84.2633 85.5435 83.6448 85.9024 82.7105C86.3737 81.4777 85.7263 80.1082 84.4574 79.6498Z" fill="#1391E6"/>
<path d="M82.6603 113.249L66.1591 119.099C64.8875 119.55 64.2332 120.916 64.6969 122.15C65.0498 123.086 65.9659 123.711 66.9928 123.715C67.2821 123.715 67.5689 123.666 67.8402 123.57L84.3414 117.72C85.6121 117.268 86.2663 115.902 85.8027 114.667C85.3382 113.433 83.9318 112.798 82.6603 113.249Z" fill="#1391E6"/>
<path d="M226.938 96.6119L203.936 96.5469C202.583 96.5419 201.483 97.603 201.479 98.9158V98.9191C201.473 100.233 202.567 101.301 203.92 101.305H203.922L226.923 101.371C228.276 101.376 229.377 100.314 229.382 99.0008V98.9991C229.386 97.6855 228.293 96.6169 226.94 96.6119H226.938Z" fill="#1391E6"/>
<path d="M201.874 84.5978C202.162 84.5996 202.45 84.5512 202.721 84.4545L220.347 78.2056C221.619 77.7555 222.273 76.3894 221.809 75.1549V75.1541C221.345 73.9197 219.938 73.2837 218.666 73.7346H218.665L201.039 79.981C199.767 80.4328 199.113 81.7989 199.577 83.0342C199.93 83.9711 200.846 84.5954 201.874 84.5978Z" fill="#1391E6"/>
<path d="M219.098 119.531L202.637 113.592C201.369 113.134 199.957 113.761 199.486 114.993H199.485C199.014 116.225 199.66 117.595 200.93 118.053L217.39 123.992C217.661 124.091 217.947 124.142 218.236 124.142C219.264 124.145 220.183 123.526 220.542 122.592C221.013 121.36 220.367 119.99 219.098 119.531Z" fill="#1391E6"/>
<path d="M117.753 54C111.803 54 107.135 55.7796 103.88 59.2887C98.6607 64.9108 96.9306 74.9764 98.5929 90.0598C104.272 141.693 113.351 166.85 126.351 166.962C126.415 166.963 126.479 166.964 126.543 166.964C129.23 166.964 131.762 165.953 133.67 164.116L133.858 163.936L134.027 163.74C136.043 161.382 136.645 158.05 135.818 153.836C135.717 153.321 135.584 152.713 135.433 152.018C134.189 146.311 131.276 132.947 137.713 125.409L137.741 125.377L137.769 125.344C138.965 123.896 140.747 123.065 142.658 123.065L142.753 123.066L142.82 123.067L142.887 123.066H142.943C144.869 123.066 146.659 123.907 147.855 125.372L147.882 125.405L147.91 125.438C154.276 132.983 151.268 146.307 149.984 151.998C149.821 152.718 149.679 153.348 149.572 153.872C148.721 158.089 149.303 161.422 151.302 163.788L151.469 163.987L151.656 164.169C153.571 166.031 156.117 167.057 158.828 167.057L158.916 167.056C171.947 167.056 181.188 141.953 187.178 90.3131V90.3165C188.93 75.2414 187.261 65.165 182.075 59.5113C178.806 55.9488 174.089 54.1434 168.056 54.1434C164.635 54.1434 160.776 54.7035 156.258 55.8572L156.193 55.8737L156.129 55.8921C151.854 57.094 147.433 57.7258 142.984 57.7708C138.535 57.7008 134.117 57.0432 129.851 55.8171L129.785 55.798L129.719 55.7804C125.128 54.5827 121.214 54 117.753 54Z" fill="#1391E6"/>
<path d="M181.782 89.7229C174.023 156.625 162.315 161.793 158.917 161.784C157.637 161.808 156.404 161.324 155.5 160.445C154.351 159.084 154.54 156.675 154.899 154.895C155.988 149.555 160.964 132.589 152.111 122.097C149.868 119.35 146.445 117.762 142.835 117.795C139.225 117.742 135.792 119.311 133.533 122.045C124.617 132.484 129.429 149.48 130.485 154.823C130.835 156.607 131.007 159.017 129.849 160.371C128.941 161.245 127.704 161.721 126.426 161.691C123.023 161.681 111.355 156.445 103.992 89.4986C102.525 76.1798 103.846 67.1994 107.915 62.816C111.611 58.8317 118.226 58.24 128.31 60.8714C133.071 62.24 138.003 62.971 142.968 63.0427C147.934 62.9985 152.87 62.2967 157.64 60.9547C167.729 58.3792 174.344 59.0109 178.02 63.0168C182.065 67.4262 183.33 76.4107 181.782 89.7245V89.7229Z" fill="white"/>
<path d="M133.937 80.4193C133.254 80.4193 132.598 80.0518 132.275 79.4183C131.82 78.5273 132.194 77.447 133.112 77.0061L150.902 68.4433C151.821 68.0016 152.931 68.365 153.386 69.256C153.842 70.1463 153.466 71.2264 152.549 71.6683L134.759 80.231C134.494 80.3585 134.213 80.4193 133.937 80.4193Z" fill="#1391E6"/>
<path d="M151.724 80.4193C151.448 80.4193 151.167 80.3585 150.902 80.231L133.112 71.6683C132.194 71.2264 131.82 70.1463 132.275 69.256C132.729 68.365 133.841 68.0016 134.759 68.4433L152.549 77.0061C153.466 77.447 153.842 78.5273 153.386 79.4183C153.063 80.0518 152.406 80.4193 151.724 80.4193Z" fill="#1391E6"/>
<rect y="193.097" width="290" height="44" rx="22" fill="#1391E6"/>
<path d="M43.08 222.797C43.2267 222.797 43.3133 222.777 43.34 222.737C43.3667 222.697 43.38 222.557 43.38 222.317V221.857C43.38 221.737 43.32 221.677 43.2 221.677H40.9C40.7933 221.677 40.74 221.737 40.74 221.857V223.637C40.74 223.944 40.6267 224.204 40.4 224.417C40.1733 224.644 39.9067 224.757 39.6 224.757H39.44C39.1333 224.757 38.8667 224.644 38.64 224.417C38.4133 224.204 38.3 223.944 38.3 223.637V221.857C38.3 221.737 38.24 221.677 38.12 221.677H35.82C35.7133 221.677 35.66 221.737 35.66 221.857V223.697C35.66 224.004 35.5467 224.271 35.32 224.497C35.0933 224.724 34.8267 224.837 34.52 224.837H34.32C34.0133 224.837 33.7467 224.724 33.52 224.497C33.2933 224.271 33.18 224.004 33.18 223.697V215.297C33.18 214.991 33.2933 214.724 33.52 214.497C33.7467 214.271 34.0133 214.157 34.32 214.157H36.3C36.3267 214.157 36.34 214.144 36.34 214.117C36.3533 214.091 36.3467 214.071 36.32 214.057C36.28 214.031 36.2133 213.984 36.12 213.917C36.0267 213.851 35.96 213.804 35.92 213.777C35.7467 213.644 35.6533 213.471 35.64 213.257C35.6267 213.044 35.7067 212.871 35.88 212.737C35.8933 212.724 35.9 212.711 35.9 212.697C35.9 212.671 35.8867 212.657 35.86 212.657H34.48C34.2 212.657 33.96 212.557 33.76 212.357C33.5733 212.157 33.48 211.917 33.48 211.637C33.48 211.357 33.5733 211.124 33.76 210.937C33.96 210.737 34.2 210.637 34.48 210.637H44.5C44.78 210.637 45.0133 210.737 45.2 210.937C45.4 211.124 45.5 211.357 45.5 211.637C45.5 212.344 45.22 212.864 44.66 213.197C44.0867 213.531 43.56 213.824 43.08 214.077C43.0667 214.091 43.06 214.111 43.06 214.137C43.06 214.151 43.0733 214.157 43.1 214.157H44.74C45.0467 214.157 45.3133 214.271 45.54 214.497C45.7667 214.724 45.88 214.991 45.88 215.297V222.357C45.88 223.504 45.7667 224.197 45.54 224.437C45.3133 224.677 44.6467 224.797 43.54 224.797C43.5 224.797 43.3933 224.791 43.22 224.777C43.06 224.777 42.9267 224.777 42.82 224.777C42.54 224.764 42.2933 224.657 42.08 224.457C41.88 224.271 41.7733 224.037 41.76 223.757C41.7333 223.491 41.8133 223.264 42 223.077C42.2 222.877 42.4267 222.784 42.68 222.797H43.08ZM43.2 215.977H40.9C40.7933 215.977 40.74 216.037 40.74 216.157V216.937C40.74 217.044 40.7933 217.097 40.9 217.097H43.2C43.32 217.097 43.38 217.044 43.38 216.937V216.157C43.38 216.037 43.32 215.977 43.2 215.977ZM38.3 219.797V218.977C38.3 218.871 38.24 218.817 38.12 218.817H35.82C35.7133 218.817 35.66 218.871 35.66 218.977V219.797C35.66 219.904 35.7133 219.957 35.82 219.957H38.12C38.24 219.957 38.3 219.904 38.3 219.797ZM38.3 216.937V216.157C38.3 216.037 38.24 215.977 38.12 215.977H35.82C35.7133 215.977 35.66 216.037 35.66 216.157V216.937C35.66 217.044 35.7133 217.097 35.82 217.097H38.12C38.24 217.097 38.3 217.044 38.3 216.937ZM39.66 213.837C40.4467 213.464 41.1533 213.097 41.78 212.737C41.7933 212.711 41.78 212.684 41.74 212.657H37.9C37.8733 212.657 37.8533 212.671 37.84 212.697C37.84 212.724 37.8533 212.744 37.88 212.757C38.2 212.984 38.6933 213.337 39.36 213.817C39.44 213.884 39.54 213.891 39.66 213.837ZM43.2 219.957C43.32 219.957 43.38 219.904 43.38 219.797V218.977C43.38 218.871 43.32 218.817 43.2 218.817H40.9C40.7933 218.817 40.74 218.871 40.74 218.977V219.797C40.74 219.904 40.7933 219.957 40.9 219.957H43.2ZM27.68 219.117L27.64 219.017C27.5467 218.711 27.5733 218.417 27.72 218.137C27.8667 217.844 28.0867 217.631 28.38 217.497C29.06 217.204 29.6133 216.937 30.04 216.697C30.1467 216.631 30.2 216.544 30.2 216.437C30.2267 215.531 30.24 214.764 30.24 214.137C30.24 214.084 30.2067 214.071 30.14 214.097C29.9667 214.204 29.7867 214.231 29.6 214.177C29.4267 214.124 29.2867 214.011 29.18 213.837C28.8467 213.237 28.44 212.551 27.96 211.777C27.7867 211.511 27.7333 211.231 27.8 210.937C27.8667 210.631 28.0333 210.391 28.3 210.217C28.5533 210.044 28.8333 209.991 29.14 210.057C29.46 210.124 29.7 210.291 29.86 210.557C29.8867 210.611 29.9333 210.697 30 210.817C30.0667 210.924 30.12 211.004 30.16 211.057C30.1733 211.071 30.1867 211.077 30.2 211.077C30.2267 211.064 30.24 211.044 30.24 211.017V208.857C30.24 208.551 30.3533 208.291 30.58 208.077C30.8067 207.851 31.0733 207.737 31.38 207.737H37.04C37.1467 207.737 37.2 207.677 37.2 207.557V207.497C37.2 207.191 37.3133 206.924 37.54 206.697C37.7667 206.471 38.0333 206.357 38.34 206.357H38.74C39.0467 206.357 39.3133 206.471 39.54 206.697C39.7667 206.924 39.88 207.191 39.88 207.497V207.557C39.88 207.677 39.9333 207.737 40.04 207.737H45.38C45.6733 207.737 45.92 207.844 46.12 208.057C46.3333 208.257 46.44 208.504 46.44 208.797C46.44 209.091 46.3333 209.344 46.12 209.557C45.92 209.757 45.6733 209.857 45.38 209.857H32.82C32.7 209.857 32.64 209.917 32.64 210.037V215.437C32.64 217.544 32.4867 219.244 32.18 220.537C31.8733 221.817 31.3533 222.971 30.62 223.997C30.4467 224.251 30.2 224.384 29.88 224.397C29.5733 224.411 29.3133 224.311 29.1 224.097L28.84 223.837C28.6133 223.624 28.4867 223.357 28.46 223.037C28.4467 222.704 28.5333 222.411 28.72 222.157C29.3067 221.317 29.6933 220.437 29.88 219.517C29.8933 219.477 29.88 219.444 29.84 219.417C29.8133 219.391 29.7867 219.384 29.76 219.397C29.6133 219.477 29.38 219.597 29.06 219.757C28.78 219.891 28.5 219.891 28.22 219.757C27.9533 219.624 27.7733 219.411 27.68 219.117ZM54.8 219.137C53.3467 218.137 52.4467 217.444 52.1 217.057C51.7667 216.671 51.6 216.151 51.6 215.497C51.6 214.791 51.78 214.244 52.14 213.857C52.5 213.471 53.4067 212.811 54.86 211.877C57.22 210.344 59.28 208.917 61.04 207.597C61.2933 207.411 61.58 207.337 61.9 207.377C62.22 207.404 62.48 207.544 62.68 207.797L62.88 208.057C63.08 208.297 63.16 208.571 63.12 208.877C63.0933 209.184 62.9533 209.424 62.7 209.597C60.5 211.224 58.4467 212.651 56.54 213.877C55.74 214.384 55.2267 214.731 55 214.917C54.7733 215.104 54.66 215.297 54.66 215.497C54.66 215.684 54.76 215.871 54.96 216.057C55.16 216.244 55.6267 216.584 56.36 217.077C58.6667 218.637 60.9867 220.357 63.32 222.237C63.56 222.424 63.6867 222.677 63.7 222.997C63.7267 223.304 63.6333 223.571 63.42 223.797L63.2 224.057C62.9867 224.284 62.72 224.404 62.4 224.417C62.08 224.444 61.7933 224.357 61.54 224.157C59.5 222.504 57.2533 220.831 54.8 219.137ZM82.98 219.697V219.617C82.98 219.497 82.9267 219.417 82.82 219.377C82.1133 219.031 81.4533 218.857 80.84 218.857C80.1067 218.857 79.5533 218.997 79.18 219.277C78.82 219.557 78.64 219.944 78.64 220.437C78.64 220.957 78.8333 221.364 79.22 221.657C79.6067 221.951 80.1467 222.097 80.84 222.097C81.6533 222.097 82.2133 221.931 82.52 221.597C82.8267 221.264 82.98 220.631 82.98 219.697ZM88.12 209.817C88.44 209.844 88.6933 209.984 88.88 210.237C89.08 210.491 89.16 210.777 89.12 211.097C89.08 211.404 88.9333 211.651 88.68 211.837C88.4267 212.024 88.1467 212.097 87.84 212.057C87.0933 211.964 86.3733 211.911 85.68 211.897C85.5733 211.897 85.52 211.957 85.52 212.077V218.137C85.52 218.244 85.56 218.331 85.64 218.397C86.5467 218.957 87.5067 219.677 88.52 220.557C88.76 220.757 88.8867 221.017 88.9 221.337C88.9133 221.657 88.8133 221.931 88.6 222.157L88.54 222.217C88.3267 222.444 88.0667 222.571 87.76 222.597C87.4533 222.624 87.18 222.537 86.94 222.337C86.74 222.164 86.4667 221.944 86.12 221.677C85.7733 221.397 85.5733 221.237 85.52 221.197C85.44 221.144 85.3867 221.157 85.36 221.237C85.1467 222.264 84.6667 223.017 83.92 223.497C83.1867 223.991 82.16 224.237 80.84 224.237C79.36 224.237 78.2 223.897 77.36 223.217C76.5333 222.537 76.12 221.611 76.12 220.437C76.12 219.291 76.5267 218.384 77.34 217.717C78.1667 217.037 79.3333 216.697 80.84 216.697C81.4267 216.697 82.0933 216.811 82.84 217.037C82.9333 217.064 82.98 217.024 82.98 216.917V210.697C82.98 210.391 83.0867 210.124 83.3 209.897C83.5267 209.671 83.7933 209.564 84.1 209.577C85.8067 209.631 87.1467 209.711 88.12 209.817ZM72.3 221.437C72.0067 221.344 71.8 221.157 71.68 220.877C71.56 220.597 71.5533 220.311 71.66 220.017C72.6733 217.444 73.5933 214.771 74.42 211.997C74.4467 211.891 74.4067 211.837 74.3 211.837H72.82C72.5133 211.837 72.2467 211.724 72.02 211.497C71.8067 211.271 71.7 211.004 71.7 210.697C71.7 210.391 71.8067 210.124 72.02 209.897C72.2467 209.671 72.5133 209.557 72.82 209.557H74.94C75.06 209.557 75.1333 209.504 75.16 209.397C75.2133 209.224 75.28 208.964 75.36 208.617C75.44 208.271 75.5067 208.011 75.56 207.837C75.64 207.531 75.8133 207.291 76.08 207.117C76.3467 206.931 76.64 206.857 76.96 206.897H77.1C77.4067 206.937 77.64 207.084 77.8 207.337C77.9733 207.591 78.0267 207.864 77.96 208.157C77.8267 208.717 77.7267 209.131 77.66 209.397C77.6333 209.504 77.68 209.557 77.8 209.557H79.82C80.1267 209.557 80.3933 209.671 80.62 209.897C80.8467 210.124 80.96 210.391 80.96 210.697C80.96 211.004 80.8467 211.271 80.62 211.497C80.3933 211.724 80.1267 211.837 79.82 211.837H77.18C77.06 211.837 76.9867 211.897 76.96 212.017C76.1333 214.951 75.14 217.877 73.98 220.797C73.86 221.091 73.6533 221.311 73.36 221.457C73.08 221.591 72.7867 221.604 72.48 221.497L72.3 221.437ZM107.52 220.757C107.373 217.117 106.687 213.771 105.46 210.717C105.353 210.437 105.36 210.164 105.48 209.897C105.6 209.617 105.807 209.431 106.1 209.337L106.38 209.257C106.687 209.164 106.987 209.191 107.28 209.337C107.587 209.471 107.807 209.684 107.94 209.977C109.313 213.191 110.06 216.784 110.18 220.757C110.193 221.064 110.087 221.331 109.86 221.557C109.633 221.784 109.367 221.897 109.06 221.897H108.66C108.353 221.897 108.087 221.784 107.86 221.557C107.647 221.331 107.533 221.064 107.52 220.757ZM98.46 224.037C97.3267 224.037 96.2733 223.264 95.3 221.717C94.34 220.171 93.86 218.297 93.86 216.097C93.86 214.084 94.0933 212.111 94.56 210.177C94.64 209.857 94.8133 209.611 95.08 209.437C95.36 209.251 95.6667 209.177 96 209.217L96.34 209.257C96.6333 209.284 96.86 209.424 97.02 209.677C97.1933 209.931 97.2467 210.204 97.18 210.497C96.7533 212.391 96.54 214.257 96.54 216.097C96.54 217.577 96.7733 218.824 97.24 219.837C97.72 220.851 98.1933 221.357 98.66 221.357C98.9533 221.357 99.3333 221.077 99.8 220.517C100.267 219.944 100.74 219.117 101.22 218.037C101.353 217.744 101.56 217.537 101.84 217.417C102.133 217.284 102.427 217.271 102.72 217.377L102.94 217.457C103.233 217.564 103.447 217.764 103.58 218.057C103.713 218.337 103.72 218.617 103.6 218.897C102.92 220.511 102.107 221.771 101.16 222.677C100.213 223.584 99.3133 224.037 98.46 224.037ZM115.46 212.337C115.167 212.337 114.913 212.231 114.7 212.017C114.5 211.804 114.4 211.551 114.4 211.257C114.4 210.964 114.5 210.717 114.7 210.517C114.913 210.304 115.167 210.197 115.46 210.197H117C117.107 210.197 117.16 210.137 117.16 210.017V208.037C117.16 207.731 117.273 207.464 117.5 207.237C117.727 207.011 117.993 206.897 118.3 206.897H118.64C118.947 206.897 119.207 207.011 119.42 207.237C119.647 207.464 119.76 207.731 119.76 208.037V210.017C119.76 210.137 119.82 210.197 119.94 210.197H122.02C122.14 210.197 122.2 210.137 122.2 210.017V207.557C122.2 207.251 122.313 206.991 122.54 206.777C122.767 206.551 123.033 206.437 123.34 206.437H124.12C124.347 206.437 124.54 206.517 124.7 206.677C124.86 206.837 124.94 207.024 124.94 207.237C124.94 207.317 124.98 207.357 125.06 207.357H130.32C130.573 207.357 130.793 207.451 130.98 207.637C131.167 207.824 131.26 208.051 131.26 208.317C131.26 208.571 131.167 208.791 130.98 208.977C130.807 209.164 130.587 209.257 130.32 209.257H125.1C124.993 209.257 124.94 209.317 124.94 209.437V210.017C124.94 210.137 124.993 210.197 125.1 210.197H131.34C131.633 210.197 131.88 210.304 132.08 210.517C132.293 210.717 132.4 210.964 132.4 211.257C132.4 211.551 132.293 211.804 132.08 212.017C131.88 212.231 131.633 212.337 131.34 212.337H115.46ZM116.26 212.997C116.567 212.997 116.833 213.111 117.06 213.337C117.287 213.564 117.4 213.831 117.4 214.137V222.157C117.4 222.277 117.453 222.337 117.56 222.337H129.22C129.34 222.337 129.4 222.277 129.4 222.157V214.137C129.4 213.831 129.513 213.564 129.74 213.337C129.967 213.111 130.233 212.997 130.54 212.997H130.84C131.147 212.997 131.407 213.111 131.62 213.337C131.847 213.564 131.96 213.831 131.96 214.137V223.997C131.96 224.304 131.847 224.571 131.62 224.797C131.407 225.024 131.147 225.137 130.84 225.137H130.06C129.887 225.137 129.733 225.071 129.6 224.937C129.467 224.804 129.4 224.644 129.4 224.457C129.4 224.391 129.367 224.357 129.3 224.357H117.5C117.433 224.357 117.4 224.391 117.4 224.457C117.4 224.644 117.333 224.804 117.2 224.937C117.067 225.071 116.913 225.137 116.74 225.137H115.96C115.653 225.137 115.387 225.024 115.16 224.797C114.947 224.571 114.84 224.304 114.84 223.997V214.137C114.84 213.831 114.947 213.564 115.16 213.337C115.387 213.111 115.653 212.997 115.96 212.997H116.26ZM119.7 216.077C119.807 216.077 119.827 216.031 119.76 215.937C119.64 215.764 119.453 215.524 119.2 215.217C118.96 214.897 118.82 214.711 118.78 214.657C118.607 214.444 118.54 214.204 118.58 213.937C118.62 213.657 118.753 213.444 118.98 213.297C119.22 213.137 119.487 213.077 119.78 213.117C120.087 213.157 120.327 213.291 120.5 213.517C120.58 213.611 120.687 213.751 120.82 213.937C120.967 214.124 121.053 214.237 121.08 214.277C121.267 214.531 121.333 214.811 121.28 215.117C121.227 215.411 121.067 215.644 120.8 215.817L120.56 215.977C120.533 215.991 120.52 216.011 120.52 216.037C120.533 216.064 120.553 216.077 120.58 216.077H122C122.12 216.077 122.18 216.017 122.18 215.897V213.937C122.18 213.631 122.287 213.364 122.5 213.137C122.727 212.911 122.993 212.797 123.3 212.797H123.5C123.807 212.797 124.067 212.911 124.28 213.137C124.507 213.364 124.62 213.631 124.62 213.937V215.897C124.62 216.017 124.68 216.077 124.8 216.077H126.2C126.227 216.077 126.247 216.064 126.26 216.037C126.273 216.011 126.267 215.991 126.24 215.977L126 215.817C125.747 215.644 125.6 215.411 125.56 215.117C125.533 214.811 125.613 214.544 125.8 214.317C125.827 214.277 126.013 214.031 126.36 213.577C126.533 213.351 126.753 213.211 127.02 213.157C127.3 213.091 127.56 213.131 127.8 213.277C128.04 213.437 128.187 213.657 128.24 213.937C128.293 214.217 128.233 214.471 128.06 214.697C127.807 215.057 127.48 215.471 127.08 215.937C127.013 216.031 127.033 216.077 127.14 216.077H127.82C128.073 216.077 128.293 216.171 128.48 216.357C128.667 216.531 128.76 216.751 128.76 217.017C128.76 217.284 128.667 217.511 128.48 217.697C128.293 217.871 128.073 217.957 127.82 217.957H126.4C126.373 217.957 126.353 217.971 126.34 217.997C126.34 218.011 126.353 218.031 126.38 218.057C127.073 218.564 127.733 219.104 128.36 219.677C128.587 219.877 128.707 220.124 128.72 220.417C128.733 220.711 128.64 220.971 128.44 221.197C128.253 221.411 128.013 221.517 127.72 221.517C127.427 221.517 127.18 221.411 126.98 221.197C126.447 220.637 125.707 219.911 124.76 219.017C124.733 218.991 124.7 218.984 124.66 218.997C124.633 219.011 124.62 219.031 124.62 219.057V220.737C124.62 221.044 124.507 221.311 124.28 221.537C124.067 221.751 123.807 221.857 123.5 221.857H123.3C122.993 221.857 122.727 221.751 122.5 221.537C122.287 221.311 122.18 221.044 122.18 220.737V219.297C122.18 219.271 122.16 219.251 122.12 219.237C122.093 219.224 122.073 219.231 122.06 219.257C121.393 220.031 120.66 220.717 119.86 221.317C119.62 221.491 119.353 221.557 119.06 221.517C118.767 221.464 118.527 221.324 118.34 221.097C118.167 220.884 118.1 220.637 118.14 220.357C118.193 220.077 118.333 219.864 118.56 219.717C119.307 219.224 120.02 218.677 120.7 218.077C120.727 218.024 120.707 217.984 120.64 217.957H118.98C118.727 217.957 118.507 217.871 118.32 217.697C118.133 217.511 118.04 217.284 118.04 217.017C118.04 216.751 118.133 216.531 118.32 216.357C118.507 216.171 118.727 216.077 118.98 216.077H119.7ZM148.04 212.217C147.493 211.631 146.827 210.957 146.04 210.197C145.827 209.984 145.72 209.724 145.72 209.417C145.72 209.111 145.833 208.851 146.06 208.637L146.16 208.557C146.4 208.331 146.68 208.217 147 208.217C147.32 208.217 147.593 208.331 147.82 208.557C148.3 209.011 148.96 209.671 149.8 210.537C150.013 210.764 150.113 211.031 150.1 211.337C150.087 211.644 149.967 211.911 149.74 212.137L149.6 212.257C149.387 212.471 149.127 212.577 148.82 212.577C148.513 212.564 148.253 212.444 148.04 212.217ZM144.86 213.377L144.96 213.277C145.2 213.051 145.48 212.937 145.8 212.937C146.12 212.937 146.393 213.051 146.62 213.277C147.313 213.931 148.113 214.731 149.02 215.677C149.233 215.904 149.333 216.177 149.32 216.497C149.32 216.804 149.207 217.071 148.98 217.297L148.84 217.417C148.627 217.631 148.367 217.737 148.06 217.737C147.753 217.724 147.493 217.604 147.28 217.377C146.587 216.631 145.773 215.811 144.84 214.917C144.627 214.704 144.52 214.451 144.52 214.157C144.52 213.851 144.633 213.591 144.86 213.377ZM153.92 217.957C154.227 217.904 154.5 217.971 154.74 218.157C154.98 218.344 155.113 218.591 155.14 218.897C155.167 219.217 155.08 219.504 154.88 219.757C154.693 220.011 154.447 220.164 154.14 220.217L153.54 220.317C153.433 220.344 153.38 220.411 153.38 220.517V223.837C153.38 224.144 153.267 224.404 153.04 224.617C152.813 224.844 152.547 224.957 152.24 224.957H151.9C151.593 224.957 151.327 224.844 151.1 224.617C150.887 224.404 150.78 224.144 150.78 223.837V220.957C150.78 220.917 150.76 220.884 150.72 220.857C150.68 220.817 150.64 220.804 150.6 220.817L144.24 221.897C143.933 221.951 143.653 221.884 143.4 221.697C143.16 221.511 143.027 221.264 143 220.957C142.973 220.637 143.06 220.351 143.26 220.097C143.46 219.844 143.713 219.691 144.02 219.637L150.6 218.517C150.72 218.491 150.78 218.424 150.78 218.317V207.957C150.78 207.651 150.887 207.391 151.1 207.177C151.327 206.951 151.593 206.837 151.9 206.837H152.24C152.547 206.837 152.813 206.951 153.04 207.177C153.267 207.391 153.38 207.651 153.38 207.957V217.877C153.38 217.997 153.433 218.044 153.54 218.017L153.92 217.957ZM136.66 221.117L136.5 220.877C136.113 220.237 136.133 219.597 136.56 218.957C137.573 217.411 138.313 215.864 138.78 214.317C138.807 214.197 138.767 214.137 138.66 214.137H137.54C137.247 214.137 136.993 214.031 136.78 213.817C136.567 213.604 136.46 213.351 136.46 213.057C136.46 212.751 136.567 212.491 136.78 212.277C136.993 212.064 137.247 211.957 137.54 211.957H138.82C138.94 211.957 139 211.904 139 211.797V209.937C139 209.817 138.94 209.771 138.82 209.797C138.407 209.851 138.08 209.884 137.84 209.897C137.547 209.924 137.287 209.844 137.06 209.657C136.847 209.471 136.727 209.231 136.7 208.937C136.673 208.657 136.753 208.411 136.94 208.197C137.127 207.971 137.36 207.844 137.64 207.817C139.427 207.644 141.08 207.377 142.6 207.017C142.88 206.951 143.14 206.991 143.38 207.137C143.633 207.271 143.807 207.471 143.9 207.737C143.993 208.004 143.973 208.264 143.84 208.517C143.707 208.757 143.507 208.911 143.24 208.977C142.667 209.137 142.1 209.271 141.54 209.377C141.447 209.391 141.4 209.457 141.4 209.577V211.797C141.4 211.904 141.453 211.957 141.56 211.957H142.62C142.913 211.957 143.167 212.064 143.38 212.277C143.593 212.491 143.7 212.751 143.7 213.057C143.7 213.351 143.593 213.604 143.38 213.817C143.167 214.031 142.913 214.137 142.62 214.137H142.24C142.2 214.137 142.167 214.157 142.14 214.197C142.127 214.224 142.133 214.251 142.16 214.277C142.387 214.677 142.7 215.237 143.1 215.957C143.5 216.664 143.74 217.084 143.82 217.217C143.953 217.471 143.98 217.737 143.9 218.017C143.833 218.284 143.68 218.491 143.44 218.637C143.213 218.784 142.967 218.824 142.7 218.757C142.447 218.677 142.267 218.517 142.16 218.277C141.867 217.637 141.64 217.157 141.48 216.837C141.467 216.824 141.447 216.817 141.42 216.817C141.407 216.817 141.4 216.824 141.4 216.837V223.837C141.4 224.144 141.287 224.404 141.06 224.617C140.833 224.844 140.567 224.957 140.26 224.957H140.12C139.813 224.957 139.547 224.844 139.32 224.617C139.107 224.404 139 224.144 139 223.837V218.797C138.987 218.784 138.967 218.784 138.94 218.797C138.66 219.557 138.293 220.331 137.84 221.117C137.707 221.344 137.507 221.457 137.24 221.457C136.987 221.457 136.793 221.344 136.66 221.117ZM159.34 224.957C159.033 224.957 158.767 224.844 158.54 224.617C158.313 224.404 158.2 224.144 158.2 223.837V208.297C158.2 207.991 158.313 207.724 158.54 207.497C158.767 207.271 159.033 207.157 159.34 207.157H174.2C174.493 207.157 174.74 207.264 174.94 207.477C175.153 207.691 175.26 207.944 175.26 208.237C175.26 208.531 175.153 208.784 174.94 208.997C174.74 209.197 174.493 209.297 174.2 209.297H166.14C166.06 209.297 166.033 209.351 166.06 209.457C166.167 209.697 166.16 209.937 166.04 210.177C166.013 210.204 166.013 210.237 166.04 210.277C166.067 210.317 166.1 210.337 166.14 210.337H173.36C173.627 210.337 173.853 210.431 174.04 210.617C174.227 210.804 174.32 211.031 174.32 211.297C174.32 211.564 174.227 211.791 174.04 211.977C173.853 212.164 173.627 212.257 173.36 212.257H169.72C169.613 212.257 169.56 212.317 169.56 212.437V214.237C169.56 214.344 169.613 214.397 169.72 214.397H174.02C174.313 214.397 174.56 214.497 174.76 214.697C174.96 214.897 175.06 215.144 175.06 215.437C175.06 215.731 174.96 215.977 174.76 216.177C174.56 216.364 174.313 216.457 174.02 216.457H170.08C169.96 216.457 169.927 216.511 169.98 216.617C170.62 217.924 171.953 219.024 173.98 219.917C174.247 220.037 174.42 220.237 174.5 220.517C174.593 220.797 174.56 221.057 174.4 221.297C174.213 221.577 173.96 221.771 173.64 221.877C173.333 221.971 173.027 221.951 172.72 221.817C170.92 220.991 169.5 219.784 168.46 218.197C168.433 218.171 168.4 218.157 168.36 218.157C168.32 218.144 168.287 218.151 168.26 218.177C167.087 219.791 165.533 221.011 163.6 221.837C163.293 221.957 162.98 221.964 162.66 221.857C162.34 221.751 162.087 221.557 161.9 221.277C161.74 221.037 161.7 220.784 161.78 220.517C161.873 220.237 162.053 220.044 162.32 219.937C164.507 219.044 165.927 217.937 166.58 216.617C166.607 216.591 166.607 216.557 166.58 216.517C166.553 216.477 166.52 216.457 166.48 216.457H162.34C162.047 216.457 161.8 216.364 161.6 216.177C161.413 215.977 161.32 215.731 161.32 215.437C161.32 215.144 161.413 214.897 161.6 214.697C161.8 214.497 162.047 214.397 162.34 214.397H166.84C166.96 214.397 167.02 214.344 167.02 214.237V212.437C167.02 212.317 166.96 212.257 166.84 212.257H165.02C164.913 212.257 164.827 212.311 164.76 212.417C164.6 212.644 164.347 212.984 164 213.437C163.8 213.691 163.533 213.844 163.2 213.897C162.88 213.951 162.573 213.897 162.28 213.737C162.027 213.604 161.873 213.391 161.82 213.097C161.767 212.804 161.833 212.544 162.02 212.317C162.687 211.437 163.253 210.544 163.72 209.637C163.72 209.624 163.773 209.551 163.88 209.417C163.933 209.337 163.907 209.297 163.8 209.297H160.9C160.793 209.297 160.74 209.351 160.74 209.457V221.857C160.74 221.977 160.793 222.037 160.9 222.037H174.4C174.693 222.037 174.94 222.144 175.14 222.357C175.353 222.557 175.46 222.804 175.46 223.097C175.46 223.391 175.353 223.637 175.14 223.837C174.94 224.051 174.693 224.157 174.4 224.157H160.84C160.773 224.157 160.74 224.197 160.74 224.277C160.74 224.464 160.667 224.624 160.52 224.757C160.387 224.891 160.227 224.957 160.04 224.957H159.34ZM178.88 219.117L178.84 219.017C178.747 218.711 178.773 218.417 178.92 218.137C179.067 217.844 179.287 217.631 179.58 217.497C180.26 217.204 180.813 216.937 181.24 216.697C181.347 216.631 181.4 216.544 181.4 216.437C181.427 215.531 181.44 214.764 181.44 214.137C181.44 214.084 181.407 214.071 181.34 214.097C181.167 214.204 180.987 214.231 180.8 214.177C180.627 214.124 180.487 214.011 180.38 213.837C180.047 213.237 179.64 212.551 179.16 211.777C178.987 211.511 178.933 211.231 179 210.937C179.067 210.631 179.233 210.391 179.5 210.217C179.753 210.044 180.033 209.991 180.34 210.057C180.66 210.124 180.9 210.291 181.06 210.557C181.087 210.611 181.133 210.697 181.2 210.817C181.267 210.924 181.32 211.004 181.36 211.057C181.373 211.071 181.387 211.077 181.4 211.077C181.427 211.064 181.44 211.044 181.44 211.017V208.797C181.44 208.491 181.553 208.224 181.78 207.997C182.007 207.771 182.273 207.657 182.58 207.657H188.28C188.387 207.657 188.44 207.604 188.44 207.497C188.44 207.191 188.553 206.924 188.78 206.697C189.007 206.471 189.273 206.357 189.58 206.357H189.98C190.287 206.357 190.547 206.471 190.76 206.697C190.987 206.924 191.1 207.191 191.1 207.497C191.1 207.604 191.16 207.657 191.28 207.657H196.64C196.933 207.657 197.18 207.764 197.38 207.977C197.593 208.177 197.7 208.424 197.7 208.717C197.7 209.011 197.593 209.264 197.38 209.477C197.18 209.691 196.933 209.797 196.64 209.797H192C191.907 209.797 191.873 209.851 191.9 209.957C191.927 210.104 191.913 210.237 191.86 210.357C191.833 210.451 191.867 210.497 191.96 210.497H196.48C196.733 210.497 196.953 210.591 197.14 210.777C197.327 210.964 197.42 211.184 197.42 211.437C197.42 211.704 197.327 211.931 197.14 212.117C196.953 212.304 196.733 212.397 196.48 212.397H195.92C195.893 212.397 195.88 212.404 195.88 212.417C195.88 212.431 195.887 212.444 195.9 212.457L196.38 212.697C196.647 212.831 196.813 213.044 196.88 213.337C196.947 213.631 196.887 213.891 196.7 214.117C196.527 214.331 196.253 214.637 195.88 215.037C195.853 215.064 195.84 215.104 195.84 215.157C195.84 215.211 195.86 215.244 195.9 215.257C196.02 215.337 196.387 215.557 197 215.917C197.28 216.064 197.48 216.291 197.6 216.597C197.733 216.891 197.753 217.191 197.66 217.497L197.64 217.577C197.547 217.857 197.36 218.051 197.08 218.157C196.813 218.264 196.553 218.244 196.3 218.097C196.26 218.071 196.193 218.037 196.1 217.997C196.02 217.944 195.96 217.904 195.92 217.877C195.893 217.851 195.86 217.851 195.82 217.877C195.793 217.891 195.78 217.917 195.78 217.957V219.937C195.78 220.164 195.7 220.357 195.54 220.517C195.38 220.677 195.187 220.757 194.96 220.757C194.947 220.757 194.94 220.771 194.94 220.797C194.94 220.811 194.947 220.824 194.96 220.837C195.8 221.371 196.533 221.904 197.16 222.437C197.4 222.637 197.52 222.891 197.52 223.197C197.52 223.504 197.407 223.757 197.18 223.957L197.16 223.977C196.92 224.191 196.64 224.297 196.32 224.297C196 224.297 195.713 224.191 195.46 223.977C195.007 223.591 194.42 223.144 193.7 222.637C193.473 222.477 193.347 222.257 193.32 221.977C193.307 221.684 193.407 221.444 193.62 221.257L194.06 220.877C194.087 220.864 194.093 220.844 194.08 220.817C194.067 220.777 194.047 220.757 194.02 220.757H192.32C192.213 220.757 192.16 220.817 192.16 220.937V222.837C192.16 223.784 192.027 224.371 191.76 224.597C191.507 224.824 190.827 224.937 189.72 224.937C189.64 224.937 189.187 224.924 188.36 224.897C188.04 224.884 187.767 224.757 187.54 224.517C187.313 224.291 187.187 224.017 187.16 223.697L187.12 223.097C187.12 223.071 187.1 223.051 187.06 223.037C187.033 223.011 187.007 223.004 186.98 223.017C186.393 223.524 185.893 223.911 185.48 224.177C185.2 224.364 184.887 224.437 184.54 224.397C184.193 224.357 183.9 224.217 183.66 223.977L183.6 223.917C183.4 223.731 183.32 223.497 183.36 223.217C183.4 222.951 183.54 222.744 183.78 222.597C184.66 222.064 185.407 221.471 186.02 220.817C186.033 220.804 186.033 220.791 186.02 220.777C186.007 220.764 185.993 220.757 185.98 220.757C185.82 220.757 185.68 220.704 185.56 220.597C185.44 220.477 185.38 220.337 185.38 220.177V218.057C185.38 217.951 185.333 217.931 185.24 217.997C185 218.157 184.733 218.324 184.44 218.497C184.227 218.631 183.987 218.664 183.72 218.597C183.6 218.571 183.54 218.611 183.54 218.717C183.3 220.851 182.68 222.611 181.68 223.997C181.507 224.251 181.267 224.377 180.96 224.377C180.667 224.391 180.413 224.284 180.2 224.057L180.02 223.857C179.807 223.631 179.687 223.357 179.66 223.037C179.647 222.704 179.733 222.411 179.92 222.157C180.507 221.317 180.893 220.437 181.08 219.517C181.093 219.477 181.08 219.444 181.04 219.417C181.013 219.391 180.987 219.384 180.96 219.397C180.813 219.477 180.58 219.597 180.26 219.757C179.98 219.891 179.7 219.891 179.42 219.757C179.153 219.624 178.973 219.411 178.88 219.117ZM185.24 215.257C185.32 215.191 185.32 215.117 185.24 215.037C185.173 214.971 185.08 214.877 184.96 214.757C184.84 214.637 184.747 214.551 184.68 214.497C184.453 214.284 184.333 214.024 184.32 213.717C184.32 213.411 184.433 213.157 184.66 212.957L185.18 212.497C185.207 212.471 185.213 212.451 185.2 212.437C185.187 212.411 185.167 212.397 185.14 212.397H184.54C184.273 212.397 184.033 212.277 183.82 212.037C183.793 212.011 183.767 212.004 183.74 212.017C183.713 212.017 183.7 212.031 183.7 212.057V215.437V216.057C183.7 216.097 183.72 216.131 183.76 216.157C183.8 216.184 183.833 216.184 183.86 216.157C184.34 215.877 184.8 215.577 185.24 215.257ZM185.8 212.497C186.053 212.724 186.433 213.077 186.94 213.557C187.033 213.651 187.113 213.651 187.18 213.557C187.487 213.224 187.773 212.877 188.04 212.517C188.093 212.437 188.067 212.397 187.96 212.397H185.84C185.813 212.397 185.793 212.411 185.78 212.437C185.767 212.451 185.773 212.471 185.8 212.497ZM189.56 222.097V220.937C189.56 220.817 189.5 220.757 189.38 220.757H186.96C186.933 220.757 186.92 220.771 186.92 220.797C186.92 220.811 186.927 220.824 186.94 220.837L187.4 221.037C187.667 221.157 187.827 221.357 187.88 221.637C187.947 221.917 187.88 222.164 187.68 222.377L187.44 222.617C187.413 222.644 187.407 222.671 187.42 222.697C187.433 222.724 187.453 222.737 187.48 222.737C187.893 222.777 188.307 222.797 188.72 222.797C189.133 222.797 189.373 222.771 189.44 222.717C189.52 222.651 189.56 222.444 189.56 222.097ZM193.26 218.917V218.397C193.26 218.291 193.2 218.237 193.08 218.237H188.02C187.913 218.237 187.86 218.291 187.86 218.397V218.917C187.86 219.024 187.913 219.077 188.02 219.077H193.08C193.2 219.077 193.26 219.024 193.26 218.917ZM193.14 212.397C193.113 212.397 193.087 212.411 193.06 212.437C193.047 212.464 193.047 212.491 193.06 212.517C193.353 212.944 193.667 213.331 194 213.677C194.08 213.757 194.16 213.751 194.24 213.657C194.573 213.284 194.893 212.904 195.2 212.517C195.253 212.437 195.227 212.397 195.12 212.397H193.14ZM193.08 216.057H188.02C187.913 216.057 187.86 216.111 187.86 216.217V216.697C187.86 216.804 187.913 216.857 188.02 216.857H193.08C193.2 216.857 193.26 216.804 193.26 216.697V216.217C193.26 216.111 193.2 216.057 193.08 216.057ZM189.48 214.237C189.427 214.317 189.447 214.357 189.54 214.357H191.68C191.773 214.357 191.793 214.317 191.74 214.237C191.487 213.944 191.147 213.491 190.72 212.877C190.693 212.851 190.66 212.837 190.62 212.837C190.58 212.824 190.547 212.831 190.52 212.857C190.16 213.364 189.813 213.824 189.48 214.237ZM183.88 209.797C183.76 209.797 183.7 209.851 183.7 209.957V210.817C183.7 210.844 183.713 210.864 183.74 210.877C183.767 210.877 183.793 210.864 183.82 210.837C184.02 210.611 184.26 210.497 184.54 210.497H188.98C189.087 210.497 189.16 210.444 189.2 210.337L189.24 210.257C189.28 210.151 189.333 210.037 189.4 209.917C189.453 209.837 189.433 209.797 189.34 209.797H183.88ZM208.62 210.837C207.06 211.171 205.833 211.884 204.94 212.977C204.047 214.057 203.6 215.384 203.6 216.957C203.6 217.971 203.807 218.871 204.22 219.657C204.633 220.444 205.027 220.837 205.4 220.837C205.587 220.837 205.78 220.751 205.98 220.577C206.18 220.391 206.4 220.064 206.64 219.597C206.893 219.117 207.133 218.524 207.36 217.817C207.6 217.097 207.84 216.151 208.08 214.977C208.333 213.791 208.56 212.457 208.76 210.977C208.773 210.937 208.76 210.904 208.72 210.877C208.693 210.837 208.66 210.824 208.62 210.837ZM205.4 223.357C204.32 223.357 203.327 222.737 202.42 221.497C201.513 220.257 201.06 218.744 201.06 216.957C201.06 214.371 201.94 212.271 203.7 210.657C205.46 209.044 207.76 208.237 210.6 208.237C212.893 208.237 214.787 208.957 216.28 210.397C217.787 211.837 218.54 213.671 218.54 215.897C218.54 217.991 218.053 219.717 217.08 221.077C216.12 222.424 214.8 223.284 213.12 223.657C212.8 223.724 212.507 223.664 212.24 223.477C211.987 223.291 211.827 223.037 211.76 222.717L211.72 222.537C211.653 222.244 211.707 221.971 211.88 221.717C212.053 221.464 212.287 221.291 212.58 221.197C214.86 220.491 216 218.724 216 215.897C216 214.537 215.593 213.391 214.78 212.457C213.98 211.511 212.927 210.931 211.62 210.717C211.5 210.691 211.427 210.737 211.4 210.857C211.133 212.871 210.833 214.624 210.5 216.117C210.167 217.597 209.813 218.797 209.44 219.717C209.08 220.624 208.673 221.357 208.22 221.917C207.767 222.464 207.32 222.844 206.88 223.057C206.44 223.257 205.947 223.357 205.4 223.357ZM223.54 207.997C223.78 207.784 224.053 207.684 224.36 207.697C224.68 207.711 224.947 207.831 225.16 208.057C225.573 208.484 226.193 209.151 227.02 210.057C227.233 210.297 227.327 210.577 227.3 210.897C227.287 211.204 227.167 211.464 226.94 211.677L226.92 211.717C226.693 211.931 226.42 212.031 226.1 212.017C225.793 211.991 225.533 211.864 225.32 211.637C224.707 210.957 224.073 210.284 223.42 209.617C223.207 209.404 223.1 209.144 223.1 208.837C223.113 208.517 223.233 208.257 223.46 208.057L223.54 207.997ZM223.44 216.437C223.147 216.437 222.887 216.331 222.66 216.117C222.447 215.891 222.34 215.631 222.34 215.337C222.34 215.044 222.447 214.791 222.66 214.577C222.887 214.351 223.147 214.237 223.44 214.237H225.94C226.247 214.237 226.507 214.351 226.72 214.577C226.947 214.791 227.06 215.051 227.06 215.357V220.377C227.06 220.471 227.093 220.571 227.16 220.677C227.467 221.184 227.86 221.557 228.34 221.797C228.82 222.037 229.573 222.217 230.6 222.337C231.64 222.444 233.153 222.497 235.14 222.497H239.36C239.667 222.497 239.92 222.611 240.12 222.837C240.32 223.051 240.413 223.304 240.4 223.597C240.373 223.904 240.247 224.164 240.02 224.377C239.807 224.591 239.547 224.697 239.24 224.697H235.06C232.5 224.697 230.547 224.564 229.2 224.297C227.853 224.044 226.847 223.597 226.18 222.957C226.087 222.891 226 222.891 225.92 222.957C225.44 223.384 224.853 223.857 224.16 224.377C223.907 224.551 223.633 224.604 223.34 224.537C223.047 224.471 222.827 224.304 222.68 224.037L222.6 223.897C222.44 223.617 222.393 223.324 222.46 223.017C222.54 222.711 222.713 222.464 222.98 222.277C223.66 221.784 224.133 221.424 224.4 221.197C224.493 221.104 224.54 221.004 224.54 220.897V216.597C224.54 216.491 224.48 216.437 224.36 216.437H223.44ZM234.98 207.737C234.967 207.804 234.94 207.904 234.9 208.037C234.86 208.171 234.833 208.271 234.82 208.337C234.793 208.444 234.833 208.497 234.94 208.497H237.94C238.247 208.497 238.507 208.611 238.72 208.837C238.947 209.064 239.06 209.331 239.06 209.637V213.117C239.06 213.424 238.947 213.691 238.72 213.917C238.507 214.131 238.247 214.237 237.94 214.237H231.28C231.16 214.237 231.1 214.297 231.1 214.417V215.197C231.1 215.304 231.16 215.357 231.28 215.357H238.4C238.707 215.357 238.973 215.471 239.2 215.697C239.427 215.924 239.54 216.191 239.54 216.497V220.017C239.54 220.324 239.427 220.591 239.2 220.817C238.973 221.031 238.707 221.137 238.4 221.137H231.1H229.64C229.333 221.137 229.067 221.031 228.84 220.817C228.613 220.591 228.5 220.324 228.5 220.017V209.637C228.5 209.331 228.613 209.064 228.84 208.837C229.067 208.611 229.333 208.497 229.64 208.497H231.9C231.993 208.497 232.067 208.437 232.12 208.317C232.227 207.971 232.307 207.704 232.36 207.517C232.453 207.197 232.627 206.944 232.88 206.757C233.147 206.571 233.44 206.491 233.76 206.517L234.14 206.557C234.447 206.584 234.68 206.717 234.84 206.957C235.013 207.184 235.06 207.444 234.98 207.737ZM231.28 217.457C231.16 217.457 231.1 217.511 231.1 217.617V218.997C231.1 219.104 231.16 219.157 231.28 219.157H236.7C236.807 219.157 236.86 219.104 236.86 218.997V217.617C236.86 217.511 236.807 217.457 236.7 217.457H231.28ZM236.22 210.657H231.28C231.16 210.657 231.1 210.711 231.1 210.817V212.097C231.1 212.204 231.16 212.257 231.28 212.257H236.22C236.34 212.257 236.4 212.204 236.4 212.097V210.817C236.4 210.711 236.34 210.657 236.22 210.657ZM244.54 222.397C244.38 222.131 244.34 221.851 244.42 221.557C244.5 221.251 244.673 221.017 244.94 220.857C246.62 219.844 248.16 218.737 249.56 217.537C249.787 217.337 250.047 217.257 250.34 217.297C250.647 217.337 250.893 217.477 251.08 217.717L251.1 217.737C251.287 217.991 251.367 218.284 251.34 218.617C251.313 218.937 251.18 219.204 250.94 219.417C249.607 220.617 248.007 221.791 246.14 222.937C245.873 223.097 245.587 223.137 245.28 223.057C244.987 222.964 244.767 222.784 244.62 222.517L244.54 222.397ZM249.24 216.177C249.013 216.391 248.747 216.484 248.44 216.457C248.133 216.431 247.88 216.304 247.68 216.077C247.333 215.677 246.76 215.064 245.96 214.237C245.747 214.011 245.64 213.744 245.64 213.437C245.653 213.131 245.773 212.871 246 212.657C246.24 212.431 246.513 212.324 246.82 212.337C247.14 212.337 247.413 212.451 247.64 212.677C248.427 213.491 249 214.097 249.36 214.497C249.573 214.737 249.667 215.017 249.64 215.337C249.627 215.644 249.507 215.911 249.28 216.137L249.24 216.177ZM245.18 211.037C244.873 211.037 244.613 210.931 244.4 210.717C244.187 210.491 244.08 210.231 244.08 209.937C244.08 209.644 244.187 209.391 244.4 209.177C244.613 208.951 244.873 208.837 245.18 208.837H251.76C251.88 208.837 251.94 208.777 251.94 208.657V207.657C251.94 207.351 252.047 207.091 252.26 206.877C252.487 206.651 252.753 206.537 253.06 206.537H253.46C253.767 206.537 254.033 206.651 254.26 206.877C254.487 207.091 254.6 207.351 254.6 207.657V208.657C254.6 208.777 254.66 208.837 254.78 208.837H257.58C257.673 208.837 257.687 208.791 257.62 208.697C257.593 208.671 257.5 208.564 257.34 208.377C257.193 208.177 257.073 208.031 256.98 207.937C256.807 207.737 256.747 207.511 256.8 207.257C256.867 206.991 257.027 206.804 257.28 206.697C257.573 206.564 257.88 206.531 258.2 206.597C258.533 206.664 258.807 206.824 259.02 207.077C259.06 207.117 259.327 207.444 259.82 208.057C259.967 208.231 260.02 208.437 259.98 208.677C259.953 208.784 260 208.837 260.12 208.837H260.78C261.087 208.837 261.347 208.951 261.56 209.177C261.773 209.391 261.88 209.644 261.88 209.937C261.88 210.231 261.773 210.491 261.56 210.717C261.347 210.931 261.087 211.037 260.78 211.037H254.74C254.647 211.037 254.6 211.077 254.6 211.157C254.6 211.224 254.613 211.311 254.64 211.417C255.067 212.604 255.647 213.831 256.38 215.097C256.433 215.204 256.5 215.217 256.58 215.137C257.327 214.431 258.06 213.637 258.78 212.757C258.98 212.517 259.233 212.377 259.54 212.337C259.847 212.297 260.127 212.371 260.38 212.557L260.52 212.677C260.773 212.864 260.92 213.111 260.96 213.417C261 213.711 260.927 213.984 260.74 214.237C259.9 215.317 258.973 216.311 257.96 217.217C257.88 217.297 257.873 217.377 257.94 217.457C259.02 218.897 260.227 220.204 261.56 221.377C261.787 221.577 261.913 221.837 261.94 222.157C261.98 222.464 261.9 222.731 261.7 222.957L261.48 223.217C261.267 223.457 261 223.591 260.68 223.617C260.373 223.644 260.1 223.551 259.86 223.337C257.847 221.524 256.12 219.284 254.68 216.617C254.653 216.604 254.627 216.617 254.6 216.657V221.537C254.6 222.337 254.573 222.931 254.52 223.317C254.48 223.704 254.34 224.017 254.1 224.257C253.86 224.511 253.56 224.664 253.2 224.717C252.853 224.771 252.307 224.797 251.56 224.797C251.147 224.797 250.5 224.777 249.62 224.737C249.3 224.724 249.02 224.604 248.78 224.377C248.54 224.151 248.413 223.877 248.4 223.557C248.387 223.264 248.48 223.011 248.68 222.797C248.893 222.571 249.153 222.464 249.46 222.477C250.193 222.517 250.72 222.537 251.04 222.537C251.48 222.537 251.74 222.497 251.82 222.417C251.9 222.324 251.94 222.051 251.94 221.597V211.197C251.94 211.091 251.88 211.037 251.76 211.037H245.18Z" fill="white"/>
<path d="M146.824 250.964C146.115 252.533 143.887 252.533 143.178 250.964L137.339 238.035C136.741 236.711 137.709 235.211 139.161 235.211L150.841 235.211C152.293 235.211 153.261 236.711 152.663 238.035L146.824 250.964Z" fill="#1391E6"/>
</svg>
