<svg width="182" height="33" viewBox="0 0 182 33" fill="none" xmlns="http://www.w3.org/2000/svg">
<path fill-rule="evenodd" clip-rule="evenodd" d="M177.964 1.3742C177.598 1.92059 176.404 3.48608 172.846 9.80462C169.388 15.9452 163.594 26.7943 161.481 30.5054C160.377 32.4438 162.018 32.8873 162.579 32.1569C162.824 31.8375 167.758 23.886 172.345 16.0004C175.937 9.82608 179.314 3.53512 180.056 2.0234C180.562 0.995115 178.915 -0.229616 177.964 1.3742Z" fill="#1391E6"/>
<path fill-rule="evenodd" clip-rule="evenodd" d="M179.415 24.175C177.964 25.5781 174.185 28.9601 172.708 30.9585C171.129 32.9118 173.387 32.9555 174.408 31.9578C175.49 30.8998 180.1 26.3136 181.218 24.9527C182.944 22.8517 181.578 22.0304 179.415 24.175Z" fill="#1391E6"/>
<path fill-rule="evenodd" clip-rule="evenodd" d="M113.858 2C110.324 2 107.848 3.10417 106.231 5.17523C104.586 7.28347 103.665 10.8208 103.665 16C103.665 21.1792 104.586 24.7165 106.231 26.8248C107.848 28.8958 110.324 30 113.858 30C117.392 30 119.859 28.8958 121.462 26.8275L121.466 26.822C123.123 24.7142 124.05 21.1782 124.05 16C124.05 10.8208 123.129 7.28347 121.484 5.17523C119.868 3.10417 117.391 2 113.858 2ZM104.655 3.94477C106.743 1.26916 109.876 0 113.858 0C117.839 0 120.973 1.26916 123.061 3.94477C125.12 6.5832 126.05 10.6726 126.05 16C126.05 21.3267 125.113 25.4164 123.041 28.0553C120.965 30.7318 117.837 32 113.858 32C109.876 32 106.743 30.7308 104.655 28.0552C102.596 25.4168 101.665 21.3274 101.665 16C101.665 10.6726 102.596 6.5832 104.655 3.94477ZM132.922 2.92104C132.517 3.03996 132.196 3.27253 131.936 3.6589C131.661 4.0666 131.527 4.50522 131.527 5V5.68C131.527 5.83548 131.565 5.93067 131.741 6.04811C131.889 6.1464 132.006 6.16756 132.217 6.07845L132.229 6.07341L132.241 6.06868C134.621 5.13822 136.724 4.64 138.522 4.64C140.245 4.64 141.724 5.04074 142.772 6.01896C143.833 7.0093 144.279 8.42751 144.279 10.08C144.279 12.309 143.376 14.5173 141.714 16.688C140.061 18.8469 136.884 21.7786 132.27 25.4616L132.267 25.4642C131.371 26.1725 130.927 27.0914 130.927 28.32C130.927 28.6649 131.04 28.9508 131.305 29.2238C131.563 29.4895 131.833 29.6 132.166 29.6H146.837C147.171 29.6 147.453 29.4883 147.728 29.2131C148.003 28.9379 148.115 28.6552 148.115 28.32C148.115 27.9858 148.004 27.7153 147.739 27.4574C147.466 27.1925 147.181 27.08 146.837 27.08H137.403C137.235 27.08 136.926 27.0374 136.665 26.7769C136.405 26.5165 136.363 26.2073 136.363 26.04C136.363 25.7263 136.504 25.5054 136.55 25.4356C136.615 25.339 136.685 25.2633 136.735 25.2131L136.767 25.1816L136.801 25.1531C141.348 21.348 144.329 18.3607 145.833 16.1735C147.318 14.0133 148.035 11.8012 148.035 9.52C148.035 7.05029 147.275 5.25319 145.852 3.9872C144.417 2.71041 142.289 2 139.321 2C137.236 2 135.104 2.30498 132.922 2.92104ZM132.374 0.99767C134.721 0.334595 137.037 0 139.321 0C142.589 0 145.259 0.782924 147.181 2.4928C149.116 4.21348 150.035 6.60304 150.035 9.52C150.035 12.2522 149.167 14.8534 147.481 17.3065C146.053 19.3835 143.53 21.9784 139.968 25.08H146.837C147.718 25.08 148.499 25.4075 149.132 26.0226C149.773 26.6447 150.115 27.4275 150.115 28.32C150.115 29.2114 149.774 29.9954 149.143 30.6269C148.512 31.2584 147.728 31.6 146.837 31.6H132.166C131.273 31.6 130.491 31.2571 129.869 30.6162C129.254 29.9825 128.927 29.2017 128.927 28.32C128.927 26.5093 129.629 25.002 131.024 23.8971C135.63 20.2207 138.635 17.4196 140.126 15.472C141.609 13.5361 142.279 11.7444 142.279 10.08C142.279 8.77249 141.932 7.9707 141.407 7.48104C140.87 6.97926 139.97 6.64 138.522 6.64C137.071 6.64 135.233 7.04715 132.981 7.92712C132.184 8.25844 131.36 8.19757 130.632 7.71189C129.928 7.24267 129.527 6.53786 129.527 5.68V5C129.527 4.10812 129.779 3.28007 130.277 2.5411C130.789 1.78199 131.493 1.25479 132.365 1.00005L132.374 0.99767ZM108.83 7.26723C109.917 5.34813 111.638 4.36 113.858 4.36C116.077 4.36 117.798 5.34813 118.885 7.26723C119.929 9.11016 120.374 12.0868 120.374 16C120.374 19.9132 119.929 22.8898 118.885 24.7328C117.798 26.6519 116.077 27.64 113.858 27.64C111.638 27.64 109.917 26.6519 108.83 24.7328C107.786 22.8898 107.341 19.9132 107.341 16C107.341 12.0868 107.786 9.11016 108.83 7.26723ZM113.858 6.36C112.346 6.36 111.296 6.97187 110.57 8.25278C109.802 9.60985 109.341 12.1266 109.341 16C109.341 19.8735 109.802 22.3902 110.57 23.7472C111.296 25.0281 112.346 25.64 113.858 25.64C115.369 25.64 116.419 25.0281 117.145 23.7472C117.913 22.3902 118.374 19.8735 118.374 16C118.374 12.1266 117.913 9.60985 117.145 8.25278C116.419 6.97187 115.369 6.36 113.858 6.36Z" fill="#1391E6"/>
<path d="M37.1861 16.156C36.4399 16.38 35.8749 16.684 35.4912 17.068C35.1074 17.452 34.9155 17.8733 34.9155 18.332C34.9155 18.748 35.0834 19.1187 35.4192 19.444C35.755 19.7693 36.1201 19.932 36.5145 19.932C36.8237 19.932 37.0342 19.868 37.1461 19.74C37.258 19.612 37.314 19.372 37.314 19.02V16.252C37.314 16.1667 37.2714 16.1347 37.1861 16.156ZM36.7224 21.74C35.6564 21.74 34.7503 21.412 34.0041 20.756C33.2579 20.1 32.8848 19.292 32.8848 18.332C32.8848 17.4147 33.2606 16.5827 34.0121 15.836C34.7636 15.0893 35.8216 14.5453 37.1861 14.204C37.2714 14.1827 37.314 14.124 37.314 14.028V12.012C37.314 11.916 37.266 11.868 37.1701 11.868H34.4358C34.2013 11.868 34.0014 11.7853 33.8362 11.62C33.671 11.4547 33.5884 11.2547 33.5884 11.02C33.5884 10.7853 33.671 10.5853 33.8362 10.42C34.0014 10.2547 34.2013 10.172 34.4358 10.172H37.1701C37.266 10.172 37.314 10.124 37.314 10.028V9.1C37.314 8.85467 37.4046 8.64133 37.5858 8.46C37.7671 8.27867 37.9803 8.188 38.2254 8.188H38.4333C38.6785 8.188 38.8917 8.27867 39.0729 8.46C39.2541 8.64133 39.3447 8.85467 39.3447 9.1V10.028C39.3447 10.124 39.3874 10.172 39.4726 10.172H41.999C42.2335 10.172 42.4361 10.2547 42.6066 10.42C42.7772 10.5853 42.8625 10.7853 42.8625 11.02C42.8625 11.2547 42.7772 11.4547 42.6066 11.62C42.4361 11.7853 42.2335 11.868 41.999 11.868H39.4726C39.3874 11.868 39.3447 11.916 39.3447 12.012V13.74C39.3447 13.8253 39.3927 13.868 39.4886 13.868C39.6592 13.8573 39.931 13.852 40.3041 13.852C41.8818 13.852 43.1556 14.22 44.1257 14.956C45.0957 15.692 45.5807 16.5827 45.5807 17.628C45.5807 19.9 44.3549 21.292 41.9031 21.804C41.6472 21.8573 41.4127 21.812 41.1995 21.668C40.9863 21.524 40.8478 21.324 40.7838 21.068L40.7678 21.02C40.7145 20.7853 40.7545 20.5667 40.8877 20.364C41.021 20.1613 41.2049 20.0333 41.4394 19.98C42.1536 19.8093 42.6759 19.54 43.0064 19.172C43.3368 18.804 43.5021 18.3267 43.5021 17.74C43.5021 17.2067 43.2116 16.7453 42.6306 16.356C42.0497 15.9667 41.2742 15.772 40.3041 15.772C39.931 15.772 39.6592 15.7773 39.4886 15.788C39.3927 15.788 39.3447 15.836 39.3447 15.932V19.132C39.3447 20.1133 39.1528 20.7933 38.7691 21.172C38.3853 21.5507 37.7031 21.74 36.7224 21.74ZM45.3089 10.236C45.8846 11.0147 46.3856 11.7453 46.812 12.428C46.9399 12.6307 46.9745 12.852 46.9159 13.092C46.8573 13.332 46.7267 13.5107 46.5241 13.628C46.3109 13.7453 46.0871 13.7747 45.8526 13.716C45.6181 13.6573 45.4368 13.5267 45.3089 13.324C44.7972 12.524 44.3282 11.8307 43.9018 11.244C43.7632 11.052 43.7099 10.8387 43.7419 10.604C43.7739 10.3693 43.8858 10.1827 44.0777 10.044C44.2802 9.90533 44.5014 9.85467 44.7413 9.892C44.9811 9.92933 45.1703 10.044 45.3089 10.236ZM56.102 16.38C56.4005 16.1027 56.5498 15.756 56.5498 15.34C56.5498 14.924 56.4005 14.58 56.102 14.308C55.8036 14.036 55.4198 13.9 54.9508 13.9C54.4817 13.9 54.098 14.036 53.7995 14.308C53.501 14.58 53.3518 14.924 53.3518 15.34C53.3518 15.756 53.501 16.1 53.7995 16.372C54.098 16.644 54.4817 16.78 54.9508 16.78C55.4198 16.78 55.8036 16.6467 56.102 16.38ZM49.6262 11.5C49.3917 11.5 49.1918 11.4173 49.0266 11.252C48.8613 11.0867 48.7787 10.8867 48.7787 10.652C48.7787 10.4173 48.8613 10.2147 49.0266 10.044C49.1918 9.87333 49.3917 9.788 49.6262 9.788H56.198C56.2939 9.788 56.3419 9.74533 56.3419 9.66V8.94C56.3419 8.69467 56.4325 8.48133 56.6137 8.3C56.7949 8.11867 57.0081 8.028 57.2533 8.028H57.4612C57.7064 8.028 57.9196 8.11867 58.1008 8.3C58.282 8.48133 58.3726 8.69467 58.3726 8.94V9.644C58.3726 9.74 58.4152 9.788 58.5005 9.788H61.7784C62.0129 9.788 62.2128 9.87333 62.3781 10.044C62.5433 10.2147 62.6259 10.4173 62.6259 10.652C62.6259 10.8867 62.5433 11.0867 62.3781 11.252C62.2128 11.4173 62.0129 11.5 61.7784 11.5H58.5005C58.4152 11.5 58.3726 11.548 58.3726 11.644V14.54C58.3726 14.6467 58.3886 14.7373 58.4206 14.812C58.6657 15.452 58.7883 16.124 58.7883 16.828C58.7883 18.3427 58.3939 19.5107 57.6051 20.332C56.8163 21.1533 55.5104 21.708 53.6876 21.996C53.4424 22.0387 53.2159 21.98 53.008 21.82C52.8001 21.66 52.6696 21.4573 52.6163 21.212V21.148C52.5736 20.9133 52.6243 20.6973 52.7682 20.5C52.9121 20.3027 53.1066 20.1827 53.3518 20.14C54.5137 19.9587 55.3345 19.7 55.8142 19.364C56.2939 19.028 56.6031 18.5453 56.7416 17.916C56.7416 17.9053 56.7443 17.8947 56.7496 17.884C56.755 17.8733 56.7576 17.8627 56.7576 17.852V17.836H56.7097C56.166 18.2733 55.4731 18.492 54.631 18.492C53.6609 18.492 52.8694 18.196 52.2565 17.604C51.6436 17.012 51.3371 16.2573 51.3371 15.34C51.3371 14.412 51.6489 13.6547 52.2725 13.068C52.8961 12.4813 53.7036 12.188 54.6949 12.188C55.2599 12.188 55.7929 12.3107 56.2939 12.556C56.3046 12.556 56.3099 12.5587 56.3099 12.564C56.3099 12.5693 56.3152 12.572 56.3259 12.572C56.3366 12.572 56.3419 12.5667 56.3419 12.556V11.644C56.3419 11.548 56.2939 11.5 56.198 11.5H49.6262ZM72.0919 16.38C72.3903 16.1027 72.5396 15.756 72.5396 15.34C72.5396 14.924 72.3903 14.58 72.0919 14.308C71.7934 14.036 71.4096 13.9 70.9406 13.9C70.4716 13.9 70.0878 14.036 69.7893 14.308C69.4909 14.58 69.3416 14.924 69.3416 15.34C69.3416 15.756 69.4909 16.1 69.7893 16.372C70.0878 16.644 70.4716 16.78 70.9406 16.78C71.4096 16.78 71.7934 16.6467 72.0919 16.38ZM65.616 11.5C65.3815 11.5 65.1816 11.4173 65.0164 11.252C64.8511 11.0867 64.7685 10.8867 64.7685 10.652C64.7685 10.4173 64.8511 10.2147 65.0164 10.044C65.1816 9.87333 65.3815 9.788 65.616 9.788H72.1878C72.2837 9.788 72.3317 9.74533 72.3317 9.66V8.94C72.3317 8.69467 72.4223 8.48133 72.6035 8.3C72.7848 8.11867 72.998 8.028 73.2431 8.028H73.451C73.6962 8.028 73.9094 8.11867 74.0906 8.3C74.2718 8.48133 74.3624 8.69467 74.3624 8.94V9.644C74.3624 9.74 74.4051 9.788 74.4903 9.788H77.7683C78.0028 9.788 78.2026 9.87333 78.3679 10.044C78.5331 10.2147 78.6157 10.4173 78.6157 10.652C78.6157 10.8867 78.5331 11.0867 78.3679 11.252C78.2026 11.4173 78.0028 11.5 77.7683 11.5H74.4903C74.4051 11.5 74.3624 11.548 74.3624 11.644V14.54C74.3624 14.6467 74.3784 14.7373 74.4104 14.812C74.6556 15.452 74.7782 16.124 74.7782 16.828C74.7782 18.3427 74.3837 19.5107 73.5949 20.332C72.8061 21.1533 71.5002 21.708 69.6774 21.996C69.4322 22.0387 69.2057 21.98 68.9978 21.82C68.79 21.66 68.6594 21.4573 68.6061 21.212V21.148C68.5634 20.9133 68.6141 20.6973 68.758 20.5C68.9019 20.3027 69.0964 20.1827 69.3416 20.14C70.5035 19.9587 71.3243 19.7 71.804 19.364C72.2837 19.028 72.5929 18.5453 72.7315 17.916C72.7315 17.9053 72.7341 17.8947 72.7395 17.884C72.7448 17.8733 72.7474 17.8627 72.7474 17.852V17.836H72.6995C72.1558 18.2733 71.4629 18.492 70.6208 18.492C69.6508 18.492 68.8593 18.196 68.2463 17.604C67.6334 17.012 67.3269 16.2573 67.3269 15.34C67.3269 14.412 67.6387 13.6547 68.2623 13.068C68.8859 12.4813 69.6934 12.188 70.6848 12.188C71.2497 12.188 71.7827 12.3107 72.2837 12.556C72.2944 12.556 72.2997 12.5587 72.2997 12.564C72.2997 12.5693 72.3051 12.572 72.3157 12.572C72.3264 12.572 72.3317 12.5667 72.3317 12.556V11.644C72.3317 11.548 72.2837 11.5 72.1878 11.5H65.616ZM83.8124 14.028C83.0129 14.892 82.6132 15.932 82.6132 17.148C82.6132 17.8627 82.7331 18.4147 82.9729 18.804C83.2128 19.1933 83.5033 19.388 83.8444 19.388C84.2814 19.388 84.7825 19.0893 85.3474 18.492C85.4007 18.428 85.4061 18.3533 85.3634 18.268C85.3314 18.2253 85.3101 18.1827 85.2995 18.14C84.7878 16.7107 84.3347 15.356 83.9403 14.076C83.919 13.98 83.8764 13.964 83.8124 14.028ZM88.0017 12.412C87.1703 12.412 86.4134 12.5347 85.7312 12.78C85.6459 12.812 85.6139 12.876 85.6352 12.972C85.9337 13.996 86.2962 15.148 86.7225 16.428C86.7439 16.492 86.7812 16.4867 86.8345 16.412C87.4741 15.3133 88.055 14.0333 88.5774 12.572C88.588 12.54 88.5854 12.508 88.5694 12.476C88.5534 12.444 88.5294 12.428 88.4974 12.428C88.3908 12.4173 88.2256 12.412 88.0017 12.412ZM83.6365 21.372C82.7944 21.372 82.0935 21.0013 81.5339 20.26C80.9742 19.5187 80.6944 18.4813 80.6944 17.148C80.6944 16.092 80.9129 15.1133 81.35 14.212C81.787 13.3107 82.4 12.5507 83.1888 11.932C83.2634 11.8787 83.2954 11.8147 83.2847 11.74C83.0715 10.9507 82.917 10.3533 82.821 9.948C82.7677 9.70267 82.8077 9.47333 82.941 9.26C83.0742 9.04667 83.2634 8.91867 83.5086 8.876L83.6525 8.844C83.8977 8.80133 84.1269 8.844 84.3401 8.972C84.5533 9.1 84.6865 9.28667 84.7398 9.532C84.7718 9.68133 84.8251 9.89733 84.8997 10.18C84.9743 10.4627 85.0223 10.6573 85.0436 10.764C85.0649 10.8387 85.1182 10.8653 85.2035 10.844C86.067 10.5347 86.9997 10.38 88.0017 10.38C88.4281 10.38 88.8066 10.4013 89.137 10.444C89.233 10.4653 89.2916 10.428 89.3129 10.332C89.3982 10.044 89.5261 9.59067 89.6967 8.972C89.7606 8.72667 89.9019 8.53467 90.1204 8.396C90.3389 8.25733 90.5708 8.21467 90.8159 8.268L90.9439 8.3C91.189 8.35333 91.3783 8.484 91.5115 8.692C91.6448 8.9 91.6794 9.12133 91.6154 9.356C91.4662 9.97467 91.3329 10.4707 91.2157 10.844C91.1944 10.9293 91.221 10.988 91.2956 11.02C92.351 11.4787 93.1771 12.1507 93.7741 13.036C94.371 13.9213 94.6695 14.94 94.6695 16.092C94.6695 17.6387 94.3017 18.8973 93.5662 19.868C92.8307 20.8387 91.77 21.4947 90.3842 21.836C90.139 21.9 89.9072 21.8627 89.6887 21.724C89.4701 21.5853 89.3289 21.388 89.2649 21.132L89.233 21.02C89.169 20.796 89.2036 20.58 89.3369 20.372C89.4701 20.164 89.654 20.028 89.8885 19.964C91.722 19.4413 92.6388 18.1507 92.6388 16.092C92.6388 15.4093 92.4656 14.796 92.1191 14.252C91.7727 13.708 91.285 13.2813 90.656 12.972C90.5921 12.94 90.5388 12.9667 90.4961 13.052C89.5048 15.8147 88.3988 17.892 87.1783 19.284C85.9577 20.676 84.7771 21.372 83.6365 21.372Z" fill="#1391E6"/>
<path fill-rule="evenodd" clip-rule="evenodd" d="M4.03545 1.3742C4.40145 1.92059 5.59585 3.48608 9.1534 9.80462C12.6115 15.9452 18.4057 26.7943 20.5188 30.5054C21.6229 32.4438 19.9812 32.8873 19.4209 32.1569C19.1754 31.8375 14.2412 23.886 9.65491 16.0004C6.06275 9.82608 2.68593 3.53512 1.94336 2.0234C1.43731 0.995115 3.08503 -0.229616 4.03545 1.3742Z" fill="#1391E6"/>
<path fill-rule="evenodd" clip-rule="evenodd" d="M2.58527 24.175C4.03573 25.5781 7.8147 28.9602 9.29221 30.9586C10.8707 32.9118 8.61296 32.9555 7.59176 31.9578C6.51035 30.8998 1.90001 26.3136 0.782433 24.9527C-0.943641 22.8518 0.422464 22.0304 2.58527 24.175Z" fill="#1391E6"/>
</svg>
