<svg width="182" height="33" viewBox="0 0 182 33" fill="none" xmlns="http://www.w3.org/2000/svg">
<path fill-rule="evenodd" clip-rule="evenodd" d="M177.961 1.3742C177.594 1.92059 176.399 3.48608 172.838 9.80462C169.377 15.9452 163.578 26.7943 161.463 30.5054C160.358 32.4438 162.001 32.8873 162.562 32.1569C162.807 31.8375 167.746 23.886 172.336 16.0004C175.932 9.82608 179.311 3.53512 180.055 2.0234C180.561 0.995115 178.912 -0.229616 177.961 1.3742Z" fill="#1391E6"/>
<path fill-rule="evenodd" clip-rule="evenodd" d="M179.413 24.175C177.961 25.5781 174.179 28.9601 172.7 30.9585C171.12 32.9118 173.38 32.9555 174.402 31.9578C175.484 30.8998 180.098 26.3136 181.217 24.9527C182.945 22.8517 181.577 22.0304 179.413 24.175Z" fill="#1391E6"/>
<path fill-rule="evenodd" clip-rule="evenodd" d="M113.958 2C110.42 2 107.942 3.10439 106.324 5.17556C104.677 7.28375 103.755 10.8209 103.755 16C103.755 21.1791 104.677 24.7163 106.324 26.8244C107.942 28.8956 110.42 30 113.958 30C117.496 30 119.966 28.8956 121.57 26.8272L121.574 26.8217C123.232 24.7139 124.161 21.1781 124.161 16C124.161 10.8209 123.239 7.28375 121.592 5.17556C119.974 3.10439 117.495 2 113.958 2ZM104.748 3.94443C106.838 1.26894 109.974 0 113.958 0C117.942 0 121.078 1.26894 123.168 3.94443C125.229 6.58292 126.161 10.6724 126.161 16C126.161 21.3269 125.223 25.4168 123.148 28.0558C121.071 30.732 117.941 32 113.958 32C109.974 32 106.838 30.7311 104.748 28.0556C102.687 25.4171 101.755 21.3276 101.755 16C101.755 10.6724 102.687 6.58292 104.748 3.94443ZM132.242 2.4C131.907 2.4 131.624 2.51191 131.349 2.78719C131.074 3.06247 130.962 3.34505 130.962 3.68C130.962 4.01387 131.072 4.28428 131.338 4.54234C131.611 4.8073 131.897 4.92 132.242 4.92H141.805C141.972 4.92 142.281 4.96252 142.542 5.22286C142.802 5.48322 142.845 5.79253 142.845 5.96C142.845 6.34547 142.647 6.61151 142.512 6.7472L142.495 6.76424L135.959 12.6972L135.957 12.6986C135.21 13.3839 134.843 14.2202 134.843 15.28C134.843 15.5418 134.927 15.7624 135.142 15.9849C135.349 16.1994 135.554 16.28 135.803 16.28H136.243C138.98 16.28 141.128 16.5971 142.462 17.4043C143.901 18.2746 144.565 19.7119 144.565 21.48C144.565 23.3108 144.017 24.8562 142.789 25.9475C141.587 27.0153 139.958 27.48 138.044 27.48C136.23 27.48 134.205 27.0934 131.983 26.3542C131.735 26.2828 131.57 26.3179 131.394 26.4405C131.22 26.5614 131.162 26.676 131.162 26.88V27.32C131.162 27.8065 131.298 28.2296 131.576 28.6187C131.844 28.9944 132.166 29.2101 132.565 29.3098C134.403 29.7693 136.309 30 138.284 30C141.601 30 143.996 29.2033 145.62 27.754C147.228 26.3189 148.086 24.2513 148.086 21.4C148.086 19.087 147.44 17.4168 146.262 16.2505C145.078 15.0773 143.42 14.44 141.165 14.44H140.524C140.357 14.44 140.048 14.3975 139.787 14.1372C139.527 13.8769 139.484 13.5675 139.484 13.4C139.484 13.0145 139.682 12.7484 139.817 12.6128L139.835 12.5957L146.339 6.69442L146.345 6.68956C147.245 5.89666 147.686 4.91876 147.686 3.68C147.686 3.33536 147.574 3.04955 147.309 2.77656C147.051 2.51068 146.78 2.4 146.446 2.4H132.242ZM129.935 1.37281C130.566 0.741425 131.351 0.4 132.242 0.4H146.446C147.339 0.4 148.122 0.742649 148.744 1.38344C149.359 2.01712 149.686 2.79798 149.686 3.68C149.686 5.47868 149.009 7.00566 147.673 8.18541L142.858 12.553C144.767 12.8197 146.39 13.5625 147.67 14.8295C149.319 16.4632 150.086 18.6996 150.086 21.4C150.086 24.6821 149.078 27.3478 146.952 29.246C144.841 31.13 141.902 32 138.284 32C136.151 32 134.083 31.7507 132.08 31.2502C131.199 31.0299 130.48 30.5256 129.948 29.7813C129.426 29.0504 129.162 28.2201 129.162 27.32V26.88C129.162 26.0173 129.544 25.2919 130.25 24.7995C130.952 24.3108 131.757 24.1984 132.57 24.4422L132.584 24.4465L132.599 24.4513C134.691 25.1486 136.501 25.48 138.044 25.48C139.651 25.48 140.742 25.0914 141.46 24.4525C142.153 23.8371 142.565 22.9025 142.565 21.48C142.565 20.2614 142.149 19.5521 141.427 19.1157C140.601 18.6162 138.948 18.28 136.243 18.28H135.803C134.986 18.28 134.27 17.9606 133.704 17.3751C133.146 16.7976 132.843 16.0849 132.843 15.28C132.843 13.6739 133.435 12.2972 134.607 11.2228L134.611 11.2196L139.347 6.92H132.242C131.36 6.92 130.579 6.5927 129.946 5.97767C129.305 5.35572 128.962 4.5728 128.962 3.68C128.962 2.78828 129.303 2.00419 129.935 1.37281ZM108.927 7.2669C110.015 5.34773 111.738 4.36 113.958 4.36C116.178 4.36 117.901 5.34773 118.989 7.2669C120.034 9.10994 120.479 12.0867 120.479 16C120.479 19.9133 120.034 22.8901 118.989 24.7331C117.901 26.6523 116.178 27.64 113.958 27.64C111.738 27.64 110.015 26.6523 108.927 24.7331C107.882 22.8901 107.437 19.9133 107.437 16C107.437 12.0867 107.882 9.10994 108.927 7.2669ZM113.958 6.36C112.444 6.36 111.393 6.97227 110.667 8.2531C109.898 9.61006 109.437 12.1266 109.437 16C109.437 19.8734 109.898 22.3899 110.667 23.7469C111.393 25.0277 112.444 25.64 113.958 25.64C115.472 25.64 116.523 25.0277 117.249 23.7469C118.018 22.3899 118.479 19.8734 118.479 16C118.479 12.1266 118.018 9.61006 117.249 8.2531C116.523 6.97227 115.472 6.36 113.958 6.36Z" fill="#1391E6"/>
<path d="M37.2188 16.156C36.472 16.38 35.9065 16.684 35.5224 17.068C35.1383 17.452 34.9463 17.8733 34.9463 18.332C34.9463 18.748 35.1143 19.1187 35.4504 19.444C35.7865 19.7693 36.1519 19.932 36.5467 19.932C36.8561 19.932 37.0668 19.868 37.1788 19.74C37.2908 19.612 37.3469 19.372 37.3469 19.02V16.252C37.3469 16.1667 37.3042 16.1347 37.2188 16.156ZM36.7547 21.74C35.6878 21.74 34.7809 21.412 34.034 20.756C33.2872 20.1 32.9138 19.292 32.9138 18.332C32.9138 17.4147 33.2899 16.5827 34.042 15.836C34.7942 15.0893 35.8532 14.5453 37.2188 14.204C37.3042 14.1827 37.3469 14.124 37.3469 14.028V12.012C37.3469 11.916 37.2988 11.868 37.2028 11.868H34.4662C34.2314 11.868 34.0314 11.7853 33.866 11.62C33.7006 11.4547 33.6179 11.2547 33.6179 11.02C33.6179 10.7853 33.7006 10.5853 33.866 10.42C34.0314 10.2547 34.2314 10.172 34.4662 10.172H37.2028C37.2988 10.172 37.3469 10.124 37.3469 10.028V9.1C37.3469 8.85467 37.4375 8.64133 37.6189 8.46C37.8003 8.27867 38.0137 8.188 38.2591 8.188H38.4671C38.7125 8.188 38.9259 8.27867 39.1073 8.46C39.2887 8.64133 39.3793 8.85467 39.3793 9.1V10.028C39.3793 10.124 39.422 10.172 39.5074 10.172H42.036C42.2707 10.172 42.4734 10.2547 42.6441 10.42C42.8148 10.5853 42.9002 10.7853 42.9002 11.02C42.9002 11.2547 42.8148 11.4547 42.6441 11.62C42.4734 11.7853 42.2707 11.868 42.036 11.868H39.5074C39.422 11.868 39.3793 11.916 39.3793 12.012V13.74C39.3793 13.8253 39.4274 13.868 39.5234 13.868C39.6941 13.8573 39.9662 13.852 40.3396 13.852C41.9186 13.852 43.1936 14.22 44.1645 14.956C45.1354 15.692 45.6209 16.5827 45.6209 17.628C45.6209 19.9 44.3939 21.292 41.94 21.804C41.6839 21.8573 41.4492 21.812 41.2358 21.668C41.0224 21.524 40.8837 21.324 40.8197 21.068L40.8037 21.02C40.7503 20.7853 40.7904 20.5667 40.9237 20.364C41.0571 20.1613 41.2411 20.0333 41.4759 19.98C42.1907 19.8093 42.7135 19.54 43.0442 19.172C43.375 18.804 43.5404 18.3267 43.5404 17.74C43.5404 17.2067 43.2496 16.7453 42.6681 16.356C42.0867 15.9667 41.3105 15.772 40.3396 15.772C39.9662 15.772 39.6941 15.7773 39.5234 15.788C39.4274 15.788 39.3793 15.836 39.3793 15.932V19.132C39.3793 20.1133 39.1873 20.7933 38.8032 21.172C38.4191 21.5507 37.7363 21.74 36.7547 21.74ZM45.3488 10.236C45.9249 11.0147 46.4264 11.7453 46.8532 12.428C46.9812 12.6307 47.0159 12.852 46.9572 13.092C46.8985 13.332 46.7678 13.5107 46.5651 13.628C46.3517 13.7453 46.1277 13.7747 45.8929 13.716C45.6582 13.6573 45.4768 13.5267 45.3488 13.324C44.8367 12.524 44.3672 11.8307 43.9405 11.244C43.8018 11.052 43.7484 10.8387 43.7804 10.604C43.8124 10.3693 43.9245 10.1827 44.1165 10.044C44.3192 9.90533 44.5406 9.85467 44.7807 9.892C45.0207 9.92933 45.2101 10.044 45.3488 10.236ZM56.1514 16.38C56.4502 16.1027 56.5995 15.756 56.5995 15.34C56.5995 14.924 56.4502 14.58 56.1514 14.308C55.8527 14.036 55.4686 13.9 54.9991 13.9C54.5297 13.9 54.1456 14.036 53.8469 14.308C53.5481 14.58 53.3988 14.924 53.3988 15.34C53.3988 15.756 53.5481 16.1 53.8469 16.372C54.1456 16.644 54.5297 16.78 54.9991 16.78C55.4686 16.78 55.8527 16.6467 56.1514 16.38ZM49.6698 11.5C49.4351 11.5 49.2351 11.4173 49.0697 11.252C48.9043 11.0867 48.8216 10.8867 48.8216 10.652C48.8216 10.4173 48.9043 10.2147 49.0697 10.044C49.2351 9.87333 49.4351 9.788 49.6698 9.788H56.2475C56.3435 9.788 56.3915 9.74533 56.3915 9.66V8.94C56.3915 8.69467 56.4822 8.48133 56.6636 8.3C56.8449 8.11867 57.0583 8.028 57.3037 8.028H57.5118C57.7572 8.028 57.9705 8.11867 58.1519 8.3C58.3333 8.48133 58.424 8.69467 58.424 8.94V9.644C58.424 9.74 58.4667 9.788 58.552 9.788H61.8328C62.0675 9.788 62.2676 9.87333 62.433 10.044C62.5983 10.2147 62.681 10.4173 62.681 10.652C62.681 10.8867 62.5983 11.0867 62.433 11.252C62.2676 11.4173 62.0675 11.5 61.8328 11.5H58.552C58.4667 11.5 58.424 11.548 58.424 11.644V14.54C58.424 14.6467 58.44 14.7373 58.472 14.812C58.7174 15.452 58.8401 16.124 58.8401 16.828C58.8401 18.3427 58.4453 19.5107 57.6558 20.332C56.8663 21.1533 55.5593 21.708 53.7348 21.996C53.4894 22.0387 53.2627 21.98 53.0547 21.82C52.8466 21.66 52.7159 21.4573 52.6626 21.212V21.148C52.6199 20.9133 52.6706 20.6973 52.8146 20.5C52.9587 20.3027 53.1534 20.1827 53.3988 20.14C54.5617 19.9587 55.3832 19.7 55.8634 19.364C56.3435 19.028 56.6529 18.5453 56.7916 17.916C56.7916 17.9053 56.7943 17.8947 56.7996 17.884C56.8049 17.8733 56.8076 17.8627 56.8076 17.852V17.836H56.7596C56.2154 18.2733 55.5219 18.492 54.6791 18.492C53.7082 18.492 52.916 18.196 52.3025 17.604C51.689 17.012 51.3823 16.2573 51.3823 15.34C51.3823 14.412 51.6943 13.6547 52.3185 13.068C52.9426 12.4813 53.7508 12.188 54.7431 12.188C55.3086 12.188 55.842 12.3107 56.3435 12.556C56.3541 12.556 56.3595 12.5587 56.3595 12.564C56.3595 12.5693 56.3648 12.572 56.3755 12.572C56.3862 12.572 56.3915 12.5667 56.3915 12.556V11.644C56.3915 11.548 56.3435 11.5 56.2475 11.5H49.6698ZM72.1553 16.38C72.4541 16.1027 72.6034 15.756 72.6034 15.34C72.6034 14.924 72.4541 14.58 72.1553 14.308C71.8566 14.036 71.4725 13.9 71.003 13.9C70.5336 13.9 70.1495 14.036 69.8508 14.308C69.552 14.58 69.4026 14.924 69.4026 15.34C69.4026 15.756 69.552 16.1 69.8508 16.372C70.1495 16.644 70.5336 16.78 71.003 16.78C71.4725 16.78 71.8566 16.6467 72.1553 16.38ZM65.6737 11.5C65.439 11.5 65.239 11.4173 65.0736 11.252C64.9082 11.0867 64.8255 10.8867 64.8255 10.652C64.8255 10.4173 64.9082 10.2147 65.0736 10.044C65.239 9.87333 65.439 9.788 65.6737 9.788H72.2514C72.3474 9.788 72.3954 9.74533 72.3954 9.66V8.94C72.3954 8.69467 72.4861 8.48133 72.6674 8.3C72.8488 8.11867 73.0622 8.028 73.3076 8.028H73.5157C73.761 8.028 73.9744 8.11867 74.1558 8.3C74.3372 8.48133 74.4279 8.69467 74.4279 8.94V9.644C74.4279 9.74 74.4706 9.788 74.5559 9.788H77.8367C78.0714 9.788 78.2715 9.87333 78.4369 10.044C78.6022 10.2147 78.6849 10.4173 78.6849 10.652C78.6849 10.8867 78.6022 11.0867 78.4369 11.252C78.2715 11.4173 78.0714 11.5 77.8367 11.5H74.5559C74.4706 11.5 74.4279 11.548 74.4279 11.644V14.54C74.4279 14.6467 74.4439 14.7373 74.4759 14.812C74.7213 15.452 74.844 16.124 74.844 16.828C74.844 18.3427 74.4492 19.5107 73.6597 20.332C72.8702 21.1533 71.5632 21.708 69.7387 21.996C69.4933 22.0387 69.2666 21.98 69.0586 21.82C68.8505 21.66 68.7198 21.4573 68.6665 21.212V21.148C68.6238 20.9133 68.6745 20.6973 68.8185 20.5C68.9625 20.3027 69.1573 20.1827 69.4026 20.14C70.5656 19.9587 71.3871 19.7 71.8673 19.364C72.3474 19.028 72.6568 18.5453 72.7955 17.916C72.7955 17.9053 72.7981 17.8947 72.8035 17.884C72.8088 17.8733 72.8115 17.8627 72.8115 17.852V17.836H72.7635C72.2193 18.2733 71.5258 18.492 70.683 18.492C69.7121 18.492 68.9199 18.196 68.3064 17.604C67.6929 17.012 67.3862 16.2573 67.3862 15.34C67.3862 14.412 67.6982 13.6547 68.3224 13.068C68.9465 12.4813 69.7547 12.188 70.747 12.188C71.3124 12.188 71.8459 12.3107 72.3474 12.556C72.358 12.556 72.3634 12.5587 72.3634 12.564C72.3634 12.5693 72.3687 12.572 72.3794 12.572C72.39 12.572 72.3954 12.5667 72.3954 12.556V11.644C72.3954 11.548 72.3474 11.5 72.2514 11.5H65.6737ZM83.8862 14.028C83.086 14.892 82.6859 15.932 82.6859 17.148C82.6859 17.8627 82.8059 18.4147 83.046 18.804C83.286 19.1933 83.5768 19.388 83.9182 19.388C84.3556 19.388 84.8571 19.0893 85.4226 18.492C85.4759 18.428 85.4812 18.3533 85.4386 18.268C85.4065 18.2253 85.3852 18.1827 85.3745 18.14C84.8624 16.7107 84.409 15.356 84.0142 14.076C83.9929 13.98 83.9502 13.964 83.8862 14.028ZM88.0792 12.412C87.247 12.412 86.4895 12.5347 85.8066 12.78C85.7213 12.812 85.6893 12.876 85.7106 12.972C86.0094 13.996 86.3721 15.148 86.7989 16.428C86.8202 16.492 86.8576 16.4867 86.9109 16.412C87.5511 15.3133 88.1325 14.0333 88.6553 12.572C88.666 12.54 88.6633 12.508 88.6473 12.476C88.6313 12.444 88.6073 12.428 88.5753 12.428C88.4686 12.4173 88.3033 12.412 88.0792 12.412ZM83.7101 21.372C82.8673 21.372 82.1658 21.0013 81.6056 20.26C81.0455 19.5187 80.7654 18.4813 80.7654 17.148C80.7654 16.092 80.9841 15.1133 81.4216 14.212C81.859 13.3107 82.4725 12.5507 83.262 11.932C83.3367 11.8787 83.3687 11.8147 83.3581 11.74C83.1447 10.9507 82.99 10.3533 82.8939 9.948C82.8406 9.70267 82.8806 9.47333 83.014 9.26C83.1473 9.04667 83.3367 8.91867 83.5821 8.876L83.7261 8.844C83.9715 8.80133 84.2009 8.844 84.4143 8.972C84.6277 9.1 84.7611 9.28667 84.8144 9.532C84.8464 9.68133 84.8998 9.89733 84.9744 10.18C85.0491 10.4627 85.0971 10.6573 85.1185 10.764C85.1398 10.8387 85.1932 10.8653 85.2785 10.844C86.1427 10.5347 87.0763 10.38 88.0792 10.38C88.506 10.38 88.8847 10.4013 89.2155 10.444C89.3115 10.4653 89.3702 10.428 89.3915 10.332C89.4769 10.044 89.6049 9.59067 89.7756 8.972C89.8396 8.72667 89.981 8.53467 90.1997 8.396C90.4184 8.25733 90.6505 8.21467 90.8959 8.268L91.0239 8.3C91.2693 8.35333 91.4587 8.484 91.5921 8.692C91.7254 8.9 91.7601 9.12133 91.6961 9.356C91.5467 9.97467 91.4133 10.4707 91.296 10.844C91.2746 10.9293 91.3013 10.988 91.376 11.02C92.4323 11.4787 93.2591 12.1507 93.8566 13.036C94.4541 13.9213 94.7528 14.94 94.7528 16.092C94.7528 17.6387 94.3847 18.8973 93.6486 19.868C92.9124 20.8387 91.8508 21.4947 90.4638 21.836C90.2184 21.9 89.9863 21.8627 89.7676 21.724C89.5489 21.5853 89.4075 21.388 89.3435 21.132L89.3115 21.02C89.2475 20.796 89.2822 20.58 89.4155 20.372C89.5489 20.164 89.7329 20.028 89.9677 19.964C91.8028 19.4413 92.7203 18.1507 92.7203 16.092C92.7203 15.4093 92.547 14.796 92.2002 14.252C91.8535 13.708 91.3653 13.2813 90.7358 12.972C90.6718 12.94 90.6185 12.9667 90.5758 13.052C89.5836 15.8147 88.4766 17.892 87.255 19.284C86.0334 20.676 84.8517 21.372 83.7101 21.372Z" fill="#1391E6"/>
<path fill-rule="evenodd" clip-rule="evenodd" d="M4.039 1.3742C4.40533 1.92059 5.60078 3.48608 9.16146 9.80462C12.6226 15.9452 18.4219 26.7943 20.5369 30.5054C21.6419 32.4438 19.9988 32.8873 19.4379 32.1569C19.1923 31.8375 14.2537 23.886 9.66341 16.0004C6.06809 9.82608 2.6883 3.53512 1.94507 2.0234C1.43857 0.995115 3.08775 -0.229616 4.039 1.3742Z" fill="#1391E6"/>
<path fill-rule="evenodd" clip-rule="evenodd" d="M2.58755 24.175C4.03929 25.5781 7.82158 28.9602 9.30039 30.9586C10.8802 32.9118 8.62054 32.9555 7.59844 31.9578C6.51608 30.8998 1.90168 26.3136 0.783122 24.9527C-0.944471 22.8518 0.422835 22.0304 2.58755 24.175Z" fill="#1391E6"/>
</svg>
