<svg width="182" height="32" viewBox="0 0 182 32" fill="none" xmlns="http://www.w3.org/2000/svg">
<path fill-rule="evenodd" clip-rule="evenodd" d="M4.02992 0.774229C4.39543 1.32062 5.58819 2.88611 9.14087 9.20465C12.5943 15.3452 18.3805 26.1944 20.4907 29.9054C21.5933 31.8438 19.9538 32.2874 19.3943 31.5569C19.1491 31.2375 14.2217 23.286 9.64169 15.4004C6.05445 9.2261 2.68225 2.93515 1.9407 1.42343C1.43534 0.395139 3.08081 -0.829592 4.02992 0.774229Z" fill="#1391E6"/>
<path fill-rule="evenodd" clip-rule="evenodd" d="M2.58173 23.575C4.03021 24.9782 7.804 28.3602 9.27949 30.3586C10.8558 32.3119 8.60116 32.3556 7.58136 31.3578C6.50144 30.2998 1.89741 25.7136 0.781362 24.3527C-0.942348 22.2518 0.421885 21.4304 2.58173 23.575Z" fill="#1391E6"/>
<path fill-rule="evenodd" clip-rule="evenodd" d="M115.701 2C112.173 2 109.701 3.10384 108.087 5.17471C106.444 7.28303 105.524 10.8206 105.524 16C105.524 21.1794 106.444 24.717 108.087 26.8253C109.701 28.8962 112.173 30 115.701 30C119.23 30 121.693 28.8961 123.294 26.8281L123.298 26.8225C124.952 24.7146 125.879 21.1784 125.879 16C125.879 10.8206 124.959 7.28303 123.316 5.17471C121.702 3.10384 119.229 2 115.701 2ZM106.509 3.9453C108.595 1.2695 111.725 1.89648e-06 115.701 1.89648e-06C119.678 1.89648e-06 122.808 1.2695 124.893 3.9453C126.949 6.58364 127.879 10.6728 127.879 16C127.879 21.3265 126.943 25.4159 124.873 28.0548C122.801 30.7314 119.676 32 115.701 32C111.725 32 108.595 30.7305 106.509 28.0547C104.453 25.4164 103.524 21.3272 103.524 16C103.524 10.6728 104.453 6.58364 106.509 3.9453ZM139.261 3.55535L139.259 3.55729L134.998 6.82876L134.996 6.83081C134.038 7.57802 133.587 8.50199 133.587 9.68V11.28C133.587 11.3174 133.592 11.3372 133.593 11.3439M133.593 11.3439C133.59 11.3403 133.591 11.3406 133.593 11.3439L133.594 11.3471C133.594 11.3471 133.594 11.3473 133.593 11.3439ZM133.593 11.3439C133.593 11.3439 133.596 11.3466 133.597 11.3481C133.606 11.3557 133.626 11.3716 133.665 11.3918C133.686 11.4023 133.701 11.4082 133.71 11.4114C133.721 11.4056 133.739 11.3945 133.765 11.3743L133.774 11.3669L139.71 6.80707L140.412 6.1043L141.452 7.14639V28.32C141.452 28.6557 141.563 28.9385 141.838 29.2136C142.113 29.4887 142.394 29.6 142.727 29.6H143.925C144.257 29.6 144.526 29.4899 144.783 29.2242C145.047 28.9514 145.16 28.6654 145.16 28.32V3.68C145.16 3.33465 145.047 3.04858 144.783 2.77576C144.526 2.51009 144.257 2.4 143.925 2.4H142.727C141.427 2.4 140.283 2.78291 139.261 3.55535M139.452 9.52789V28.32C139.452 29.211 139.792 29.9948 140.422 30.6264C141.053 31.258 141.836 31.6 142.727 31.6H143.925C144.817 31.6 145.599 31.2568 146.22 30.6158C146.834 29.9819 147.16 29.2013 147.16 28.32V3.68C147.16 2.79869 146.834 2.01809 146.22 1.38425C145.599 0.743245 144.817 0.400002 143.925 0.400002H142.727C140.994 0.400002 139.425 0.923116 138.052 1.96272L133.775 5.24686L133.769 5.25125C132.333 6.37035 131.587 7.87243 131.587 9.68V11.28C131.587 11.6629 131.676 12.048 131.892 12.3962C132.106 12.743 132.41 12.994 132.747 13.1682C133.094 13.3481 133.49 13.4478 133.911 13.4049C134.329 13.3623 134.693 13.1878 134.997 12.9498L139.452 9.52789ZM110.679 7.26774C111.764 5.34875 113.484 4.36 115.701 4.36C117.919 4.36 119.638 5.34875 120.723 7.26774C121.765 9.11049 122.21 12.0869 122.21 16C122.21 19.9131 121.765 22.8895 120.723 24.7323C119.638 26.6513 117.919 27.64 115.701 27.64C113.484 27.64 111.764 26.6513 110.679 24.7323C109.637 22.8895 109.192 19.9131 109.192 16C109.192 12.0869 109.637 9.11049 110.679 7.26774ZM115.701 6.36C114.193 6.36 113.144 6.97125 112.42 8.25227C111.652 9.60952 111.192 12.1265 111.192 16C111.192 19.8735 111.652 22.3905 112.42 23.7477C113.145 25.0288 114.193 25.64 115.701 25.64C117.21 25.64 118.258 25.0288 118.982 23.7477C119.75 22.3905 120.21 19.8735 120.21 16C120.21 12.1265 119.75 9.60952 118.982 8.25227C118.258 6.97125 117.21 6.36 115.701 6.36Z" fill="#1391E6"/>
<path d="M39.1349 16.156C38.3898 16.38 37.8256 16.684 37.4423 17.068C37.0591 17.452 36.8675 17.8733 36.8675 18.332C36.8675 18.748 37.0351 19.1187 37.3705 19.444C37.7058 19.7693 38.0704 19.932 38.4643 19.932C38.773 19.932 38.9832 19.868 39.095 19.74C39.2068 19.612 39.2627 19.372 39.2627 19.02V16.252C39.2627 16.1667 39.2201 16.1347 39.1349 16.156ZM38.6719 21.74C37.6073 21.74 36.7025 21.412 35.9573 20.756C35.2121 20.1 34.8396 19.292 34.8396 18.332C34.8396 17.4147 35.2148 16.5827 35.9653 15.836C36.7158 15.0893 37.7723 14.5453 39.1349 14.204C39.2201 14.1827 39.2627 14.124 39.2627 14.028V12.012C39.2627 11.916 39.2148 11.868 39.119 11.868H36.3884C36.1542 11.868 35.9547 11.7853 35.7896 11.62C35.6246 11.4547 35.5421 11.2547 35.5421 11.02C35.5421 10.7853 35.6246 10.5853 35.7896 10.42C35.9547 10.2547 36.1542 10.172 36.3884 10.172H39.119C39.2148 10.172 39.2627 10.124 39.2627 10.028V9.1C39.2627 8.85467 39.3532 8.64134 39.5341 8.46C39.7151 8.27867 39.928 8.188 40.1728 8.188H40.3804C40.6253 8.188 40.8382 8.27867 41.0191 8.46C41.2001 8.64134 41.2906 8.85467 41.2906 9.1V10.028C41.2906 10.124 41.3332 10.172 41.4183 10.172H43.9413C44.1755 10.172 44.3777 10.2547 44.548 10.42C44.7184 10.5853 44.8035 10.7853 44.8035 11.02C44.8035 11.2547 44.7184 11.4547 44.548 11.62C44.3777 11.7853 44.1755 11.868 43.9413 11.868H41.4183C41.3332 11.868 41.2906 11.916 41.2906 12.012V13.74C41.2906 13.8253 41.3385 13.868 41.4343 13.868C41.6046 13.8573 41.8761 13.852 42.2487 13.852C43.8242 13.852 45.0963 14.22 46.065 14.956C47.0337 15.692 47.5181 16.5827 47.5181 17.628C47.5181 19.9 46.2939 21.292 43.8455 21.804C43.59 21.8573 43.3558 21.812 43.1429 21.668C42.93 21.524 42.7916 21.324 42.7277 21.068L42.7117 21.02C42.6585 20.7853 42.6984 20.5667 42.8315 20.364C42.9646 20.1613 43.1482 20.0333 43.3824 19.98C44.0956 19.8093 44.6172 19.54 44.9472 19.172C45.2773 18.804 45.4423 18.3267 45.4423 17.74C45.4423 17.2067 45.1522 16.7453 44.572 16.356C43.9918 15.9667 43.2174 15.772 42.2487 15.772C41.8761 15.772 41.6046 15.7773 41.4343 15.788C41.3385 15.788 41.2906 15.836 41.2906 15.932V19.132C41.2906 20.1133 41.099 20.7933 40.7157 21.172C40.3325 21.5507 39.6512 21.74 38.6719 21.74ZM47.2466 10.236C47.8215 11.0147 48.3218 11.7453 48.7476 12.428C48.8754 12.6307 48.91 12.852 48.8514 13.092C48.7929 13.332 48.6624 13.5107 48.4602 13.628C48.2473 13.7453 48.0237 13.7747 47.7895 13.716C47.5553 13.6573 47.3744 13.5267 47.2466 13.324C46.7357 12.524 46.2673 11.8307 45.8415 11.244C45.7031 11.052 45.6498 10.8387 45.6818 10.604C45.7137 10.3693 45.8255 10.1827 46.0171 10.044C46.2194 9.90534 46.4403 9.85467 46.6798 9.892C46.9193 9.92934 47.1082 10.044 47.2466 10.236ZM58.025 16.38C58.323 16.1027 58.4721 15.756 58.4721 15.34C58.4721 14.924 58.323 14.58 58.025 14.308C57.7269 14.036 57.3437 13.9 56.8753 13.9C56.4069 13.9 56.0237 14.036 55.7256 14.308C55.4275 14.58 55.2785 14.924 55.2785 15.34C55.2785 15.756 55.4275 16.1 55.7256 16.372C56.0237 16.644 56.4069 16.78 56.8753 16.78C57.3437 16.78 57.7269 16.6467 58.025 16.38ZM51.558 11.5C51.3238 11.5 51.1242 11.4173 50.9592 11.252C50.7942 11.0867 50.7117 10.8867 50.7117 10.652C50.7117 10.4173 50.7942 10.2147 50.9592 10.044C51.1242 9.87334 51.3238 9.788 51.558 9.788H58.1208C58.2166 9.788 58.2645 9.74534 58.2645 9.66V8.94C58.2645 8.69467 58.355 8.48134 58.5359 8.3C58.7169 8.11867 58.9298 8.028 59.1747 8.028H59.3822C59.6271 8.028 59.84 8.11867 60.021 8.3C60.2019 8.48134 60.2924 8.69467 60.2924 8.94V9.644C60.2924 9.74 60.335 9.788 60.4202 9.788H63.6936C63.9278 9.788 64.1274 9.87334 64.2924 10.044C64.4574 10.2147 64.5399 10.4173 64.5399 10.652C64.5399 10.8867 64.4574 11.0867 64.2924 11.252C64.1274 11.4173 63.9278 11.5 63.6936 11.5H60.4202C60.335 11.5 60.2924 11.548 60.2924 11.644V14.54C60.2924 14.6467 60.3084 14.7373 60.3403 14.812C60.5852 15.452 60.7076 16.124 60.7076 16.828C60.7076 18.3427 60.3137 19.5107 59.526 20.332C58.7382 21.1533 57.4342 21.708 55.6138 21.996C55.369 22.0387 55.1428 21.98 54.9352 21.82C54.7276 21.66 54.5972 21.4573 54.544 21.212V21.148C54.5014 20.9133 54.552 20.6973 54.6957 20.5C54.8394 20.3027 55.0336 20.1827 55.2785 20.14C56.4388 19.9587 57.2585 19.7 57.7376 19.364C58.2166 19.028 58.5253 18.5453 58.6637 17.916C58.6637 17.9053 58.6664 17.8947 58.6717 17.884C58.677 17.8733 58.6797 17.8627 58.6797 17.852V17.836H58.6318C58.0888 18.2733 57.3969 18.492 56.5559 18.492C55.5872 18.492 54.7968 18.196 54.1847 17.604C53.5726 17.012 53.2665 16.2573 53.2665 15.34C53.2665 14.412 53.5779 13.6547 54.2007 13.068C54.8234 12.4813 55.6298 12.188 56.6198 12.188C57.184 12.188 57.7163 12.3107 58.2166 12.556C58.2272 12.556 58.2326 12.5587 58.2326 12.564C58.2326 12.5693 58.2379 12.572 58.2485 12.572C58.2592 12.572 58.2645 12.5667 58.2645 12.556V11.644C58.2645 11.548 58.2166 11.5 58.1208 11.5H51.558ZM73.9929 16.38C74.291 16.1027 74.44 15.756 74.44 15.34C74.44 14.924 74.291 14.58 73.9929 14.308C73.6948 14.036 73.3116 13.9 72.8432 13.9C72.3748 13.9 71.9916 14.036 71.6935 14.308C71.3954 14.58 71.2464 14.924 71.2464 15.34C71.2464 15.756 71.3954 16.1 71.6935 16.372C71.9916 16.644 72.3748 16.78 72.8432 16.78C73.3116 16.78 73.6948 16.6467 73.9929 16.38ZM67.5259 11.5C67.2917 11.5 67.0921 11.4173 66.9271 11.252C66.7621 11.0867 66.6796 10.8867 66.6796 10.652C66.6796 10.4173 66.7621 10.2147 66.9271 10.044C67.0921 9.87334 67.2917 9.788 67.5259 9.788H74.0887C74.1845 9.788 74.2324 9.74534 74.2324 9.66V8.94C74.2324 8.69467 74.3229 8.48134 74.5039 8.3C74.6848 8.11867 74.8977 8.028 75.1426 8.028H75.3502C75.595 8.028 75.8079 8.11867 75.9889 8.3C76.1699 8.48134 76.2603 8.69467 76.2603 8.94V9.644C76.2603 9.74 76.3029 9.788 76.3881 9.788H79.6615C79.8957 9.788 80.0953 9.87334 80.2603 10.044C80.4253 10.2147 80.5078 10.4173 80.5078 10.652C80.5078 10.8867 80.4253 11.0867 80.2603 11.252C80.0953 11.4173 79.8957 11.5 79.6615 11.5H76.3881C76.3029 11.5 76.2603 11.548 76.2603 11.644V14.54C76.2603 14.6467 76.2763 14.7373 76.3082 14.812C76.5531 15.452 76.6755 16.124 76.6755 16.828C76.6755 18.3427 76.2816 19.5107 75.4939 20.332C74.7061 21.1533 73.4021 21.708 71.5817 21.996C71.3369 22.0387 71.1107 21.98 70.9031 21.82C70.6955 21.66 70.5651 21.4573 70.5119 21.212V21.148C70.4693 20.9133 70.5199 20.6973 70.6636 20.5C70.8073 20.3027 71.0016 20.1827 71.2464 20.14C72.4067 19.9587 73.2264 19.7 73.7055 19.364C74.1845 19.028 74.4932 18.5453 74.6316 17.916C74.6316 17.9053 74.6343 17.8947 74.6396 17.884C74.6449 17.8733 74.6476 17.8627 74.6476 17.852V17.836H74.5997C74.0568 18.2733 73.3648 18.492 72.5238 18.492C71.5551 18.492 70.7647 18.196 70.1526 17.604C69.5405 17.012 69.2345 16.2573 69.2345 15.34C69.2345 14.412 69.5458 13.6547 70.1686 13.068C70.7913 12.4813 71.5977 12.188 72.5877 12.188C73.1519 12.188 73.6842 12.3107 74.1845 12.556C74.1952 12.556 74.2005 12.5587 74.2005 12.564C74.2005 12.5693 74.2058 12.572 74.2164 12.572C74.2271 12.572 74.2324 12.5667 74.2324 12.556V11.644C74.2324 11.548 74.1845 11.5 74.0887 11.5H67.5259ZM85.6974 14.028C84.899 14.892 84.4998 15.932 84.4998 17.148C84.4998 17.8627 84.6195 18.4147 84.8591 18.804C85.0986 19.1933 85.3887 19.388 85.7293 19.388C86.1658 19.388 86.6661 19.0893 87.2303 18.492C87.2835 18.428 87.2888 18.3533 87.2463 18.268C87.2143 18.2253 87.193 18.1827 87.1824 18.14C86.6714 16.7107 86.219 15.356 85.8251 14.076C85.8038 13.98 85.7612 13.964 85.6974 14.028ZM89.881 12.412C89.0506 12.412 88.2948 12.5347 87.6135 12.78C87.5284 12.812 87.4964 12.876 87.5177 12.972C87.8158 13.996 88.1777 15.148 88.6035 16.428C88.6248 16.492 88.6621 16.4867 88.7153 16.412C89.354 15.3133 89.9342 14.0333 90.4558 12.572C90.4665 12.54 90.4638 12.508 90.4478 12.476C90.4319 12.444 90.4079 12.428 90.376 12.428C90.2695 12.4173 90.1045 12.412 89.881 12.412ZM85.5217 21.372C84.6807 21.372 83.9808 21.0013 83.422 20.26C82.8631 19.5187 82.5836 18.4813 82.5836 17.148C82.5836 16.092 82.8019 15.1133 83.2383 14.212C83.6748 13.3107 84.2869 12.5507 85.0746 11.932C85.1491 11.8787 85.1811 11.8147 85.1704 11.74C84.9575 10.9507 84.8032 10.3533 84.7074 9.948C84.6541 9.70267 84.6941 9.47334 84.8271 9.26C84.9602 9.04667 85.1491 8.91867 85.394 8.876L85.5377 8.844C85.7825 8.80134 86.0114 8.844 86.2243 8.972C86.4372 9.1 86.5703 9.28667 86.6235 9.532C86.6555 9.68134 86.7087 9.89734 86.7832 10.18C86.8577 10.4627 86.9056 10.6573 86.9269 10.764C86.9482 10.8387 87.0014 10.8653 87.0866 10.844C87.9489 10.5347 88.8803 10.38 89.881 10.38C90.3068 10.38 90.6847 10.4013 91.0147 10.444C91.1105 10.4653 91.169 10.428 91.1903 10.332C91.2755 10.044 91.4032 9.59067 91.5736 8.972C91.6374 8.72667 91.7785 8.53467 91.9967 8.396C92.215 8.25734 92.4465 8.21467 92.6913 8.268L92.8191 8.3C93.0639 8.35334 93.2529 8.484 93.3859 8.692C93.519 8.9 93.5536 9.12134 93.4897 9.356C93.3407 9.97467 93.2076 10.4707 93.0905 10.844C93.0692 10.9293 93.0958 10.988 93.1704 11.02C94.2242 11.4787 95.0493 12.1507 95.6454 13.036C96.2415 13.9213 96.5396 14.94 96.5396 16.092C96.5396 17.6387 96.1723 18.8973 95.4378 19.868C94.7033 20.8387 93.6441 21.4947 92.2602 21.836C92.0154 21.9 91.7838 21.8627 91.5656 21.724C91.3474 21.5853 91.2063 21.388 91.1424 21.132L91.1105 21.02C91.0466 20.796 91.0812 20.58 91.2143 20.372C91.3474 20.164 91.531 20.028 91.7652 19.964C93.5962 19.4413 94.5117 18.1507 94.5117 16.092C94.5117 15.4093 94.3387 14.796 93.9927 14.252C93.6467 13.708 93.1597 13.2813 92.5316 12.972C92.4678 12.94 92.4146 12.9667 92.372 13.052C91.382 15.8147 90.2775 17.892 89.0586 19.284C87.8397 20.676 86.6608 21.372 85.5217 21.372Z" fill="#1391E6"/>
<path fill-rule="evenodd" clip-rule="evenodd" d="M177.97 0.774229C177.604 1.32062 176.411 2.88611 172.859 9.20465C169.405 15.3452 163.619 26.1944 161.509 29.9054C160.406 31.8438 162.046 32.2874 162.605 31.5569C162.851 31.2375 167.778 23.286 172.358 15.4004C175.945 9.2261 179.317 2.93515 180.059 1.42343C180.564 0.395139 178.919 -0.829592 177.97 0.774229Z" fill="#1391E6"/>
<path fill-rule="evenodd" clip-rule="evenodd" d="M179.418 23.575C177.97 24.9781 174.196 28.3602 172.72 30.3586C171.144 32.3118 173.399 32.3555 174.418 31.3578C175.498 30.2998 180.102 25.7136 181.218 24.3527C182.942 22.2518 181.578 21.4304 179.418 23.575Z" fill="#1391E6"/>
</svg>
