<svg width="1280" height="214" viewBox="0 0 1280 214" fill="none" xmlns="http://www.w3.org/2000/svg">
<path d="M640 214C938.613 214 1191.82 173.322 1280 117H0C88.183 173.322 341.388 214 640 214Z" fill="#DFF1FD"/>
<path d="M1160.35 100.16C1161.81 105.172 1167.09 110.439 1172.11 111.894L1175.49 112.877C1180.5 114.311 1180.5 116.69 1175.49 118.124L1172.11 119.107C1167.09 120.561 1161.81 125.829 1160.35 130.841L1159.37 134.241C1157.93 139.253 1155.56 139.253 1154.12 134.241L1153.14 130.841C1151.7 125.829 1146.42 120.561 1141.4 119.107L1138 118.124C1132.99 116.69 1132.99 114.311 1138 112.877L1141.4 111.894C1146.42 110.439 1151.7 105.172 1153.14 100.16L1154.12 96.7595C1155.56 91.7473 1157.93 91.7473 1159.37 96.7595L1160.35 100.16Z" fill="white"/>
<path d="M1220.92 14.6245C1223.89 24.8631 1234.68 35.6729 1244.92 38.6262L1251.87 40.6148C1262.11 43.588 1262.11 48.4318 1251.87 51.3851L1244.92 53.3739C1234.68 56.3273 1223.89 67.137 1220.92 77.3754L1218.93 84.3064C1215.97 94.5646 1211.13 94.5646 1208.18 84.3064L1206.17 77.3754C1203.21 67.137 1192.4 56.3273 1182.16 53.3739L1175.23 51.3851C1164.99 48.4318 1164.99 43.588 1175.23 40.6148L1182.16 38.6262C1192.4 35.6729 1203.21 24.8631 1206.17 14.6245L1208.18 7.69381C1211.13 -2.5646 1215.97 -2.5646 1218.93 7.69381L1220.92 14.6245Z" fill="white"/>
<path d="M63.9371 68.9014C62.0948 75.1336 55.409 81.7134 49.0649 83.5111L44.7582 84.7216C38.4139 86.5313 38.4139 89.4797 44.7582 91.2774L49.0649 92.488C55.409 94.2857 62.0948 100.866 63.9371 107.098L65.1693 111.316C66.9994 117.561 70.0006 117.561 71.8307 111.316L73.0751 107.098C74.9051 100.866 81.6032 94.2857 87.9473 92.488L92.2418 91.2774C98.5861 89.4797 98.5861 86.5313 92.2418 84.7216L87.9473 83.5111C81.6032 81.7134 74.9051 75.1336 73.0751 68.9014L71.8307 64.6827C70.0006 58.4384 66.9994 58.4384 65.1693 64.6827L63.9371 68.9014Z" fill="white"/>
</svg>
