<svg width="290" height="255" viewBox="0 0 290 255" fill="none" xmlns="http://www.w3.org/2000/svg">
<ellipse cx="142.42" cy="110.055" rx="113.523" ry="110.055" fill="#DFF1FD"/>
<ellipse cx="141.435" cy="111.564" rx="61.8124" ry="61.8126" fill="white"/>
<path d="M141.436 176C105.906 176 77 147.094 77 111.564C77 76.034 105.906 47.1293 141.436 47.1293C176.966 47.1293 205.871 76.034 205.871 111.564C205.871 147.094 176.966 176 141.436 176ZM141.436 52.3749C108.799 52.3749 82.2463 78.9272 82.2463 111.564C82.2463 144.201 108.799 170.754 141.436 170.754C174.073 170.754 200.625 144.201 200.625 111.564C200.625 78.9272 174.073 52.3749 141.436 52.3749Z" fill="#1391E6"/>
<ellipse cx="141.437" cy="61.1803" rx="3.77834" ry="3.77835" fill="#1391E6"/>
<ellipse cx="141.437" cy="161.948" rx="3.77834" ry="3.77835" fill="#1391E6"/>
<ellipse cx="191.819" cy="111.564" rx="3.77834" ry="3.77835" fill="#1391E6"/>
<ellipse cx="91.0518" cy="111.564" rx="3.77834" ry="3.77835" fill="#1391E6"/>
<ellipse cx="185.07" cy="86.3722" rx="2.05986" ry="2.05987" fill="#1391E6"/>
<ellipse cx="97.8021" cy="136.756" rx="2.05986" ry="2.05987" fill="#1391E6"/>
<ellipse cx="166.628" cy="67.9305" rx="2.05986" ry="2.05987" fill="#1391E6"/>
<ellipse cx="116.243" cy="155.198" rx="2.05986" ry="2.05987" fill="#1391E6"/>
<ellipse cx="116.243" cy="67.9305" rx="2.05986" ry="2.05987" fill="#1391E6"/>
<ellipse cx="166.628" cy="155.198" rx="2.05986" ry="2.05987" fill="#1391E6"/>
<ellipse cx="97.8021" cy="86.3722" rx="2.05986" ry="2.05987" fill="#1391E6"/>
<ellipse cx="185.07" cy="136.756" rx="2.05986" ry="2.05987" fill="#1391E6"/>
<path d="M141.437 153.65C140.383 153.65 139.511 152.487 139.443 150.991L137.795 114.588C137.721 112.951 138.635 111.565 139.789 111.565H143.084C144.238 111.565 145.152 112.951 145.078 114.588L143.431 150.991C143.363 152.487 142.49 153.65 141.437 153.65Z" fill="#1391E6"/>
<path d="M110.713 119.981C110.408 118.839 110.999 117.668 112.063 117.305L137.989 108.461C139.156 108.063 140.426 108.785 140.761 110.036L141.715 113.608C142.05 114.859 141.309 116.118 140.1 116.356L113.219 121.627C112.115 121.843 111.018 121.123 110.713 119.981Z" fill="#1391E6"/>
<ellipse cx="141.169" cy="111.564" rx="5.06979" ry="5.0698" fill="#1391E6"/>
<ellipse cx="184.222" cy="68.7785" rx="23.7784" ry="23.7785" fill="#1391E6"/>
<path d="M195.125 57.8734C191.597 54.3456 186.773 52.8907 182.174 53.5021C183.242 53.9848 184.247 54.6534 185.123 55.5301C189.024 59.4312 189.024 65.7784 185.122 69.6794C181.222 73.5804 174.875 73.5804 170.974 69.6794C170.097 68.8026 169.428 67.7981 168.946 66.7297C168.335 71.33 169.79 76.1542 173.317 79.6812C179.33 85.6932 189.112 85.6932 195.124 79.6812C201.137 73.6683 201.137 63.8855 195.125 57.8734Z" fill="white"/>
<rect y="193.097" width="290" height="44" rx="22" fill="#1391E6"/>
<path d="M60.4144 210.057C60.121 210.057 59.8677 209.957 59.6544 209.757C59.4544 209.544 59.3544 209.291 59.3544 208.997C59.3544 208.704 59.4544 208.457 59.6544 208.257C59.8677 208.044 60.121 207.937 60.4144 207.937H66.8744C66.9944 207.937 67.0544 207.877 67.0544 207.757V207.537C67.0544 207.231 67.161 206.964 67.3744 206.737C67.601 206.511 67.8677 206.397 68.1744 206.397H68.6544C68.961 206.397 69.221 206.511 69.4344 206.737C69.661 206.964 69.7744 207.231 69.7744 207.537V207.757C69.7744 207.877 69.8344 207.937 69.9544 207.937H76.4144C76.7077 207.937 76.9544 208.044 77.1544 208.257C77.3677 208.457 77.4744 208.704 77.4744 208.997C77.4744 209.291 77.3677 209.544 77.1544 209.757C76.9544 209.957 76.7077 210.057 76.4144 210.057H60.4144ZM59.2144 218.517L59.0144 217.957C58.761 217.264 58.8877 216.631 59.3944 216.057C60.7277 214.524 61.761 212.831 62.4944 210.977C62.6144 210.671 62.8144 210.444 63.0944 210.297C63.3744 210.151 63.6677 210.117 63.9744 210.197L64.1744 210.257C64.481 210.337 64.7077 210.511 64.8544 210.777C65.001 211.044 65.021 211.324 64.9144 211.617C64.5277 212.697 64.0344 213.711 63.4344 214.657C63.381 214.751 63.3544 214.857 63.3544 214.977V223.837C63.3544 224.144 63.241 224.404 63.0144 224.617C62.7877 224.844 62.521 224.957 62.2144 224.957H61.9144C61.6077 224.957 61.341 224.844 61.1144 224.617C60.8877 224.404 60.7744 224.144 60.7744 223.837V218.277C60.7744 218.251 60.761 218.237 60.7344 218.237C60.7077 218.224 60.6877 218.231 60.6744 218.257C60.661 218.284 60.6144 218.357 60.5344 218.477C60.4544 218.584 60.3877 218.664 60.3344 218.717C60.1744 218.917 59.9677 218.997 59.7144 218.957C59.4744 218.904 59.3077 218.757 59.2144 218.517ZM76.8144 222.357C77.1077 222.451 77.321 222.631 77.4544 222.897C77.5877 223.164 77.601 223.437 77.4944 223.717L77.4344 223.837C77.3144 224.144 77.1077 224.364 76.8144 224.497C76.5344 224.644 76.241 224.671 75.9344 224.577C73.8677 223.937 72.101 223.177 70.6344 222.297C70.5277 222.244 70.441 222.244 70.3744 222.297C69.121 223.111 67.581 223.851 65.7544 224.517C65.4344 224.637 65.1144 224.644 64.7944 224.537C64.4744 224.431 64.221 224.237 64.0344 223.957L63.8944 223.777C63.7344 223.551 63.701 223.304 63.7944 223.037C63.8877 222.771 64.0677 222.591 64.3344 222.497C65.7077 222.017 67.0144 221.431 68.2544 220.737C68.3477 220.697 68.3477 220.631 68.2544 220.537C67.3877 219.751 66.6544 218.837 66.0544 217.797C66.001 217.704 65.9277 217.704 65.8344 217.797C65.7677 217.864 65.681 217.971 65.5744 218.117C65.4677 218.251 65.381 218.351 65.3144 218.417C65.1144 218.631 64.8677 218.731 64.5744 218.717C64.281 218.704 64.041 218.577 63.8544 218.337L63.6944 218.117C63.4944 217.851 63.401 217.557 63.4144 217.237C63.441 216.917 63.561 216.631 63.7744 216.377C65.1877 214.697 66.2944 212.891 67.0944 210.957C67.2144 210.664 67.4144 210.444 67.6944 210.297C67.9744 210.151 68.2677 210.117 68.5744 210.197L68.9544 210.297C69.2077 210.364 69.3944 210.511 69.5144 210.737C69.6344 210.964 69.6477 211.197 69.5544 211.437C69.5277 211.517 69.561 211.557 69.6544 211.557H75.7744C76.0544 211.557 76.2877 211.657 76.4744 211.857C76.6744 212.044 76.7744 212.277 76.7744 212.557C76.7744 213.317 76.681 213.971 76.4944 214.517C75.681 216.917 74.401 218.924 72.6544 220.537C72.561 220.631 72.561 220.697 72.6544 220.737C73.8677 221.351 75.2544 221.891 76.8144 222.357ZM71.5744 218.197C71.641 218.131 71.6344 218.057 71.5544 217.977C70.8077 217.351 70.2077 216.864 69.7544 216.517C69.5144 216.331 69.3744 216.084 69.3344 215.777C69.2944 215.457 69.3744 215.177 69.5744 214.937L69.5944 214.877C69.7944 214.637 70.0477 214.504 70.3544 214.477C70.6744 214.437 70.961 214.511 71.2144 214.697C71.9877 215.311 72.561 215.777 72.9344 216.097C73.0144 216.177 73.081 216.164 73.1344 216.057C73.5477 215.324 73.881 214.551 74.1344 213.737C74.161 213.617 74.1277 213.557 74.0344 213.557H68.7944C68.6744 213.557 68.5944 213.611 68.5544 213.717C68.2877 214.264 67.941 214.857 67.5144 215.497C67.461 215.564 67.461 215.657 67.5144 215.777C68.1277 217.071 69.0477 218.211 70.2744 219.197C70.3677 219.264 70.4477 219.264 70.5144 219.197C70.901 218.877 71.2544 218.544 71.5744 218.197ZM90.8344 212.557C90.8344 213.811 90.4344 215.017 89.6344 216.177C88.8477 217.324 87.3144 218.851 85.0344 220.757C85.0077 220.784 84.9944 220.804 84.9944 220.817C84.9944 220.831 85.001 220.837 85.0144 220.837H89.7344C90.041 220.837 90.3077 220.951 90.5344 221.177C90.761 221.391 90.8744 221.651 90.8744 221.957C90.8744 222.264 90.761 222.531 90.5344 222.757C90.3077 222.984 90.041 223.097 89.7344 223.097H82.3944C82.0877 223.097 81.821 222.984 81.5944 222.757C81.381 222.531 81.2744 222.264 81.2744 221.957C81.2744 221.197 81.561 220.591 82.1344 220.137C84.441 218.297 85.9877 216.864 86.7744 215.837C87.561 214.811 87.9544 213.811 87.9544 212.837C87.9544 211.357 87.161 210.617 85.5744 210.617C84.761 210.617 83.7744 210.844 82.6144 211.297C82.361 211.404 82.121 211.384 81.8944 211.237C81.681 211.091 81.5744 210.891 81.5744 210.637V210.297C81.5744 209.951 81.6677 209.637 81.8544 209.357C82.0544 209.064 82.3144 208.871 82.6344 208.777C83.7677 208.457 84.881 208.297 85.9744 208.297C87.5344 208.297 88.7344 208.671 89.5744 209.417C90.4144 210.164 90.8344 211.211 90.8344 212.557ZM102.507 211.677C102.054 210.877 101.361 210.477 100.427 210.477C99.494 210.477 98.8007 210.877 98.3473 211.677C97.894 212.477 97.6673 213.851 97.6673 215.797C97.6673 217.744 97.894 219.117 98.3473 219.917C98.8007 220.717 99.494 221.117 100.427 221.117C101.361 221.117 102.054 220.717 102.507 219.917C102.961 219.117 103.187 217.744 103.187 215.797C103.187 213.851 102.961 212.477 102.507 211.677ZM104.627 221.517C103.707 222.704 102.307 223.297 100.427 223.297C98.5473 223.297 97.1407 222.704 96.2073 221.517C95.2873 220.331 94.8273 218.424 94.8273 215.797C94.8273 213.171 95.2873 211.264 96.2073 210.077C97.1407 208.891 98.5473 208.297 100.427 208.297C102.307 208.297 103.707 208.891 104.627 210.077C105.561 211.264 106.027 213.171 106.027 215.797C106.027 218.424 105.561 220.331 104.627 221.517ZM112.14 215.437C111.834 215.437 111.567 215.324 111.34 215.097C111.114 214.871 111 214.604 111 214.297V213.157C111 212.851 111.114 212.591 111.34 212.377C111.567 212.151 111.834 212.037 112.14 212.037H113.06C113.367 212.037 113.634 212.151 113.86 212.377C114.087 212.591 114.2 212.851 114.2 213.157V214.297C114.2 214.604 114.087 214.871 113.86 215.097C113.634 215.324 113.367 215.437 113.06 215.437H112.14ZM112.14 223.097C111.834 223.097 111.567 222.984 111.34 222.757C111.114 222.531 111 222.264 111 221.957V220.837C111 220.531 111.114 220.264 111.34 220.037C111.567 219.811 111.834 219.697 112.14 219.697H113.06C113.367 219.697 113.634 219.811 113.86 220.037C114.087 220.264 114.2 220.531 114.2 220.837V221.957C114.2 222.264 114.087 222.531 113.86 222.757C113.634 222.984 113.367 223.097 113.06 223.097H112.14ZM121.12 210.757C120.813 210.757 120.546 210.651 120.32 210.437C120.093 210.211 119.98 209.944 119.98 209.637C119.98 209.331 120.093 209.064 120.32 208.837C120.546 208.611 120.813 208.497 121.12 208.497H128.22C128.526 208.497 128.786 208.611 129 208.837C129.226 209.064 129.34 209.331 129.34 209.637C129.34 210.397 129.06 211.024 128.5 211.517L125.26 214.457C125.246 214.471 125.24 214.484 125.24 214.497C125.24 214.511 125.246 214.517 125.26 214.517H125.58C126.806 214.517 127.773 214.871 128.48 215.577C129.186 216.271 129.54 217.244 129.54 218.497C129.54 220.031 129.073 221.217 128.14 222.057C127.206 222.884 125.873 223.297 124.14 223.297C123.113 223.297 122.12 223.177 121.16 222.937C120.84 222.857 120.58 222.677 120.38 222.397C120.18 222.117 120.08 221.804 120.08 221.457V221.237C120.08 220.971 120.186 220.764 120.4 220.617C120.626 220.457 120.873 220.417 121.14 220.497C122.22 220.857 123.18 221.037 124.02 221.037C124.9 221.037 125.58 220.824 126.06 220.397C126.54 219.971 126.78 219.351 126.78 218.537C126.78 217.791 126.506 217.257 125.96 216.937C125.426 216.604 124.48 216.437 123.12 216.437H122.9C122.633 216.437 122.4 216.337 122.2 216.137C122.013 215.937 121.92 215.704 121.92 215.437C121.92 214.771 122.16 214.217 122.64 213.777L125.9 210.817C125.913 210.804 125.92 210.791 125.92 210.777C125.92 210.764 125.913 210.757 125.9 210.757H121.12ZM141.253 211.677C140.799 210.877 140.106 210.477 139.173 210.477C138.239 210.477 137.546 210.877 137.093 211.677C136.639 212.477 136.413 213.851 136.413 215.797C136.413 217.744 136.639 219.117 137.093 219.917C137.546 220.717 138.239 221.117 139.173 221.117C140.106 221.117 140.799 220.717 141.253 219.917C141.706 219.117 141.933 217.744 141.933 215.797C141.933 213.851 141.706 212.477 141.253 211.677ZM143.373 221.517C142.453 222.704 141.053 223.297 139.173 223.297C137.293 223.297 135.886 222.704 134.953 221.517C134.033 220.331 133.573 218.424 133.573 215.797C133.573 213.171 134.033 211.264 134.953 210.077C135.886 208.891 137.293 208.297 139.173 208.297C141.053 208.297 142.453 208.891 143.373 210.077C144.306 211.264 144.773 213.171 144.773 215.797C144.773 218.424 144.306 220.331 143.373 221.517ZM154.966 222.037C155.846 222.037 156.452 221.891 156.786 221.597C157.119 221.291 157.292 220.724 157.306 219.897C157.306 219.791 157.252 219.717 157.146 219.677C156.426 219.397 155.786 219.257 155.226 219.257C154.439 219.257 153.872 219.364 153.526 219.577C153.192 219.791 153.026 220.117 153.026 220.557C153.026 221.024 153.192 221.391 153.526 221.657C153.872 221.911 154.352 222.037 154.966 222.037ZM150.506 211.297C150.199 211.297 149.932 211.184 149.706 210.957C149.479 210.731 149.366 210.464 149.366 210.157C149.366 209.851 149.479 209.591 149.706 209.377C149.932 209.151 150.199 209.037 150.506 209.037H157.126C157.246 209.037 157.306 208.977 157.306 208.857V208.237C157.306 207.931 157.412 207.664 157.626 207.437C157.852 207.211 158.119 207.097 158.426 207.097H158.706C159.012 207.097 159.272 207.211 159.486 207.437C159.712 207.664 159.826 207.931 159.826 208.237V208.857C159.826 208.977 159.886 209.037 160.006 209.037H163.826C164.132 209.037 164.399 209.151 164.626 209.377C164.852 209.591 164.966 209.851 164.966 210.157C164.966 210.464 164.852 210.731 164.626 210.957C164.399 211.184 164.132 211.297 163.826 211.297H160.006C159.886 211.297 159.826 211.351 159.826 211.457V212.857C159.826 212.977 159.886 213.037 160.006 213.037H163.126C163.432 213.037 163.692 213.144 163.906 213.357C164.119 213.571 164.226 213.831 164.226 214.137C164.226 214.444 164.119 214.711 163.906 214.937C163.692 215.151 163.432 215.257 163.126 215.257H160.006C159.886 215.257 159.826 215.317 159.826 215.437V218.317C159.826 218.424 159.872 218.511 159.966 218.577C161.166 219.271 162.412 220.177 163.706 221.297C163.946 221.497 164.072 221.757 164.086 222.077C164.099 222.397 163.999 222.671 163.786 222.897L163.726 222.957C163.512 223.184 163.246 223.304 162.926 223.317C162.619 223.344 162.352 223.251 162.126 223.037C161.286 222.304 160.532 221.697 159.866 221.217C159.772 221.151 159.712 221.171 159.686 221.277C159.472 222.344 158.986 223.111 158.226 223.577C157.479 224.057 156.392 224.297 154.966 224.297C153.552 224.297 152.439 223.964 151.626 223.297C150.826 222.644 150.426 221.731 150.426 220.557C150.426 219.504 150.792 218.657 151.526 218.017C152.272 217.364 153.419 217.037 154.966 217.037C155.726 217.037 156.452 217.137 157.146 217.337C157.252 217.364 157.306 217.324 157.306 217.217V215.437C157.306 215.317 157.246 215.257 157.126 215.257H151.206C150.899 215.257 150.639 215.151 150.426 214.937C150.212 214.724 150.106 214.464 150.106 214.157C150.106 213.851 150.212 213.591 150.426 213.377C150.639 213.151 150.899 213.037 151.206 213.037H157.126C157.246 213.037 157.306 212.977 157.306 212.857V211.477C157.306 211.357 157.246 211.297 157.126 211.297H150.506ZM182.606 213.717C182.886 213.571 183.179 213.544 183.486 213.637C183.792 213.731 184.019 213.917 184.166 214.197C184.312 214.464 184.532 214.877 184.826 215.437C184.959 215.717 184.972 216.004 184.866 216.297C184.759 216.591 184.566 216.804 184.286 216.937C183.992 217.071 183.699 217.084 183.406 216.977C183.112 216.871 182.892 216.677 182.746 216.397C182.679 216.277 182.466 215.884 182.106 215.217C181.959 214.951 181.932 214.671 182.026 214.377C182.119 214.084 182.306 213.864 182.586 213.717H182.606ZM187.366 213.477C187.806 214.317 188.032 214.751 188.046 214.777C188.192 215.057 188.212 215.344 188.106 215.637C188.012 215.931 187.826 216.144 187.546 216.277L187.486 216.317C187.206 216.451 186.912 216.471 186.606 216.377C186.312 216.271 186.092 216.077 185.946 215.797C185.879 215.664 185.772 215.457 185.626 215.177C185.479 214.897 185.366 214.691 185.286 214.557C185.139 214.291 185.106 214.004 185.186 213.697C185.279 213.391 185.466 213.171 185.746 213.037L185.806 213.017C186.086 212.871 186.379 212.844 186.686 212.937C186.992 213.017 187.219 213.197 187.366 213.477ZM171.266 211.297C170.959 211.297 170.692 211.191 170.466 210.977C170.252 210.751 170.146 210.484 170.146 210.177V210.037C170.146 209.731 170.259 209.464 170.486 209.237C170.712 209.011 170.979 208.897 171.286 208.897C175.846 208.884 180.559 208.771 185.426 208.557C185.732 208.544 186.006 208.644 186.246 208.857C186.486 209.071 186.612 209.331 186.626 209.637V209.777C186.639 210.097 186.539 210.377 186.326 210.617C186.126 210.844 185.866 210.977 185.546 211.017C182.706 211.377 180.572 212.117 179.146 213.237C177.732 214.357 177.026 215.724 177.026 217.337C177.026 218.751 177.472 219.857 178.366 220.657C179.272 221.457 180.472 221.857 181.966 221.857C182.419 221.857 182.859 221.831 183.286 221.777C183.592 221.751 183.866 221.831 184.106 222.017C184.359 222.204 184.506 222.451 184.546 222.757L184.566 222.937C184.606 223.244 184.532 223.524 184.346 223.777C184.159 224.044 183.912 224.197 183.606 224.237C182.966 224.304 182.372 224.337 181.826 224.337C179.492 224.337 177.632 223.731 176.246 222.517C174.859 221.304 174.166 219.664 174.166 217.597C174.166 216.291 174.539 215.084 175.286 213.977C176.046 212.857 177.126 211.924 178.526 211.177C178.539 211.177 178.546 211.164 178.546 211.137H178.526C176.459 211.217 174.039 211.271 171.266 211.297ZM192.686 214.297C192.379 214.297 192.112 214.184 191.886 213.957C191.659 213.731 191.546 213.464 191.546 213.157V209.957C191.546 209.651 191.659 209.391 191.886 209.177C192.112 208.951 192.379 208.837 192.686 208.837H194.146C194.266 208.837 194.299 208.784 194.246 208.677C194.219 208.624 194.172 208.544 194.106 208.437C194.052 208.331 194.012 208.251 193.986 208.197C193.839 207.944 193.812 207.677 193.906 207.397C194.012 207.104 194.206 206.911 194.486 206.817L194.666 206.737C194.972 206.631 195.279 206.631 195.586 206.737C195.892 206.844 196.126 207.044 196.286 207.337C196.606 207.924 196.839 208.371 196.986 208.677C197.026 208.784 197.112 208.837 197.246 208.837H198.946C199.052 208.837 199.079 208.784 199.026 208.677C198.866 208.357 198.746 208.124 198.666 207.977C198.519 207.724 198.499 207.457 198.606 207.177C198.712 206.897 198.906 206.711 199.186 206.617L199.366 206.537C199.672 206.431 199.979 206.431 200.286 206.537C200.592 206.644 200.826 206.844 200.986 207.137C201.052 207.244 201.312 207.757 201.766 208.677C201.806 208.784 201.886 208.837 202.006 208.837H203.526C203.632 208.837 203.719 208.791 203.786 208.697C204.132 208.084 204.386 207.624 204.546 207.317C204.692 207.024 204.912 206.804 205.206 206.657C205.512 206.511 205.826 206.477 206.146 206.557L206.326 206.597C206.606 206.664 206.806 206.831 206.926 207.097C207.059 207.351 207.059 207.611 206.926 207.877C206.872 207.971 206.799 208.104 206.706 208.277C206.612 208.451 206.546 208.584 206.506 208.677C206.479 208.704 206.472 208.737 206.486 208.777C206.512 208.817 206.546 208.837 206.586 208.837H208.046C208.352 208.837 208.619 208.951 208.846 209.177C209.072 209.391 209.186 209.651 209.186 209.957V213.157C209.186 213.464 209.072 213.731 208.846 213.957C208.619 214.184 208.352 214.297 208.046 214.297H207.686C207.246 214.297 206.912 214.097 206.686 213.697C206.672 213.684 206.659 213.677 206.646 213.677C206.632 213.677 206.626 213.691 206.626 213.717V215.977C206.626 216.284 206.512 216.551 206.286 216.777C206.059 216.991 205.792 217.097 205.486 217.097H201.486C201.366 217.097 201.292 217.157 201.266 217.277C201.239 217.344 201.199 217.464 201.146 217.637C201.106 217.811 201.072 217.944 201.046 218.037C201.019 218.144 201.059 218.197 201.166 218.197H206.626C206.932 218.197 207.199 218.311 207.426 218.537C207.652 218.764 207.766 219.031 207.766 219.337V223.737C207.766 224.044 207.652 224.304 207.426 224.517C207.199 224.744 206.932 224.857 206.626 224.857H205.906C205.679 224.857 205.486 224.777 205.326 224.617C205.179 224.457 205.106 224.271 205.106 224.057C205.106 223.977 205.066 223.937 204.986 223.937H195.746C195.666 223.937 195.626 223.977 195.626 224.057C195.626 224.271 195.546 224.457 195.386 224.617C195.239 224.777 195.052 224.857 194.826 224.857H194.106C193.799 224.857 193.532 224.744 193.306 224.517C193.079 224.304 192.966 224.044 192.966 223.737V219.337C192.966 219.031 193.079 218.764 193.306 218.537C193.532 218.311 193.799 218.197 194.106 218.197H197.986C198.092 218.197 198.166 218.144 198.206 218.037C198.259 217.877 198.339 217.624 198.446 217.277C198.472 217.157 198.439 217.097 198.346 217.097H196.786H195.246C194.939 217.097 194.672 216.991 194.446 216.777C194.232 216.551 194.126 216.284 194.126 215.977V213.717C194.126 213.691 194.112 213.677 194.086 213.677C194.072 213.677 194.059 213.684 194.046 213.697C193.819 214.097 193.486 214.297 193.046 214.297H192.686ZM204.926 220.217H195.806C195.686 220.217 195.626 220.271 195.626 220.377V221.877C195.626 221.997 195.686 222.057 195.806 222.057H204.926C205.046 222.057 205.106 221.997 205.106 221.877V220.377C205.106 220.271 205.046 220.217 204.926 220.217ZM203.946 215.117V213.897C203.946 213.791 203.892 213.737 203.786 213.737H196.946C196.839 213.737 196.786 213.791 196.786 213.897V215.117C196.786 215.237 196.839 215.297 196.946 215.297H203.786C203.892 215.297 203.946 215.237 203.946 215.117ZM194.346 210.877C194.239 210.877 194.186 210.931 194.186 211.037V212.257C194.186 212.284 194.192 212.297 194.206 212.297C194.219 212.297 194.232 212.291 194.246 212.277C194.472 211.877 194.806 211.677 195.246 211.677H205.486C205.926 211.677 206.259 211.877 206.486 212.277C206.499 212.291 206.512 212.297 206.526 212.297C206.539 212.297 206.546 212.284 206.546 212.257V211.037C206.546 210.931 206.492 210.877 206.386 210.877H194.346ZM213.226 223.797L213.186 223.717C213.052 223.464 213.039 223.211 213.146 222.957C213.266 222.691 213.466 222.524 213.746 222.457C215.826 221.911 217.539 221.351 218.886 220.777C218.899 220.764 218.906 220.751 218.906 220.737C218.906 220.724 218.892 220.717 218.866 220.717H214.526C214.259 220.717 214.026 220.617 213.826 220.417C213.626 220.217 213.526 219.984 213.526 219.717C213.526 219.451 213.626 219.224 213.826 219.037C214.026 218.837 214.259 218.737 214.526 218.737H220.586C220.706 218.737 220.766 218.677 220.766 218.557V218.037C220.766 217.931 220.706 217.877 220.586 217.877H215.286C215.032 217.877 214.819 217.791 214.646 217.617C214.472 217.444 214.386 217.231 214.386 216.977C214.386 216.724 214.472 216.511 214.646 216.337C214.819 216.164 215.032 216.077 215.286 216.077H220.586C220.706 216.077 220.766 216.017 220.766 215.897V215.377C220.766 215.271 220.706 215.217 220.586 215.217H214.646C214.379 215.217 214.159 215.131 213.986 214.957C213.812 214.784 213.726 214.564 213.726 214.297C213.726 214.031 213.812 213.811 213.986 213.637C214.172 213.451 214.392 213.357 214.646 213.357H217.366C217.459 213.357 217.492 213.304 217.466 213.197C217.292 212.731 217.079 212.197 216.826 211.597C216.786 211.491 216.712 211.437 216.606 211.437H214.386C214.092 211.437 213.839 211.337 213.626 211.137C213.426 210.937 213.326 210.691 213.326 210.397C213.326 210.104 213.426 209.857 213.626 209.657C213.839 209.444 214.092 209.337 214.386 209.337H215.206C215.312 209.337 215.339 209.277 215.286 209.157C215.232 209.051 215.139 208.891 215.006 208.677C214.859 208.424 214.832 208.164 214.926 207.897C215.032 207.617 215.226 207.431 215.506 207.337L215.546 207.317C215.852 207.211 216.166 207.211 216.486 207.317C216.806 207.424 217.046 207.624 217.206 207.917L217.866 209.177C217.906 209.284 217.992 209.337 218.126 209.337H218.846C218.966 209.337 219.026 209.277 219.026 209.157V207.837C219.026 207.531 219.139 207.264 219.366 207.037C219.592 206.811 219.859 206.697 220.166 206.697H220.246C220.552 206.697 220.819 206.811 221.046 207.037C221.272 207.264 221.386 207.531 221.386 207.837V209.157C221.386 209.277 221.439 209.337 221.546 209.337H222.706C222.812 209.337 222.866 209.277 222.866 209.157V207.837C222.866 207.531 222.979 207.264 223.206 207.037C223.432 206.811 223.699 206.697 224.006 206.697H224.086C224.392 206.697 224.659 206.811 224.886 207.037C225.112 207.264 225.226 207.531 225.226 207.837V209.157C225.226 209.277 225.286 209.337 225.406 209.337H226.246C226.339 209.337 226.419 209.284 226.486 209.177C226.526 209.111 226.626 208.937 226.786 208.657C226.946 208.377 227.066 208.157 227.146 207.997C227.292 207.704 227.512 207.484 227.806 207.337C228.112 207.191 228.419 207.164 228.726 207.257C229.006 207.337 229.206 207.511 229.326 207.777C229.459 208.044 229.459 208.311 229.326 208.577C229.152 208.924 229.046 209.131 229.006 209.197C228.992 209.224 228.992 209.257 229.006 209.297C229.032 209.324 229.066 209.337 229.106 209.337H229.866C230.159 209.337 230.406 209.444 230.606 209.657C230.819 209.857 230.926 210.104 230.926 210.397C230.926 210.691 230.819 210.937 230.606 211.137C230.406 211.337 230.159 211.437 229.866 211.437H227.746C227.652 211.437 227.579 211.497 227.526 211.617C227.366 212.044 227.139 212.577 226.846 213.217C226.832 213.244 226.832 213.277 226.846 213.317C226.872 213.344 226.906 213.357 226.946 213.357H229.606C229.859 213.357 230.072 213.451 230.246 213.637C230.432 213.811 230.526 214.031 230.526 214.297C230.526 214.564 230.439 214.784 230.266 214.957C230.092 215.131 229.872 215.217 229.606 215.217H223.666C223.546 215.217 223.486 215.271 223.486 215.377V215.897C223.486 216.017 223.546 216.077 223.666 216.077H228.966C229.219 216.077 229.432 216.164 229.606 216.337C229.779 216.511 229.866 216.724 229.866 216.977C229.866 217.231 229.779 217.444 229.606 217.617C229.432 217.791 229.219 217.877 228.966 217.877H223.666C223.546 217.877 223.486 217.931 223.486 218.037V218.557C223.486 218.677 223.546 218.737 223.666 218.737H229.726C229.992 218.737 230.226 218.837 230.426 219.037C230.626 219.224 230.726 219.451 230.726 219.717C230.726 219.984 230.626 220.217 230.426 220.417C230.226 220.617 229.992 220.717 229.726 220.717H225.386C225.372 220.731 225.372 220.751 225.386 220.777C226.786 221.364 228.499 221.924 230.526 222.457C230.792 222.524 230.979 222.691 231.086 222.957C231.206 223.211 231.199 223.464 231.066 223.717L231.026 223.797C230.866 224.091 230.626 224.297 230.306 224.417C229.999 224.551 229.692 224.564 229.386 224.457C227.146 223.737 225.232 222.924 223.646 222.017C223.619 221.991 223.586 221.991 223.546 222.017C223.506 222.031 223.486 222.057 223.486 222.097V223.837C223.486 224.144 223.372 224.404 223.146 224.617C222.932 224.844 222.672 224.957 222.366 224.957H221.886C221.579 224.957 221.312 224.844 221.086 224.617C220.872 224.404 220.766 224.144 220.766 223.837V222.097C220.766 222.057 220.746 222.031 220.706 222.017C220.666 221.991 220.632 221.991 220.606 222.017C219.032 222.911 217.112 223.724 214.846 224.457C214.539 224.551 214.232 224.537 213.926 224.417C213.619 224.297 213.386 224.091 213.226 223.797ZM220.386 213.357H223.886C224.019 213.357 224.106 213.304 224.146 213.197C224.372 212.757 224.606 212.224 224.846 211.597C224.872 211.504 224.839 211.457 224.746 211.457H219.646C219.526 211.457 219.492 211.511 219.546 211.617C219.692 211.964 219.899 212.497 220.166 213.217C220.206 213.311 220.279 213.357 220.386 213.357Z" fill="white"/>
<path d="M146.824 250.965C146.115 252.534 143.887 252.534 143.178 250.965L137.339 238.035C136.741 236.711 137.709 235.212 139.161 235.212L150.841 235.212C152.293 235.212 153.261 236.711 152.663 238.035L146.824 250.965Z" fill="#1391E6"/>
</svg>
