<svg width="268" height="81" viewBox="0 0 268 81" fill="none" xmlns="http://www.w3.org/2000/svg">
<ellipse cx="2.53838" cy="75" rx="0.998337" ry="1" fill="white"/>
<ellipse cx="8.929" cy="75" rx="0.998337" ry="1" fill="white"/>
<ellipse cx="15.3186" cy="75" rx="0.998337" ry="1" fill="white"/>
<ellipse cx="21.7093" cy="75" rx="0.998337" ry="1" fill="white"/>
<ellipse cx="28.0999" cy="75" rx="0.998337" ry="1" fill="white"/>
<ellipse cx="34.4905" cy="75" rx="0.998337" ry="1" fill="white"/>
<ellipse cx="40.8802" cy="75" rx="0.998337" ry="1" fill="white"/>
<ellipse cx="47.2708" cy="75" rx="0.998337" ry="1" fill="white"/>
<ellipse cx="53.6614" cy="75" rx="0.998337" ry="1" fill="white"/>
<ellipse cx="60.0511" cy="75" rx="0.998337" ry="1" fill="white"/>
<ellipse cx="66.4417" cy="75" rx="0.998337" ry="1" fill="white"/>
<ellipse cx="72.8323" cy="75" rx="0.998337" ry="1" fill="white"/>
<ellipse cx="79.222" cy="75" rx="0.998337" ry="1" fill="white"/>
<ellipse cx="85.6126" cy="75" rx="0.998337" ry="1" fill="white"/>
<ellipse cx="92.0032" cy="75" rx="0.998337" ry="1" fill="white"/>
<ellipse cx="98.3929" cy="75" rx="0.998337" ry="1" fill="white"/>
<ellipse cx="104.783" cy="75" rx="0.998337" ry="1" fill="white"/>
<ellipse cx="111.174" cy="75" rx="0.998337" ry="1" fill="white"/>
<ellipse cx="117.564" cy="75" rx="0.998337" ry="1" fill="white"/>
<ellipse cx="123.954" cy="75" rx="0.998337" ry="1" fill="white"/>
<ellipse cx="130.345" cy="75" rx="0.998337" ry="1" fill="white"/>
<ellipse cx="136.736" cy="75" rx="0.998337" ry="1" fill="white"/>
<ellipse cx="143.125" cy="75" rx="0.998337" ry="1" fill="white"/>
<ellipse cx="149.516" cy="75" rx="0.998337" ry="1" fill="white"/>
<ellipse cx="155.907" cy="75" rx="0.998337" ry="1" fill="white"/>
<ellipse cx="162.296" cy="75" rx="0.998337" ry="1" fill="white"/>
<ellipse cx="168.687" cy="75" rx="0.998337" ry="1" fill="white"/>
<ellipse cx="175.077" cy="75" rx="0.998337" ry="1" fill="white"/>
<ellipse cx="181.467" cy="75" rx="0.998337" ry="1" fill="white"/>
<ellipse cx="187.858" cy="75" rx="0.998337" ry="1" fill="white"/>
<ellipse cx="194.248" cy="75" rx="0.998337" ry="1" fill="white"/>
<ellipse cx="200.638" cy="75" rx="0.998337" ry="1" fill="white"/>
<ellipse cx="207.029" cy="75" rx="0.998337" ry="1" fill="white"/>
<ellipse cx="213.419" cy="75" rx="0.998337" ry="1" fill="white"/>
<ellipse cx="219.809" cy="75" rx="0.998337" ry="1" fill="white"/>
<ellipse cx="226.2" cy="75" rx="0.998337" ry="1" fill="white"/>
<ellipse cx="232.59" cy="75" rx="0.998337" ry="1" fill="white"/>
<ellipse cx="238.98" cy="75" rx="0.998337" ry="1" fill="white"/>
<ellipse cx="245.37" cy="75" rx="0.998337" ry="1" fill="white"/>
<ellipse cx="251.761" cy="75" rx="0.998337" ry="1" fill="white"/>
<ellipse cx="258.152" cy="75" rx="0.998337" ry="1" fill="white"/>
<ellipse cx="264.541" cy="75" rx="0.998337" ry="1" fill="white"/>
<g filter="url(#filter0_d_25324_7415)">
<path d="M4.94004 53.8C4.63337 53.8 4.36671 53.6867 4.14004 53.46C3.91337 53.2333 3.80004 52.9667 3.80004 52.66V52.6C3.80004 52.2933 3.91337 52.0267 4.14004 51.8C4.36671 51.5733 4.63337 51.46 4.94004 51.46H18.88C19.1867 51.46 19.4467 51.5733 19.66 51.8C19.8867 52.0267 20 52.2933 20 52.6V52.66C20 53.54 19.8734 54.2733 19.62 54.86C18.7667 56.8467 17.4267 58.4867 15.6 59.78C15.3334 59.9667 15.04 60.0333 14.72 59.98C14.4 59.9267 14.14 59.7667 13.94 59.5L13.76 59.24C13.5867 59 13.52 58.7333 13.56 58.44C13.6134 58.1467 13.7667 57.9067 14.02 57.72C15.5134 56.6533 16.5334 55.4 17.08 53.96C17.1334 53.8533 17.1 53.8 16.98 53.8H4.94004ZM10.14 55.4H10.54C10.8467 55.4 11.1134 55.5133 11.34 55.74C11.5667 55.9667 11.6734 56.2333 11.66 56.54C11.5934 59.3 11.2267 61.4133 10.56 62.88C9.89337 64.3333 8.76004 65.5133 7.16004 66.42C6.88004 66.58 6.58004 66.6133 6.26004 66.52C5.95337 66.44 5.71337 66.26 5.54004 65.98L5.40004 65.72C5.24004 65.4667 5.19337 65.2 5.26004 64.92C5.34004 64.6267 5.50671 64.4 5.76004 64.24C6.90671 63.5467 7.72004 62.64 8.20004 61.52C8.68004 60.3867 8.94671 58.72 9.00004 56.52C9.01337 56.2133 9.12671 55.9533 9.34004 55.74C9.56671 55.5133 9.83337 55.4 10.14 55.4ZM38.68 54.44C39 54.4533 39.2667 54.58 39.48 54.82C39.6934 55.06 39.7934 55.34 39.78 55.66C39.62 59.1933 38.8267 61.8 37.4 63.48C35.9867 65.1467 33.7134 66.22 30.58 66.7C30.26 66.7533 29.9667 66.68 29.7 66.48C29.4467 66.2933 29.2867 66.04 29.22 65.72C29.1667 65.4267 29.2267 65.1533 29.4 64.9C29.5734 64.6467 29.8134 64.4933 30.12 64.44C32.6934 64 34.5134 63.1333 35.58 61.84C36.6467 60.5467 37.2467 58.44 37.38 55.52C37.3934 55.2133 37.5134 54.9533 37.74 54.74C37.9667 54.5267 38.2334 54.4267 38.54 54.44H38.68ZM27.68 59.58C27.36 58.2333 27.0934 57.1867 26.88 56.44C26.8 56.1333 26.84 55.8467 27 55.58C27.16 55.3133 27.3867 55.1467 27.68 55.08L27.72 55.06C28.0267 54.9933 28.3134 55.04 28.58 55.2C28.86 55.3467 29.0467 55.5733 29.14 55.88C29.4067 56.8133 29.6867 57.8667 29.98 59.04C30.06 59.3333 30.02 59.62 29.86 59.9C29.7 60.1667 29.4667 60.3333 29.16 60.4L29.06 60.42C28.7534 60.4867 28.46 60.44 28.18 60.28C27.9134 60.1067 27.7467 59.8733 27.68 59.58ZM33.42 60.04C33.1134 60.1067 32.8267 60.06 32.56 59.9C32.2934 59.74 32.12 59.5067 32.04 59.2C31.92 58.76 31.6334 57.6667 31.18 55.92C31.1 55.6133 31.14 55.3267 31.3 55.06C31.46 54.7933 31.6867 54.6267 31.98 54.56L32.08 54.54C32.3867 54.4733 32.68 54.52 32.96 54.68C33.24 54.84 33.42 55.0733 33.5 55.38C33.8734 56.7667 34.16 57.86 34.36 58.66C34.44 58.9533 34.3934 59.24 34.22 59.52C34.06 59.7867 33.8267 59.9533 33.52 60.02L33.42 60.04ZM50.4 67.06C50.0934 67.06 49.8267 66.9467 49.6 66.72C49.3867 66.5067 49.28 66.2467 49.28 65.94V51.66C49.28 51.3533 49.3867 51.0933 49.6 50.88C49.8267 50.6533 50.0934 50.54 50.4 50.54H50.94C51.2467 50.54 51.5134 50.6533 51.74 50.88C51.9667 51.0933 52.08 51.3533 52.08 51.66V55.98C52.08 56.1 52.1267 56.1667 52.22 56.18C55.3934 56.9533 58.62 57.92 61.9 59.08C62.1934 59.1867 62.4067 59.38 62.54 59.66C62.6867 59.94 62.7067 60.2333 62.6 60.54L62.48 60.92C62.3734 61.2133 62.18 61.4267 61.9 61.56C61.6334 61.6933 61.3534 61.7133 61.06 61.62C57.9 60.5133 54.9534 59.6133 52.22 58.92C52.18 58.9067 52.1467 58.92 52.12 58.96C52.0934 58.9867 52.08 59.02 52.08 59.06V65.94C52.08 66.2467 51.9667 66.5067 51.74 66.72C51.5134 66.9467 51.2467 67.06 50.94 67.06H50.4ZM74.56 64.52C74.9467 64.52 75.1734 64.48 75.24 64.4C75.3067 64.3067 75.34 64.0333 75.34 63.58V55.24C75.34 55.12 75.28 55.06 75.16 55.06H69.36C69.0534 55.06 68.7867 54.9533 68.56 54.74C68.3467 54.5133 68.24 54.2467 68.24 53.94V53.8C68.24 53.4933 68.3467 53.2267 68.56 53C68.7867 52.7733 69.0534 52.66 69.36 52.66H75.16C75.28 52.66 75.34 52.6067 75.34 52.5V51.06C75.34 50.7533 75.4467 50.4933 75.66 50.28C75.8867 50.0533 76.1534 49.94 76.46 49.94H76.96C77.2667 49.94 77.5334 50.0533 77.76 50.28C77.9867 50.4933 78.1 50.7533 78.1 51.06V52.5C78.1 52.6067 78.16 52.66 78.28 52.66H83.64C83.9467 52.66 84.2067 52.7733 84.42 53C84.6467 53.2267 84.76 53.4933 84.76 53.8V53.94C84.76 54.2467 84.6467 54.5133 84.42 54.74C84.2067 54.9533 83.9467 55.06 83.64 55.06H78.28C78.16 55.06 78.1 55.12 78.1 55.24V63.94C78.1 65.2733 77.9334 66.1067 77.6 66.44C77.28 66.7733 76.4667 66.94 75.16 66.94C74.5867 66.94 73.8867 66.9 73.06 66.82C72.7534 66.7933 72.5 66.6533 72.3 66.4C72.1134 66.1467 72.0334 65.8667 72.06 65.56V65.46C72.0867 65.1533 72.22 64.9 72.46 64.7C72.7134 64.5 72.9934 64.4133 73.3 64.44C73.9667 64.4933 74.3867 64.52 74.56 64.52ZM68.62 64.48C68.34 64.36 68.1467 64.1533 68.04 63.86C67.9334 63.5667 67.9467 63.28 68.08 63C68.8534 61.3867 69.5867 59.7467 70.28 58.08C70.4 57.7867 70.6067 57.5733 70.9 57.44C71.1934 57.3067 71.4867 57.2867 71.78 57.38L72.08 57.48C72.3734 57.5733 72.5867 57.76 72.72 58.04C72.8534 58.3067 72.86 58.58 72.74 58.86C72.1134 60.42 71.3534 62.1333 70.46 64C70.3134 64.2933 70.0934 64.5 69.8 64.62C69.52 64.7267 69.2267 64.72 68.92 64.6L68.62 64.48ZM81.16 57.32C81.4534 57.2 81.7467 57.2 82.04 57.32C82.3467 57.4267 82.5667 57.6267 82.7 57.92C83.4467 59.52 84.2134 61.2533 85 63.12C85.12 63.4133 85.1134 63.7067 84.98 64C84.86 64.28 84.6534 64.4733 84.36 64.58L84.04 64.7C83.7467 64.8067 83.4534 64.8 83.16 64.68C82.88 64.56 82.68 64.3533 82.56 64.06C82.08 62.8867 81.3267 61.1533 80.3 58.86C80.18 58.58 80.18 58.3 80.3 58.02C80.42 57.7267 80.62 57.5267 80.9 57.42L81.16 57.32ZM90.8 60.14C90.4934 60.14 90.2267 60.0267 90 59.8C89.7867 59.5733 89.68 59.3067 89.68 59V58.6C89.68 58.2933 89.7867 58.0267 90 57.8C90.2267 57.5733 90.4934 57.46 90.8 57.46H105.08C105.387 57.46 105.647 57.5733 105.86 57.8C106.087 58.0267 106.2 58.2933 106.2 58.6V59C106.2 59.3067 106.087 59.5733 105.86 59.8C105.647 60.0267 105.387 60.14 105.08 60.14H90.8ZM112.12 66.16C111.813 66.1733 111.54 66.0733 111.3 65.86C111.06 65.6333 110.933 65.3667 110.92 65.06V64.94C110.907 64.6333 111.007 64.3667 111.22 64.14C111.447 63.9 111.713 63.7667 112.02 63.74C112.1 63.7267 112.22 63.72 112.38 63.72C112.54 63.72 112.66 63.7133 112.74 63.7C112.847 63.7 112.92 63.6467 112.96 63.54V63.52C114.32 59.88 115.52 55.9533 116.56 51.74C116.64 51.4333 116.813 51.1933 117.08 51.02C117.347 50.8467 117.633 50.7933 117.94 50.86L118.44 50.94C118.747 51.0067 118.98 51.1733 119.14 51.44C119.313 51.6933 119.367 51.9667 119.3 52.26C118.38 56.0867 117.273 59.7733 115.98 63.32C115.953 63.4267 115.993 63.48 116.1 63.48C118.647 63.2667 121.273 62.9667 123.98 62.58C124.1 62.5533 124.133 62.4867 124.08 62.38C123.36 60.8333 122.827 59.7 122.48 58.98C122.333 58.7 122.307 58.4133 122.4 58.12C122.507 57.8267 122.707 57.6133 123 57.48L123.38 57.32C123.673 57.1867 123.967 57.1733 124.26 57.28C124.553 57.3867 124.773 57.58 124.92 57.86C125.907 59.9133 126.967 62.2 128.1 64.72C128.233 65 128.24 65.28 128.12 65.56C128 65.84 127.793 66.04 127.5 66.16L127.08 66.34C126.787 66.46 126.493 66.46 126.2 66.34C125.92 66.22 125.713 66.0133 125.58 65.72C125.567 65.7067 125.52 65.6133 125.44 65.44C125.36 65.2533 125.3 65.1133 125.26 65.02C125.22 64.9 125.147 64.8533 125.04 64.88C120.533 65.5467 116.227 65.9733 112.12 66.16ZM143.92 62.6V62.52C143.92 62.4 143.867 62.32 143.76 62.28C143.053 61.9333 142.393 61.76 141.78 61.76C141.047 61.76 140.493 61.9 140.12 62.18C139.76 62.46 139.58 62.8467 139.58 63.34C139.58 63.86 139.773 64.2667 140.16 64.56C140.547 64.8533 141.087 65 141.78 65C142.593 65 143.153 64.8333 143.46 64.5C143.767 64.1667 143.92 63.5333 143.92 62.6ZM149.06 52.72C149.38 52.7467 149.633 52.8867 149.82 53.14C150.02 53.3933 150.1 53.68 150.06 54C150.02 54.3067 149.873 54.5533 149.62 54.74C149.367 54.9267 149.087 55 148.78 54.96C148.033 54.8667 147.313 54.8133 146.62 54.8C146.513 54.8 146.46 54.86 146.46 54.98V61.04C146.46 61.1467 146.5 61.2333 146.58 61.3C147.487 61.86 148.447 62.58 149.46 63.46C149.7 63.66 149.827 63.92 149.84 64.24C149.853 64.56 149.753 64.8333 149.54 65.06L149.48 65.12C149.267 65.3467 149.007 65.4733 148.7 65.5C148.393 65.5267 148.12 65.44 147.88 65.24C147.68 65.0667 147.407 64.8467 147.06 64.58C146.713 64.3 146.513 64.14 146.46 64.1C146.38 64.0467 146.327 64.06 146.3 64.14C146.087 65.1667 145.607 65.92 144.86 66.4C144.127 66.8933 143.1 67.14 141.78 67.14C140.3 67.14 139.14 66.8 138.3 66.12C137.473 65.44 137.06 64.5133 137.06 63.34C137.06 62.1933 137.467 61.2867 138.28 60.62C139.107 59.94 140.273 59.6 141.78 59.6C142.367 59.6 143.033 59.7133 143.78 59.94C143.873 59.9667 143.92 59.9267 143.92 59.82V53.6C143.92 53.2933 144.027 53.0267 144.24 52.8C144.467 52.5733 144.733 52.4667 145.04 52.48C146.747 52.5333 148.087 52.6133 149.06 52.72ZM133.24 64.34C132.947 64.2467 132.74 64.06 132.62 63.78C132.5 63.5 132.493 63.2133 132.6 62.92C133.613 60.3467 134.533 57.6733 135.36 54.9C135.387 54.7933 135.347 54.74 135.24 54.74H133.76C133.453 54.74 133.187 54.6267 132.96 54.4C132.747 54.1733 132.64 53.9067 132.64 53.6C132.64 53.2933 132.747 53.0267 132.96 52.8C133.187 52.5733 133.453 52.46 133.76 52.46H135.88C136 52.46 136.073 52.4067 136.1 52.3C136.153 52.1267 136.22 51.8667 136.3 51.52C136.38 51.1733 136.447 50.9133 136.5 50.74C136.58 50.4333 136.753 50.1933 137.02 50.02C137.287 49.8333 137.58 49.76 137.9 49.8H138.04C138.347 49.84 138.58 49.9867 138.74 50.24C138.913 50.4933 138.967 50.7667 138.9 51.06C138.767 51.62 138.667 52.0333 138.6 52.3C138.573 52.4067 138.62 52.46 138.74 52.46H140.76C141.067 52.46 141.333 52.5733 141.56 52.8C141.787 53.0267 141.9 53.2933 141.9 53.6C141.9 53.9067 141.787 54.1733 141.56 54.4C141.333 54.6267 141.067 54.74 140.76 54.74H138.12C138 54.74 137.927 54.8 137.9 54.92C137.073 57.8533 136.08 60.78 134.92 63.7C134.8 63.9933 134.593 64.2133 134.3 64.36C134.02 64.4933 133.727 64.5067 133.42 64.4L133.24 64.34ZM154.8 55.24C154.507 55.24 154.253 55.1333 154.04 54.92C153.84 54.7067 153.74 54.4533 153.74 54.16C153.74 53.8667 153.84 53.62 154.04 53.42C154.253 53.2067 154.507 53.1 154.8 53.1H156.34C156.447 53.1 156.5 53.04 156.5 52.92V50.94C156.5 50.6333 156.613 50.3667 156.84 50.14C157.067 49.9133 157.333 49.8 157.64 49.8H157.98C158.287 49.8 158.547 49.9133 158.76 50.14C158.987 50.3667 159.1 50.6333 159.1 50.94V52.92C159.1 53.04 159.16 53.1 159.28 53.1H161.36C161.48 53.1 161.54 53.04 161.54 52.92V50.46C161.54 50.1533 161.653 49.8933 161.88 49.68C162.107 49.4533 162.373 49.34 162.68 49.34H163.46C163.687 49.34 163.88 49.42 164.04 49.58C164.2 49.74 164.28 49.9267 164.28 50.14C164.28 50.22 164.32 50.26 164.4 50.26H169.66C169.913 50.26 170.133 50.3533 170.32 50.54C170.507 50.7267 170.6 50.9533 170.6 51.22C170.6 51.4733 170.507 51.6933 170.32 51.88C170.147 52.0667 169.927 52.16 169.66 52.16H164.44C164.333 52.16 164.28 52.22 164.28 52.34V52.92C164.28 53.04 164.333 53.1 164.44 53.1H170.68C170.973 53.1 171.22 53.2067 171.42 53.42C171.633 53.62 171.74 53.8667 171.74 54.16C171.74 54.4533 171.633 54.7067 171.42 54.92C171.22 55.1333 170.973 55.24 170.68 55.24H154.8ZM155.6 55.9C155.907 55.9 156.173 56.0133 156.4 56.24C156.627 56.4667 156.74 56.7333 156.74 57.04V65.06C156.74 65.18 156.793 65.24 156.9 65.24H168.56C168.68 65.24 168.74 65.18 168.74 65.06V57.04C168.74 56.7333 168.853 56.4667 169.08 56.24C169.307 56.0133 169.573 55.9 169.88 55.9H170.18C170.487 55.9 170.747 56.0133 170.96 56.24C171.187 56.4667 171.3 56.7333 171.3 57.04V66.9C171.3 67.2067 171.187 67.4733 170.96 67.7C170.747 67.9267 170.487 68.04 170.18 68.04H169.4C169.227 68.04 169.073 67.9733 168.94 67.84C168.807 67.7067 168.74 67.5467 168.74 67.36C168.74 67.2933 168.707 67.26 168.64 67.26H156.84C156.773 67.26 156.74 67.2933 156.74 67.36C156.74 67.5467 156.673 67.7067 156.54 67.84C156.407 67.9733 156.253 68.04 156.08 68.04H155.3C154.993 68.04 154.727 67.9267 154.5 67.7C154.287 67.4733 154.18 67.2067 154.18 66.9V57.04C154.18 56.7333 154.287 56.4667 154.5 56.24C154.727 56.0133 154.993 55.9 155.3 55.9H155.6ZM159.04 58.98C159.147 58.98 159.167 58.9333 159.1 58.84C158.98 58.6667 158.793 58.4267 158.54 58.12C158.3 57.8 158.16 57.6133 158.12 57.56C157.947 57.3467 157.88 57.1067 157.92 56.84C157.96 56.56 158.093 56.3467 158.32 56.2C158.56 56.04 158.827 55.98 159.12 56.02C159.427 56.06 159.667 56.1933 159.84 56.42C159.92 56.5133 160.027 56.6533 160.16 56.84C160.307 57.0267 160.393 57.14 160.42 57.18C160.607 57.4333 160.673 57.7133 160.62 58.02C160.567 58.3133 160.407 58.5467 160.14 58.72L159.9 58.88C159.873 58.8933 159.86 58.9133 159.86 58.94C159.873 58.9667 159.893 58.98 159.92 58.98H161.34C161.46 58.98 161.52 58.92 161.52 58.8V56.84C161.52 56.5333 161.627 56.2667 161.84 56.04C162.067 55.8133 162.333 55.7 162.64 55.7H162.84C163.147 55.7 163.407 55.8133 163.62 56.04C163.847 56.2667 163.96 56.5333 163.96 56.84V58.8C163.96 58.92 164.02 58.98 164.14 58.98H165.54C165.567 58.98 165.587 58.9667 165.6 58.94C165.613 58.9133 165.607 58.8933 165.58 58.88L165.34 58.72C165.087 58.5467 164.94 58.3133 164.9 58.02C164.873 57.7133 164.953 57.4467 165.14 57.22C165.167 57.18 165.353 56.9333 165.7 56.48C165.873 56.2533 166.093 56.1133 166.36 56.06C166.64 55.9933 166.9 56.0333 167.14 56.18C167.38 56.34 167.527 56.56 167.58 56.84C167.633 57.12 167.573 57.3733 167.4 57.6C167.147 57.96 166.82 58.3733 166.42 58.84C166.353 58.9333 166.373 58.98 166.48 58.98H167.16C167.413 58.98 167.633 59.0733 167.82 59.26C168.007 59.4333 168.1 59.6533 168.1 59.92C168.1 60.1867 168.007 60.4133 167.82 60.6C167.633 60.7733 167.413 60.86 167.16 60.86H165.74C165.713 60.86 165.693 60.8733 165.68 60.9C165.68 60.9133 165.693 60.9333 165.72 60.96C166.413 61.4667 167.073 62.0067 167.7 62.58C167.927 62.78 168.047 63.0267 168.06 63.32C168.073 63.6133 167.98 63.8733 167.78 64.1C167.593 64.3133 167.353 64.42 167.06 64.42C166.767 64.42 166.52 64.3133 166.32 64.1C165.787 63.54 165.047 62.8133 164.1 61.92C164.073 61.8933 164.04 61.8867 164 61.9C163.973 61.9133 163.96 61.9333 163.96 61.96V63.64C163.96 63.9467 163.847 64.2133 163.62 64.44C163.407 64.6533 163.147 64.76 162.84 64.76H162.64C162.333 64.76 162.067 64.6533 161.84 64.44C161.627 64.2133 161.52 63.9467 161.52 63.64V62.2C161.52 62.1733 161.5 62.1533 161.46 62.14C161.433 62.1267 161.413 62.1333 161.4 62.16C160.733 62.9333 160 63.62 159.2 64.22C158.96 64.3933 158.693 64.46 158.4 64.42C158.107 64.3667 157.867 64.2267 157.68 64C157.507 63.7867 157.44 63.54 157.48 63.26C157.533 62.98 157.673 62.7667 157.9 62.62C158.647 62.1267 159.36 61.58 160.04 60.98C160.067 60.9267 160.047 60.8867 159.98 60.86H158.32C158.067 60.86 157.847 60.7733 157.66 60.6C157.473 60.4133 157.38 60.1867 157.38 59.92C157.38 59.6533 157.473 59.4333 157.66 59.26C157.847 59.0733 158.067 58.98 158.32 58.98H159.04ZM177.08 67.86C176.773 67.86 176.507 67.7467 176.28 67.52C176.053 67.3067 175.94 67.0467 175.94 66.74V51.2C175.94 50.8933 176.053 50.6267 176.28 50.4C176.507 50.1733 176.773 50.06 177.08 50.06H191.94C192.233 50.06 192.48 50.1667 192.68 50.38C192.893 50.5933 193 50.8467 193 51.14C193 51.4333 192.893 51.6867 192.68 51.9C192.48 52.1 192.233 52.2 191.94 52.2H183.88C183.8 52.2 183.773 52.2533 183.8 52.36C183.907 52.6 183.9 52.84 183.78 53.08C183.753 53.1067 183.753 53.14 183.78 53.18C183.807 53.22 183.84 53.24 183.88 53.24H191.1C191.367 53.24 191.593 53.3333 191.78 53.52C191.967 53.7067 192.06 53.9333 192.06 54.2C192.06 54.4667 191.967 54.6933 191.78 54.88C191.593 55.0667 191.367 55.16 191.1 55.16H187.46C187.353 55.16 187.3 55.22 187.3 55.34V57.14C187.3 57.2467 187.353 57.3 187.46 57.3H191.76C192.053 57.3 192.3 57.4 192.5 57.6C192.7 57.8 192.8 58.0467 192.8 58.34C192.8 58.6333 192.7 58.88 192.5 59.08C192.3 59.2667 192.053 59.36 191.76 59.36H187.82C187.7 59.36 187.667 59.4133 187.72 59.52C188.36 60.8267 189.693 61.9267 191.72 62.82C191.987 62.94 192.16 63.14 192.24 63.42C192.333 63.7 192.3 63.96 192.14 64.2C191.953 64.48 191.7 64.6733 191.38 64.78C191.073 64.8733 190.767 64.8533 190.46 64.72C188.66 63.8933 187.24 62.6867 186.2 61.1C186.173 61.0733 186.14 61.06 186.1 61.06C186.06 61.0467 186.027 61.0533 186 61.08C184.827 62.6933 183.273 63.9133 181.34 64.74C181.033 64.86 180.72 64.8667 180.4 64.76C180.08 64.6533 179.827 64.46 179.64 64.18C179.48 63.94 179.44 63.6867 179.52 63.42C179.613 63.14 179.793 62.9467 180.06 62.84C182.247 61.9467 183.667 60.84 184.32 59.52C184.347 59.4933 184.347 59.46 184.32 59.42C184.293 59.38 184.26 59.36 184.22 59.36H180.08C179.787 59.36 179.54 59.2667 179.34 59.08C179.153 58.88 179.06 58.6333 179.06 58.34C179.06 58.0467 179.153 57.8 179.34 57.6C179.54 57.4 179.787 57.3 180.08 57.3H184.58C184.7 57.3 184.76 57.2467 184.76 57.14V55.34C184.76 55.22 184.7 55.16 184.58 55.16H182.76C182.653 55.16 182.567 55.2133 182.5 55.32C182.34 55.5467 182.087 55.8867 181.74 56.34C181.54 56.5933 181.273 56.7467 180.94 56.8C180.62 56.8533 180.313 56.8 180.02 56.64C179.767 56.5067 179.613 56.2933 179.56 56C179.507 55.7067 179.573 55.4467 179.76 55.22C180.427 54.34 180.993 53.4467 181.46 52.54C181.46 52.5267 181.513 52.4533 181.62 52.32C181.673 52.24 181.647 52.2 181.54 52.2H178.64C178.533 52.2 178.48 52.2533 178.48 52.36V64.76C178.48 64.88 178.533 64.94 178.64 64.94H192.14C192.433 64.94 192.68 65.0467 192.88 65.26C193.093 65.46 193.2 65.7067 193.2 66C193.2 66.2933 193.093 66.54 192.88 66.74C192.68 66.9533 192.433 67.06 192.14 67.06H178.58C178.513 67.06 178.48 67.1 178.48 67.18C178.48 67.3667 178.407 67.5267 178.26 67.66C178.127 67.7933 177.967 67.86 177.78 67.86H177.08ZM197.74 57.06C197.447 57.06 197.193 56.96 196.98 56.76C196.78 56.5467 196.68 56.2933 196.68 56C196.68 55.7067 196.78 55.46 196.98 55.26C197.193 55.0467 197.447 54.94 197.74 54.94H203.54C203.647 54.94 203.7 54.88 203.7 54.76V53.3C203.7 53.1933 203.647 53.14 203.54 53.14H199.44C199.147 53.14 198.9 53.04 198.7 52.84C198.5 52.64 198.4 52.3933 198.4 52.1C198.4 51.8067 198.5 51.56 198.7 51.36C198.9 51.16 199.147 51.06 199.44 51.06H203.54C203.647 51.06 203.7 51.0067 203.7 50.9V50.56C203.7 50.2533 203.813 49.9933 204.04 49.78C204.267 49.5533 204.533 49.44 204.84 49.44H205.3C205.607 49.44 205.873 49.5533 206.1 49.78C206.327 49.9933 206.44 50.2533 206.44 50.56V50.9C206.44 51.0067 206.5 51.06 206.62 51.06H209.28C209.587 51.06 209.847 51.1733 210.06 51.4C210.287 51.6267 210.4 51.8933 210.4 52.2V52.32C210.4 52.3467 210.413 52.3667 210.44 52.38C210.48 52.3933 210.513 52.3867 210.54 52.36C210.94 51.96 211.4 51.4533 211.92 50.84C212.12 50.6 212.373 50.46 212.68 50.42C212.987 50.38 213.273 50.4467 213.54 50.62L213.68 50.72C213.933 50.9067 214.08 51.1533 214.12 51.46C214.173 51.7533 214.1 52.02 213.9 52.26C213.287 52.9933 212.433 53.8467 211.34 54.82C211.313 54.8333 211.307 54.86 211.32 54.9C211.347 54.9267 211.373 54.94 211.4 54.94H214.14C214.433 54.94 214.68 55.0467 214.88 55.26C215.093 55.46 215.2 55.7067 215.2 56C215.2 56.2933 215.093 56.5467 214.88 56.76C214.68 56.96 214.433 57.06 214.14 57.06H208.66C208.58 57.06 208.473 57.1 208.34 57.18C208.007 57.4067 207.387 57.8067 206.48 58.38C206.467 58.3933 206.46 58.4133 206.46 58.44C206.46 58.4533 206.473 58.46 206.5 58.46H212.38C212.687 58.46 212.947 58.5733 213.16 58.8C213.387 59.0267 213.5 59.2933 213.5 59.6V66.66C213.5 66.9667 213.387 67.2333 213.16 67.46C212.947 67.6867 212.687 67.8 212.38 67.8H211.48C211.307 67.8 211.153 67.74 211.02 67.62C210.9 67.5 210.84 67.3467 210.84 67.16C210.84 67.0933 210.807 67.06 210.74 67.06H202.94C202.873 67.06 202.84 67.0933 202.84 67.16C202.84 67.3467 202.773 67.5 202.64 67.62C202.52 67.74 202.373 67.8 202.2 67.8H201.3C200.993 67.8 200.727 67.6867 200.5 67.46C200.287 67.2333 200.18 66.9667 200.18 66.66V61.68C200.18 61.5733 200.127 61.5333 200.02 61.56C199.687 61.6933 199.187 61.88 198.52 62.12C198.213 62.2267 197.913 62.2133 197.62 62.08C197.34 61.9467 197.147 61.7333 197.04 61.44L196.98 61.24C196.873 60.9467 196.887 60.6667 197.02 60.4C197.167 60.12 197.387 59.9333 197.68 59.84C199.907 59.1333 202.007 58.24 203.98 57.16C204.007 57.1467 204.02 57.1267 204.02 57.1C204.02 57.0733 204.007 57.06 203.98 57.06H197.74ZM210.84 64.92V63.92C210.84 63.8 210.78 63.74 210.66 63.74H203.02C202.9 63.74 202.84 63.8 202.84 63.92V64.92C202.84 65.0267 202.9 65.08 203.02 65.08H210.66C210.78 65.08 210.84 65.0267 210.84 64.92ZM206.44 53.3V54.76C206.44 54.88 206.5 54.94 206.62 54.94H207.34C207.447 54.94 207.547 54.9067 207.64 54.84C208.307 54.3467 208.96 53.8133 209.6 53.24C209.627 53.2133 209.633 53.1933 209.62 53.18C209.607 53.1533 209.587 53.14 209.56 53.14H206.62C206.5 53.14 206.44 53.1933 206.44 53.3ZM210.66 60.52H203.02C202.9 60.52 202.84 60.5733 202.84 60.68V61.64C202.84 61.76 202.9 61.82 203.02 61.82H210.66C210.78 61.82 210.84 61.76 210.84 61.64V60.68C210.84 60.5733 210.78 60.52 210.66 60.52ZM220.6 54.86C220.293 54.86 220.027 54.7533 219.8 54.54C219.587 54.3133 219.48 54.0467 219.48 53.74C219.48 53.42 219.587 53.1533 219.8 52.94C220.027 52.7133 220.3 52.6 220.62 52.6C222.26 52.6 224.733 52.56 228.04 52.48C228.173 52.48 228.227 52.4267 228.2 52.32C228.16 51.96 228.12 51.58 228.08 51.18C228.053 50.8733 228.14 50.6067 228.34 50.38C228.553 50.1533 228.82 50.0267 229.14 50H229.4C229.707 49.9733 229.98 50.0667 230.22 50.28C230.473 50.4933 230.607 50.7533 230.62 51.06C230.633 51.18 230.647 51.3733 230.66 51.64C230.687 51.9067 230.707 52.1067 230.72 52.24C230.747 52.3467 230.813 52.4 230.92 52.4C232.48 52.3467 233.667 52.3 234.48 52.26C234.787 52.2467 235.053 52.3467 235.28 52.56C235.507 52.7733 235.627 53.0333 235.64 53.34C235.653 53.6467 235.547 53.92 235.32 54.16C235.107 54.3867 234.847 54.5067 234.54 54.52L231.3 54.64C231.193 54.64 231.153 54.7 231.18 54.82C231.513 56.14 232.073 57.48 232.86 58.84C233.007 59.0933 233.04 59.3733 232.96 59.68C232.88 59.9867 232.707 60.2067 232.44 60.34L232.06 60.52C231.447 60.84 230.787 60.8267 230.08 60.48C228.88 59.8933 227.653 59.6 226.4 59.6C225.387 59.6 224.6 59.8067 224.04 60.22C223.48 60.62 223.2 61.1667 223.2 61.86C223.2 62.78 223.613 63.4933 224.44 64C225.267 64.4933 226.5 64.74 228.14 64.74C229.153 64.74 230.4 64.6267 231.88 64.4C232.187 64.3467 232.467 64.4133 232.72 64.6C232.987 64.7733 233.147 65.0133 233.2 65.32V65.36C233.267 65.6667 233.207 65.9467 233.02 66.2C232.847 66.4533 232.607 66.6067 232.3 66.66C230.753 66.8867 229.367 67 228.14 67C225.58 67 223.673 66.52 222.42 65.56C221.167 64.6 220.54 63.3267 220.54 61.74C220.54 60.4067 221.047 59.34 222.06 58.54C223.073 57.74 224.48 57.34 226.28 57.34C227.427 57.34 228.56 57.56 229.68 58H229.72C229.733 57.9867 229.74 57.9733 229.74 57.96C229.287 57.04 228.927 56.02 228.66 54.9C228.633 54.7933 228.553 54.74 228.42 54.74C225.807 54.82 223.2 54.86 220.6 54.86ZM241.78 66.7C241.487 66.5933 241.273 66.3933 241.14 66.1C241.02 65.82 241.013 65.5333 241.12 65.24C243.2 59.9067 245.053 55.2133 246.68 51.16C246.8 50.8667 247.007 50.6533 247.3 50.52C247.593 50.3733 247.893 50.3467 248.2 50.44L248.42 50.5C248.713 50.5933 248.92 50.78 249.04 51.06C249.173 51.3267 249.187 51.6 249.08 51.88C248.413 53.5333 247.627 55.52 246.72 57.84V57.88H246.76C247.467 57.3867 248.133 57.14 248.76 57.14C249.627 57.14 250.313 57.4733 250.82 58.14C251.34 58.7933 251.707 59.9 251.92 61.46C252.08 62.62 252.26 63.4067 252.46 63.82C252.66 64.22 252.92 64.42 253.24 64.42C254.027 64.42 254.78 63.2333 255.5 60.86C255.593 60.5533 255.773 60.3267 256.04 60.18C256.307 60.0333 256.587 60 256.88 60.08L257 60.12C257.307 60.2 257.54 60.38 257.7 60.66C257.86 60.9267 257.893 61.2067 257.8 61.5C257.2 63.4867 256.533 64.88 255.8 65.68C255.067 66.4667 254.187 66.86 253.16 66.86C252.147 66.86 251.353 66.52 250.78 65.84C250.207 65.16 249.787 63.9733 249.52 62.28C249.347 61.2533 249.153 60.5467 248.94 60.16C248.727 59.76 248.467 59.56 248.16 59.56C247.52 59.56 246.84 60.04 246.12 61C245.4 61.96 244.52 63.6667 243.48 66.12C243.36 66.4133 243.153 66.62 242.86 66.74C242.567 66.8733 242.273 66.8867 241.98 66.78L241.78 66.7Z" fill="white"/>
</g>
<ellipse cx="2.54073" cy="32" rx="1.00069" ry="1" fill="white"/>
<ellipse cx="8.946" cy="32" rx="1.00069" ry="1" fill="white"/>
<ellipse cx="15.3513" cy="32" rx="1.00069" ry="1" fill="white"/>
<ellipse cx="21.7565" cy="32" rx="1.00069" ry="1" fill="white"/>
<ellipse cx="28.1618" cy="32" rx="1.00069" ry="1" fill="white"/>
<ellipse cx="34.5681" cy="32" rx="1.00069" ry="1" fill="white"/>
<ellipse cx="40.9733" cy="32" rx="1.00069" ry="1" fill="white"/>
<ellipse cx="47.3786" cy="32" rx="1.00069" ry="1" fill="white"/>
<ellipse cx="53.7839" cy="32" rx="1.00069" ry="1" fill="white"/>
<ellipse cx="60.1892" cy="32" rx="1.00069" ry="1" fill="white"/>
<ellipse cx="66.5944" cy="32" rx="1.00069" ry="1" fill="white"/>
<ellipse cx="72.9997" cy="32" rx="1.00069" ry="1" fill="white"/>
<ellipse cx="79.405" cy="32" rx="1.00069" ry="1" fill="white"/>
<ellipse cx="85.8103" cy="32" rx="1.00069" ry="1" fill="white"/>
<ellipse cx="92.2155" cy="32" rx="1.00069" ry="1" fill="white"/>
<ellipse cx="98.6208" cy="32" rx="1.00069" ry="1" fill="white"/>
<ellipse cx="105.027" cy="32" rx="1.00069" ry="1" fill="white"/>
<ellipse cx="111.432" cy="32" rx="1.00069" ry="1" fill="white"/>
<ellipse cx="117.838" cy="32" rx="1.00069" ry="1" fill="white"/>
<ellipse cx="124.243" cy="32" rx="1.00069" ry="1" fill="white"/>
<ellipse cx="130.648" cy="32" rx="1.00069" ry="1" fill="white"/>
<ellipse cx="137.053" cy="32" rx="1.00069" ry="1" fill="white"/>
<ellipse cx="143.459" cy="32" rx="1.00069" ry="1" fill="white"/>
<ellipse cx="149.864" cy="32" rx="1.00069" ry="1" fill="white"/>
<ellipse cx="156.269" cy="32" rx="1.00069" ry="1" fill="white"/>
<ellipse cx="162.675" cy="32" rx="1.00069" ry="1" fill="white"/>
<ellipse cx="169.08" cy="32" rx="1.00069" ry="1" fill="white"/>
<ellipse cx="175.486" cy="32" rx="1.00069" ry="1" fill="white"/>
<ellipse cx="181.891" cy="32" rx="1.00069" ry="1" fill="white"/>
<ellipse cx="188.297" cy="32" rx="1.00069" ry="1" fill="white"/>
<ellipse cx="194.702" cy="32" rx="1.00069" ry="1" fill="white"/>
<ellipse cx="201.107" cy="32" rx="1.00069" ry="1" fill="white"/>
<ellipse cx="207.512" cy="32" rx="1.00069" ry="1" fill="white"/>
<ellipse cx="213.918" cy="32" rx="1.00069" ry="1" fill="white"/>
<ellipse cx="220.323" cy="32" rx="1.00069" ry="1" fill="white"/>
<ellipse cx="226.728" cy="32" rx="1.00069" ry="1" fill="white"/>
<ellipse cx="233.134" cy="32" rx="1.00069" ry="1" fill="white"/>
<ellipse cx="239.54" cy="32" rx="1.00069" ry="1" fill="white"/>
<g filter="url(#filter1_d_25324_7415)">
<path d="M7.36004 7.14C7.61337 7.32667 7.76004 7.57333 7.80004 7.88C7.85337 8.17333 7.78004 8.44 7.58004 8.68C6.48671 10 5.31337 11.08 4.06004 11.92C3.82004 12.08 3.56004 12.1133 3.28004 12.02C3.01337 11.9133 2.82671 11.72 2.72004 11.44L2.66004 11.28C2.55337 10.9733 2.54671 10.66 2.64004 10.34C2.74671 10.02 2.93337 9.76667 3.20004 9.58C4.08004 8.94 4.92004 8.18 5.72004 7.3C5.93337 7.07333 6.19337 6.94 6.50004 6.9C6.80671 6.86 7.08671 6.93333 7.34004 7.12L7.36004 7.14ZM16.5 9.56C16.1934 9.56 15.9267 9.45333 15.7 9.24C15.4734 9.01333 15.36 8.74667 15.36 8.44C15.36 8.13333 15.4734 7.86667 15.7 7.64C15.9267 7.41333 16.1934 7.3 16.5 7.3H20C20.3067 7.3 20.5734 7.41333 20.8 7.64C21.0267 7.86667 21.14 8.13333 21.14 8.44C21.14 8.74667 21.0267 9.01333 20.8 9.24C20.5734 9.45333 20.3067 9.56 20 9.56H16.5ZM20.26 11.84C20.5667 11.84 20.8334 11.9533 21.06 12.18C21.2867 12.3933 21.4 12.6533 21.4 12.96C21.4 13.2667 21.2867 13.5333 21.06 13.76C20.8334 13.9867 20.5667 14.1 20.26 14.1H20.24C20.12 14.1 20.06 14.1533 20.06 14.26V21.36C20.06 22.16 20.0334 22.7533 19.98 23.14C19.94 23.5267 19.8 23.8467 19.56 24.1C19.3334 24.3533 19.04 24.5067 18.68 24.56C18.3334 24.6133 17.7867 24.64 17.04 24.64C16.9334 24.64 16.5734 24.6267 15.96 24.6C15.64 24.5733 15.3667 24.4467 15.14 24.22C14.9134 23.9933 14.7867 23.72 14.76 23.4C14.7334 23.08 14.8467 22.8067 15.1 22.58C15.14 22.54 15.14 22.52 15.1 22.52C13.1534 22.8667 10.96 23.16 8.52004 23.4C8.21337 23.4267 7.94004 23.34 7.70004 23.14C7.47337 22.9533 7.35337 22.7067 7.34004 22.4C7.31337 22.0933 7.40004 21.82 7.60004 21.58C7.81337 21.34 8.07337 21.2067 8.38004 21.18C9.22004 21.1 9.86004 21.0333 10.3 20.98C10.42 20.9533 10.48 20.8867 10.48 20.78V18.92C10.48 18.8 10.42 18.74 10.3 18.74H8.94004C8.66004 18.74 8.42004 18.6467 8.22004 18.46C8.03337 18.26 7.94004 18.02 7.94004 17.74C7.94004 17.46 8.03337 17.2267 8.22004 17.04C8.42004 16.84 8.66004 16.74 8.94004 16.74H10.3C10.42 16.74 10.48 16.68 10.48 16.56V16.52C10.48 16.2133 10.5867 15.9467 10.8 15.72C11.0267 15.4933 11.2934 15.38 11.6 15.38H11.92C12.2267 15.38 12.4934 15.4933 12.72 15.72C12.9467 15.9467 13.06 16.2133 13.06 16.52V16.56C13.06 16.68 13.1134 16.74 13.22 16.74H14.52C14.8 16.74 15.04 16.84 15.24 17.04C15.44 17.2267 15.54 17.46 15.54 17.74C15.54 18.02 15.44 18.26 15.24 18.46C15.04 18.6467 14.8 18.74 14.52 18.74H13.22C13.1134 18.74 13.06 18.8 13.06 18.92V20.44C13.06 20.56 13.1134 20.6067 13.22 20.58C13.34 20.5667 13.6134 20.5267 14.04 20.46C14.48 20.3933 14.8134 20.34 15.04 20.3C15.3334 20.2467 15.5934 20.3133 15.82 20.5C16.0467 20.6733 16.1734 20.9067 16.2 21.2C16.24 21.64 16.08 21.9933 15.72 22.26C15.7067 22.2867 15.72 22.3133 15.76 22.34H15.82C16.0467 22.3533 16.3067 22.36 16.6 22.36C17.0134 22.36 17.2534 22.32 17.32 22.24C17.4 22.16 17.44 21.8933 17.44 21.44V14.26C17.44 14.1533 17.38 14.1 17.26 14.1H16.24C15.8934 14.1 15.62 13.9867 15.42 13.76C15.3667 13.7067 15.34 13.7133 15.34 13.78V13.84C15.34 14.1333 15.2334 14.3867 15.02 14.6C14.82 14.8133 14.5667 14.92 14.26 14.92H9.04004C8.74671 14.92 8.49337 14.8133 8.28004 14.6C8.06671 14.3867 7.96004 14.1333 7.96004 13.84C7.96004 13.8133 7.94671 13.8 7.92004 13.8C7.90671 13.7867 7.89337 13.7867 7.88004 13.8C7.56004 14.2667 7.14671 14.8133 6.64004 15.44C6.56004 15.52 6.52004 15.6267 6.52004 15.76V23.74C6.52004 24.0467 6.40671 24.3067 6.18004 24.52C5.96671 24.7467 5.70671 24.86 5.40004 24.86H5.04004C4.73337 24.86 4.46671 24.7467 4.24004 24.52C4.01337 24.3067 3.90004 24.0467 3.90004 23.74V18.06C3.90004 18.0333 3.88671 18.0133 3.86004 18C3.84671 17.9867 3.82671 17.9933 3.80004 18.02L3.46004 18.36C3.27337 18.5333 3.06004 18.5867 2.82004 18.52C2.59337 18.44 2.44671 18.2733 2.38004 18.02L2.26004 17.52C2.08671 16.8 2.30004 16.1933 2.90004 15.7C4.08671 14.7267 5.14671 13.5733 6.08004 12.24C6.26671 11.9733 6.51337 11.7933 6.82004 11.7C7.12671 11.6067 7.43337 11.6267 7.74004 11.76L7.80004 11.78C8.01337 11.8733 8.17337 12.02 8.28004 12.22C8.38671 12.42 8.42671 12.6267 8.40004 12.84C8.40004 12.9333 8.44004 12.9533 8.52004 12.9C8.70671 12.8067 8.88004 12.76 9.04004 12.76H10.3C10.42 12.76 10.48 12.7067 10.48 12.6V10.72C10.48 10.6 10.42 10.54 10.3 10.54H9.48004C9.20004 10.54 8.96004 10.4467 8.76004 10.26C8.56004 10.06 8.46004 9.82 8.46004 9.54C8.46004 9.26 8.56004 9.02667 8.76004 8.84C8.96004 8.64 9.20004 8.54 9.48004 8.54H10.3C10.42 8.54 10.48 8.48 10.48 8.36V7.84C10.48 7.53333 10.5867 7.26667 10.8 7.04C11.0267 6.81333 11.2934 6.7 11.6 6.7H11.92C12.2267 6.7 12.4934 6.81333 12.72 7.04C12.9467 7.26667 13.06 7.53333 13.06 7.84V8.36C13.06 8.48 13.1134 8.54 13.22 8.54H14C14.28 8.54 14.5134 8.64 14.7 8.84C14.9 9.02667 15 9.26 15 9.54C15 9.82 14.9 10.06 14.7 10.26C14.5134 10.4467 14.28 10.54 14 10.54H13.22C13.1134 10.54 13.06 10.6 13.06 10.72V12.6C13.06 12.7067 13.1134 12.76 13.22 12.76H14.26C14.5134 12.76 14.76 12.8667 15 13.08C15.0267 13.1067 15.0467 13.1133 15.06 13.1C15.0867 13.0867 15.1 13.0667 15.1 13.04V12.96C15.1 12.6533 15.2134 12.3933 15.44 12.18C15.6667 11.9533 15.9334 11.84 16.24 11.84H20.26ZM31.96 10.74C30.4 11.0733 29.1734 11.7867 28.28 12.88C27.3867 13.96 26.94 15.2867 26.94 16.86C26.94 17.8733 27.1467 18.7733 27.56 19.56C27.9734 20.3467 28.3667 20.74 28.74 20.74C28.9267 20.74 29.12 20.6533 29.32 20.48C29.52 20.2933 29.74 19.9667 29.98 19.5C30.2334 19.02 30.4734 18.4267 30.7 17.72C30.94 17 31.18 16.0533 31.42 14.88C31.6734 13.6933 31.9 12.36 32.1 10.88C32.1134 10.84 32.1 10.8067 32.06 10.78C32.0334 10.74 32 10.7267 31.96 10.74ZM28.74 23.26C27.66 23.26 26.6667 22.64 25.76 21.4C24.8534 20.16 24.4 18.6467 24.4 16.86C24.4 14.2733 25.28 12.1733 27.04 10.56C28.8 8.94667 31.1 8.14 33.94 8.14C36.2334 8.14 38.1267 8.86 39.62 10.3C41.1267 11.74 41.88 13.5733 41.88 15.8C41.88 17.8933 41.3934 19.62 40.42 20.98C39.46 22.3267 38.14 23.1867 36.46 23.56C36.14 23.6267 35.8467 23.5667 35.58 23.38C35.3267 23.1933 35.1667 22.94 35.1 22.62L35.06 22.44C34.9934 22.1467 35.0467 21.8733 35.22 21.62C35.3934 21.3667 35.6267 21.1933 35.92 21.1C38.2 20.3933 39.34 18.6267 39.34 15.8C39.34 14.44 38.9334 13.2933 38.12 12.36C37.32 11.4133 36.2667 10.8333 34.96 10.62C34.84 10.5933 34.7667 10.64 34.74 10.76C34.4734 12.7733 34.1734 14.5267 33.84 16.02C33.5067 17.5 33.1534 18.7 32.78 19.62C32.42 20.5267 32.0134 21.26 31.56 21.82C31.1067 22.3667 30.66 22.7467 30.22 22.96C29.78 23.16 29.2867 23.26 28.74 23.26ZM55.76 15.6L55.74 15.64L55.72 15.68C55.6934 15.7867 55.74 15.84 55.86 15.84H61.12C61.4267 15.84 61.6867 15.9533 61.9 16.18C62.1267 16.3933 62.24 16.6533 62.24 16.96V23.64C62.24 23.9467 62.1267 24.2067 61.9 24.42C61.6867 24.6467 61.4267 24.76 61.12 24.76H60.22C60.0334 24.76 59.88 24.7 59.76 24.58C59.64 24.46 59.58 24.3067 59.58 24.12C59.58 24.0667 59.5467 24.04 59.48 24.04H50.28C50.2134 24.04 50.18 24.0667 50.18 24.12C50.18 24.3067 50.12 24.46 50 24.58C49.88 24.7 49.7267 24.76 49.54 24.76H48.64C48.3334 24.76 48.0667 24.6467 47.84 24.42C47.6267 24.2067 47.52 23.9467 47.52 23.64V16.96C47.52 16.6533 47.6267 16.3933 47.84 16.18C48.0667 15.9533 48.3334 15.84 48.64 15.84H52.7C52.7934 15.84 52.8667 15.78 52.92 15.66C52.9334 15.62 52.9467 15.56 52.96 15.48C52.9867 15.3867 53.0067 15.32 53.02 15.28C53.1134 14.9733 53.2934 14.7267 53.56 14.54C53.8267 14.3533 54.12 14.28 54.44 14.32L54.92 14.38C55.2267 14.42 55.46 14.56 55.62 14.8C55.7934 15.04 55.84 15.3067 55.76 15.6ZM59.58 21.88V21.06C59.58 20.94 59.52 20.88 59.4 20.88H50.36C50.24 20.88 50.18 20.94 50.18 21.06V21.88C50.18 21.9867 50.24 22.04 50.36 22.04H59.4C59.52 22.04 59.58 21.9867 59.58 21.88ZM59.4 17.84H50.36C50.24 17.84 50.18 17.9 50.18 18.02V18.84C50.18 18.96 50.24 19.02 50.36 19.02H59.4C59.52 19.02 59.58 18.96 59.58 18.84V18.02C59.58 17.9 59.52 17.84 59.4 17.84ZM46.58 15.34C46.2867 15.3667 46.02 15.2867 45.78 15.1C45.5534 14.9133 45.4267 14.6667 45.4 14.36C45.3734 14.0667 45.4534 13.8067 45.64 13.58C45.8267 13.3533 46.0667 13.2267 46.36 13.2C46.4534 13.1867 46.6 13.1733 46.8 13.16C47 13.1333 47.1534 13.1133 47.26 13.1C47.3667 13.0733 47.42 13.0067 47.42 12.9V8.16C47.42 7.85333 47.5334 7.59333 47.76 7.38C47.9867 7.15333 48.2534 7.04 48.56 7.04H48.96C49.2667 7.04 49.5334 7.15333 49.76 7.38C49.9867 7.59333 50.1 7.85333 50.1 8.16V8.32C50.1 8.44 50.1534 8.5 50.26 8.5H53.42C53.7134 8.5 53.96 8.60667 54.16 8.82C54.36 9.02 54.46 9.26667 54.46 9.56C54.46 9.85333 54.36 10.1 54.16 10.3C53.96 10.5 53.7134 10.6 53.42 10.6H50.26C50.1534 10.6 50.1 10.66 50.1 10.78V12.54C50.1 12.66 50.1534 12.7067 50.26 12.68C50.9667 12.5733 52.0267 12.3867 53.44 12.12C53.72 12.0533 53.98 12.1067 54.22 12.28C54.46 12.44 54.5934 12.6667 54.62 12.96C54.6467 13.2667 54.5734 13.5467 54.4 13.8C54.2267 14.0533 53.9934 14.2067 53.7 14.26C51.3 14.7533 48.9267 15.1133 46.58 15.34ZM63.78 12.02C63.66 13.2867 63.46 14.08 63.18 14.4C62.9 14.7067 62.2867 14.88 61.34 14.92C60.54 14.9467 59.9267 14.96 59.5 14.96C58.9934 14.96 58.38 14.9467 57.66 14.92C56.6467 14.88 56.0134 14.78 55.76 14.62C55.52 14.46 55.4 14.0867 55.4 13.5V8.16C55.4 7.85333 55.5067 7.59333 55.72 7.38C55.9467 7.15333 56.2134 7.04 56.52 7.04H56.92C57.2267 7.04 57.4934 7.15333 57.72 7.38C57.9467 7.59333 58.06 7.85333 58.06 8.16V8.84C58.06 8.96 58.1134 9.00667 58.22 8.98C59.34 8.67333 60.6 8.24667 62 7.7C62.28 7.58 62.56 7.57333 62.84 7.68C63.1334 7.78667 63.34 7.98 63.46 8.26C63.58 8.52667 63.5867 8.8 63.48 9.08C63.3734 9.36 63.18 9.55333 62.9 9.66C61.2867 10.2867 59.7334 10.7733 58.24 11.12C58.12 11.1467 58.06 11.2133 58.06 11.32V12.4C58.06 12.6 58.08 12.72 58.12 12.76C58.16 12.7867 58.3134 12.8133 58.58 12.84C58.7667 12.8533 59.0934 12.86 59.56 12.86C60.0134 12.86 60.3467 12.8533 60.56 12.84C60.7867 12.8267 60.94 12.8067 61.02 12.78C61.1 12.74 61.1667 12.6467 61.22 12.5C61.2867 12.3533 61.34 12.1067 61.38 11.76C61.4067 11.44 61.5334 11.1867 61.76 11C62 10.8 62.2734 10.72 62.58 10.76L62.74 10.78C63.06 10.82 63.32 10.96 63.52 11.2C63.72 11.44 63.8067 11.7133 63.78 12.02ZM69.4 11.86C69.0934 11.86 68.8267 11.7533 68.6 11.54C68.3867 11.3133 68.28 11.0467 68.28 10.74C68.28 10.42 68.3867 10.1533 68.6 9.94C68.8267 9.71333 69.1 9.6 69.42 9.6C71.06 9.6 73.5334 9.56 76.84 9.48C76.9734 9.48 77.0267 9.42667 77 9.32C76.96 8.96 76.92 8.58 76.88 8.18C76.8534 7.87333 76.94 7.60667 77.14 7.38C77.3534 7.15333 77.62 7.02667 77.94 7H78.2C78.5067 6.97333 78.78 7.06667 79.02 7.28C79.2734 7.49333 79.4067 7.75333 79.42 8.06C79.4334 8.18 79.4467 8.37333 79.46 8.64C79.4867 8.90667 79.5067 9.10667 79.52 9.24C79.5467 9.34667 79.6134 9.4 79.72 9.4C81.28 9.34667 82.4667 9.3 83.28 9.26C83.5867 9.24667 83.8534 9.34667 84.08 9.56C84.3067 9.77333 84.4267 10.0333 84.44 10.34C84.4534 10.6467 84.3467 10.92 84.12 11.16C83.9067 11.3867 83.6467 11.5067 83.34 11.52L80.1 11.64C79.9934 11.64 79.9534 11.7 79.98 11.82C80.3134 13.14 80.8734 14.48 81.66 15.84C81.8067 16.0933 81.84 16.3733 81.76 16.68C81.68 16.9867 81.5067 17.2067 81.24 17.34L80.86 17.52C80.2467 17.84 79.5867 17.8267 78.88 17.48C77.68 16.8933 76.4534 16.6 75.2 16.6C74.1867 16.6 73.4 16.8067 72.84 17.22C72.28 17.62 72 18.1667 72 18.86C72 19.78 72.4134 20.4933 73.24 21C74.0667 21.4933 75.3 21.74 76.94 21.74C77.9534 21.74 79.2 21.6267 80.68 21.4C80.9867 21.3467 81.2667 21.4133 81.52 21.6C81.7867 21.7733 81.9467 22.0133 82 22.32V22.36C82.0667 22.6667 82.0067 22.9467 81.82 23.2C81.6467 23.4533 81.4067 23.6067 81.1 23.66C79.5534 23.8867 78.1667 24 76.94 24C74.38 24 72.4734 23.52 71.22 22.56C69.9667 21.6 69.34 20.3267 69.34 18.74C69.34 17.4067 69.8467 16.34 70.86 15.54C71.8734 14.74 73.28 14.34 75.08 14.34C76.2267 14.34 77.36 14.56 78.48 15H78.52C78.5334 14.9867 78.54 14.9733 78.54 14.96C78.0867 14.04 77.7267 13.02 77.46 11.9C77.4334 11.7933 77.3534 11.74 77.22 11.74C74.6067 11.82 72 11.86 69.4 11.86ZM95.74 21.94C96.62 21.94 97.2267 21.7933 97.56 21.5C97.8934 21.1933 98.0667 20.6267 98.08 19.8C98.08 19.6933 98.0267 19.62 97.92 19.58C97.2 19.3 96.56 19.16 96 19.16C95.2134 19.16 94.6467 19.2667 94.3 19.48C93.9667 19.6933 93.8 20.02 93.8 20.46C93.8 20.9267 93.9667 21.2933 94.3 21.56C94.6467 21.8133 95.1267 21.94 95.74 21.94ZM91.28 11.2C90.9734 11.2 90.7067 11.0867 90.48 10.86C90.2534 10.6333 90.14 10.3667 90.14 10.06C90.14 9.75333 90.2534 9.49333 90.48 9.28C90.7067 9.05333 90.9734 8.94 91.28 8.94H97.9C98.02 8.94 98.08 8.88 98.08 8.76V8.14C98.08 7.83333 98.1867 7.56667 98.4 7.34C98.6267 7.11333 98.8934 7 99.2 7H99.48C99.7867 7 100.047 7.11333 100.26 7.34C100.487 7.56667 100.6 7.83333 100.6 8.14V8.76C100.6 8.88 100.66 8.94 100.78 8.94H104.6C104.907 8.94 105.173 9.05333 105.4 9.28C105.627 9.49333 105.74 9.75333 105.74 10.06C105.74 10.3667 105.627 10.6333 105.4 10.86C105.173 11.0867 104.907 11.2 104.6 11.2H100.78C100.66 11.2 100.6 11.2533 100.6 11.36V12.76C100.6 12.88 100.66 12.94 100.78 12.94H103.9C104.207 12.94 104.467 13.0467 104.68 13.26C104.893 13.4733 105 13.7333 105 14.04C105 14.3467 104.893 14.6133 104.68 14.84C104.467 15.0533 104.207 15.16 103.9 15.16H100.78C100.66 15.16 100.6 15.22 100.6 15.34V18.22C100.6 18.3267 100.647 18.4133 100.74 18.48C101.94 19.1733 103.187 20.08 104.48 21.2C104.72 21.4 104.847 21.66 104.86 21.98C104.873 22.3 104.773 22.5733 104.56 22.8L104.5 22.86C104.287 23.0867 104.02 23.2067 103.7 23.22C103.393 23.2467 103.127 23.1533 102.9 22.94C102.06 22.2067 101.307 21.6 100.64 21.12C100.547 21.0533 100.487 21.0733 100.46 21.18C100.247 22.2467 99.76 23.0133 99 23.48C98.2534 23.96 97.1667 24.2 95.74 24.2C94.3267 24.2 93.2134 23.8667 92.4 23.2C91.6 22.5467 91.2 21.6333 91.2 20.46C91.2 19.4067 91.5667 18.56 92.3 17.92C93.0467 17.2667 94.1934 16.94 95.74 16.94C96.5 16.94 97.2267 17.04 97.92 17.24C98.0267 17.2667 98.08 17.2267 98.08 17.12V15.34C98.08 15.22 98.02 15.16 97.9 15.16H91.98C91.6734 15.16 91.4134 15.0533 91.2 14.84C90.9867 14.6267 90.88 14.3667 90.88 14.06C90.88 13.7533 90.9867 13.4933 91.2 13.28C91.4134 13.0533 91.6734 12.94 91.98 12.94H97.9C98.02 12.94 98.08 12.88 98.08 12.76V11.38C98.08 11.26 98.02 11.2 97.9 11.2H91.28ZM118.36 10.74C116.8 11.0733 115.573 11.7867 114.68 12.88C113.787 13.96 113.34 15.2867 113.34 16.86C113.34 17.8733 113.547 18.7733 113.96 19.56C114.373 20.3467 114.767 20.74 115.14 20.74C115.327 20.74 115.52 20.6533 115.72 20.48C115.92 20.2933 116.14 19.9667 116.38 19.5C116.633 19.02 116.873 18.4267 117.1 17.72C117.34 17 117.58 16.0533 117.82 14.88C118.073 13.6933 118.3 12.36 118.5 10.88C118.513 10.84 118.5 10.8067 118.46 10.78C118.433 10.74 118.4 10.7267 118.36 10.74ZM115.14 23.26C114.06 23.26 113.067 22.64 112.16 21.4C111.253 20.16 110.8 18.6467 110.8 16.86C110.8 14.2733 111.68 12.1733 113.44 10.56C115.2 8.94667 117.5 8.14 120.34 8.14C122.633 8.14 124.527 8.86 126.02 10.3C127.527 11.74 128.28 13.5733 128.28 15.8C128.28 17.8933 127.793 19.62 126.82 20.98C125.86 22.3267 124.54 23.1867 122.86 23.56C122.54 23.6267 122.247 23.5667 121.98 23.38C121.727 23.1933 121.567 22.94 121.5 22.62L121.46 22.44C121.393 22.1467 121.447 21.8733 121.62 21.62C121.793 21.3667 122.027 21.1933 122.32 21.1C124.6 20.3933 125.74 18.6267 125.74 15.8C125.74 14.44 125.333 13.2933 124.52 12.36C123.72 11.4133 122.667 10.8333 121.36 10.62C121.24 10.5933 121.167 10.64 121.14 10.76C120.873 12.7733 120.573 14.5267 120.24 16.02C119.907 17.5 119.553 18.7 119.18 19.62C118.82 20.5267 118.413 21.26 117.96 21.82C117.507 22.3667 117.06 22.7467 116.62 22.96C116.18 23.16 115.687 23.26 115.14 23.26ZM133.16 19.16C132.853 19.16 132.587 19.0533 132.36 18.84C132.147 18.6267 132.04 18.3667 132.04 18.06C132.04 17.7533 132.147 17.4933 132.36 17.28C132.587 17.0533 132.853 16.94 133.16 16.94H139.44C139.547 16.94 139.613 16.8867 139.64 16.78C139.68 16.54 139.713 16.16 139.74 15.64C139.74 15.5333 139.687 15.48 139.58 15.48C138.14 15.5867 136.64 15.6467 135.08 15.66C134.787 15.66 134.527 15.56 134.3 15.36C134.087 15.1467 133.967 14.8867 133.94 14.58C133.913 14.2867 134 14.0333 134.2 13.82C134.4 13.6067 134.647 13.5 134.94 13.5C139.46 13.4333 143.447 13.0133 146.9 12.24C147.207 12.1733 147.5 12.2133 147.78 12.36C148.073 12.5067 148.28 12.7267 148.4 13.02L148.42 13.08C148.527 13.36 148.507 13.6333 148.36 13.9C148.227 14.1667 148.013 14.3333 147.72 14.4C146.053 14.76 144.367 15.0333 142.66 15.22C142.54 15.2467 142.48 15.3 142.48 15.38C142.467 15.74 142.42 16.2067 142.34 16.78C142.327 16.82 142.34 16.86 142.38 16.9C142.42 16.9267 142.46 16.94 142.5 16.94H149.12C149.427 16.94 149.687 17.0533 149.9 17.28C150.127 17.4933 150.24 17.7533 150.24 18.06C150.24 18.3667 150.127 18.6267 149.9 18.84C149.687 19.0533 149.427 19.16 149.12 19.16H143.04C143 19.16 142.967 19.18 142.94 19.22C142.927 19.26 142.933 19.2933 142.96 19.32C143.84 20.6667 145.847 21.6067 148.98 22.14C149.26 22.1933 149.467 22.3467 149.6 22.6C149.747 22.84 149.773 23.0933 149.68 23.36L149.6 23.58C149.48 23.8867 149.273 24.12 148.98 24.28C148.7 24.44 148.4 24.4867 148.08 24.42C146.493 24.0733 145.093 23.5667 143.88 22.9C142.667 22.22 141.727 21.4533 141.06 20.6C140.993 20.5333 140.933 20.54 140.88 20.62C139.56 22.4733 137.34 23.74 134.22 24.42C133.9 24.4867 133.593 24.44 133.3 24.28C133.007 24.12 132.8 23.8867 132.68 23.58L132.6 23.36C132.493 23.0933 132.513 22.8333 132.66 22.58C132.807 22.3267 133.027 22.1733 133.32 22.12C134.747 21.8533 135.893 21.5 136.76 21.06C137.64 20.62 138.313 20.0333 138.78 19.3C138.793 19.2733 138.787 19.2467 138.76 19.22C138.747 19.18 138.72 19.16 138.68 19.16H133.16ZM147.64 10.24C147.533 10.24 147.493 10.2933 147.52 10.4C147.627 10.6933 147.613 10.9733 147.48 11.24C147.347 11.5067 147.133 11.68 146.84 11.76L146.64 11.82C146.333 11.9 146.033 11.8667 145.74 11.72C145.46 11.5733 145.267 11.3533 145.16 11.06C145.133 10.9933 145.087 10.8867 145.02 10.74C144.967 10.5933 144.927 10.4867 144.9 10.42C144.847 10.3 144.767 10.24 144.66 10.24H144.18C144.073 10.24 143.987 10.2867 143.92 10.38C143.64 10.7267 143.273 11.1267 142.82 11.58C142.593 11.8067 142.313 11.9267 141.98 11.94C141.66 11.94 141.373 11.8333 141.12 11.62L140.86 11.42C140.687 11.2867 140.6 11.1067 140.6 10.88C140.6 10.6533 140.68 10.4667 140.84 10.32C140.893 10.2667 140.88 10.24 140.8 10.24H138.78C138.74 10.24 138.707 10.26 138.68 10.3C138.653 10.3267 138.647 10.36 138.66 10.4C138.7 10.4933 138.787 10.72 138.92 11.08C139.027 11.36 139.013 11.6333 138.88 11.9C138.747 12.1667 138.533 12.34 138.24 12.42L138.04 12.48C137.733 12.56 137.433 12.5267 137.14 12.38C136.86 12.2333 136.66 12.0067 136.54 11.7C136.473 11.5267 136.3 11.0933 136.02 10.4C135.98 10.2933 135.907 10.24 135.8 10.24H135.62C135.513 10.24 135.427 10.2867 135.36 10.38C134.92 10.9933 134.507 11.5067 134.12 11.92C133.893 12.1467 133.627 12.26 133.32 12.26C133.013 12.2467 132.74 12.1267 132.5 11.9C132.287 11.6867 132.173 11.4267 132.16 11.12C132.16 10.8 132.267 10.52 132.48 10.28C133.213 9.42667 133.82 8.52 134.3 7.56C134.46 7.26667 134.68 7.04 134.96 6.88C135.253 6.72 135.553 6.66667 135.86 6.72L136.02 6.76C136.3 6.81333 136.513 6.96 136.66 7.2C136.807 7.44 136.827 7.68667 136.72 7.94C136.693 8.03333 136.727 8.08 136.82 8.08H140.28C140.587 8.08 140.847 8.19333 141.06 8.42C141.287 8.64667 141.4 8.91333 141.4 9.22V9.58C141.4 9.60667 141.413 9.62667 141.44 9.64C141.48 9.65333 141.507 9.64667 141.52 9.62C142.133 8.92667 142.64 8.22667 143.04 7.52C143.427 6.86667 143.967 6.6 144.66 6.72L144.8 6.74C145.08 6.79333 145.287 6.94667 145.42 7.2C145.567 7.44 145.58 7.68667 145.46 7.94C145.447 7.96667 145.447 8 145.46 8.04C145.487 8.06667 145.52 8.08 145.56 8.08H149.12C149.427 8.08 149.68 8.18667 149.88 8.4C150.093 8.61333 150.2 8.86667 150.2 9.16C150.2 9.45333 150.093 9.70667 149.88 9.92C149.68 10.1333 149.427 10.24 149.12 10.24H147.64ZM154.58 24.16L154.24 23.84C153.72 23.3467 153.573 22.7267 153.8 21.98C154.053 21.1667 154.227 20.2333 154.32 19.18C154.427 18.1133 154.48 16.62 154.48 14.7V13.46C154.48 13.1533 154.593 12.8933 154.82 12.68C155.047 12.4533 155.313 12.34 155.62 12.34H155.7C155.74 12.34 155.773 12.32 155.8 12.28C155.84 12.24 155.853 12.2 155.84 12.16C155.8 11.9867 155.64 11.3333 155.36 10.2C155.333 10.1067 155.273 10.06 155.18 10.06C154.913 10.06 154.687 9.96667 154.5 9.78C154.313 9.59333 154.22 9.36667 154.22 9.1V9.04C154.22 8.74667 154.313 8.5 154.5 8.3C154.7 8.1 154.947 8 155.24 8H157.24C157.36 8 157.42 7.94 157.42 7.82V7.7C157.42 7.39333 157.527 7.12667 157.74 6.9C157.967 6.67333 158.233 6.56 158.54 6.56H158.92C159.227 6.56 159.487 6.67333 159.7 6.9C159.927 7.12667 160.04 7.39333 160.04 7.7V7.82C160.04 7.94 160.1 8 160.22 8H162.04C162.333 8 162.58 8.1 162.78 8.3C162.793 8.32667 162.813 8.34 162.84 8.34C162.867 8.32667 162.88 8.30667 162.88 8.28V8.26C162.88 7.95333 162.987 7.69333 163.2 7.48C163.413 7.26667 163.673 7.16 163.98 7.16H171.36C171.653 7.16 171.907 7.26667 172.12 7.48C172.333 7.69333 172.44 7.95333 172.44 8.26C172.44 8.56667 172.333 8.82667 172.12 9.04C171.907 9.24 171.653 9.34 171.36 9.34H168.98C168.873 9.34 168.807 9.4 168.78 9.52C168.74 9.69333 168.68 9.94 168.6 10.26C168.573 10.38 168.613 10.44 168.72 10.44H170.84C171.147 10.44 171.413 10.5533 171.64 10.78C171.867 10.9933 171.98 11.2533 171.98 11.56V19.8C171.98 20.1067 171.867 20.3733 171.64 20.6C171.413 20.8267 171.147 20.94 170.84 20.94H166.1H164.82C164.513 20.94 164.247 20.8267 164.02 20.6C163.793 20.3733 163.68 20.1067 163.68 19.8V11.56C163.68 11.2533 163.793 10.9933 164.02 10.78C164.247 10.5533 164.513 10.44 164.82 10.44H165.74C165.86 10.44 165.933 10.38 165.96 10.26C166.04 9.94 166.1 9.69333 166.14 9.52C166.167 9.4 166.127 9.34 166.02 9.34H163.98C163.633 9.34 163.36 9.22667 163.16 9C163.107 8.94667 163.08 8.96 163.08 9.04V9.38C163.08 9.56667 163.013 9.72667 162.88 9.86C162.747 9.99333 162.587 10.06 162.4 10.06C162.333 10.06 162.287 10.0933 162.26 10.16C162.087 10.8933 161.907 11.56 161.72 12.16C161.693 12.28 161.727 12.34 161.82 12.34H162.12C162.413 12.34 162.66 12.44 162.86 12.64C163.06 12.8267 163.16 13.0667 163.16 13.36C163.16 13.6533 163.06 13.9 162.86 14.1C162.66 14.3 162.413 14.4 162.12 14.4H162.04C162.013 14.4 161.993 14.4133 161.98 14.44C161.967 14.4667 161.967 14.4867 161.98 14.5C162.06 14.58 162.113 14.6467 162.14 14.7C162.287 14.9267 162.327 15.1733 162.26 15.44C162.193 15.7067 162.047 15.9067 161.82 16.04C160.967 16.56 159.86 17.0333 158.5 17.46C158.22 17.5533 157.947 17.54 157.68 17.42C157.427 17.2867 157.24 17.08 157.12 16.8C157.013 16.56 157.013 16.32 157.12 16.08C157.24 15.84 157.427 15.68 157.68 15.6C158.827 15.2667 159.8 14.8933 160.6 14.48C160.613 14.4667 160.62 14.4533 160.62 14.44C160.62 14.4133 160.607 14.4 160.58 14.4H157.04C156.92 14.4 156.86 14.4533 156.86 14.56V16.3C156.86 17.5933 156.827 18.62 156.76 19.38C156.773 19.4067 156.793 19.42 156.82 19.42C156.953 19.2333 157.127 19.1133 157.34 19.06C158.807 18.6467 160.08 18.12 161.16 17.48C161.387 17.3467 161.627 17.3133 161.88 17.38C162.147 17.4333 162.347 17.5733 162.48 17.8C162.627 18.04 162.667 18.3 162.6 18.58C162.533 18.8467 162.387 19.0533 162.16 19.2C160.973 19.96 159.64 20.5733 158.16 21.04C157.88 21.1333 157.607 21.1133 157.34 20.98C157.073 20.8467 156.873 20.6467 156.74 20.38C156.727 20.3667 156.707 20.36 156.68 20.36C156.667 20.36 156.66 20.3667 156.66 20.38C156.513 21.6467 156.24 22.82 155.84 23.9C155.747 24.1533 155.56 24.3067 155.28 24.36C155.013 24.4133 154.78 24.3467 154.58 24.16ZM169.46 18.78V18.02C169.46 17.9 169.407 17.84 169.3 17.84H166.26C166.153 17.84 166.1 17.9 166.1 18.02V18.78C166.1 18.9 166.153 18.96 166.26 18.96H169.3C169.407 18.96 169.46 18.9 169.46 18.78ZM169.46 16.02V15.28C169.46 15.1733 169.407 15.12 169.3 15.12H166.26C166.153 15.12 166.1 15.1733 166.1 15.28V16.02C166.1 16.1267 166.153 16.18 166.26 16.18H169.3C169.407 16.18 169.46 16.1267 169.46 16.02ZM166.26 12.42C166.153 12.42 166.1 12.4733 166.1 12.58V13.28C166.1 13.4 166.153 13.46 166.26 13.46H169.3C169.407 13.46 169.46 13.4 169.46 13.28V12.58C169.46 12.4733 169.407 12.42 169.3 12.42H166.26ZM157.88 10.06C157.84 10.06 157.8 10.08 157.76 10.12C157.733 10.16 157.727 10.2 157.74 10.24C157.953 11.0933 158.107 11.7333 158.2 12.16C158.227 12.28 158.293 12.34 158.4 12.34H159.2C159.307 12.34 159.38 12.2867 159.42 12.18C159.66 11.42 159.847 10.7667 159.98 10.22C160.007 10.1133 159.96 10.06 159.84 10.06H157.88ZM164.38 24.48C164.087 24.6267 163.787 24.6467 163.48 24.54C163.173 24.4333 162.94 24.24 162.78 23.96C162.633 23.6933 162.607 23.42 162.7 23.14C162.793 22.86 162.973 22.6467 163.24 22.5C163.947 22.1533 164.593 21.7667 165.18 21.34C165.42 21.1667 165.693 21.1 166 21.14C166.307 21.18 166.547 21.32 166.72 21.56C166.907 21.8133 166.98 22.1 166.94 22.42C166.913 22.7267 166.773 22.9733 166.52 23.16C165.893 23.64 165.18 24.08 164.38 24.48ZM171.92 22.5C172.173 22.6733 172.327 22.9133 172.38 23.22C172.447 23.54 172.393 23.8333 172.22 24.1C172.06 24.3533 171.833 24.5133 171.54 24.58C171.247 24.6467 170.98 24.5933 170.74 24.42C169.953 23.8867 169.247 23.4467 168.62 23.1C168.353 22.9533 168.18 22.7467 168.1 22.48C168.033 22.2 168.073 21.9267 168.22 21.66C168.38 21.3933 168.607 21.2133 168.9 21.12C169.193 21.0267 169.48 21.0533 169.76 21.2C170.573 21.6133 171.293 22.0467 171.92 22.5ZM162.98 20.96C163.127 21.1867 163.18 21.44 163.14 21.72C163.1 22 162.973 22.22 162.76 22.38C161.413 23.3533 159.76 24.1333 157.8 24.72C157.507 24.8133 157.22 24.7867 156.94 24.64C156.66 24.4933 156.46 24.28 156.34 24C156.233 23.7333 156.24 23.4733 156.36 23.22C156.493 22.9667 156.7 22.8 156.98 22.72C158.753 22.2133 160.3 21.54 161.62 20.7C161.847 20.5533 162.093 20.5067 162.36 20.56C162.627 20.6133 162.833 20.7467 162.98 20.96ZM177.08 11.06C176.787 11.06 176.533 10.96 176.32 10.76C176.107 10.5467 176 10.2933 176 10C176 9.70667 176.107 9.46 176.32 9.26C176.533 9.04667 176.787 8.94 177.08 8.94H180.14C180.233 8.94 180.307 8.88 180.36 8.76L180.72 7.8C180.827 7.49333 181.02 7.26 181.3 7.1C181.58 6.92667 181.88 6.86667 182.2 6.92L182.54 7C182.833 7.06667 183.053 7.22667 183.2 7.48C183.347 7.72 183.373 7.98 183.28 8.26C183.253 8.32667 183.213 8.42 183.16 8.54C183.12 8.64667 183.093 8.72 183.08 8.76C183.053 8.88 183.093 8.94 183.2 8.94H190.28C190.573 8.94 190.82 9.04667 191.02 9.26C191.233 9.46 191.34 9.70667 191.34 10C191.34 10.2933 191.233 10.5467 191.02 10.76C190.82 10.96 190.573 11.06 190.28 11.06H182.32C182.2 11.06 182.12 11.1133 182.08 11.22C181.893 11.66 181.667 12.16 181.4 12.72C181.4 12.7467 181.407 12.76 181.42 12.76H181.44C182.147 12.48 182.827 12.34 183.48 12.34C185.187 12.34 186.367 13.0867 187.02 14.58C187.06 14.6867 187.147 14.7267 187.28 14.7C188.347 14.4867 189.333 14.32 190.24 14.2C190.533 14.16 190.8 14.2333 191.04 14.42C191.28 14.6067 191.413 14.8533 191.44 15.16C191.467 15.4667 191.387 15.74 191.2 15.98C191.013 16.22 190.767 16.36 190.46 16.4C189.3 16.5733 188.407 16.7267 187.78 16.86C187.66 16.8867 187.613 16.9533 187.64 17.06C187.72 17.7667 187.767 18.3667 187.78 18.86C187.793 19.1667 187.687 19.4333 187.46 19.66C187.247 19.8867 186.987 20 186.68 20H186.28C185.973 20 185.707 19.8933 185.48 19.68C185.253 19.4533 185.133 19.1867 185.12 18.88C185.107 18.52 185.087 18.1533 185.06 17.78C185.06 17.66 185.007 17.6133 184.9 17.64C182.753 18.3867 181.68 19.1933 181.68 20.06C181.68 20.4333 181.78 20.74 181.98 20.98C182.18 21.2067 182.613 21.4 183.28 21.56C183.947 21.72 184.88 21.8 186.08 21.8C187.093 21.8 188.38 21.7 189.94 21.5C190.247 21.46 190.52 21.54 190.76 21.74C191.013 21.9267 191.153 22.1733 191.18 22.48C191.207 22.8 191.12 23.08 190.92 23.32C190.733 23.5733 190.48 23.72 190.16 23.76C188.813 23.92 187.453 24 186.08 24C183.573 24 181.767 23.7 180.66 23.1C179.553 22.5133 179 21.5933 179 20.34C179 18.2867 180.8 16.66 184.4 15.46C184.52 15.4333 184.553 15.3667 184.5 15.26C184.193 14.7 183.653 14.42 182.88 14.42C181.627 14.42 180.18 15.4733 178.54 17.58C178.34 17.8333 178.08 17.9933 177.76 18.06C177.44 18.1133 177.147 18.06 176.88 17.9L176.72 17.8C176.467 17.64 176.307 17.4133 176.24 17.12C176.173 16.8267 176.227 16.5533 176.4 16.3C177.6 14.5533 178.58 12.8667 179.34 11.24C179.353 11.2 179.347 11.16 179.32 11.12C179.307 11.08 179.28 11.06 179.24 11.06H177.08ZM213.08 12.8C212.773 12.8 212.507 12.6867 212.28 12.46C212.053 12.2333 211.94 11.9667 211.94 11.66V10.74C211.94 10.62 211.887 10.56 211.78 10.56H200.12C200 10.56 199.94 10.62 199.94 10.74V11.66C199.94 11.9667 199.827 12.2333 199.6 12.46C199.373 12.6867 199.107 12.8 198.8 12.8H198.54C198.233 12.8 197.967 12.6867 197.74 12.46C197.513 12.2333 197.4 11.9667 197.4 11.66V9.5C197.4 9.19333 197.513 8.92667 197.74 8.7C197.967 8.47333 198.233 8.36 198.54 8.36H204.4C204.52 8.36 204.58 8.30667 204.58 8.2V7.54C204.58 7.23333 204.687 6.96667 204.9 6.74C205.127 6.51333 205.393 6.4 205.7 6.4H206.18C206.487 6.4 206.747 6.51333 206.96 6.74C207.187 6.96667 207.3 7.23333 207.3 7.54V8.2C207.3 8.30667 207.36 8.36 207.48 8.36H213.34C213.647 8.36 213.913 8.47333 214.14 8.7C214.367 8.92667 214.48 9.19333 214.48 9.5V11.66C214.48 11.9667 214.367 12.2333 214.14 12.46C213.913 12.6867 213.647 12.8 213.34 12.8H213.08ZM197.88 16.06C197.573 16.06 197.307 15.9533 197.08 15.74C196.853 15.5133 196.74 15.2467 196.74 14.94C196.74 14.6333 196.853 14.3667 197.08 14.14C197.307 13.9133 197.573 13.8 197.88 13.8H207.84C207.947 13.8 208 13.74 208 13.62V12.46C208 12.1533 208.113 11.8933 208.34 11.68C208.567 11.4533 208.833 11.34 209.14 11.34H209.6C209.907 11.34 210.173 11.4533 210.4 11.68C210.627 11.8933 210.74 12.1533 210.74 12.46V13.62C210.74 13.74 210.8 13.8 210.92 13.8H214C214.307 13.8 214.573 13.9133 214.8 14.14C215.027 14.3667 215.14 14.6333 215.14 14.94C215.14 15.2467 215.027 15.5133 214.8 15.74C214.573 15.9533 214.307 16.06 214 16.06H210.92C210.8 16.06 210.74 16.12 210.74 16.24V21.5C210.74 22.0467 210.727 22.48 210.7 22.8C210.687 23.1067 210.633 23.3933 210.54 23.66C210.447 23.94 210.333 24.14 210.2 24.26C210.08 24.38 209.873 24.48 209.58 24.56C209.287 24.6533 208.973 24.7067 208.64 24.72C208.32 24.7467 207.867 24.76 207.28 24.76C206.747 24.76 205.94 24.74 204.86 24.7C204.54 24.6867 204.267 24.5667 204.04 24.34C203.827 24.1267 203.707 23.86 203.68 23.54C203.653 23.2333 203.747 22.9733 203.96 22.76C204.187 22.5333 204.447 22.4267 204.74 22.44C205.7 22.48 206.387 22.5 206.8 22.5C207.387 22.5 207.733 22.46 207.84 22.38C207.947 22.2867 208 22.0133 208 21.56V16.24C208 16.12 207.947 16.06 207.84 16.06H197.88ZM203.44 21.52C203.187 21.7067 202.907 21.7867 202.6 21.76C202.293 21.72 202.04 21.58 201.84 21.34C201.16 20.5133 200.467 19.7 199.76 18.9C199.56 18.6867 199.467 18.4267 199.48 18.12C199.493 17.8133 199.62 17.5667 199.86 17.38L200.06 17.22C200.313 17.02 200.6 16.9333 200.92 16.96C201.253 16.9733 201.527 17.1 201.74 17.34C202.433 18.1 203.133 18.9133 203.84 19.78C204.04 20.02 204.12 20.3 204.08 20.62C204.04 20.9267 203.893 21.1733 203.64 21.36L203.44 21.52ZM228.08 21.84C228.267 21.3867 228.36 21.02 228.36 20.74C228.36 20.3267 228.2 20.0133 227.88 19.8C227.56 19.5733 226.987 19.46 226.16 19.46C225.493 19.46 224.98 19.5733 224.62 19.8C224.273 20.0133 224.1 20.28 224.1 20.6C224.1 21.5333 225.233 22 227.5 22H227.86C227.953 22 228.027 21.9467 228.08 21.84ZM221.44 17.28C221.173 17.4 220.907 17.4133 220.64 17.32C220.387 17.2267 220.193 17.0533 220.06 16.8C219.927 16.5467 219.9 16.28 219.98 16C220.06 15.7067 220.227 15.4867 220.48 15.34L228.92 10.24L228.94 10.22L228.92 10.2H222.06C221.767 10.2 221.507 10.0933 221.28 9.88C221.067 9.66667 220.96 9.40667 220.96 9.1C220.96 8.79333 221.067 8.53333 221.28 8.32C221.507 8.10667 221.767 8 222.06 8H232.56C232.867 8 233.133 8.11333 233.36 8.34C233.6 8.55333 233.72 8.81333 233.72 9.12C233.747 9.85333 233.42 10.4133 232.74 10.8L227.16 13.9V13.92H227.2C228.08 13.7467 228.887 13.66 229.62 13.66C231.527 13.66 232.967 14.0533 233.94 14.84C234.927 15.6267 235.42 16.7467 235.42 18.2C235.42 20.0933 234.733 21.56 233.36 22.6C231.987 23.6267 230.033 24.14 227.5 24.14C225.513 24.14 224.027 23.8333 223.04 23.22C222.053 22.62 221.56 21.7467 221.56 20.6C221.56 19.72 221.98 18.98 222.82 18.38C223.66 17.7667 224.82 17.46 226.3 17.46C227.82 17.46 228.92 17.7133 229.6 18.22C230.28 18.7267 230.62 19.4733 230.62 20.46C230.62 20.7 230.587 21 230.52 21.36C230.507 21.4 230.513 21.4333 230.54 21.46C230.58 21.4733 230.613 21.4733 230.64 21.46C231.96 20.8867 232.62 19.88 232.62 18.44C232.62 17.52 232.293 16.8267 231.64 16.36C231 15.8933 229.973 15.66 228.56 15.66C226.173 15.66 223.8 16.2 221.44 17.28Z" fill="white"/>
</g>
<defs>
<filter id="filter0_d_25324_7415" x="1.7998" y="49.3401" width="266.141" height="30.7" filterUnits="userSpaceOnUse" color-interpolation-filters="sRGB">
<feFlood flood-opacity="0" result="BackgroundImageFix"/>
<feColorMatrix in="SourceAlpha" type="matrix" values="0 0 0 0 0 0 0 0 0 0 0 0 0 0 0 0 0 0 127 0" result="hardAlpha"/>
<feOffset dx="4" dy="6"/>
<feGaussianBlur stdDeviation="3"/>
<feComposite in2="hardAlpha" operator="out"/>
<feColorMatrix type="matrix" values="0 0 0 0 0 0 0 0 0 0 0 0 0 0 0 0 0 0 0.203922 0"/>
<feBlend mode="normal" in2="BackgroundImageFix" result="effect1_dropShadow_25324_7415"/>
<feBlend mode="normal" in="SourceGraphic" in2="effect1_dropShadow_25324_7415" result="shape"/>
</filter>
<filter id="filter1_d_25324_7415" x="0" y="6.3999" width="245.42" height="30.4602" filterUnits="userSpaceOnUse" color-interpolation-filters="sRGB">
<feFlood flood-opacity="0" result="BackgroundImageFix"/>
<feColorMatrix in="SourceAlpha" type="matrix" values="0 0 0 0 0 0 0 0 0 0 0 0 0 0 0 0 0 0 127 0" result="hardAlpha"/>
<feOffset dx="4" dy="6"/>
<feGaussianBlur stdDeviation="3"/>
<feComposite in2="hardAlpha" operator="out"/>
<feColorMatrix type="matrix" values="0 0 0 0 0 0 0 0 0 0 0 0 0 0 0 0 0 0 0.203922 0"/>
<feBlend mode="normal" in2="BackgroundImageFix" result="effect1_dropShadow_25324_7415"/>
<feBlend mode="normal" in="SourceGraphic" in2="effect1_dropShadow_25324_7415" result="shape"/>
</filter>
</defs>
</svg>
