<svg width="556" height="308" viewBox="0 0 556 308" fill="none" xmlns="http://www.w3.org/2000/svg">
<path d="M368.195 280.88C-9.64383 385.538 -28.5523 158.553 22.213 86.3737C72.9783 14.1949 186.288 42.855 239.702 53.2253C293.115 63.5955 368.195 34.3773 368.195 34.3773C368.195 34.3773 433.601 0.200648 475.84 5.1582C518.08 10.1153 549.684 33.1439 555.415 79.0752C562.19 133.382 510.795 241.76 368.195 280.88Z" fill="#DFF1FD"/>
<path d="M11.1552 51.9066C11.7767 53.9967 14.0359 56.1933 16.1775 56.7999L17.622 57.2097C19.7636 57.808 19.7636 58.7998 17.622 59.3981L16.1775 59.808C14.0359 60.4144 11.7767 62.6111 11.1552 64.7012L10.7353 66.1192C10.1222 68.2092 9.10598 68.2092 8.49292 66.1192L8.073 64.7012C7.45989 62.6111 5.20072 60.4144 3.05916 59.808L1.60621 59.3981C-0.535402 58.7998 -0.535402 57.808 1.60621 57.2097L3.05916 56.7999C5.20072 56.1933 7.45989 53.9967 8.073 51.9066L8.49292 50.4887C9.10598 48.3985 10.1222 48.3985 10.7353 50.4887L11.1552 51.9066Z" fill="#DFF1FD"/>
<path d="M36.896 15.9157C38.1642 20.2269 42.7666 24.7787 47.1337 26.0223L50.0984 26.8596C54.4656 28.1116 54.4656 30.1512 50.0984 31.3948L47.1337 32.2322C42.7666 33.4758 38.1642 38.0275 36.896 42.3387L36.0478 45.2572C34.788 49.5767 32.722 49.5767 31.4622 45.2572L30.6056 42.3387C29.3459 38.0275 24.7351 33.4758 20.3679 32.2322L17.4117 31.3948C13.0444 30.1512 13.0444 28.1116 17.4117 26.8596L20.3679 26.0223C24.7351 24.7787 29.3459 20.2269 30.6056 15.9157L31.4622 12.9973C32.722 8.67768 34.788 8.67768 36.0478 12.9973L36.896 15.9157Z" fill="#DFF1FD"/>
<path d="M294.175 41.7305C292.303 41.7305 290.591 40.4934 290.083 38.6172C289.477 36.3769 290.819 34.074 293.08 33.473C299.819 31.6833 303.831 24.7965 302.024 18.1208C301.149 14.8874 299.055 12.1847 296.128 10.5113C293.202 8.83788 289.792 8.3936 286.527 9.26076C279.788 11.0505 275.776 17.9373 277.583 24.6125C278.189 26.8529 276.847 29.1562 274.586 29.7567C272.325 30.3568 269.999 29.0281 269.393 26.7878C267.931 21.3871 268.68 15.7457 271.501 10.9031C274.323 6.06005 278.879 2.59563 284.331 1.14772C289.783 -0.301047 295.478 0.441391 300.366 3.23644C305.255 6.03107 308.753 10.5449 310.214 15.9456C313.232 27.0947 306.53 38.597 295.276 41.5861C294.908 41.6839 294.539 41.7305 294.175 41.7305Z" fill="#DFF1FD"/>
</svg>
