<svg width="375" height="82" viewBox="0 0 375 82" fill="none" xmlns="http://www.w3.org/2000/svg">
<path d="M187.5 81.9998C274.984 81.9998 349.165 70.2576 375 53.9998H0C25.8349 70.2576 100.016 81.9998 187.5 81.9998Z" fill="#DFF1FD"/>
<path d="M324.992 42.1814C325.639 44.409 327.989 46.7501 330.216 47.3965L331.719 47.8334C333.946 48.4711 333.946 49.5281 331.719 50.1657L330.216 50.6026C327.989 51.2489 325.639 53.59 324.992 55.8176L324.556 57.3289C323.918 59.5564 322.861 59.5564 322.223 57.3289L321.786 55.8176C321.149 53.59 318.799 51.2489 316.571 50.6026L315.06 50.1657C312.833 49.5281 312.833 48.4711 315.06 47.8334L316.571 47.3965C318.799 46.7501 321.149 44.409 321.786 42.1814L322.223 40.6702C322.861 38.4426 323.918 38.4426 324.556 40.6702L324.992 42.1814Z" fill="white"/>
<path d="M350.75 6.35849C352.043 10.81 356.734 15.5099 361.185 16.794L364.207 17.6586C368.659 18.9513 368.659 21.0573 364.207 22.3414L361.185 23.2061C356.734 24.4901 352.043 29.19 350.75 33.6415L349.885 36.6549C348.601 41.115 346.495 41.115 345.211 36.6549L344.338 33.6415C343.054 29.19 338.354 24.4901 333.902 23.2061L330.889 22.3414C326.437 21.0573 326.437 18.9513 330.889 17.6586L333.902 16.794C338.354 15.5099 343.054 10.81 344.338 6.35849L345.211 3.34513C346.495 -1.11504 348.601 -1.11504 349.885 3.34513L350.75 6.35849Z" fill="white"/>
<path d="M22.0788 20.974C21.3031 23.7563 18.488 26.6937 15.8168 27.4963L14.0034 28.0366C11.3322 28.8445 11.3322 30.1608 14.0034 30.9634L15.8168 31.5038C18.488 32.3063 21.3031 35.2438 22.0788 38.0259L22.5976 39.9093C23.3682 42.6969 24.6319 42.6969 25.4024 39.9093L25.9264 38.0259C26.6969 35.2438 29.5171 32.3063 32.1883 31.5038L33.9966 30.9634C36.6678 30.1608 36.6678 28.8445 33.9966 28.0366L32.1883 27.4963C29.5171 26.6937 26.6969 23.7563 25.9264 20.974L25.4024 19.0907C24.6319 16.3031 23.3682 16.3031 22.5976 19.0907L22.0788 20.974Z" fill="white"/>
</svg>
